<svg xmlns="http://www.w3.org/2000/svg" width="1000" height="951" viewBox="0 0 1000 951">
<rect width="100%" height="100%" fill="white"/>
<text x="500.0" y="45" text-anchor="middle" font-size="28" font-family="sans-serif">TSH-03 - 答案</text>
<path d="M 322.00 202.08 A 89.00 89.00 0 0 1 277.50 279.15" fill="none" stroke="#b8bec7" stroke-width="2"/>
<path d="M 277.50 279.15 A 89.00 89.00 0 0 1 188.50 279.15" fill="none" stroke="#b8bec7" stroke-width="2"/>
<path d="M 188.50 279.15 A 89.00 89.00 0 0 1 144.00 202.08" fill="none" stroke="#b8bec7" stroke-width="2"/>
<path d="M 144.00 202.08 A 89.00 89.00 0 0 1 188.50 125.00" fill="none" stroke="#b8bec7" stroke-width="2"/>
<path d="M 188.50 125.00 A 89.00 89.00 0 0 1 277.50 125.00" fill="none" stroke="#b8bec7" stroke-width="2"/>
<path d="M 277.50 125.00 A 89.00 89.00 0 0 1 322.00 202.08" fill="none" stroke="#b8bec7" stroke-width="2"/>
<path d="M 500.00 202.08 A 89.00 89.00 0 0 1 455.50 279.15" fill="none" stroke="#b8bec7" stroke-width="2"/>
<path d="M 455.50 279.15 A 89.00 89.00 0 0 1 366.50 279.15" fill="none" stroke="#b8bec7" stroke-width="2"/>
<path d="M 366.50 279.15 A 89.00 89.00 0 0 1 322.00 202.08" fill="none" stroke="#b8bec7" stroke-width="2"/>
<path d="M 322.00 202.08 A 89.00 89.00 0 0 1 366.50 125.00" fill="none" stroke="#b8bec7" stroke-width="2"/>
<path d="M 366.50 125.00 A 89.00 89.00 0 0 1 455.50 125.00" fill="none" stroke="#b8bec7" stroke-width="2"/>
<path d="M 455.50 125.00 A 89.00 89.00 0 0 1 500.00 202.08" fill="none" stroke="#b8bec7" stroke-width="2"/>
<path d="M 678.00 202.08 A 89.00 89.00 0 0 1 633.50 279.15" fill="none" stroke="#b8bec7" stroke-width="2"/>
<path d="M 633.50 279.15 A 89.00 89.00 0 0 1 544.50 279.15" fill="none" stroke="#b8bec7" stroke-width="2"/>
<path d="M 544.50 279.15 A 89.00 89.00 0 0 1 500.00 202.08" fill="none" stroke="#b8bec7" stroke-width="2"/>
<path d="M 500.00 202.08 A 89.00 89.00 0 0 1 544.50 125.00" fill="none" stroke="#b8bec7" stroke-width="2"/>
<path d="M 544.50 125.00 A 89.00 89.00 0 0 1 633.50 125.00" fill="none" stroke="#b8bec7" stroke-width="2"/>
<path d="M 633.50 125.00 A 89.00 89.00 0 0 1 678.00 202.08" fill="none" stroke="#b8bec7" stroke-width="2"/>
<path d="M 856.00 202.08 A 89.00 89.00 0 0 1 811.50 279.15" fill="none" stroke="#b8bec7" stroke-width="2"/>
<path d="M 811.50 279.15 A 89.00 89.00 0 0 1 722.50 279.15" fill="none" stroke="#b8bec7" stroke-width="2"/>
<path d="M 722.50 279.15 A 89.00 89.00 0 0 1 678.00 202.08" fill="none" stroke="#b8bec7" stroke-width="2"/>
<path d="M 678.00 202.08 A 89.00 89.00 0 0 1 722.50 125.00" fill="none" stroke="#b8bec7" stroke-width="2"/>
<path d="M 722.50 125.00 A 89.00 89.00 0 0 1 811.50 125.00" fill="none" stroke="#b8bec7" stroke-width="2"/>
<path d="M 811.50 125.00 A 89.00 89.00 0 0 1 856.00 202.08" fill="none" stroke="#b8bec7" stroke-width="2"/>
<path d="M 233.00 356.23 A 89.00 89.00 0 0 1 188.50 433.31" fill="none" stroke="#b8bec7" stroke-width="2"/>
<path d="M 188.50 433.31 A 89.00 89.00 0 0 1 99.50 433.31" fill="none" stroke="#b8bec7" stroke-width="2"/>
<path d="M 99.50 433.31 A 89.00 89.00 0 0 1 55.00 356.23" fill="none" stroke="#b8bec7" stroke-width="2"/>
<path d="M 55.00 356.23 A 89.00 89.00 0 0 1 99.50 279.15" fill="none" stroke="#b8bec7" stroke-width="2"/>
<path d="M 99.50 279.15 A 89.00 89.00 0 0 1 188.50 279.15" fill="none" stroke="#b8bec7" stroke-width="2"/>
<path d="M 188.50 279.15 A 89.00 89.00 0 0 1 233.00 356.23" fill="none" stroke="#b8bec7" stroke-width="2"/>
<path d="M 411.00 356.23 A 89.00 89.00 0 0 1 366.50 433.31" fill="none" stroke="#b8bec7" stroke-width="2"/>
<path d="M 366.50 433.31 A 89.00 89.00 0 0 1 277.50 433.31" fill="none" stroke="#b8bec7" stroke-width="2"/>
<path d="M 277.50 433.31 A 89.00 89.00 0 0 1 233.00 356.23" fill="none" stroke="#b8bec7" stroke-width="2"/>
<path d="M 233.00 356.23 A 89.00 89.00 0 0 1 277.50 279.15" fill="none" stroke="#b8bec7" stroke-width="2"/>
<path d="M 277.50 279.15 A 89.00 89.00 0 0 1 366.50 279.15" fill="none" stroke="#b8bec7" stroke-width="2"/>
<path d="M 366.50 279.15 A 89.00 89.00 0 0 1 411.00 356.23" fill="none" stroke="#b8bec7" stroke-width="2"/>
<path d="M 589.00 356.23 A 89.00 89.00 0 0 1 544.50 433.31" fill="none" stroke="#b8bec7" stroke-width="2"/>
<path d="M 544.50 433.31 A 89.00 89.00 0 0 1 455.50 433.31" fill="none" stroke="#b8bec7" stroke-width="2"/>
<path d="M 455.50 433.31 A 89.00 89.00 0 0 1 411.00 356.23" fill="none" stroke="#b8bec7" stroke-width="2"/>
<path d="M 411.00 356.23 A 89.00 89.00 0 0 1 455.50 279.15" fill="none" stroke="#b8bec7" stroke-width="2"/>
<path d="M 455.50 279.15 A 89.00 89.00 0 0 1 544.50 279.15" fill="none" stroke="#b8bec7" stroke-width="2"/>
<path d="M 544.50 279.15 A 89.00 89.00 0 0 1 589.00 356.23" fill="none" stroke="#b8bec7" stroke-width="2"/>
<path d="M 767.00 356.23 A 89.00 89.00 0 0 1 722.50 433.31" fill="none" stroke="#b8bec7" stroke-width="2"/>
<path d="M 722.50 433.31 A 89.00 89.00 0 0 1 633.50 433.31" fill="none" stroke="#b8bec7" stroke-width="2"/>
<path d="M 633.50 433.31 A 89.00 89.00 0 0 1 589.00 356.23" fill="none" stroke="#b8bec7" stroke-width="2"/>
<path d="M 589.00 356.23 A 89.00 89.00 0 0 1 633.50 279.15" fill="none" stroke="#b8bec7" stroke-width="2"/>
<path d="M 633.50 279.15 A 89.00 89.00 0 0 1 722.50 279.15" fill="none" stroke="#b8bec7" stroke-width="2"/>
<path d="M 722.50 279.15 A 89.00 89.00 0 0 1 767.00 356.23" fill="none" stroke="#b8bec7" stroke-width="2"/>
<path d="M 945.00 356.23 A 89.00 89.00 0 0 1 900.50 433.31" fill="none" stroke="#b8bec7" stroke-width="2"/>
<path d="M 900.50 433.31 A 89.00 89.00 0 0 1 811.50 433.31" fill="none" stroke="#b8bec7" stroke-width="2"/>
<path d="M 811.50 433.31 A 89.00 89.00 0 0 1 767.00 356.23" fill="none" stroke="#b8bec7" stroke-width="2"/>
<path d="M 767.00 356.23 A 89.00 89.00 0 0 1 811.50 279.15" fill="none" stroke="#b8bec7" stroke-width="2"/>
<path d="M 811.50 279.15 A 89.00 89.00 0 0 1 900.50 279.15" fill="none" stroke="#b8bec7" stroke-width="2"/>
<path d="M 900.50 279.15 A 89.00 89.00 0 0 1 945.00 356.23" fill="none" stroke="#b8bec7" stroke-width="2"/>
<path d="M 322.00 510.38 A 89.00 89.00 0 0 1 277.50 587.46" fill="none" stroke="#b8bec7" stroke-width="2"/>
<path d="M 277.50 587.46 A 89.00 89.00 0 0 1 188.50 587.46" fill="none" stroke="#b8bec7" stroke-width="2"/>
<path d="M 188.50 587.46 A 89.00 89.00 0 0 1 144.00 510.38" fill="none" stroke="#b8bec7" stroke-width="2"/>
<path d="M 144.00 510.38 A 89.00 89.00 0 0 1 188.50 433.31" fill="none" stroke="#b8bec7" stroke-width="2"/>
<path d="M 188.50 433.31 A 89.00 89.00 0 0 1 277.50 433.31" fill="none" stroke="#b8bec7" stroke-width="2"/>
<path d="M 277.50 433.31 A 89.00 89.00 0 0 1 322.00 510.38" fill="none" stroke="#b8bec7" stroke-width="2"/>
<path d="M 500.00 510.38 A 89.00 89.00 0 0 1 455.50 587.46" fill="none" stroke="#b8bec7" stroke-width="2"/>
<path d="M 455.50 587.46 A 89.00 89.00 0 0 1 366.50 587.46" fill="none" stroke="#b8bec7" stroke-width="2"/>
<path d="M 366.50 587.46 A 89.00 89.00 0 0 1 322.00 510.38" fill="none" stroke="#b8bec7" stroke-width="2"/>
<path d="M 322.00 510.38 A 89.00 89.00 0 0 1 366.50 433.31" fill="none" stroke="#b8bec7" stroke-width="2"/>
<path d="M 366.50 433.31 A 89.00 89.00 0 0 1 455.50 433.31" fill="none" stroke="#b8bec7" stroke-width="2"/>
<path d="M 455.50 433.31 A 89.00 89.00 0 0 1 500.00 510.38" fill="none" stroke="#b8bec7" stroke-width="2"/>
<path d="M 678.00 510.38 A 89.00 89.00 0 0 1 633.50 587.46" fill="none" stroke="#b8bec7" stroke-width="2"/>
<path d="M 633.50 587.46 A 89.00 89.00 0 0 1 544.50 587.46" fill="none" stroke="#b8bec7" stroke-width="2"/>
<path d="M 544.50 587.46 A 89.00 89.00 0 0 1 500.00 510.38" fill="none" stroke="#b8bec7" stroke-width="2"/>
<path d="M 500.00 510.38 A 89.00 89.00 0 0 1 544.50 433.31" fill="none" stroke="#b8bec7" stroke-width="2"/>
<path d="M 544.50 433.31 A 89.00 89.00 0 0 1 633.50 433.31" fill="none" stroke="#b8bec7" stroke-width="2"/>
<path d="M 633.50 433.31 A 89.00 89.00 0 0 1 678.00 510.38" fill="none" stroke="#b8bec7" stroke-width="2"/>
<path d="M 856.00 510.38 A 89.00 89.00 0 0 1 811.50 587.46" fill="none" stroke="#b8bec7" stroke-width="2"/>
<path d="M 811.50 587.46 A 89.00 89.00 0 0 1 722.50 587.46" fill="none" stroke="#b8bec7" stroke-width="2"/>
<path d="M 722.50 587.46 A 89.00 89.00 0 0 1 678.00 510.38" fill="none" stroke="#b8bec7" stroke-width="2"/>
<path d="M 678.00 510.38 A 89.00 89.00 0 0 1 722.50 433.31" fill="none" stroke="#b8bec7" stroke-width="2"/>
<path d="M 722.50 433.31 A 89.00 89.00 0 0 1 811.50 433.31" fill="none" stroke="#b8bec7" stroke-width="2"/>
<path d="M 811.50 433.31 A 89.00 89.00 0 0 1 856.00 510.38" fill="none" stroke="#b8bec7" stroke-width="2"/>
<path d="M 233.00 664.53 A 89.00 89.00 0 0 1 188.50 741.61" fill="none" stroke="#b8bec7" stroke-width="2"/>
<path d="M 188.50 741.61 A 89.00 89.00 0 0 1 99.50 741.61" fill="none" stroke="#b8bec7" stroke-width="2"/>
<path d="M 99.50 741.61 A 89.00 89.00 0 0 1 55.00 664.53" fill="none" stroke="#b8bec7" stroke-width="2"/>
<path d="M 55.00 664.53 A 89.00 89.00 0 0 1 99.50 587.46" fill="none" stroke="#b8bec7" stroke-width="2"/>
<path d="M 99.50 587.46 A 89.00 89.00 0 0 1 188.50 587.46" fill="none" stroke="#b8bec7" stroke-width="2"/>
<path d="M 188.50 587.46 A 89.00 89.00 0 0 1 233.00 664.53" fill="none" stroke="#b8bec7" stroke-width="2"/>
<path d="M 411.00 664.53 A 89.00 89.00 0 0 1 366.50 741.61" fill="none" stroke="#b8bec7" stroke-width="2"/>
<path d="M 366.50 741.61 A 89.00 89.00 0 0 1 277.50 741.61" fill="none" stroke="#b8bec7" stroke-width="2"/>
<path d="M 277.50 741.61 A 89.00 89.00 0 0 1 233.00 664.53" fill="none" stroke="#b8bec7" stroke-width="2"/>
<path d="M 233.00 664.53 A 89.00 89.00 0 0 1 277.50 587.46" fill="none" stroke="#b8bec7" stroke-width="2"/>
<path d="M 277.50 587.46 A 89.00 89.00 0 0 1 366.50 587.46" fill="none" stroke="#b8bec7" stroke-width="2"/>
<path d="M 366.50 587.46 A 89.00 89.00 0 0 1 411.00 664.53" fill="none" stroke="#b8bec7" stroke-width="2"/>
<path d="M 589.00 664.53 A 89.00 89.00 0 0 1 544.50 741.61" fill="none" stroke="#b8bec7" stroke-width="2"/>
<path d="M 544.50 741.61 A 89.00 89.00 0 0 1 455.50 741.61" fill="none" stroke="#b8bec7" stroke-width="2"/>
<path d="M 455.50 741.61 A 89.00 89.00 0 0 1 411.00 664.53" fill="none" stroke="#b8bec7" stroke-width="2"/>
<path d="M 411.00 664.53 A 89.00 89.00 0 0 1 455.50 587.46" fill="none" stroke="#b8bec7" stroke-width="2"/>
<path d="M 455.50 587.46 A 89.00 89.00 0 0 1 544.50 587.46" fill="none" stroke="#b8bec7" stroke-width="2"/>
<path d="M 544.50 587.46 A 89.00 89.00 0 0 1 589.00 664.53" fill="none" stroke="#b8bec7" stroke-width="2"/>
<path d="M 767.00 664.53 A 89.00 89.00 0 0 1 722.50 741.61" fill="none" stroke="#b8bec7" stroke-width="2"/>
<path d="M 722.50 741.61 A 89.00 89.00 0 0 1 633.50 741.61" fill="none" stroke="#b8bec7" stroke-width="2"/>
<path d="M 633.50 741.61 A 89.00 89.00 0 0 1 589.00 664.53" fill="none" stroke="#b8bec7" stroke-width="2"/>
<path d="M 589.00 664.53 A 89.00 89.00 0 0 1 633.50 587.46" fill="none" stroke="#b8bec7" stroke-width="2"/>
<path d="M 633.50 587.46 A 89.00 89.00 0 0 1 722.50 587.46" fill="none" stroke="#b8bec7" stroke-width="2"/>
<path d="M 722.50 587.46 A 89.00 89.00 0 0 1 767.00 664.53" fill="none" stroke="#b8bec7" stroke-width="2"/>
<path d="M 945.00 664.53 A 89.00 89.00 0 0 1 900.50 741.61" fill="none" stroke="#b8bec7" stroke-width="2"/>
<path d="M 900.50 741.61 A 89.00 89.00 0 0 1 811.50 741.61" fill="none" stroke="#b8bec7" stroke-width="2"/>
<path d="M 811.50 741.61 A 89.00 89.00 0 0 1 767.00 664.53" fill="none" stroke="#b8bec7" stroke-width="2"/>
<path d="M 767.00 664.53 A 89.00 89.00 0 0 1 811.50 587.46" fill="none" stroke="#b8bec7" stroke-width="2"/>
<path d="M 811.50 587.46 A 89.00 89.00 0 0 1 900.50 587.46" fill="none" stroke="#b8bec7" stroke-width="2"/>
<path d="M 900.50 587.46 A 89.00 89.00 0 0 1 945.00 664.53" fill="none" stroke="#b8bec7" stroke-width="2"/>
<path d="M 322.00 818.69 A 89.00 89.00 0 0 1 277.50 895.76" fill="none" stroke="#b8bec7" stroke-width="2"/>
<path d="M 277.50 895.76 A 89.00 89.00 0 0 1 188.50 895.76" fill="none" stroke="#b8bec7" stroke-width="2"/>
<path d="M 188.50 895.76 A 89.00 89.00 0 0 1 144.00 818.69" fill="none" stroke="#b8bec7" stroke-width="2"/>
<path d="M 144.00 818.69 A 89.00 89.00 0 0 1 188.50 741.61" fill="none" stroke="#b8bec7" stroke-width="2"/>
<path d="M 188.50 741.61 A 89.00 89.00 0 0 1 277.50 741.61" fill="none" stroke="#b8bec7" stroke-width="2"/>
<path d="M 277.50 741.61 A 89.00 89.00 0 0 1 322.00 818.69" fill="none" stroke="#b8bec7" stroke-width="2"/>
<path d="M 500.00 818.69 A 89.00 89.00 0 0 1 455.50 895.76" fill="none" stroke="#b8bec7" stroke-width="2"/>
<path d="M 455.50 895.76 A 89.00 89.00 0 0 1 366.50 895.76" fill="none" stroke="#b8bec7" stroke-width="2"/>
<path d="M 366.50 895.76 A 89.00 89.00 0 0 1 322.00 818.69" fill="none" stroke="#b8bec7" stroke-width="2"/>
<path d="M 322.00 818.69 A 89.00 89.00 0 0 1 366.50 741.61" fill="none" stroke="#b8bec7" stroke-width="2"/>
<path d="M 366.50 741.61 A 89.00 89.00 0 0 1 455.50 741.61" fill="none" stroke="#b8bec7" stroke-width="2"/>
<path d="M 455.50 741.61 A 89.00 89.00 0 0 1 500.00 818.69" fill="none" stroke="#b8bec7" stroke-width="2"/>
<path d="M 678.00 818.69 A 89.00 89.00 0 0 1 633.50 895.76" fill="none" stroke="#b8bec7" stroke-width="2"/>
<path d="M 633.50 895.76 A 89.00 89.00 0 0 1 544.50 895.76" fill="none" stroke="#b8bec7" stroke-width="2"/>
<path d="M 544.50 895.76 A 89.00 89.00 0 0 1 500.00 818.69" fill="none" stroke="#b8bec7" stroke-width="2"/>
<path d="M 500.00 818.69 A 89.00 89.00 0 0 1 544.50 741.61" fill="none" stroke="#b8bec7" stroke-width="2"/>
<path d="M 544.50 741.61 A 89.00 89.00 0 0 1 633.50 741.61" fill="none" stroke="#b8bec7" stroke-width="2"/>
<path d="M 633.50 741.61 A 89.00 89.00 0 0 1 678.00 818.69" fill="none" stroke="#b8bec7" stroke-width="2"/>
<path d="M 856.00 818.69 A 89.00 89.00 0 0 1 811.50 895.76" fill="none" stroke="#b8bec7" stroke-width="2"/>
<path d="M 811.50 895.76 A 89.00 89.00 0 0 1 722.50 895.76" fill="none" stroke="#b8bec7" stroke-width="2"/>
<path d="M 722.50 895.76 A 89.00 89.00 0 0 1 678.00 818.69" fill="none" stroke="#b8bec7" stroke-width="2"/>
<path d="M 678.00 818.69 A 89.00 89.00 0 0 1 722.50 741.61" fill="none" stroke="#b8bec7" stroke-width="2"/>
<path d="M 722.50 741.61 A 89.00 89.00 0 0 1 811.50 741.61" fill="none" stroke="#b8bec7" stroke-width="2"/>
<path d="M 811.50 741.61 A 89.00 89.00 0 0 1 856.00 818.69" fill="none" stroke="#b8bec7" stroke-width="2"/>
<path d="M 322.00 202.08 A 89.00 89.00 0 0 1 277.50 279.15" fill="none" stroke="#1859a9" stroke-width="7" stroke-linecap="round"/>
<path d="M 455.50 279.15 A 89.00 89.00 0 0 1 366.50 279.15" fill="none" stroke="#1859a9" stroke-width="7" stroke-linecap="round"/>
<path d="M 322.00 202.08 A 89.00 89.00 0 0 1 366.50 125.00" fill="none" stroke="#1859a9" stroke-width="7" stroke-linecap="round"/>
<path d="M 366.50 125.00 A 89.00 89.00 0 0 1 455.50 125.00" fill="none" stroke="#1859a9" stroke-width="7" stroke-linecap="round"/>
<path d="M 455.50 125.00 A 89.00 89.00 0 0 1 500.00 202.08" fill="none" stroke="#1859a9" stroke-width="7" stroke-linecap="round"/>
<path d="M 544.50 279.15 A 89.00 89.00 0 0 1 500.00 202.08" fill="none" stroke="#1859a9" stroke-width="7" stroke-linecap="round"/>
<path d="M 188.50 433.31 A 89.00 89.00 0 0 1 99.50 433.31" fill="none" stroke="#1859a9" stroke-width="7" stroke-linecap="round"/>
<path d="M 99.50 433.31 A 89.00 89.00 0 0 1 55.00 356.23" fill="none" stroke="#1859a9" stroke-width="7" stroke-linecap="round"/>
<path d="M 55.00 356.23 A 89.00 89.00 0 0 1 99.50 279.15" fill="none" stroke="#1859a9" stroke-width="7" stroke-linecap="round"/>
<path d="M 99.50 279.15 A 89.00 89.00 0 0 1 188.50 279.15" fill="none" stroke="#1859a9" stroke-width="7" stroke-linecap="round"/>
<path d="M 188.50 279.15 A 89.00 89.00 0 0 1 233.00 356.23" fill="none" stroke="#1859a9" stroke-width="7" stroke-linecap="round"/>
<path d="M 411.00 356.23 A 89.00 89.00 0 0 1 366.50 433.31" fill="none" stroke="#1859a9" stroke-width="7" stroke-linecap="round"/>
<path d="M 366.50 433.31 A 89.00 89.00 0 0 1 277.50 433.31" fill="none" stroke="#1859a9" stroke-width="7" stroke-linecap="round"/>
<path d="M 233.00 356.23 A 89.00 89.00 0 0 1 277.50 279.15" fill="none" stroke="#1859a9" stroke-width="7" stroke-linecap="round"/>
<path d="M 366.50 279.15 A 89.00 89.00 0 0 1 411.00 356.23" fill="none" stroke="#1859a9" stroke-width="7" stroke-linecap="round"/>
<path d="M 455.50 279.15 A 89.00 89.00 0 0 1 544.50 279.15" fill="none" stroke="#1859a9" stroke-width="7" stroke-linecap="round"/>
<path d="M 188.50 433.31 A 89.00 89.00 0 0 1 277.50 433.31" fill="none" stroke="#1859a9" stroke-width="7" stroke-linecap="round"/>
<text x="233.00" y="212.58" text-anchor="middle" font-size="30.0" font-weight="600" font-family="sans-serif">1</text>
<text x="411.00" y="212.58" text-anchor="middle" font-size="30.0" font-weight="600" font-family="sans-serif">4</text>
<text x="589.00" y="212.58" text-anchor="middle" font-size="30.0" font-weight="600" font-family="sans-serif">1</text>
<text x="767.00" y="212.58" text-anchor="middle" font-size="30.0" font-weight="600" font-family="sans-serif">0</text>
<text x="144.00" y="366.73" text-anchor="middle" font-size="30.0" font-weight="600" font-family="sans-serif">5</text>
<text x="322.00" y="366.73" text-anchor="middle" font-size="30.0" font-weight="600" font-family="sans-serif">4</text>
<text x="500.00" y="366.73" text-anchor="middle" font-size="30.0" font-weight="600" font-family="sans-serif">1</text>
<text x="678.00" y="366.73" text-anchor="middle" font-size="30.0" font-weight="600" font-family="sans-serif">0</text>
<text x="856.00" y="366.73" text-anchor="middle" font-size="30.0" font-weight="600" font-family="sans-serif">0</text>
<text x="233.00" y="520.88" text-anchor="middle" font-size="30.0" font-weight="600" font-family="sans-serif">1</text>
<text x="411.00" y="520.88" text-anchor="middle" font-size="30.0" font-weight="600" font-family="sans-serif">0</text>
<text x="589.00" y="520.88" text-anchor="middle" font-size="30.0" font-weight="600" font-family="sans-serif">0</text>
<text x="767.00" y="520.88" text-anchor="middle" font-size="30.0" font-weight="600" font-family="sans-serif">0</text>
<text x="144.00" y="675.03" text-anchor="middle" font-size="30.0" font-weight="600" font-family="sans-serif">0</text>
<text x="322.00" y="675.03" text-anchor="middle" font-size="30.0" font-weight="600" font-family="sans-serif">0</text>
<text x="500.00" y="675.03" text-anchor="middle" font-size="30.0" font-weight="600" font-family="sans-serif">0</text>
<text x="678.00" y="675.03" text-anchor="middle" font-size="30.0" font-weight="600" font-family="sans-serif">0</text>
<text x="856.00" y="675.03" text-anchor="middle" font-size="30.0" font-weight="600" font-family="sans-serif">0</text>
<text x="233.00" y="829.19" text-anchor="middle" font-size="30.0" font-weight="600" font-family="sans-serif">0</text>
<text x="411.00" y="829.19" text-anchor="middle" font-size="30.0" font-weight="600" font-family="sans-serif">0</text>
<text x="589.00" y="829.19" text-anchor="middle" font-size="30.0" font-weight="600" font-family="sans-serif">0</text>
<text x="767.00" y="829.19" text-anchor="middle" font-size="30.0" font-weight="600" font-family="sans-serif">0</text>
<text x="322.00" y="263.96" text-anchor="middle" font-size="30.0" font-weight="600" font-family="sans-serif">1</text>
<text x="233.00" y="315.34" text-anchor="middle" font-size="30.0" font-weight="600" font-family="sans-serif">2</text>
<text x="500.00" y="263.96" text-anchor="middle" font-size="30.0" font-weight="600" font-family="sans-serif">2</text>
<text x="411.00" y="315.34" text-anchor="middle" font-size="30.0" font-weight="600" font-family="sans-serif">2</text>
<text x="678.00" y="263.96" text-anchor="middle" font-size="30.0" font-weight="600" font-family="sans-serif">0</text>
<text x="589.00" y="315.34" text-anchor="middle" font-size="30.0" font-weight="600" font-family="sans-serif">0</text>
<text x="767.00" y="315.34" text-anchor="middle" font-size="30.0" font-weight="600" font-family="sans-serif">0</text>
<text x="233.00" y="418.11" text-anchor="middle" font-size="30.0" font-weight="600" font-family="sans-serif">1</text>
<text x="411.00" y="418.11" text-anchor="middle" font-size="30.0" font-weight="600" font-family="sans-serif">1</text>
<text x="322.00" y="469.50" text-anchor="middle" font-size="30.0" font-weight="600" font-family="sans-serif">1</text>
<text x="589.00" y="418.11" text-anchor="middle" font-size="30.0" font-weight="600" font-family="sans-serif">0</text>
<text x="500.00" y="469.50" text-anchor="middle" font-size="30.0" font-weight="600" font-family="sans-serif">0</text>
<text x="767.00" y="418.11" text-anchor="middle" font-size="30.0" font-weight="600" font-family="sans-serif">0</text>
<text x="678.00" y="469.50" text-anchor="middle" font-size="30.0" font-weight="600" font-family="sans-serif">0</text>
<text x="322.00" y="572.27" text-anchor="middle" font-size="30.0" font-weight="600" font-family="sans-serif">0</text>
<text x="233.00" y="623.65" text-anchor="middle" font-size="30.0" font-weight="600" font-family="sans-serif">0</text>
<text x="500.00" y="572.27" text-anchor="middle" font-size="30.0" font-weight="600" font-family="sans-serif">0</text>
<text x="411.00" y="623.65" text-anchor="middle" font-size="30.0" font-weight="600" font-family="sans-serif">0</text>
<text x="678.00" y="572.27" text-anchor="middle" font-size="30.0" font-weight="600" font-family="sans-serif">0</text>
<text x="589.00" y="623.65" text-anchor="middle" font-size="30.0" font-weight="600" font-family="sans-serif">0</text>
<text x="767.00" y="623.65" text-anchor="middle" font-size="30.0" font-weight="600" font-family="sans-serif">0</text>
<text x="233.00" y="726.42" text-anchor="middle" font-size="30.0" font-weight="600" font-family="sans-serif">0</text>
<text x="411.00" y="726.42" text-anchor="middle" font-size="30.0" font-weight="600" font-family="sans-serif">0</text>
<text x="322.00" y="777.80" text-anchor="middle" font-size="30.0" font-weight="600" font-family="sans-serif">0</text>
<text x="589.00" y="726.42" text-anchor="middle" font-size="30.0" font-weight="600" font-family="sans-serif">0</text>
<text x="500.00" y="777.80" text-anchor="middle" font-size="30.0" font-weight="600" font-family="sans-serif">0</text>
<text x="767.00" y="726.42" text-anchor="middle" font-size="30.0" font-weight="600" font-family="sans-serif">0</text>
<text x="678.00" y="777.80" text-anchor="middle" font-size="30.0" font-weight="600" font-family="sans-serif">0</text>
</svg>