<svg xmlns="http://www.w3.org/2000/svg" width="1000" height="951" viewBox="0 0 1000 951">
<rect width="100%" height="100%" fill="white"/>
<text x="500.0" y="45" text-anchor="middle" font-size="28" font-family="sans-serif">TSH-04</text>
<path d="M 277.50 189.23 A 74.17 74.17 0 0 1 240.42 253.46" fill="none" stroke="#b8bec7" stroke-width="2"/>
<path d="M 240.42 253.46 A 74.17 74.17 0 0 1 166.25 253.46" fill="none" stroke="#b8bec7" stroke-width="2"/>
<path d="M 166.25 253.46 A 74.17 74.17 0 0 1 129.17 189.23" fill="none" stroke="#b8bec7" stroke-width="2"/>
<path d="M 129.17 189.23 A 74.17 74.17 0 0 1 166.25 125.00" fill="none" stroke="#b8bec7" stroke-width="2"/>
<path d="M 166.25 125.00 A 74.17 74.17 0 0 1 240.42 125.00" fill="none" stroke="#b8bec7" stroke-width="2"/>
<path d="M 240.42 125.00 A 74.17 74.17 0 0 1 277.50 189.23" fill="none" stroke="#b8bec7" stroke-width="2"/>
<path d="M 425.83 189.23 A 74.17 74.17 0 0 1 388.75 253.46" fill="none" stroke="#b8bec7" stroke-width="2"/>
<path d="M 388.75 253.46 A 74.17 74.17 0 0 1 314.58 253.46" fill="none" stroke="#b8bec7" stroke-width="2"/>
<path d="M 314.58 253.46 A 74.17 74.17 0 0 1 277.50 189.23" fill="none" stroke="#b8bec7" stroke-width="2"/>
<path d="M 277.50 189.23 A 74.17 74.17 0 0 1 314.58 125.00" fill="none" stroke="#b8bec7" stroke-width="2"/>
<path d="M 314.58 125.00 A 74.17 74.17 0 0 1 388.75 125.00" fill="none" stroke="#b8bec7" stroke-width="2"/>
<path d="M 388.75 125.00 A 74.17 74.17 0 0 1 425.83 189.23" fill="none" stroke="#b8bec7" stroke-width="2"/>
<path d="M 574.17 189.23 A 74.17 74.17 0 0 1 537.08 253.46" fill="none" stroke="#b8bec7" stroke-width="2"/>
<path d="M 537.08 253.46 A 74.17 74.17 0 0 1 462.92 253.46" fill="none" stroke="#b8bec7" stroke-width="2"/>
<path d="M 462.92 253.46 A 74.17 74.17 0 0 1 425.83 189.23" fill="none" stroke="#b8bec7" stroke-width="2"/>
<path d="M 425.83 189.23 A 74.17 74.17 0 0 1 462.92 125.00" fill="none" stroke="#b8bec7" stroke-width="2"/>
<path d="M 462.92 125.00 A 74.17 74.17 0 0 1 537.08 125.00" fill="none" stroke="#b8bec7" stroke-width="2"/>
<path d="M 537.08 125.00 A 74.17 74.17 0 0 1 574.17 189.23" fill="none" stroke="#b8bec7" stroke-width="2"/>
<path d="M 722.50 189.23 A 74.17 74.17 0 0 1 685.42 253.46" fill="none" stroke="#b8bec7" stroke-width="2"/>
<path d="M 685.42 253.46 A 74.17 74.17 0 0 1 611.25 253.46" fill="none" stroke="#b8bec7" stroke-width="2"/>
<path d="M 611.25 253.46 A 74.17 74.17 0 0 1 574.17 189.23" fill="none" stroke="#b8bec7" stroke-width="2"/>
<path d="M 574.17 189.23 A 74.17 74.17 0 0 1 611.25 125.00" fill="none" stroke="#b8bec7" stroke-width="2"/>
<path d="M 611.25 125.00 A 74.17 74.17 0 0 1 685.42 125.00" fill="none" stroke="#b8bec7" stroke-width="2"/>
<path d="M 685.42 125.00 A 74.17 74.17 0 0 1 722.50 189.23" fill="none" stroke="#b8bec7" stroke-width="2"/>
<path d="M 870.83 189.23 A 74.17 74.17 0 0 1 833.75 253.46" fill="none" stroke="#b8bec7" stroke-width="2"/>
<path d="M 833.75 253.46 A 74.17 74.17 0 0 1 759.58 253.46" fill="none" stroke="#b8bec7" stroke-width="2"/>
<path d="M 759.58 253.46 A 74.17 74.17 0 0 1 722.50 189.23" fill="none" stroke="#b8bec7" stroke-width="2"/>
<path d="M 722.50 189.23 A 74.17 74.17 0 0 1 759.58 125.00" fill="none" stroke="#b8bec7" stroke-width="2"/>
<path d="M 759.58 125.00 A 74.17 74.17 0 0 1 833.75 125.00" fill="none" stroke="#b8bec7" stroke-width="2"/>
<path d="M 833.75 125.00 A 74.17 74.17 0 0 1 870.83 189.23" fill="none" stroke="#b8bec7" stroke-width="2"/>
<path d="M 351.67 317.69 A 74.17 74.17 0 0 1 314.58 381.92" fill="none" stroke="#b8bec7" stroke-width="2"/>
<path d="M 314.58 381.92 A 74.17 74.17 0 0 1 240.42 381.92" fill="none" stroke="#b8bec7" stroke-width="2"/>
<path d="M 240.42 381.92 A 74.17 74.17 0 0 1 203.33 317.69" fill="none" stroke="#b8bec7" stroke-width="2"/>
<path d="M 203.33 317.69 A 74.17 74.17 0 0 1 240.42 253.46" fill="none" stroke="#b8bec7" stroke-width="2"/>
<path d="M 240.42 253.46 A 74.17 74.17 0 0 1 314.58 253.46" fill="none" stroke="#b8bec7" stroke-width="2"/>
<path d="M 314.58 253.46 A 74.17 74.17 0 0 1 351.67 317.69" fill="none" stroke="#b8bec7" stroke-width="2"/>
<path d="M 500.00 317.69 A 74.17 74.17 0 0 1 462.92 381.92" fill="none" stroke="#b8bec7" stroke-width="2"/>
<path d="M 462.92 381.92 A 74.17 74.17 0 0 1 388.75 381.92" fill="none" stroke="#b8bec7" stroke-width="2"/>
<path d="M 388.75 381.92 A 74.17 74.17 0 0 1 351.67 317.69" fill="none" stroke="#b8bec7" stroke-width="2"/>
<path d="M 351.67 317.69 A 74.17 74.17 0 0 1 388.75 253.46" fill="none" stroke="#b8bec7" stroke-width="2"/>
<path d="M 388.75 253.46 A 74.17 74.17 0 0 1 462.92 253.46" fill="none" stroke="#b8bec7" stroke-width="2"/>
<path d="M 462.92 253.46 A 74.17 74.17 0 0 1 500.00 317.69" fill="none" stroke="#b8bec7" stroke-width="2"/>
<path d="M 648.33 317.69 A 74.17 74.17 0 0 1 611.25 381.92" fill="none" stroke="#b8bec7" stroke-width="2"/>
<path d="M 611.25 381.92 A 74.17 74.17 0 0 1 537.08 381.92" fill="none" stroke="#b8bec7" stroke-width="2"/>
<path d="M 537.08 381.92 A 74.17 74.17 0 0 1 500.00 317.69" fill="none" stroke="#b8bec7" stroke-width="2"/>
<path d="M 500.00 317.69 A 74.17 74.17 0 0 1 537.08 253.46" fill="none" stroke="#b8bec7" stroke-width="2"/>
<path d="M 537.08 253.46 A 74.17 74.17 0 0 1 611.25 253.46" fill="none" stroke="#b8bec7" stroke-width="2"/>
<path d="M 611.25 253.46 A 74.17 74.17 0 0 1 648.33 317.69" fill="none" stroke="#b8bec7" stroke-width="2"/>
<path d="M 796.67 317.69 A 74.17 74.17 0 0 1 759.58 381.92" fill="none" stroke="#b8bec7" stroke-width="2"/>
<path d="M 759.58 381.92 A 74.17 74.17 0 0 1 685.42 381.92" fill="none" stroke="#b8bec7" stroke-width="2"/>
<path d="M 685.42 381.92 A 74.17 74.17 0 0 1 648.33 317.69" fill="none" stroke="#b8bec7" stroke-width="2"/>
<path d="M 648.33 317.69 A 74.17 74.17 0 0 1 685.42 253.46" fill="none" stroke="#b8bec7" stroke-width="2"/>
<path d="M 685.42 253.46 A 74.17 74.17 0 0 1 759.58 253.46" fill="none" stroke="#b8bec7" stroke-width="2"/>
<path d="M 759.58 253.46 A 74.17 74.17 0 0 1 796.67 317.69" fill="none" stroke="#b8bec7" stroke-width="2"/>
<path d="M 277.50 446.15 A 74.17 74.17 0 0 1 240.42 510.38" fill="none" stroke="#b8bec7" stroke-width="2"/>
<path d="M 240.42 510.38 A 74.17 74.17 0 0 1 166.25 510.38" fill="none" stroke="#b8bec7" stroke-width="2"/>
<path d="M 166.25 510.38 A 74.17 74.17 0 0 1 129.17 446.15" fill="none" stroke="#b8bec7" stroke-width="2"/>
<path d="M 129.17 446.15 A 74.17 74.17 0 0 1 166.25 381.92" fill="none" stroke="#b8bec7" stroke-width="2"/>
<path d="M 166.25 381.92 A 74.17 74.17 0 0 1 240.42 381.92" fill="none" stroke="#b8bec7" stroke-width="2"/>
<path d="M 240.42 381.92 A 74.17 74.17 0 0 1 277.50 446.15" fill="none" stroke="#b8bec7" stroke-width="2"/>
<path d="M 425.83 446.15 A 74.17 74.17 0 0 1 388.75 510.38" fill="none" stroke="#b8bec7" stroke-width="2"/>
<path d="M 388.75 510.38 A 74.17 74.17 0 0 1 314.58 510.38" fill="none" stroke="#b8bec7" stroke-width="2"/>
<path d="M 314.58 510.38 A 74.17 74.17 0 0 1 277.50 446.15" fill="none" stroke="#b8bec7" stroke-width="2"/>
<path d="M 277.50 446.15 A 74.17 74.17 0 0 1 314.58 381.92" fill="none" stroke="#b8bec7" stroke-width="2"/>
<path d="M 314.58 381.92 A 74.17 74.17 0 0 1 388.75 381.92" fill="none" stroke="#b8bec7" stroke-width="2"/>
<path d="M 388.75 381.92 A 74.17 74.17 0 0 1 425.83 446.15" fill="none" stroke="#b8bec7" stroke-width="2"/>
<path d="M 574.17 446.15 A 74.17 74.17 0 0 1 537.08 510.38" fill="none" stroke="#b8bec7" stroke-width="2"/>
<path d="M 537.08 510.38 A 74.17 74.17 0 0 1 462.92 510.38" fill="none" stroke="#b8bec7" stroke-width="2"/>
<path d="M 462.92 510.38 A 74.17 74.17 0 0 1 425.83 446.15" fill="none" stroke="#b8bec7" stroke-width="2"/>
<path d="M 425.83 446.15 A 74.17 74.17 0 0 1 462.92 381.92" fill="none" stroke="#b8bec7" stroke-width="2"/>
<path d="M 462.92 381.92 A 74.17 74.17 0 0 1 537.08 381.92" fill="none" stroke="#b8bec7" stroke-width="2"/>
<path d="M 537.08 381.92 A 74.17 74.17 0 0 1 574.17 446.15" fill="none" stroke="#b8bec7" stroke-width="2"/>
<path d="M 722.50 446.15 A 74.17 74.17 0 0 1 685.42 510.38" fill="none" stroke="#b8bec7" stroke-width="2"/>
<path d="M 685.42 510.38 A 74.17 74.17 0 0 1 611.25 510.38" fill="none" stroke="#b8bec7" stroke-width="2"/>
<path d="M 611.25 510.38 A 74.17 74.17 0 0 1 574.17 446.15" fill="none" stroke="#b8bec7" stroke-width="2"/>
<path d="M 574.17 446.15 A 74.17 74.17 0 0 1 611.25 381.92" fill="none" stroke="#b8bec7" stroke-width="2"/>
<path d="M 611.25 381.92 A 74.17 74.17 0 0 1 685.42 381.92" fill="none" stroke="#b8bec7" stroke-width="2"/>
<path d="M 685.42 381.92 A 74.17 74.17 0 0 1 722.50 446.15" fill="none" stroke="#b8bec7" stroke-width="2"/>
<path d="M 870.83 446.15 A 74.17 74.17 0 0 1 833.75 510.38" fill="none" stroke="#b8bec7" stroke-width="2"/>
<path d="M 833.75 510.38 A 74.17 74.17 0 0 1 759.58 510.38" fill="none" stroke="#b8bec7" stroke-width="2"/>
<path d="M 759.58 510.38 A 74.17 74.17 0 0 1 722.50 446.15" fill="none" stroke="#b8bec7" stroke-width="2"/>
<path d="M 722.50 446.15 A 74.17 74.17 0 0 1 759.58 381.92" fill="none" stroke="#b8bec7" stroke-width="2"/>
<path d="M 759.58 381.92 A 74.17 74.17 0 0 1 833.75 381.92" fill="none" stroke="#b8bec7" stroke-width="2"/>
<path d="M 833.75 381.92 A 74.17 74.17 0 0 1 870.83 446.15" fill="none" stroke="#b8bec7" stroke-width="2"/>
<path d="M 203.33 574.61 A 74.17 74.17 0 0 1 166.25 638.84" fill="none" stroke="#b8bec7" stroke-width="2"/>
<path d="M 166.25 638.84 A 74.17 74.17 0 0 1 92.08 638.84" fill="none" stroke="#b8bec7" stroke-width="2"/>
<path d="M 92.08 638.84 A 74.17 74.17 0 0 1 55.00 574.61" fill="none" stroke="#b8bec7" stroke-width="2"/>
<path d="M 55.00 574.61 A 74.17 74.17 0 0 1 92.08 510.38" fill="none" stroke="#b8bec7" stroke-width="2"/>
<path d="M 92.08 510.38 A 74.17 74.17 0 0 1 166.25 510.38" fill="none" stroke="#b8bec7" stroke-width="2"/>
<path d="M 166.25 510.38 A 74.17 74.17 0 0 1 203.33 574.61" fill="none" stroke="#b8bec7" stroke-width="2"/>
<path d="M 351.67 574.61 A 74.17 74.17 0 0 1 314.58 638.84" fill="none" stroke="#b8bec7" stroke-width="2"/>
<path d="M 314.58 638.84 A 74.17 74.17 0 0 1 240.42 638.84" fill="none" stroke="#b8bec7" stroke-width="2"/>
<path d="M 240.42 638.84 A 74.17 74.17 0 0 1 203.33 574.61" fill="none" stroke="#b8bec7" stroke-width="2"/>
<path d="M 203.33 574.61 A 74.17 74.17 0 0 1 240.42 510.38" fill="none" stroke="#b8bec7" stroke-width="2"/>
<path d="M 240.42 510.38 A 74.17 74.17 0 0 1 314.58 510.38" fill="none" stroke="#b8bec7" stroke-width="2"/>
<path d="M 314.58 510.38 A 74.17 74.17 0 0 1 351.67 574.61" fill="none" stroke="#b8bec7" stroke-width="2"/>
<path d="M 500.00 574.61 A 74.17 74.17 0 0 1 462.92 638.84" fill="none" stroke="#b8bec7" stroke-width="2"/>
<path d="M 462.92 638.84 A 74.17 74.17 0 0 1 388.75 638.84" fill="none" stroke="#b8bec7" stroke-width="2"/>
<path d="M 388.75 638.84 A 74.17 74.17 0 0 1 351.67 574.61" fill="none" stroke="#b8bec7" stroke-width="2"/>
<path d="M 351.67 574.61 A 74.17 74.17 0 0 1 388.75 510.38" fill="none" stroke="#b8bec7" stroke-width="2"/>
<path d="M 388.75 510.38 A 74.17 74.17 0 0 1 462.92 510.38" fill="none" stroke="#b8bec7" stroke-width="2"/>
<path d="M 462.92 510.38 A 74.17 74.17 0 0 1 500.00 574.61" fill="none" stroke="#b8bec7" stroke-width="2"/>
<path d="M 648.33 574.61 A 74.17 74.17 0 0 1 611.25 638.84" fill="none" stroke="#b8bec7" stroke-width="2"/>
<path d="M 611.25 638.84 A 74.17 74.17 0 0 1 537.08 638.84" fill="none" stroke="#b8bec7" stroke-width="2"/>
<path d="M 537.08 638.84 A 74.17 74.17 0 0 1 500.00 574.61" fill="none" stroke="#b8bec7" stroke-width="2"/>
<path d="M 500.00 574.61 A 74.17 74.17 0 0 1 537.08 510.38" fill="none" stroke="#b8bec7" stroke-width="2"/>
<path d="M 537.08 510.38 A 74.17 74.17 0 0 1 611.25 510.38" fill="none" stroke="#b8bec7" stroke-width="2"/>
<path d="M 611.25 510.38 A 74.17 74.17 0 0 1 648.33 574.61" fill="none" stroke="#b8bec7" stroke-width="2"/>
<path d="M 796.67 574.61 A 74.17 74.17 0 0 1 759.58 638.84" fill="none" stroke="#b8bec7" stroke-width="2"/>
<path d="M 759.58 638.84 A 74.17 74.17 0 0 1 685.42 638.84" fill="none" stroke="#b8bec7" stroke-width="2"/>
<path d="M 685.42 638.84 A 74.17 74.17 0 0 1 648.33 574.61" fill="none" stroke="#b8bec7" stroke-width="2"/>
<path d="M 648.33 574.61 A 74.17 74.17 0 0 1 685.42 510.38" fill="none" stroke="#b8bec7" stroke-width="2"/>
<path d="M 685.42 510.38 A 74.17 74.17 0 0 1 759.58 510.38" fill="none" stroke="#b8bec7" stroke-width="2"/>
<path d="M 759.58 510.38 A 74.17 74.17 0 0 1 796.67 574.61" fill="none" stroke="#b8bec7" stroke-width="2"/>
<path d="M 945.00 574.61 A 74.17 74.17 0 0 1 907.92 638.84" fill="none" stroke="#b8bec7" stroke-width="2"/>
<path d="M 907.92 638.84 A 74.17 74.17 0 0 1 833.75 638.84" fill="none" stroke="#b8bec7" stroke-width="2"/>
<path d="M 833.75 638.84 A 74.17 74.17 0 0 1 796.67 574.61" fill="none" stroke="#b8bec7" stroke-width="2"/>
<path d="M 796.67 574.61 A 74.17 74.17 0 0 1 833.75 510.38" fill="none" stroke="#b8bec7" stroke-width="2"/>
<path d="M 833.75 510.38 A 74.17 74.17 0 0 1 907.92 510.38" fill="none" stroke="#b8bec7" stroke-width="2"/>
<path d="M 907.92 510.38 A 74.17 74.17 0 0 1 945.00 574.61" fill="none" stroke="#b8bec7" stroke-width="2"/>
<path d="M 277.50 703.07 A 74.17 74.17 0 0 1 240.42 767.30" fill="none" stroke="#b8bec7" stroke-width="2"/>
<path d="M 240.42 767.30 A 74.17 74.17 0 0 1 166.25 767.30" fill="none" stroke="#b8bec7" stroke-width="2"/>
<path d="M 166.25 767.30 A 74.17 74.17 0 0 1 129.17 703.07" fill="none" stroke="#b8bec7" stroke-width="2"/>
<path d="M 129.17 703.07 A 74.17 74.17 0 0 1 166.25 638.84" fill="none" stroke="#b8bec7" stroke-width="2"/>
<path d="M 166.25 638.84 A 74.17 74.17 0 0 1 240.42 638.84" fill="none" stroke="#b8bec7" stroke-width="2"/>
<path d="M 240.42 638.84 A 74.17 74.17 0 0 1 277.50 703.07" fill="none" stroke="#b8bec7" stroke-width="2"/>
<path d="M 425.83 703.07 A 74.17 74.17 0 0 1 388.75 767.30" fill="none" stroke="#b8bec7" stroke-width="2"/>
<path d="M 388.75 767.30 A 74.17 74.17 0 0 1 314.58 767.30" fill="none" stroke="#b8bec7" stroke-width="2"/>
<path d="M 314.58 767.30 A 74.17 74.17 0 0 1 277.50 703.07" fill="none" stroke="#b8bec7" stroke-width="2"/>
<path d="M 277.50 703.07 A 74.17 74.17 0 0 1 314.58 638.84" fill="none" stroke="#b8bec7" stroke-width="2"/>
<path d="M 314.58 638.84 A 74.17 74.17 0 0 1 388.75 638.84" fill="none" stroke="#b8bec7" stroke-width="2"/>
<path d="M 388.75 638.84 A 74.17 74.17 0 0 1 425.83 703.07" fill="none" stroke="#b8bec7" stroke-width="2"/>
<path d="M 574.17 703.07 A 74.17 74.17 0 0 1 537.08 767.30" fill="none" stroke="#b8bec7" stroke-width="2"/>
<path d="M 537.08 767.30 A 74.17 74.17 0 0 1 462.92 767.30" fill="none" stroke="#b8bec7" stroke-width="2"/>
<path d="M 462.92 767.30 A 74.17 74.17 0 0 1 425.83 703.07" fill="none" stroke="#b8bec7" stroke-width="2"/>
<path d="M 425.83 703.07 A 74.17 74.17 0 0 1 462.92 638.84" fill="none" stroke="#b8bec7" stroke-width="2"/>
<path d="M 462.92 638.84 A 74.17 74.17 0 0 1 537.08 638.84" fill="none" stroke="#b8bec7" stroke-width="2"/>
<path d="M 537.08 638.84 A 74.17 74.17 0 0 1 574.17 703.07" fill="none" stroke="#b8bec7" stroke-width="2"/>
<path d="M 722.50 703.07 A 74.17 74.17 0 0 1 685.42 767.30" fill="none" stroke="#b8bec7" stroke-width="2"/>
<path d="M 685.42 767.30 A 74.17 74.17 0 0 1 611.25 767.30" fill="none" stroke="#b8bec7" stroke-width="2"/>
<path d="M 611.25 767.30 A 74.17 74.17 0 0 1 574.17 703.07" fill="none" stroke="#b8bec7" stroke-width="2"/>
<path d="M 574.17 703.07 A 74.17 74.17 0 0 1 611.25 638.84" fill="none" stroke="#b8bec7" stroke-width="2"/>
<path d="M 611.25 638.84 A 74.17 74.17 0 0 1 685.42 638.84" fill="none" stroke="#b8bec7" stroke-width="2"/>
<path d="M 685.42 638.84 A 74.17 74.17 0 0 1 722.50 703.07" fill="none" stroke="#b8bec7" stroke-width="2"/>
<path d="M 870.83 703.07 A 74.17 74.17 0 0 1 833.75 767.30" fill="none" stroke="#b8bec7" stroke-width="2"/>
<path d="M 833.75 767.30 A 74.17 74.17 0 0 1 759.58 767.30" fill="none" stroke="#b8bec7" stroke-width="2"/>
<path d="M 759.58 767.30 A 74.17 74.17 0 0 1 722.50 703.07" fill="none" stroke="#b8bec7" stroke-width="2"/>
<path d="M 722.50 703.07 A 74.17 74.17 0 0 1 759.58 638.84" fill="none" stroke="#b8bec7" stroke-width="2"/>
<path d="M 759.58 638.84 A 74.17 74.17 0 0 1 833.75 638.84" fill="none" stroke="#b8bec7" stroke-width="2"/>
<path d="M 833.75 638.84 A 74.17 74.17 0 0 1 870.83 703.07" fill="none" stroke="#b8bec7" stroke-width="2"/>
<path d="M 351.67 831.53 A 74.17 74.17 0 0 1 314.58 895.76" fill="none" stroke="#b8bec7" stroke-width="2"/>
<path d="M 314.58 895.76 A 74.17 74.17 0 0 1 240.42 895.76" fill="none" stroke="#b8bec7" stroke-width="2"/>
<path d="M 240.42 895.76 A 74.17 74.17 0 0 1 203.33 831.53" fill="none" stroke="#b8bec7" stroke-width="2"/>
<path d="M 203.33 831.53 A 74.17 74.17 0 0 1 240.42 767.30" fill="none" stroke="#b8bec7" stroke-width="2"/>
<path d="M 240.42 767.30 A 74.17 74.17 0 0 1 314.58 767.30" fill="none" stroke="#b8bec7" stroke-width="2"/>
<path d="M 314.58 767.30 A 74.17 74.17 0 0 1 351.67 831.53" fill="none" stroke="#b8bec7" stroke-width="2"/>
<path d="M 500.00 831.53 A 74.17 74.17 0 0 1 462.92 895.76" fill="none" stroke="#b8bec7" stroke-width="2"/>
<path d="M 462.92 895.76 A 74.17 74.17 0 0 1 388.75 895.76" fill="none" stroke="#b8bec7" stroke-width="2"/>
<path d="M 388.75 895.76 A 74.17 74.17 0 0 1 351.67 831.53" fill="none" stroke="#b8bec7" stroke-width="2"/>
<path d="M 351.67 831.53 A 74.17 74.17 0 0 1 388.75 767.30" fill="none" stroke="#b8bec7" stroke-width="2"/>
<path d="M 388.75 767.30 A 74.17 74.17 0 0 1 462.92 767.30" fill="none" stroke="#b8bec7" stroke-width="2"/>
<path d="M 462.92 767.30 A 74.17 74.17 0 0 1 500.00 831.53" fill="none" stroke="#b8bec7" stroke-width="2"/>
<path d="M 648.33 831.53 A 74.17 74.17 0 0 1 611.25 895.76" fill="none" stroke="#b8bec7" stroke-width="2"/>
<path d="M 611.25 895.76 A 74.17 74.17 0 0 1 537.08 895.76" fill="none" stroke="#b8bec7" stroke-width="2"/>
<path d="M 537.08 895.76 A 74.17 74.17 0 0 1 500.00 831.53" fill="none" stroke="#b8bec7" stroke-width="2"/>
<path d="M 500.00 831.53 A 74.17 74.17 0 0 1 537.08 767.30" fill="none" stroke="#b8bec7" stroke-width="2"/>
<path d="M 537.08 767.30 A 74.17 74.17 0 0 1 611.25 767.30" fill="none" stroke="#b8bec7" stroke-width="2"/>
<path d="M 611.25 767.30 A 74.17 74.17 0 0 1 648.33 831.53" fill="none" stroke="#b8bec7" stroke-width="2"/>
<path d="M 796.67 831.53 A 74.17 74.17 0 0 1 759.58 895.76" fill="none" stroke="#b8bec7" stroke-width="2"/>
<path d="M 759.58 895.76 A 74.17 74.17 0 0 1 685.42 895.76" fill="none" stroke="#b8bec7" stroke-width="2"/>
<path d="M 685.42 895.76 A 74.17 74.17 0 0 1 648.33 831.53" fill="none" stroke="#b8bec7" stroke-width="2"/>
<path d="M 648.33 831.53 A 74.17 74.17 0 0 1 685.42 767.30" fill="none" stroke="#b8bec7" stroke-width="2"/>
<path d="M 685.42 767.30 A 74.17 74.17 0 0 1 759.58 767.30" fill="none" stroke="#b8bec7" stroke-width="2"/>
<path d="M 759.58 767.30 A 74.17 74.17 0 0 1 796.67 831.53" fill="none" stroke="#b8bec7" stroke-width="2"/>
<text x="203.33" y="199.73" text-anchor="middle" font-size="30.0" font-weight="600" font-family="sans-serif">0</text>
<text x="351.67" y="199.73" text-anchor="middle" font-size="30.0" font-weight="600" font-family="sans-serif">0</text>
<text x="500.00" y="199.73" text-anchor="middle" font-size="30.0" font-weight="600" font-family="sans-serif">2</text>
<text x="648.33" y="199.73" text-anchor="middle" font-size="30.0" font-weight="600" font-family="sans-serif">3</text>
<text x="796.67" y="199.73" text-anchor="middle" font-size="30.0" font-weight="600" font-family="sans-serif">5</text>
<text x="277.50" y="328.19" text-anchor="middle" font-size="30.0" font-weight="600" font-family="sans-serif">0</text>
<text x="425.83" y="328.19" text-anchor="middle" font-size="30.0" font-weight="600" font-family="sans-serif">2</text>
<text x="574.17" y="328.19" text-anchor="middle" font-size="30.0" font-weight="600" font-family="sans-serif">1</text>
<text x="722.50" y="328.19" text-anchor="middle" font-size="30.0" font-weight="600" font-family="sans-serif">3</text>
<text x="203.33" y="456.65" text-anchor="middle" font-size="30.0" font-weight="600" font-family="sans-serif">0</text>
<text x="351.67" y="456.65" text-anchor="middle" font-size="30.0" font-weight="600" font-family="sans-serif">0</text>
<text x="500.00" y="456.65" text-anchor="middle" font-size="30.0" font-weight="600" font-family="sans-serif">2</text>
<text x="648.33" y="456.65" text-anchor="middle" font-size="30.0" font-weight="600" font-family="sans-serif">2</text>
<text x="796.67" y="456.65" text-anchor="middle" font-size="30.0" font-weight="600" font-family="sans-serif">2</text>
<text x="129.17" y="585.11" text-anchor="middle" font-size="30.0" font-weight="600" font-family="sans-serif">0</text>
<text x="277.50" y="585.11" text-anchor="middle" font-size="30.0" font-weight="600" font-family="sans-serif">0</text>
<text x="425.83" y="585.11" text-anchor="middle" font-size="30.0" font-weight="600" font-family="sans-serif">0</text>
<text x="574.17" y="585.11" text-anchor="middle" font-size="30.0" font-weight="600" font-family="sans-serif">2</text>
<text x="722.50" y="585.11" text-anchor="middle" font-size="30.0" font-weight="600" font-family="sans-serif">0</text>
<text x="870.83" y="585.11" text-anchor="middle" font-size="30.0" font-weight="600" font-family="sans-serif">4</text>
<text x="203.33" y="713.57" text-anchor="middle" font-size="30.0" font-weight="600" font-family="sans-serif">0</text>
<text x="351.67" y="713.57" text-anchor="middle" font-size="30.0" font-weight="600" font-family="sans-serif">0</text>
<text x="500.00" y="713.57" text-anchor="middle" font-size="30.0" font-weight="600" font-family="sans-serif">1</text>
<text x="648.33" y="713.57" text-anchor="middle" font-size="30.0" font-weight="600" font-family="sans-serif">1</text>
<text x="796.67" y="713.57" text-anchor="middle" font-size="30.0" font-weight="600" font-family="sans-serif">3</text>
<text x="277.50" y="842.03" text-anchor="middle" font-size="30.0" font-weight="600" font-family="sans-serif">0</text>
<text x="425.83" y="842.03" text-anchor="middle" font-size="30.0" font-weight="600" font-family="sans-serif">0</text>
<text x="574.17" y="842.03" text-anchor="middle" font-size="30.0" font-weight="600" font-family="sans-serif">5</text>
<text x="722.50" y="842.03" text-anchor="middle" font-size="30.0" font-weight="600" font-family="sans-serif">2</text>
<text x="277.50" y="242.55" text-anchor="middle" font-size="30.0" font-weight="600" font-family="sans-serif">0</text>
<text x="425.83" y="242.55" text-anchor="middle" font-size="30.0" font-weight="600" font-family="sans-serif">0</text>
<text x="351.67" y="285.37" text-anchor="middle" font-size="30.0" font-weight="600" font-family="sans-serif">0</text>
<text x="574.17" y="242.55" text-anchor="middle" font-size="30.0" font-weight="600" font-family="sans-serif">1</text>
<text x="500.00" y="285.37" text-anchor="middle" font-size="30.0" font-weight="600" font-family="sans-serif">2</text>
<text x="722.50" y="242.55" text-anchor="middle" font-size="30.0" font-weight="600" font-family="sans-serif">1</text>
<text x="648.33" y="285.37" text-anchor="middle" font-size="30.0" font-weight="600" font-family="sans-serif">1</text>
<text x="351.67" y="371.01" text-anchor="middle" font-size="30.0" font-weight="600" font-family="sans-serif">0</text>
<text x="277.50" y="413.83" text-anchor="middle" font-size="30.0" font-weight="600" font-family="sans-serif">0</text>
<text x="500.00" y="371.01" text-anchor="middle" font-size="30.0" font-weight="600" font-family="sans-serif">2</text>
<text x="425.83" y="413.83" text-anchor="middle" font-size="30.0" font-weight="600" font-family="sans-serif">0</text>
<text x="648.33" y="371.01" text-anchor="middle" font-size="30.0" font-weight="600" font-family="sans-serif">1</text>
<text x="574.17" y="413.83" text-anchor="middle" font-size="30.0" font-weight="600" font-family="sans-serif">2</text>
<text x="722.50" y="413.83" text-anchor="middle" font-size="30.0" font-weight="600" font-family="sans-serif">1</text>
<text x="277.50" y="499.47" text-anchor="middle" font-size="30.0" font-weight="600" font-family="sans-serif">0</text>
<text x="203.33" y="542.29" text-anchor="middle" font-size="30.0" font-weight="600" font-family="sans-serif">0</text>
<text x="425.83" y="499.47" text-anchor="middle" font-size="30.0" font-weight="600" font-family="sans-serif">0</text>
<text x="351.67" y="542.29" text-anchor="middle" font-size="30.0" font-weight="600" font-family="sans-serif">0</text>
<text x="574.17" y="499.47" text-anchor="middle" font-size="30.0" font-weight="600" font-family="sans-serif">1</text>
<text x="500.00" y="542.29" text-anchor="middle" font-size="30.0" font-weight="600" font-family="sans-serif">1</text>
<text x="722.50" y="499.47" text-anchor="middle" font-size="30.0" font-weight="600" font-family="sans-serif">1</text>
<text x="648.33" y="542.29" text-anchor="middle" font-size="30.0" font-weight="600" font-family="sans-serif">0</text>
<text x="796.67" y="542.29" text-anchor="middle" font-size="30.0" font-weight="600" font-family="sans-serif">1</text>
<text x="203.33" y="627.93" text-anchor="middle" font-size="30.0" font-weight="600" font-family="sans-serif">0</text>
<text x="351.67" y="627.93" text-anchor="middle" font-size="30.0" font-weight="600" font-family="sans-serif">0</text>
<text x="277.50" y="670.75" text-anchor="middle" font-size="30.0" font-weight="600" font-family="sans-serif">0</text>
<text x="500.00" y="627.93" text-anchor="middle" font-size="30.0" font-weight="600" font-family="sans-serif">1</text>
<text x="425.83" y="670.75" text-anchor="middle" font-size="30.0" font-weight="600" font-family="sans-serif">0</text>
<text x="648.33" y="627.93" text-anchor="middle" font-size="30.0" font-weight="600" font-family="sans-serif">0</text>
<text x="574.17" y="670.75" text-anchor="middle" font-size="30.0" font-weight="600" font-family="sans-serif">1</text>
<text x="796.67" y="627.93" text-anchor="middle" font-size="30.0" font-weight="600" font-family="sans-serif">0</text>
<text x="722.50" y="670.75" text-anchor="middle" font-size="30.0" font-weight="600" font-family="sans-serif">0</text>
<text x="277.50" y="756.39" text-anchor="middle" font-size="30.0" font-weight="600" font-family="sans-serif">0</text>
<text x="425.83" y="756.39" text-anchor="middle" font-size="30.0" font-weight="600" font-family="sans-serif">0</text>
<text x="351.67" y="799.21" text-anchor="middle" font-size="30.0" font-weight="600" font-family="sans-serif">0</text>
<text x="574.17" y="756.39" text-anchor="middle" font-size="30.0" font-weight="600" font-family="sans-serif">2</text>
<text x="500.00" y="799.21" text-anchor="middle" font-size="30.0" font-weight="600" font-family="sans-serif">1</text>
<text x="722.50" y="756.39" text-anchor="middle" font-size="30.0" font-weight="600" font-family="sans-serif">1</text>
<text x="648.33" y="799.21" text-anchor="middle" font-size="30.0" font-weight="600" font-family="sans-serif">1</text>
</svg>