<svg xmlns="http://www.w3.org/2000/svg" width="1000" height="951" viewBox="0 0 1000 951">
<rect width="100%" height="100%" fill="white"/>
<text x="500.0" y="45" text-anchor="middle" font-size="28" font-family="sans-serif">TSH-08</text>
<path d="M 277.50 221.35 A 111.25 111.25 0 0 1 221.88 317.69" fill="none" stroke="#b8bec7" stroke-width="2"/>
<path d="M 221.88 317.69 A 111.25 111.25 0 0 1 110.63 317.69" fill="none" stroke="#b8bec7" stroke-width="2"/>
<path d="M 110.63 317.69 A 111.25 111.25 0 0 1 55.00 221.35" fill="none" stroke="#b8bec7" stroke-width="2"/>
<path d="M 55.00 221.35 A 111.25 111.25 0 0 1 110.62 125.00" fill="none" stroke="#b8bec7" stroke-width="2"/>
<path d="M 110.62 125.00 A 111.25 111.25 0 0 1 221.88 125.00" fill="none" stroke="#b8bec7" stroke-width="2"/>
<path d="M 221.88 125.00 A 111.25 111.25 0 0 1 277.50 221.35" fill="none" stroke="#b8bec7" stroke-width="2"/>
<path d="M 500.00 221.35 A 111.25 111.25 0 0 1 444.38 317.69" fill="none" stroke="#b8bec7" stroke-width="2"/>
<path d="M 444.38 317.69 A 111.25 111.25 0 0 1 333.12 317.69" fill="none" stroke="#b8bec7" stroke-width="2"/>
<path d="M 333.12 317.69 A 111.25 111.25 0 0 1 277.50 221.35" fill="none" stroke="#b8bec7" stroke-width="2"/>
<path d="M 277.50 221.35 A 111.25 111.25 0 0 1 333.12 125.00" fill="none" stroke="#b8bec7" stroke-width="2"/>
<path d="M 333.12 125.00 A 111.25 111.25 0 0 1 444.38 125.00" fill="none" stroke="#b8bec7" stroke-width="2"/>
<path d="M 444.38 125.00 A 111.25 111.25 0 0 1 500.00 221.35" fill="none" stroke="#b8bec7" stroke-width="2"/>
<path d="M 722.50 221.35 A 111.25 111.25 0 0 1 666.88 317.69" fill="none" stroke="#b8bec7" stroke-width="2"/>
<path d="M 666.88 317.69 A 111.25 111.25 0 0 1 555.62 317.69" fill="none" stroke="#b8bec7" stroke-width="2"/>
<path d="M 555.62 317.69 A 111.25 111.25 0 0 1 500.00 221.35" fill="none" stroke="#b8bec7" stroke-width="2"/>
<path d="M 500.00 221.35 A 111.25 111.25 0 0 1 555.62 125.00" fill="none" stroke="#b8bec7" stroke-width="2"/>
<path d="M 555.62 125.00 A 111.25 111.25 0 0 1 666.88 125.00" fill="none" stroke="#b8bec7" stroke-width="2"/>
<path d="M 666.88 125.00 A 111.25 111.25 0 0 1 722.50 221.35" fill="none" stroke="#b8bec7" stroke-width="2"/>
<path d="M 945.00 221.35 A 111.25 111.25 0 0 1 889.38 317.69" fill="none" stroke="#b8bec7" stroke-width="2"/>
<path d="M 889.38 317.69 A 111.25 111.25 0 0 1 778.12 317.69" fill="none" stroke="#b8bec7" stroke-width="2"/>
<path d="M 778.12 317.69 A 111.25 111.25 0 0 1 722.50 221.35" fill="none" stroke="#b8bec7" stroke-width="2"/>
<path d="M 722.50 221.35 A 111.25 111.25 0 0 1 778.12 125.00" fill="none" stroke="#b8bec7" stroke-width="2"/>
<path d="M 778.12 125.00 A 111.25 111.25 0 0 1 889.38 125.00" fill="none" stroke="#b8bec7" stroke-width="2"/>
<path d="M 889.38 125.00 A 111.25 111.25 0 0 1 945.00 221.35" fill="none" stroke="#b8bec7" stroke-width="2"/>
<path d="M 388.75 414.04 A 111.25 111.25 0 0 1 333.12 510.38" fill="none" stroke="#b8bec7" stroke-width="2"/>
<path d="M 333.12 510.38 A 111.25 111.25 0 0 1 221.88 510.38" fill="none" stroke="#b8bec7" stroke-width="2"/>
<path d="M 221.88 510.38 A 111.25 111.25 0 0 1 166.25 414.04" fill="none" stroke="#b8bec7" stroke-width="2"/>
<path d="M 166.25 414.04 A 111.25 111.25 0 0 1 221.88 317.69" fill="none" stroke="#b8bec7" stroke-width="2"/>
<path d="M 221.88 317.69 A 111.25 111.25 0 0 1 333.12 317.69" fill="none" stroke="#b8bec7" stroke-width="2"/>
<path d="M 333.12 317.69 A 111.25 111.25 0 0 1 388.75 414.04" fill="none" stroke="#b8bec7" stroke-width="2"/>
<path d="M 611.25 414.04 A 111.25 111.25 0 0 1 555.62 510.38" fill="none" stroke="#b8bec7" stroke-width="2"/>
<path d="M 555.62 510.38 A 111.25 111.25 0 0 1 444.38 510.38" fill="none" stroke="#b8bec7" stroke-width="2"/>
<path d="M 444.38 510.38 A 111.25 111.25 0 0 1 388.75 414.04" fill="none" stroke="#b8bec7" stroke-width="2"/>
<path d="M 388.75 414.04 A 111.25 111.25 0 0 1 444.38 317.69" fill="none" stroke="#b8bec7" stroke-width="2"/>
<path d="M 444.38 317.69 A 111.25 111.25 0 0 1 555.62 317.69" fill="none" stroke="#b8bec7" stroke-width="2"/>
<path d="M 555.62 317.69 A 111.25 111.25 0 0 1 611.25 414.04" fill="none" stroke="#b8bec7" stroke-width="2"/>
<path d="M 833.75 414.04 A 111.25 111.25 0 0 1 778.12 510.38" fill="none" stroke="#b8bec7" stroke-width="2"/>
<path d="M 778.12 510.38 A 111.25 111.25 0 0 1 666.88 510.38" fill="none" stroke="#b8bec7" stroke-width="2"/>
<path d="M 666.88 510.38 A 111.25 111.25 0 0 1 611.25 414.04" fill="none" stroke="#b8bec7" stroke-width="2"/>
<path d="M 611.25 414.04 A 111.25 111.25 0 0 1 666.88 317.69" fill="none" stroke="#b8bec7" stroke-width="2"/>
<path d="M 666.88 317.69 A 111.25 111.25 0 0 1 778.12 317.69" fill="none" stroke="#b8bec7" stroke-width="2"/>
<path d="M 778.12 317.69 A 111.25 111.25 0 0 1 833.75 414.04" fill="none" stroke="#b8bec7" stroke-width="2"/>
<path d="M 277.50 606.73 A 111.25 111.25 0 0 1 221.88 703.07" fill="none" stroke="#b8bec7" stroke-width="2"/>
<path d="M 221.88 703.07 A 111.25 111.25 0 0 1 110.63 703.07" fill="none" stroke="#b8bec7" stroke-width="2"/>
<path d="M 110.63 703.07 A 111.25 111.25 0 0 1 55.00 606.73" fill="none" stroke="#b8bec7" stroke-width="2"/>
<path d="M 55.00 606.73 A 111.25 111.25 0 0 1 110.62 510.38" fill="none" stroke="#b8bec7" stroke-width="2"/>
<path d="M 110.62 510.38 A 111.25 111.25 0 0 1 221.88 510.38" fill="none" stroke="#b8bec7" stroke-width="2"/>
<path d="M 221.88 510.38 A 111.25 111.25 0 0 1 277.50 606.73" fill="none" stroke="#b8bec7" stroke-width="2"/>
<path d="M 500.00 606.73 A 111.25 111.25 0 0 1 444.38 703.07" fill="none" stroke="#b8bec7" stroke-width="2"/>
<path d="M 444.38 703.07 A 111.25 111.25 0 0 1 333.12 703.07" fill="none" stroke="#b8bec7" stroke-width="2"/>
<path d="M 333.12 703.07 A 111.25 111.25 0 0 1 277.50 606.73" fill="none" stroke="#b8bec7" stroke-width="2"/>
<path d="M 277.50 606.73 A 111.25 111.25 0 0 1 333.12 510.38" fill="none" stroke="#b8bec7" stroke-width="2"/>
<path d="M 333.12 510.38 A 111.25 111.25 0 0 1 444.38 510.38" fill="none" stroke="#b8bec7" stroke-width="2"/>
<path d="M 444.38 510.38 A 111.25 111.25 0 0 1 500.00 606.73" fill="none" stroke="#b8bec7" stroke-width="2"/>
<path d="M 722.50 606.73 A 111.25 111.25 0 0 1 666.88 703.07" fill="none" stroke="#b8bec7" stroke-width="2"/>
<path d="M 666.88 703.07 A 111.25 111.25 0 0 1 555.62 703.07" fill="none" stroke="#b8bec7" stroke-width="2"/>
<path d="M 555.62 703.07 A 111.25 111.25 0 0 1 500.00 606.73" fill="none" stroke="#b8bec7" stroke-width="2"/>
<path d="M 500.00 606.73 A 111.25 111.25 0 0 1 555.62 510.38" fill="none" stroke="#b8bec7" stroke-width="2"/>
<path d="M 555.62 510.38 A 111.25 111.25 0 0 1 666.88 510.38" fill="none" stroke="#b8bec7" stroke-width="2"/>
<path d="M 666.88 510.38 A 111.25 111.25 0 0 1 722.50 606.73" fill="none" stroke="#b8bec7" stroke-width="2"/>
<path d="M 945.00 606.73 A 111.25 111.25 0 0 1 889.38 703.07" fill="none" stroke="#b8bec7" stroke-width="2"/>
<path d="M 889.38 703.07 A 111.25 111.25 0 0 1 778.12 703.07" fill="none" stroke="#b8bec7" stroke-width="2"/>
<path d="M 778.12 703.07 A 111.25 111.25 0 0 1 722.50 606.73" fill="none" stroke="#b8bec7" stroke-width="2"/>
<path d="M 722.50 606.73 A 111.25 111.25 0 0 1 778.12 510.38" fill="none" stroke="#b8bec7" stroke-width="2"/>
<path d="M 778.12 510.38 A 111.25 111.25 0 0 1 889.38 510.38" fill="none" stroke="#b8bec7" stroke-width="2"/>
<path d="M 889.38 510.38 A 111.25 111.25 0 0 1 945.00 606.73" fill="none" stroke="#b8bec7" stroke-width="2"/>
<path d="M 388.75 799.42 A 111.25 111.25 0 0 1 333.12 895.76" fill="none" stroke="#b8bec7" stroke-width="2"/>
<path d="M 333.12 895.76 A 111.25 111.25 0 0 1 221.88 895.76" fill="none" stroke="#b8bec7" stroke-width="2"/>
<path d="M 221.88 895.76 A 111.25 111.25 0 0 1 166.25 799.42" fill="none" stroke="#b8bec7" stroke-width="2"/>
<path d="M 166.25 799.42 A 111.25 111.25 0 0 1 221.88 703.07" fill="none" stroke="#b8bec7" stroke-width="2"/>
<path d="M 221.88 703.07 A 111.25 111.25 0 0 1 333.12 703.07" fill="none" stroke="#b8bec7" stroke-width="2"/>
<path d="M 333.12 703.07 A 111.25 111.25 0 0 1 388.75 799.42" fill="none" stroke="#b8bec7" stroke-width="2"/>
<path d="M 611.25 799.42 A 111.25 111.25 0 0 1 555.62 895.76" fill="none" stroke="#b8bec7" stroke-width="2"/>
<path d="M 555.62 895.76 A 111.25 111.25 0 0 1 444.38 895.76" fill="none" stroke="#b8bec7" stroke-width="2"/>
<path d="M 444.38 895.76 A 111.25 111.25 0 0 1 388.75 799.42" fill="none" stroke="#b8bec7" stroke-width="2"/>
<path d="M 388.75 799.42 A 111.25 111.25 0 0 1 444.38 703.07" fill="none" stroke="#b8bec7" stroke-width="2"/>
<path d="M 444.38 703.07 A 111.25 111.25 0 0 1 555.62 703.07" fill="none" stroke="#b8bec7" stroke-width="2"/>
<path d="M 555.62 703.07 A 111.25 111.25 0 0 1 611.25 799.42" fill="none" stroke="#b8bec7" stroke-width="2"/>
<path d="M 833.75 799.42 A 111.25 111.25 0 0 1 778.12 895.76" fill="none" stroke="#b8bec7" stroke-width="2"/>
<path d="M 778.12 895.76 A 111.25 111.25 0 0 1 666.88 895.76" fill="none" stroke="#b8bec7" stroke-width="2"/>
<path d="M 666.88 895.76 A 111.25 111.25 0 0 1 611.25 799.42" fill="none" stroke="#b8bec7" stroke-width="2"/>
<path d="M 611.25 799.42 A 111.25 111.25 0 0 1 666.88 703.07" fill="none" stroke="#b8bec7" stroke-width="2"/>
<path d="M 666.88 703.07 A 111.25 111.25 0 0 1 778.12 703.07" fill="none" stroke="#b8bec7" stroke-width="2"/>
<path d="M 778.12 703.07 A 111.25 111.25 0 0 1 833.75 799.42" fill="none" stroke="#b8bec7" stroke-width="2"/>
<text x="166.25" y="231.85" text-anchor="middle" font-size="30.0" font-weight="600" font-family="sans-serif">5</text>
<text x="277.50" y="424.54" text-anchor="middle" font-size="30.0" font-weight="600" font-family="sans-serif">3</text>
<text x="166.25" y="617.23" text-anchor="middle" font-size="30.0" font-weight="600" font-family="sans-serif">π</text>
<text x="388.75" y="360.31" text-anchor="middle" font-size="30.0" font-weight="600" font-family="sans-serif">π</text>
<text x="277.50" y="681.46" text-anchor="middle" font-size="30.0" font-weight="600" font-family="sans-serif">π</text>
</svg>