<svg xmlns="http://www.w3.org/2000/svg" width="1000" height="881" viewBox="0 0 1000 881">
<rect width="100%" height="100%" fill="white"/>
<text x="500.0" y="45" text-anchor="middle" font-size="28" font-family="sans-serif">TSH-13 - 答案</text>
<path d="M 176.36 160.03 A 40.45 40.45 0 0 1 156.14 195.07" fill="none" stroke="#b8bec7" stroke-width="2"/>
<path d="M 156.14 195.07 A 40.45 40.45 0 0 1 115.68 195.07" fill="none" stroke="#b8bec7" stroke-width="2"/>
<path d="M 115.68 195.07 A 40.45 40.45 0 0 1 95.45 160.03" fill="none" stroke="#b8bec7" stroke-width="2"/>
<path d="M 95.45 160.03 A 40.45 40.45 0 0 1 115.68 125.00" fill="none" stroke="#b8bec7" stroke-width="2"/>
<path d="M 115.68 125.00 A 40.45 40.45 0 0 1 156.14 125.00" fill="none" stroke="#b8bec7" stroke-width="2"/>
<path d="M 156.14 125.00 A 40.45 40.45 0 0 1 176.36 160.03" fill="none" stroke="#b8bec7" stroke-width="2"/>
<path d="M 257.27 160.03 A 40.45 40.45 0 0 1 237.05 195.07" fill="none" stroke="#b8bec7" stroke-width="2"/>
<path d="M 237.05 195.07 A 40.45 40.45 0 0 1 196.59 195.07" fill="none" stroke="#b8bec7" stroke-width="2"/>
<path d="M 196.59 195.07 A 40.45 40.45 0 0 1 176.36 160.03" fill="none" stroke="#b8bec7" stroke-width="2"/>
<path d="M 176.36 160.03 A 40.45 40.45 0 0 1 196.59 125.00" fill="none" stroke="#b8bec7" stroke-width="2"/>
<path d="M 196.59 125.00 A 40.45 40.45 0 0 1 237.05 125.00" fill="none" stroke="#b8bec7" stroke-width="2"/>
<path d="M 237.05 125.00 A 40.45 40.45 0 0 1 257.27 160.03" fill="none" stroke="#b8bec7" stroke-width="2"/>
<path d="M 338.18 160.03 A 40.45 40.45 0 0 1 317.95 195.07" fill="none" stroke="#b8bec7" stroke-width="2"/>
<path d="M 317.95 195.07 A 40.45 40.45 0 0 1 277.50 195.07" fill="none" stroke="#b8bec7" stroke-width="2"/>
<path d="M 277.50 195.07 A 40.45 40.45 0 0 1 257.27 160.03" fill="none" stroke="#b8bec7" stroke-width="2"/>
<path d="M 257.27 160.03 A 40.45 40.45 0 0 1 277.50 125.00" fill="none" stroke="#b8bec7" stroke-width="2"/>
<path d="M 277.50 125.00 A 40.45 40.45 0 0 1 317.95 125.00" fill="none" stroke="#b8bec7" stroke-width="2"/>
<path d="M 317.95 125.00 A 40.45 40.45 0 0 1 338.18 160.03" fill="none" stroke="#b8bec7" stroke-width="2"/>
<path d="M 419.09 160.03 A 40.45 40.45 0 0 1 398.86 195.07" fill="none" stroke="#b8bec7" stroke-width="2"/>
<path d="M 398.86 195.07 A 40.45 40.45 0 0 1 358.41 195.07" fill="none" stroke="#b8bec7" stroke-width="2"/>
<path d="M 358.41 195.07 A 40.45 40.45 0 0 1 338.18 160.03" fill="none" stroke="#b8bec7" stroke-width="2"/>
<path d="M 338.18 160.03 A 40.45 40.45 0 0 1 358.41 125.00" fill="none" stroke="#b8bec7" stroke-width="2"/>
<path d="M 358.41 125.00 A 40.45 40.45 0 0 1 398.86 125.00" fill="none" stroke="#b8bec7" stroke-width="2"/>
<path d="M 398.86 125.00 A 40.45 40.45 0 0 1 419.09 160.03" fill="none" stroke="#b8bec7" stroke-width="2"/>
<path d="M 500.00 160.03 A 40.45 40.45 0 0 1 479.77 195.07" fill="none" stroke="#b8bec7" stroke-width="2"/>
<path d="M 479.77 195.07 A 40.45 40.45 0 0 1 439.32 195.07" fill="none" stroke="#b8bec7" stroke-width="2"/>
<path d="M 439.32 195.07 A 40.45 40.45 0 0 1 419.09 160.03" fill="none" stroke="#b8bec7" stroke-width="2"/>
<path d="M 419.09 160.03 A 40.45 40.45 0 0 1 439.32 125.00" fill="none" stroke="#b8bec7" stroke-width="2"/>
<path d="M 439.32 125.00 A 40.45 40.45 0 0 1 479.77 125.00" fill="none" stroke="#b8bec7" stroke-width="2"/>
<path d="M 479.77 125.00 A 40.45 40.45 0 0 1 500.00 160.03" fill="none" stroke="#b8bec7" stroke-width="2"/>
<path d="M 580.91 160.03 A 40.45 40.45 0 0 1 560.68 195.07" fill="none" stroke="#b8bec7" stroke-width="2"/>
<path d="M 560.68 195.07 A 40.45 40.45 0 0 1 520.23 195.07" fill="none" stroke="#b8bec7" stroke-width="2"/>
<path d="M 520.23 195.07 A 40.45 40.45 0 0 1 500.00 160.03" fill="none" stroke="#b8bec7" stroke-width="2"/>
<path d="M 500.00 160.03 A 40.45 40.45 0 0 1 520.23 125.00" fill="none" stroke="#b8bec7" stroke-width="2"/>
<path d="M 520.23 125.00 A 40.45 40.45 0 0 1 560.68 125.00" fill="none" stroke="#b8bec7" stroke-width="2"/>
<path d="M 560.68 125.00 A 40.45 40.45 0 0 1 580.91 160.03" fill="none" stroke="#b8bec7" stroke-width="2"/>
<path d="M 661.82 160.03 A 40.45 40.45 0 0 1 641.59 195.07" fill="none" stroke="#b8bec7" stroke-width="2"/>
<path d="M 641.59 195.07 A 40.45 40.45 0 0 1 601.14 195.07" fill="none" stroke="#b8bec7" stroke-width="2"/>
<path d="M 601.14 195.07 A 40.45 40.45 0 0 1 580.91 160.03" fill="none" stroke="#b8bec7" stroke-width="2"/>
<path d="M 580.91 160.03 A 40.45 40.45 0 0 1 601.14 125.00" fill="none" stroke="#b8bec7" stroke-width="2"/>
<path d="M 601.14 125.00 A 40.45 40.45 0 0 1 641.59 125.00" fill="none" stroke="#b8bec7" stroke-width="2"/>
<path d="M 641.59 125.00 A 40.45 40.45 0 0 1 661.82 160.03" fill="none" stroke="#b8bec7" stroke-width="2"/>
<path d="M 742.73 160.03 A 40.45 40.45 0 0 1 722.50 195.07" fill="none" stroke="#b8bec7" stroke-width="2"/>
<path d="M 722.50 195.07 A 40.45 40.45 0 0 1 682.05 195.07" fill="none" stroke="#b8bec7" stroke-width="2"/>
<path d="M 682.05 195.07 A 40.45 40.45 0 0 1 661.82 160.03" fill="none" stroke="#b8bec7" stroke-width="2"/>
<path d="M 661.82 160.03 A 40.45 40.45 0 0 1 682.05 125.00" fill="none" stroke="#b8bec7" stroke-width="2"/>
<path d="M 682.05 125.00 A 40.45 40.45 0 0 1 722.50 125.00" fill="none" stroke="#b8bec7" stroke-width="2"/>
<path d="M 722.50 125.00 A 40.45 40.45 0 0 1 742.73 160.03" fill="none" stroke="#b8bec7" stroke-width="2"/>
<path d="M 823.64 160.03 A 40.45 40.45 0 0 1 803.41 195.07" fill="none" stroke="#b8bec7" stroke-width="2"/>
<path d="M 803.41 195.07 A 40.45 40.45 0 0 1 762.95 195.07" fill="none" stroke="#b8bec7" stroke-width="2"/>
<path d="M 762.95 195.07 A 40.45 40.45 0 0 1 742.73 160.03" fill="none" stroke="#b8bec7" stroke-width="2"/>
<path d="M 742.73 160.03 A 40.45 40.45 0 0 1 762.95 125.00" fill="none" stroke="#b8bec7" stroke-width="2"/>
<path d="M 762.95 125.00 A 40.45 40.45 0 0 1 803.41 125.00" fill="none" stroke="#b8bec7" stroke-width="2"/>
<path d="M 803.41 125.00 A 40.45 40.45 0 0 1 823.64 160.03" fill="none" stroke="#b8bec7" stroke-width="2"/>
<path d="M 904.55 160.03 A 40.45 40.45 0 0 1 884.32 195.07" fill="none" stroke="#b8bec7" stroke-width="2"/>
<path d="M 884.32 195.07 A 40.45 40.45 0 0 1 843.86 195.07" fill="none" stroke="#b8bec7" stroke-width="2"/>
<path d="M 843.86 195.07 A 40.45 40.45 0 0 1 823.64 160.03" fill="none" stroke="#b8bec7" stroke-width="2"/>
<path d="M 823.64 160.03 A 40.45 40.45 0 0 1 843.86 125.00" fill="none" stroke="#b8bec7" stroke-width="2"/>
<path d="M 843.86 125.00 A 40.45 40.45 0 0 1 884.32 125.00" fill="none" stroke="#b8bec7" stroke-width="2"/>
<path d="M 884.32 125.00 A 40.45 40.45 0 0 1 904.55 160.03" fill="none" stroke="#b8bec7" stroke-width="2"/>
<path d="M 135.91 230.10 A 40.45 40.45 0 0 1 115.68 265.14" fill="none" stroke="#b8bec7" stroke-width="2"/>
<path d="M 115.68 265.14 A 40.45 40.45 0 0 1 75.23 265.14" fill="none" stroke="#b8bec7" stroke-width="2"/>
<path d="M 75.23 265.14 A 40.45 40.45 0 0 1 55.00 230.10" fill="none" stroke="#b8bec7" stroke-width="2"/>
<path d="M 55.00 230.10 A 40.45 40.45 0 0 1 75.23 195.07" fill="none" stroke="#b8bec7" stroke-width="2"/>
<path d="M 75.23 195.07 A 40.45 40.45 0 0 1 115.68 195.07" fill="none" stroke="#b8bec7" stroke-width="2"/>
<path d="M 115.68 195.07 A 40.45 40.45 0 0 1 135.91 230.10" fill="none" stroke="#b8bec7" stroke-width="2"/>
<path d="M 216.82 230.10 A 40.45 40.45 0 0 1 196.59 265.14" fill="none" stroke="#b8bec7" stroke-width="2"/>
<path d="M 196.59 265.14 A 40.45 40.45 0 0 1 156.14 265.14" fill="none" stroke="#b8bec7" stroke-width="2"/>
<path d="M 156.14 265.14 A 40.45 40.45 0 0 1 135.91 230.10" fill="none" stroke="#b8bec7" stroke-width="2"/>
<path d="M 135.91 230.10 A 40.45 40.45 0 0 1 156.14 195.07" fill="none" stroke="#b8bec7" stroke-width="2"/>
<path d="M 156.14 195.07 A 40.45 40.45 0 0 1 196.59 195.07" fill="none" stroke="#b8bec7" stroke-width="2"/>
<path d="M 196.59 195.07 A 40.45 40.45 0 0 1 216.82 230.10" fill="none" stroke="#b8bec7" stroke-width="2"/>
<path d="M 297.73 230.10 A 40.45 40.45 0 0 1 277.50 265.14" fill="none" stroke="#b8bec7" stroke-width="2"/>
<path d="M 277.50 265.14 A 40.45 40.45 0 0 1 237.05 265.14" fill="none" stroke="#b8bec7" stroke-width="2"/>
<path d="M 237.05 265.14 A 40.45 40.45 0 0 1 216.82 230.10" fill="none" stroke="#b8bec7" stroke-width="2"/>
<path d="M 216.82 230.10 A 40.45 40.45 0 0 1 237.05 195.07" fill="none" stroke="#b8bec7" stroke-width="2"/>
<path d="M 237.05 195.07 A 40.45 40.45 0 0 1 277.50 195.07" fill="none" stroke="#b8bec7" stroke-width="2"/>
<path d="M 277.50 195.07 A 40.45 40.45 0 0 1 297.73 230.10" fill="none" stroke="#b8bec7" stroke-width="2"/>
<path d="M 378.64 230.10 A 40.45 40.45 0 0 1 358.41 265.14" fill="none" stroke="#b8bec7" stroke-width="2"/>
<path d="M 358.41 265.14 A 40.45 40.45 0 0 1 317.95 265.14" fill="none" stroke="#b8bec7" stroke-width="2"/>
<path d="M 317.95 265.14 A 40.45 40.45 0 0 1 297.73 230.10" fill="none" stroke="#b8bec7" stroke-width="2"/>
<path d="M 297.73 230.10 A 40.45 40.45 0 0 1 317.95 195.07" fill="none" stroke="#b8bec7" stroke-width="2"/>
<path d="M 317.95 195.07 A 40.45 40.45 0 0 1 358.41 195.07" fill="none" stroke="#b8bec7" stroke-width="2"/>
<path d="M 358.41 195.07 A 40.45 40.45 0 0 1 378.64 230.10" fill="none" stroke="#b8bec7" stroke-width="2"/>
<path d="M 459.55 230.10 A 40.45 40.45 0 0 1 439.32 265.14" fill="none" stroke="#b8bec7" stroke-width="2"/>
<path d="M 439.32 265.14 A 40.45 40.45 0 0 1 398.86 265.14" fill="none" stroke="#b8bec7" stroke-width="2"/>
<path d="M 398.86 265.14 A 40.45 40.45 0 0 1 378.64 230.10" fill="none" stroke="#b8bec7" stroke-width="2"/>
<path d="M 378.64 230.10 A 40.45 40.45 0 0 1 398.86 195.07" fill="none" stroke="#b8bec7" stroke-width="2"/>
<path d="M 398.86 195.07 A 40.45 40.45 0 0 1 439.32 195.07" fill="none" stroke="#b8bec7" stroke-width="2"/>
<path d="M 439.32 195.07 A 40.45 40.45 0 0 1 459.55 230.10" fill="none" stroke="#b8bec7" stroke-width="2"/>
<path d="M 540.45 230.10 A 40.45 40.45 0 0 1 520.23 265.14" fill="none" stroke="#b8bec7" stroke-width="2"/>
<path d="M 520.23 265.14 A 40.45 40.45 0 0 1 479.77 265.14" fill="none" stroke="#b8bec7" stroke-width="2"/>
<path d="M 479.77 265.14 A 40.45 40.45 0 0 1 459.55 230.10" fill="none" stroke="#b8bec7" stroke-width="2"/>
<path d="M 459.55 230.10 A 40.45 40.45 0 0 1 479.77 195.07" fill="none" stroke="#b8bec7" stroke-width="2"/>
<path d="M 479.77 195.07 A 40.45 40.45 0 0 1 520.23 195.07" fill="none" stroke="#b8bec7" stroke-width="2"/>
<path d="M 520.23 195.07 A 40.45 40.45 0 0 1 540.45 230.10" fill="none" stroke="#b8bec7" stroke-width="2"/>
<path d="M 621.36 230.10 A 40.45 40.45 0 0 1 601.14 265.14" fill="none" stroke="#b8bec7" stroke-width="2"/>
<path d="M 601.14 265.14 A 40.45 40.45 0 0 1 560.68 265.14" fill="none" stroke="#b8bec7" stroke-width="2"/>
<path d="M 560.68 265.14 A 40.45 40.45 0 0 1 540.45 230.10" fill="none" stroke="#b8bec7" stroke-width="2"/>
<path d="M 540.45 230.10 A 40.45 40.45 0 0 1 560.68 195.07" fill="none" stroke="#b8bec7" stroke-width="2"/>
<path d="M 560.68 195.07 A 40.45 40.45 0 0 1 601.14 195.07" fill="none" stroke="#b8bec7" stroke-width="2"/>
<path d="M 601.14 195.07 A 40.45 40.45 0 0 1 621.36 230.10" fill="none" stroke="#b8bec7" stroke-width="2"/>
<path d="M 702.27 230.10 A 40.45 40.45 0 0 1 682.05 265.14" fill="none" stroke="#b8bec7" stroke-width="2"/>
<path d="M 682.05 265.14 A 40.45 40.45 0 0 1 641.59 265.14" fill="none" stroke="#b8bec7" stroke-width="2"/>
<path d="M 641.59 265.14 A 40.45 40.45 0 0 1 621.36 230.10" fill="none" stroke="#b8bec7" stroke-width="2"/>
<path d="M 621.36 230.10 A 40.45 40.45 0 0 1 641.59 195.07" fill="none" stroke="#b8bec7" stroke-width="2"/>
<path d="M 641.59 195.07 A 40.45 40.45 0 0 1 682.05 195.07" fill="none" stroke="#b8bec7" stroke-width="2"/>
<path d="M 682.05 195.07 A 40.45 40.45 0 0 1 702.27 230.10" fill="none" stroke="#b8bec7" stroke-width="2"/>
<path d="M 783.18 230.10 A 40.45 40.45 0 0 1 762.95 265.14" fill="none" stroke="#b8bec7" stroke-width="2"/>
<path d="M 762.95 265.14 A 40.45 40.45 0 0 1 722.50 265.14" fill="none" stroke="#b8bec7" stroke-width="2"/>
<path d="M 722.50 265.14 A 40.45 40.45 0 0 1 702.27 230.10" fill="none" stroke="#b8bec7" stroke-width="2"/>
<path d="M 702.27 230.10 A 40.45 40.45 0 0 1 722.50 195.07" fill="none" stroke="#b8bec7" stroke-width="2"/>
<path d="M 722.50 195.07 A 40.45 40.45 0 0 1 762.95 195.07" fill="none" stroke="#b8bec7" stroke-width="2"/>
<path d="M 762.95 195.07 A 40.45 40.45 0 0 1 783.18 230.10" fill="none" stroke="#b8bec7" stroke-width="2"/>
<path d="M 864.09 230.10 A 40.45 40.45 0 0 1 843.86 265.14" fill="none" stroke="#b8bec7" stroke-width="2"/>
<path d="M 843.86 265.14 A 40.45 40.45 0 0 1 803.41 265.14" fill="none" stroke="#b8bec7" stroke-width="2"/>
<path d="M 803.41 265.14 A 40.45 40.45 0 0 1 783.18 230.10" fill="none" stroke="#b8bec7" stroke-width="2"/>
<path d="M 783.18 230.10 A 40.45 40.45 0 0 1 803.41 195.07" fill="none" stroke="#b8bec7" stroke-width="2"/>
<path d="M 803.41 195.07 A 40.45 40.45 0 0 1 843.86 195.07" fill="none" stroke="#b8bec7" stroke-width="2"/>
<path d="M 843.86 195.07 A 40.45 40.45 0 0 1 864.09 230.10" fill="none" stroke="#b8bec7" stroke-width="2"/>
<path d="M 945.00 230.10 A 40.45 40.45 0 0 1 924.77 265.14" fill="none" stroke="#b8bec7" stroke-width="2"/>
<path d="M 924.77 265.14 A 40.45 40.45 0 0 1 884.32 265.14" fill="none" stroke="#b8bec7" stroke-width="2"/>
<path d="M 884.32 265.14 A 40.45 40.45 0 0 1 864.09 230.10" fill="none" stroke="#b8bec7" stroke-width="2"/>
<path d="M 864.09 230.10 A 40.45 40.45 0 0 1 884.32 195.07" fill="none" stroke="#b8bec7" stroke-width="2"/>
<path d="M 884.32 195.07 A 40.45 40.45 0 0 1 924.77 195.07" fill="none" stroke="#b8bec7" stroke-width="2"/>
<path d="M 924.77 195.07 A 40.45 40.45 0 0 1 945.00 230.10" fill="none" stroke="#b8bec7" stroke-width="2"/>
<path d="M 176.36 300.17 A 40.45 40.45 0 0 1 156.14 335.21" fill="none" stroke="#b8bec7" stroke-width="2"/>
<path d="M 156.14 335.21 A 40.45 40.45 0 0 1 115.68 335.21" fill="none" stroke="#b8bec7" stroke-width="2"/>
<path d="M 115.68 335.21 A 40.45 40.45 0 0 1 95.45 300.17" fill="none" stroke="#b8bec7" stroke-width="2"/>
<path d="M 95.45 300.17 A 40.45 40.45 0 0 1 115.68 265.14" fill="none" stroke="#b8bec7" stroke-width="2"/>
<path d="M 115.68 265.14 A 40.45 40.45 0 0 1 156.14 265.14" fill="none" stroke="#b8bec7" stroke-width="2"/>
<path d="M 156.14 265.14 A 40.45 40.45 0 0 1 176.36 300.17" fill="none" stroke="#b8bec7" stroke-width="2"/>
<path d="M 257.27 300.17 A 40.45 40.45 0 0 1 237.05 335.21" fill="none" stroke="#b8bec7" stroke-width="2"/>
<path d="M 237.05 335.21 A 40.45 40.45 0 0 1 196.59 335.21" fill="none" stroke="#b8bec7" stroke-width="2"/>
<path d="M 196.59 335.21 A 40.45 40.45 0 0 1 176.36 300.17" fill="none" stroke="#b8bec7" stroke-width="2"/>
<path d="M 176.36 300.17 A 40.45 40.45 0 0 1 196.59 265.14" fill="none" stroke="#b8bec7" stroke-width="2"/>
<path d="M 196.59 265.14 A 40.45 40.45 0 0 1 237.05 265.14" fill="none" stroke="#b8bec7" stroke-width="2"/>
<path d="M 237.05 265.14 A 40.45 40.45 0 0 1 257.27 300.17" fill="none" stroke="#b8bec7" stroke-width="2"/>
<path d="M 338.18 300.17 A 40.45 40.45 0 0 1 317.95 335.21" fill="none" stroke="#b8bec7" stroke-width="2"/>
<path d="M 317.95 335.21 A 40.45 40.45 0 0 1 277.50 335.21" fill="none" stroke="#b8bec7" stroke-width="2"/>
<path d="M 277.50 335.21 A 40.45 40.45 0 0 1 257.27 300.17" fill="none" stroke="#b8bec7" stroke-width="2"/>
<path d="M 257.27 300.17 A 40.45 40.45 0 0 1 277.50 265.14" fill="none" stroke="#b8bec7" stroke-width="2"/>
<path d="M 277.50 265.14 A 40.45 40.45 0 0 1 317.95 265.14" fill="none" stroke="#b8bec7" stroke-width="2"/>
<path d="M 317.95 265.14 A 40.45 40.45 0 0 1 338.18 300.17" fill="none" stroke="#b8bec7" stroke-width="2"/>
<path d="M 419.09 300.17 A 40.45 40.45 0 0 1 398.86 335.21" fill="none" stroke="#b8bec7" stroke-width="2"/>
<path d="M 398.86 335.21 A 40.45 40.45 0 0 1 358.41 335.21" fill="none" stroke="#b8bec7" stroke-width="2"/>
<path d="M 358.41 335.21 A 40.45 40.45 0 0 1 338.18 300.17" fill="none" stroke="#b8bec7" stroke-width="2"/>
<path d="M 338.18 300.17 A 40.45 40.45 0 0 1 358.41 265.14" fill="none" stroke="#b8bec7" stroke-width="2"/>
<path d="M 358.41 265.14 A 40.45 40.45 0 0 1 398.86 265.14" fill="none" stroke="#b8bec7" stroke-width="2"/>
<path d="M 398.86 265.14 A 40.45 40.45 0 0 1 419.09 300.17" fill="none" stroke="#b8bec7" stroke-width="2"/>
<path d="M 500.00 300.17 A 40.45 40.45 0 0 1 479.77 335.21" fill="none" stroke="#b8bec7" stroke-width="2"/>
<path d="M 479.77 335.21 A 40.45 40.45 0 0 1 439.32 335.21" fill="none" stroke="#b8bec7" stroke-width="2"/>
<path d="M 439.32 335.21 A 40.45 40.45 0 0 1 419.09 300.17" fill="none" stroke="#b8bec7" stroke-width="2"/>
<path d="M 419.09 300.17 A 40.45 40.45 0 0 1 439.32 265.14" fill="none" stroke="#b8bec7" stroke-width="2"/>
<path d="M 439.32 265.14 A 40.45 40.45 0 0 1 479.77 265.14" fill="none" stroke="#b8bec7" stroke-width="2"/>
<path d="M 479.77 265.14 A 40.45 40.45 0 0 1 500.00 300.17" fill="none" stroke="#b8bec7" stroke-width="2"/>
<path d="M 580.91 300.17 A 40.45 40.45 0 0 1 560.68 335.21" fill="none" stroke="#b8bec7" stroke-width="2"/>
<path d="M 560.68 335.21 A 40.45 40.45 0 0 1 520.23 335.21" fill="none" stroke="#b8bec7" stroke-width="2"/>
<path d="M 520.23 335.21 A 40.45 40.45 0 0 1 500.00 300.17" fill="none" stroke="#b8bec7" stroke-width="2"/>
<path d="M 500.00 300.17 A 40.45 40.45 0 0 1 520.23 265.14" fill="none" stroke="#b8bec7" stroke-width="2"/>
<path d="M 520.23 265.14 A 40.45 40.45 0 0 1 560.68 265.14" fill="none" stroke="#b8bec7" stroke-width="2"/>
<path d="M 560.68 265.14 A 40.45 40.45 0 0 1 580.91 300.17" fill="none" stroke="#b8bec7" stroke-width="2"/>
<path d="M 661.82 300.17 A 40.45 40.45 0 0 1 641.59 335.21" fill="none" stroke="#b8bec7" stroke-width="2"/>
<path d="M 641.59 335.21 A 40.45 40.45 0 0 1 601.14 335.21" fill="none" stroke="#b8bec7" stroke-width="2"/>
<path d="M 601.14 335.21 A 40.45 40.45 0 0 1 580.91 300.17" fill="none" stroke="#b8bec7" stroke-width="2"/>
<path d="M 580.91 300.17 A 40.45 40.45 0 0 1 601.14 265.14" fill="none" stroke="#b8bec7" stroke-width="2"/>
<path d="M 601.14 265.14 A 40.45 40.45 0 0 1 641.59 265.14" fill="none" stroke="#b8bec7" stroke-width="2"/>
<path d="M 641.59 265.14 A 40.45 40.45 0 0 1 661.82 300.17" fill="none" stroke="#b8bec7" stroke-width="2"/>
<path d="M 742.73 300.17 A 40.45 40.45 0 0 1 722.50 335.21" fill="none" stroke="#b8bec7" stroke-width="2"/>
<path d="M 722.50 335.21 A 40.45 40.45 0 0 1 682.05 335.21" fill="none" stroke="#b8bec7" stroke-width="2"/>
<path d="M 682.05 335.21 A 40.45 40.45 0 0 1 661.82 300.17" fill="none" stroke="#b8bec7" stroke-width="2"/>
<path d="M 661.82 300.17 A 40.45 40.45 0 0 1 682.05 265.14" fill="none" stroke="#b8bec7" stroke-width="2"/>
<path d="M 682.05 265.14 A 40.45 40.45 0 0 1 722.50 265.14" fill="none" stroke="#b8bec7" stroke-width="2"/>
<path d="M 722.50 265.14 A 40.45 40.45 0 0 1 742.73 300.17" fill="none" stroke="#b8bec7" stroke-width="2"/>
<path d="M 823.64 300.17 A 40.45 40.45 0 0 1 803.41 335.21" fill="none" stroke="#b8bec7" stroke-width="2"/>
<path d="M 803.41 335.21 A 40.45 40.45 0 0 1 762.95 335.21" fill="none" stroke="#b8bec7" stroke-width="2"/>
<path d="M 762.95 335.21 A 40.45 40.45 0 0 1 742.73 300.17" fill="none" stroke="#b8bec7" stroke-width="2"/>
<path d="M 742.73 300.17 A 40.45 40.45 0 0 1 762.95 265.14" fill="none" stroke="#b8bec7" stroke-width="2"/>
<path d="M 762.95 265.14 A 40.45 40.45 0 0 1 803.41 265.14" fill="none" stroke="#b8bec7" stroke-width="2"/>
<path d="M 803.41 265.14 A 40.45 40.45 0 0 1 823.64 300.17" fill="none" stroke="#b8bec7" stroke-width="2"/>
<path d="M 904.55 300.17 A 40.45 40.45 0 0 1 884.32 335.21" fill="none" stroke="#b8bec7" stroke-width="2"/>
<path d="M 884.32 335.21 A 40.45 40.45 0 0 1 843.86 335.21" fill="none" stroke="#b8bec7" stroke-width="2"/>
<path d="M 843.86 335.21 A 40.45 40.45 0 0 1 823.64 300.17" fill="none" stroke="#b8bec7" stroke-width="2"/>
<path d="M 823.64 300.17 A 40.45 40.45 0 0 1 843.86 265.14" fill="none" stroke="#b8bec7" stroke-width="2"/>
<path d="M 843.86 265.14 A 40.45 40.45 0 0 1 884.32 265.14" fill="none" stroke="#b8bec7" stroke-width="2"/>
<path d="M 884.32 265.14 A 40.45 40.45 0 0 1 904.55 300.17" fill="none" stroke="#b8bec7" stroke-width="2"/>
<path d="M 135.91 370.24 A 40.45 40.45 0 0 1 115.68 405.28" fill="none" stroke="#b8bec7" stroke-width="2"/>
<path d="M 115.68 405.28 A 40.45 40.45 0 0 1 75.23 405.28" fill="none" stroke="#b8bec7" stroke-width="2"/>
<path d="M 75.23 405.28 A 40.45 40.45 0 0 1 55.00 370.24" fill="none" stroke="#b8bec7" stroke-width="2"/>
<path d="M 55.00 370.24 A 40.45 40.45 0 0 1 75.23 335.21" fill="none" stroke="#b8bec7" stroke-width="2"/>
<path d="M 75.23 335.21 A 40.45 40.45 0 0 1 115.68 335.21" fill="none" stroke="#b8bec7" stroke-width="2"/>
<path d="M 115.68 335.21 A 40.45 40.45 0 0 1 135.91 370.24" fill="none" stroke="#b8bec7" stroke-width="2"/>
<path d="M 216.82 370.24 A 40.45 40.45 0 0 1 196.59 405.28" fill="none" stroke="#b8bec7" stroke-width="2"/>
<path d="M 196.59 405.28 A 40.45 40.45 0 0 1 156.14 405.28" fill="none" stroke="#b8bec7" stroke-width="2"/>
<path d="M 156.14 405.28 A 40.45 40.45 0 0 1 135.91 370.24" fill="none" stroke="#b8bec7" stroke-width="2"/>
<path d="M 135.91 370.24 A 40.45 40.45 0 0 1 156.14 335.21" fill="none" stroke="#b8bec7" stroke-width="2"/>
<path d="M 156.14 335.21 A 40.45 40.45 0 0 1 196.59 335.21" fill="none" stroke="#b8bec7" stroke-width="2"/>
<path d="M 196.59 335.21 A 40.45 40.45 0 0 1 216.82 370.24" fill="none" stroke="#b8bec7" stroke-width="2"/>
<path d="M 297.73 370.24 A 40.45 40.45 0 0 1 277.50 405.28" fill="none" stroke="#b8bec7" stroke-width="2"/>
<path d="M 277.50 405.28 A 40.45 40.45 0 0 1 237.05 405.28" fill="none" stroke="#b8bec7" stroke-width="2"/>
<path d="M 237.05 405.28 A 40.45 40.45 0 0 1 216.82 370.24" fill="none" stroke="#b8bec7" stroke-width="2"/>
<path d="M 216.82 370.24 A 40.45 40.45 0 0 1 237.05 335.21" fill="none" stroke="#b8bec7" stroke-width="2"/>
<path d="M 237.05 335.21 A 40.45 40.45 0 0 1 277.50 335.21" fill="none" stroke="#b8bec7" stroke-width="2"/>
<path d="M 277.50 335.21 A 40.45 40.45 0 0 1 297.73 370.24" fill="none" stroke="#b8bec7" stroke-width="2"/>
<path d="M 378.64 370.24 A 40.45 40.45 0 0 1 358.41 405.28" fill="none" stroke="#b8bec7" stroke-width="2"/>
<path d="M 358.41 405.28 A 40.45 40.45 0 0 1 317.95 405.28" fill="none" stroke="#b8bec7" stroke-width="2"/>
<path d="M 317.95 405.28 A 40.45 40.45 0 0 1 297.73 370.24" fill="none" stroke="#b8bec7" stroke-width="2"/>
<path d="M 297.73 370.24 A 40.45 40.45 0 0 1 317.95 335.21" fill="none" stroke="#b8bec7" stroke-width="2"/>
<path d="M 317.95 335.21 A 40.45 40.45 0 0 1 358.41 335.21" fill="none" stroke="#b8bec7" stroke-width="2"/>
<path d="M 358.41 335.21 A 40.45 40.45 0 0 1 378.64 370.24" fill="none" stroke="#b8bec7" stroke-width="2"/>
<path d="M 459.55 370.24 A 40.45 40.45 0 0 1 439.32 405.28" fill="none" stroke="#b8bec7" stroke-width="2"/>
<path d="M 439.32 405.28 A 40.45 40.45 0 0 1 398.86 405.28" fill="none" stroke="#b8bec7" stroke-width="2"/>
<path d="M 398.86 405.28 A 40.45 40.45 0 0 1 378.64 370.24" fill="none" stroke="#b8bec7" stroke-width="2"/>
<path d="M 378.64 370.24 A 40.45 40.45 0 0 1 398.86 335.21" fill="none" stroke="#b8bec7" stroke-width="2"/>
<path d="M 398.86 335.21 A 40.45 40.45 0 0 1 439.32 335.21" fill="none" stroke="#b8bec7" stroke-width="2"/>
<path d="M 439.32 335.21 A 40.45 40.45 0 0 1 459.55 370.24" fill="none" stroke="#b8bec7" stroke-width="2"/>
<path d="M 540.45 370.24 A 40.45 40.45 0 0 1 520.23 405.28" fill="none" stroke="#b8bec7" stroke-width="2"/>
<path d="M 520.23 405.28 A 40.45 40.45 0 0 1 479.77 405.28" fill="none" stroke="#b8bec7" stroke-width="2"/>
<path d="M 479.77 405.28 A 40.45 40.45 0 0 1 459.55 370.24" fill="none" stroke="#b8bec7" stroke-width="2"/>
<path d="M 459.55 370.24 A 40.45 40.45 0 0 1 479.77 335.21" fill="none" stroke="#b8bec7" stroke-width="2"/>
<path d="M 479.77 335.21 A 40.45 40.45 0 0 1 520.23 335.21" fill="none" stroke="#b8bec7" stroke-width="2"/>
<path d="M 520.23 335.21 A 40.45 40.45 0 0 1 540.45 370.24" fill="none" stroke="#b8bec7" stroke-width="2"/>
<path d="M 621.36 370.24 A 40.45 40.45 0 0 1 601.14 405.28" fill="none" stroke="#b8bec7" stroke-width="2"/>
<path d="M 601.14 405.28 A 40.45 40.45 0 0 1 560.68 405.28" fill="none" stroke="#b8bec7" stroke-width="2"/>
<path d="M 560.68 405.28 A 40.45 40.45 0 0 1 540.45 370.24" fill="none" stroke="#b8bec7" stroke-width="2"/>
<path d="M 540.45 370.24 A 40.45 40.45 0 0 1 560.68 335.21" fill="none" stroke="#b8bec7" stroke-width="2"/>
<path d="M 560.68 335.21 A 40.45 40.45 0 0 1 601.14 335.21" fill="none" stroke="#b8bec7" stroke-width="2"/>
<path d="M 601.14 335.21 A 40.45 40.45 0 0 1 621.36 370.24" fill="none" stroke="#b8bec7" stroke-width="2"/>
<path d="M 702.27 370.24 A 40.45 40.45 0 0 1 682.05 405.28" fill="none" stroke="#b8bec7" stroke-width="2"/>
<path d="M 682.05 405.28 A 40.45 40.45 0 0 1 641.59 405.28" fill="none" stroke="#b8bec7" stroke-width="2"/>
<path d="M 641.59 405.28 A 40.45 40.45 0 0 1 621.36 370.24" fill="none" stroke="#b8bec7" stroke-width="2"/>
<path d="M 621.36 370.24 A 40.45 40.45 0 0 1 641.59 335.21" fill="none" stroke="#b8bec7" stroke-width="2"/>
<path d="M 641.59 335.21 A 40.45 40.45 0 0 1 682.05 335.21" fill="none" stroke="#b8bec7" stroke-width="2"/>
<path d="M 682.05 335.21 A 40.45 40.45 0 0 1 702.27 370.24" fill="none" stroke="#b8bec7" stroke-width="2"/>
<path d="M 783.18 370.24 A 40.45 40.45 0 0 1 762.95 405.28" fill="none" stroke="#b8bec7" stroke-width="2"/>
<path d="M 762.95 405.28 A 40.45 40.45 0 0 1 722.50 405.28" fill="none" stroke="#b8bec7" stroke-width="2"/>
<path d="M 722.50 405.28 A 40.45 40.45 0 0 1 702.27 370.24" fill="none" stroke="#b8bec7" stroke-width="2"/>
<path d="M 702.27 370.24 A 40.45 40.45 0 0 1 722.50 335.21" fill="none" stroke="#b8bec7" stroke-width="2"/>
<path d="M 722.50 335.21 A 40.45 40.45 0 0 1 762.95 335.21" fill="none" stroke="#b8bec7" stroke-width="2"/>
<path d="M 762.95 335.21 A 40.45 40.45 0 0 1 783.18 370.24" fill="none" stroke="#b8bec7" stroke-width="2"/>
<path d="M 864.09 370.24 A 40.45 40.45 0 0 1 843.86 405.28" fill="none" stroke="#b8bec7" stroke-width="2"/>
<path d="M 843.86 405.28 A 40.45 40.45 0 0 1 803.41 405.28" fill="none" stroke="#b8bec7" stroke-width="2"/>
<path d="M 803.41 405.28 A 40.45 40.45 0 0 1 783.18 370.24" fill="none" stroke="#b8bec7" stroke-width="2"/>
<path d="M 783.18 370.24 A 40.45 40.45 0 0 1 803.41 335.21" fill="none" stroke="#b8bec7" stroke-width="2"/>
<path d="M 803.41 335.21 A 40.45 40.45 0 0 1 843.86 335.21" fill="none" stroke="#b8bec7" stroke-width="2"/>
<path d="M 843.86 335.21 A 40.45 40.45 0 0 1 864.09 370.24" fill="none" stroke="#b8bec7" stroke-width="2"/>
<path d="M 945.00 370.24 A 40.45 40.45 0 0 1 924.77 405.28" fill="none" stroke="#b8bec7" stroke-width="2"/>
<path d="M 924.77 405.28 A 40.45 40.45 0 0 1 884.32 405.28" fill="none" stroke="#b8bec7" stroke-width="2"/>
<path d="M 884.32 405.28 A 40.45 40.45 0 0 1 864.09 370.24" fill="none" stroke="#b8bec7" stroke-width="2"/>
<path d="M 864.09 370.24 A 40.45 40.45 0 0 1 884.32 335.21" fill="none" stroke="#b8bec7" stroke-width="2"/>
<path d="M 884.32 335.21 A 40.45 40.45 0 0 1 924.77 335.21" fill="none" stroke="#b8bec7" stroke-width="2"/>
<path d="M 924.77 335.21 A 40.45 40.45 0 0 1 945.00 370.24" fill="none" stroke="#b8bec7" stroke-width="2"/>
<path d="M 176.36 440.31 A 40.45 40.45 0 0 1 156.14 475.35" fill="none" stroke="#b8bec7" stroke-width="2"/>
<path d="M 156.14 475.35 A 40.45 40.45 0 0 1 115.68 475.35" fill="none" stroke="#b8bec7" stroke-width="2"/>
<path d="M 115.68 475.35 A 40.45 40.45 0 0 1 95.45 440.31" fill="none" stroke="#b8bec7" stroke-width="2"/>
<path d="M 95.45 440.31 A 40.45 40.45 0 0 1 115.68 405.28" fill="none" stroke="#b8bec7" stroke-width="2"/>
<path d="M 115.68 405.28 A 40.45 40.45 0 0 1 156.14 405.28" fill="none" stroke="#b8bec7" stroke-width="2"/>
<path d="M 156.14 405.28 A 40.45 40.45 0 0 1 176.36 440.31" fill="none" stroke="#b8bec7" stroke-width="2"/>
<path d="M 257.27 440.31 A 40.45 40.45 0 0 1 237.05 475.35" fill="none" stroke="#b8bec7" stroke-width="2"/>
<path d="M 237.05 475.35 A 40.45 40.45 0 0 1 196.59 475.35" fill="none" stroke="#b8bec7" stroke-width="2"/>
<path d="M 196.59 475.35 A 40.45 40.45 0 0 1 176.36 440.31" fill="none" stroke="#b8bec7" stroke-width="2"/>
<path d="M 176.36 440.31 A 40.45 40.45 0 0 1 196.59 405.28" fill="none" stroke="#b8bec7" stroke-width="2"/>
<path d="M 196.59 405.28 A 40.45 40.45 0 0 1 237.05 405.28" fill="none" stroke="#b8bec7" stroke-width="2"/>
<path d="M 237.05 405.28 A 40.45 40.45 0 0 1 257.27 440.31" fill="none" stroke="#b8bec7" stroke-width="2"/>
<path d="M 338.18 440.31 A 40.45 40.45 0 0 1 317.95 475.35" fill="none" stroke="#b8bec7" stroke-width="2"/>
<path d="M 317.95 475.35 A 40.45 40.45 0 0 1 277.50 475.35" fill="none" stroke="#b8bec7" stroke-width="2"/>
<path d="M 277.50 475.35 A 40.45 40.45 0 0 1 257.27 440.31" fill="none" stroke="#b8bec7" stroke-width="2"/>
<path d="M 257.27 440.31 A 40.45 40.45 0 0 1 277.50 405.28" fill="none" stroke="#b8bec7" stroke-width="2"/>
<path d="M 277.50 405.28 A 40.45 40.45 0 0 1 317.95 405.28" fill="none" stroke="#b8bec7" stroke-width="2"/>
<path d="M 317.95 405.28 A 40.45 40.45 0 0 1 338.18 440.31" fill="none" stroke="#b8bec7" stroke-width="2"/>
<path d="M 419.09 440.31 A 40.45 40.45 0 0 1 398.86 475.35" fill="none" stroke="#b8bec7" stroke-width="2"/>
<path d="M 398.86 475.35 A 40.45 40.45 0 0 1 358.41 475.35" fill="none" stroke="#b8bec7" stroke-width="2"/>
<path d="M 358.41 475.35 A 40.45 40.45 0 0 1 338.18 440.31" fill="none" stroke="#b8bec7" stroke-width="2"/>
<path d="M 338.18 440.31 A 40.45 40.45 0 0 1 358.41 405.28" fill="none" stroke="#b8bec7" stroke-width="2"/>
<path d="M 358.41 405.28 A 40.45 40.45 0 0 1 398.86 405.28" fill="none" stroke="#b8bec7" stroke-width="2"/>
<path d="M 398.86 405.28 A 40.45 40.45 0 0 1 419.09 440.31" fill="none" stroke="#b8bec7" stroke-width="2"/>
<path d="M 500.00 440.31 A 40.45 40.45 0 0 1 479.77 475.35" fill="none" stroke="#b8bec7" stroke-width="2"/>
<path d="M 479.77 475.35 A 40.45 40.45 0 0 1 439.32 475.35" fill="none" stroke="#b8bec7" stroke-width="2"/>
<path d="M 439.32 475.35 A 40.45 40.45 0 0 1 419.09 440.31" fill="none" stroke="#b8bec7" stroke-width="2"/>
<path d="M 419.09 440.31 A 40.45 40.45 0 0 1 439.32 405.28" fill="none" stroke="#b8bec7" stroke-width="2"/>
<path d="M 439.32 405.28 A 40.45 40.45 0 0 1 479.77 405.28" fill="none" stroke="#b8bec7" stroke-width="2"/>
<path d="M 479.77 405.28 A 40.45 40.45 0 0 1 500.00 440.31" fill="none" stroke="#b8bec7" stroke-width="2"/>
<path d="M 580.91 440.31 A 40.45 40.45 0 0 1 560.68 475.35" fill="none" stroke="#b8bec7" stroke-width="2"/>
<path d="M 560.68 475.35 A 40.45 40.45 0 0 1 520.23 475.35" fill="none" stroke="#b8bec7" stroke-width="2"/>
<path d="M 520.23 475.35 A 40.45 40.45 0 0 1 500.00 440.31" fill="none" stroke="#b8bec7" stroke-width="2"/>
<path d="M 500.00 440.31 A 40.45 40.45 0 0 1 520.23 405.28" fill="none" stroke="#b8bec7" stroke-width="2"/>
<path d="M 520.23 405.28 A 40.45 40.45 0 0 1 560.68 405.28" fill="none" stroke="#b8bec7" stroke-width="2"/>
<path d="M 560.68 405.28 A 40.45 40.45 0 0 1 580.91 440.31" fill="none" stroke="#b8bec7" stroke-width="2"/>
<path d="M 661.82 440.31 A 40.45 40.45 0 0 1 641.59 475.35" fill="none" stroke="#b8bec7" stroke-width="2"/>
<path d="M 641.59 475.35 A 40.45 40.45 0 0 1 601.14 475.35" fill="none" stroke="#b8bec7" stroke-width="2"/>
<path d="M 601.14 475.35 A 40.45 40.45 0 0 1 580.91 440.31" fill="none" stroke="#b8bec7" stroke-width="2"/>
<path d="M 580.91 440.31 A 40.45 40.45 0 0 1 601.14 405.28" fill="none" stroke="#b8bec7" stroke-width="2"/>
<path d="M 601.14 405.28 A 40.45 40.45 0 0 1 641.59 405.28" fill="none" stroke="#b8bec7" stroke-width="2"/>
<path d="M 641.59 405.28 A 40.45 40.45 0 0 1 661.82 440.31" fill="none" stroke="#b8bec7" stroke-width="2"/>
<path d="M 742.73 440.31 A 40.45 40.45 0 0 1 722.50 475.35" fill="none" stroke="#b8bec7" stroke-width="2"/>
<path d="M 722.50 475.35 A 40.45 40.45 0 0 1 682.05 475.35" fill="none" stroke="#b8bec7" stroke-width="2"/>
<path d="M 682.05 475.35 A 40.45 40.45 0 0 1 661.82 440.31" fill="none" stroke="#b8bec7" stroke-width="2"/>
<path d="M 661.82 440.31 A 40.45 40.45 0 0 1 682.05 405.28" fill="none" stroke="#b8bec7" stroke-width="2"/>
<path d="M 682.05 405.28 A 40.45 40.45 0 0 1 722.50 405.28" fill="none" stroke="#b8bec7" stroke-width="2"/>
<path d="M 722.50 405.28 A 40.45 40.45 0 0 1 742.73 440.31" fill="none" stroke="#b8bec7" stroke-width="2"/>
<path d="M 823.64 440.31 A 40.45 40.45 0 0 1 803.41 475.35" fill="none" stroke="#b8bec7" stroke-width="2"/>
<path d="M 803.41 475.35 A 40.45 40.45 0 0 1 762.95 475.35" fill="none" stroke="#b8bec7" stroke-width="2"/>
<path d="M 762.95 475.35 A 40.45 40.45 0 0 1 742.73 440.31" fill="none" stroke="#b8bec7" stroke-width="2"/>
<path d="M 742.73 440.31 A 40.45 40.45 0 0 1 762.95 405.28" fill="none" stroke="#b8bec7" stroke-width="2"/>
<path d="M 762.95 405.28 A 40.45 40.45 0 0 1 803.41 405.28" fill="none" stroke="#b8bec7" stroke-width="2"/>
<path d="M 803.41 405.28 A 40.45 40.45 0 0 1 823.64 440.31" fill="none" stroke="#b8bec7" stroke-width="2"/>
<path d="M 904.55 440.31 A 40.45 40.45 0 0 1 884.32 475.35" fill="none" stroke="#b8bec7" stroke-width="2"/>
<path d="M 884.32 475.35 A 40.45 40.45 0 0 1 843.86 475.35" fill="none" stroke="#b8bec7" stroke-width="2"/>
<path d="M 843.86 475.35 A 40.45 40.45 0 0 1 823.64 440.31" fill="none" stroke="#b8bec7" stroke-width="2"/>
<path d="M 823.64 440.31 A 40.45 40.45 0 0 1 843.86 405.28" fill="none" stroke="#b8bec7" stroke-width="2"/>
<path d="M 843.86 405.28 A 40.45 40.45 0 0 1 884.32 405.28" fill="none" stroke="#b8bec7" stroke-width="2"/>
<path d="M 884.32 405.28 A 40.45 40.45 0 0 1 904.55 440.31" fill="none" stroke="#b8bec7" stroke-width="2"/>
<path d="M 135.91 510.38 A 40.45 40.45 0 0 1 115.68 545.42" fill="none" stroke="#b8bec7" stroke-width="2"/>
<path d="M 115.68 545.42 A 40.45 40.45 0 0 1 75.23 545.42" fill="none" stroke="#b8bec7" stroke-width="2"/>
<path d="M 75.23 545.42 A 40.45 40.45 0 0 1 55.00 510.38" fill="none" stroke="#b8bec7" stroke-width="2"/>
<path d="M 55.00 510.38 A 40.45 40.45 0 0 1 75.23 475.35" fill="none" stroke="#b8bec7" stroke-width="2"/>
<path d="M 75.23 475.35 A 40.45 40.45 0 0 1 115.68 475.35" fill="none" stroke="#b8bec7" stroke-width="2"/>
<path d="M 115.68 475.35 A 40.45 40.45 0 0 1 135.91 510.38" fill="none" stroke="#b8bec7" stroke-width="2"/>
<path d="M 216.82 510.38 A 40.45 40.45 0 0 1 196.59 545.42" fill="none" stroke="#b8bec7" stroke-width="2"/>
<path d="M 196.59 545.42 A 40.45 40.45 0 0 1 156.14 545.42" fill="none" stroke="#b8bec7" stroke-width="2"/>
<path d="M 156.14 545.42 A 40.45 40.45 0 0 1 135.91 510.38" fill="none" stroke="#b8bec7" stroke-width="2"/>
<path d="M 135.91 510.38 A 40.45 40.45 0 0 1 156.14 475.35" fill="none" stroke="#b8bec7" stroke-width="2"/>
<path d="M 156.14 475.35 A 40.45 40.45 0 0 1 196.59 475.35" fill="none" stroke="#b8bec7" stroke-width="2"/>
<path d="M 196.59 475.35 A 40.45 40.45 0 0 1 216.82 510.38" fill="none" stroke="#b8bec7" stroke-width="2"/>
<path d="M 297.73 510.38 A 40.45 40.45 0 0 1 277.50 545.42" fill="none" stroke="#b8bec7" stroke-width="2"/>
<path d="M 277.50 545.42 A 40.45 40.45 0 0 1 237.05 545.42" fill="none" stroke="#b8bec7" stroke-width="2"/>
<path d="M 237.05 545.42 A 40.45 40.45 0 0 1 216.82 510.38" fill="none" stroke="#b8bec7" stroke-width="2"/>
<path d="M 216.82 510.38 A 40.45 40.45 0 0 1 237.05 475.35" fill="none" stroke="#b8bec7" stroke-width="2"/>
<path d="M 237.05 475.35 A 40.45 40.45 0 0 1 277.50 475.35" fill="none" stroke="#b8bec7" stroke-width="2"/>
<path d="M 277.50 475.35 A 40.45 40.45 0 0 1 297.73 510.38" fill="none" stroke="#b8bec7" stroke-width="2"/>
<path d="M 378.64 510.38 A 40.45 40.45 0 0 1 358.41 545.42" fill="none" stroke="#b8bec7" stroke-width="2"/>
<path d="M 358.41 545.42 A 40.45 40.45 0 0 1 317.95 545.42" fill="none" stroke="#b8bec7" stroke-width="2"/>
<path d="M 317.95 545.42 A 40.45 40.45 0 0 1 297.73 510.38" fill="none" stroke="#b8bec7" stroke-width="2"/>
<path d="M 297.73 510.38 A 40.45 40.45 0 0 1 317.95 475.35" fill="none" stroke="#b8bec7" stroke-width="2"/>
<path d="M 317.95 475.35 A 40.45 40.45 0 0 1 358.41 475.35" fill="none" stroke="#b8bec7" stroke-width="2"/>
<path d="M 358.41 475.35 A 40.45 40.45 0 0 1 378.64 510.38" fill="none" stroke="#b8bec7" stroke-width="2"/>
<path d="M 459.55 510.38 A 40.45 40.45 0 0 1 439.32 545.42" fill="none" stroke="#b8bec7" stroke-width="2"/>
<path d="M 439.32 545.42 A 40.45 40.45 0 0 1 398.86 545.42" fill="none" stroke="#b8bec7" stroke-width="2"/>
<path d="M 398.86 545.42 A 40.45 40.45 0 0 1 378.64 510.38" fill="none" stroke="#b8bec7" stroke-width="2"/>
<path d="M 378.64 510.38 A 40.45 40.45 0 0 1 398.86 475.35" fill="none" stroke="#b8bec7" stroke-width="2"/>
<path d="M 398.86 475.35 A 40.45 40.45 0 0 1 439.32 475.35" fill="none" stroke="#b8bec7" stroke-width="2"/>
<path d="M 439.32 475.35 A 40.45 40.45 0 0 1 459.55 510.38" fill="none" stroke="#b8bec7" stroke-width="2"/>
<path d="M 540.45 510.38 A 40.45 40.45 0 0 1 520.23 545.42" fill="none" stroke="#b8bec7" stroke-width="2"/>
<path d="M 520.23 545.42 A 40.45 40.45 0 0 1 479.77 545.42" fill="none" stroke="#b8bec7" stroke-width="2"/>
<path d="M 479.77 545.42 A 40.45 40.45 0 0 1 459.55 510.38" fill="none" stroke="#b8bec7" stroke-width="2"/>
<path d="M 459.55 510.38 A 40.45 40.45 0 0 1 479.77 475.35" fill="none" stroke="#b8bec7" stroke-width="2"/>
<path d="M 479.77 475.35 A 40.45 40.45 0 0 1 520.23 475.35" fill="none" stroke="#b8bec7" stroke-width="2"/>
<path d="M 520.23 475.35 A 40.45 40.45 0 0 1 540.45 510.38" fill="none" stroke="#b8bec7" stroke-width="2"/>
<path d="M 621.36 510.38 A 40.45 40.45 0 0 1 601.14 545.42" fill="none" stroke="#b8bec7" stroke-width="2"/>
<path d="M 601.14 545.42 A 40.45 40.45 0 0 1 560.68 545.42" fill="none" stroke="#b8bec7" stroke-width="2"/>
<path d="M 560.68 545.42 A 40.45 40.45 0 0 1 540.45 510.38" fill="none" stroke="#b8bec7" stroke-width="2"/>
<path d="M 540.45 510.38 A 40.45 40.45 0 0 1 560.68 475.35" fill="none" stroke="#b8bec7" stroke-width="2"/>
<path d="M 560.68 475.35 A 40.45 40.45 0 0 1 601.14 475.35" fill="none" stroke="#b8bec7" stroke-width="2"/>
<path d="M 601.14 475.35 A 40.45 40.45 0 0 1 621.36 510.38" fill="none" stroke="#b8bec7" stroke-width="2"/>
<path d="M 702.27 510.38 A 40.45 40.45 0 0 1 682.05 545.42" fill="none" stroke="#b8bec7" stroke-width="2"/>
<path d="M 682.05 545.42 A 40.45 40.45 0 0 1 641.59 545.42" fill="none" stroke="#b8bec7" stroke-width="2"/>
<path d="M 641.59 545.42 A 40.45 40.45 0 0 1 621.36 510.38" fill="none" stroke="#b8bec7" stroke-width="2"/>
<path d="M 621.36 510.38 A 40.45 40.45 0 0 1 641.59 475.35" fill="none" stroke="#b8bec7" stroke-width="2"/>
<path d="M 641.59 475.35 A 40.45 40.45 0 0 1 682.05 475.35" fill="none" stroke="#b8bec7" stroke-width="2"/>
<path d="M 682.05 475.35 A 40.45 40.45 0 0 1 702.27 510.38" fill="none" stroke="#b8bec7" stroke-width="2"/>
<path d="M 783.18 510.38 A 40.45 40.45 0 0 1 762.95 545.42" fill="none" stroke="#b8bec7" stroke-width="2"/>
<path d="M 762.95 545.42 A 40.45 40.45 0 0 1 722.50 545.42" fill="none" stroke="#b8bec7" stroke-width="2"/>
<path d="M 722.50 545.42 A 40.45 40.45 0 0 1 702.27 510.38" fill="none" stroke="#b8bec7" stroke-width="2"/>
<path d="M 702.27 510.38 A 40.45 40.45 0 0 1 722.50 475.35" fill="none" stroke="#b8bec7" stroke-width="2"/>
<path d="M 722.50 475.35 A 40.45 40.45 0 0 1 762.95 475.35" fill="none" stroke="#b8bec7" stroke-width="2"/>
<path d="M 762.95 475.35 A 40.45 40.45 0 0 1 783.18 510.38" fill="none" stroke="#b8bec7" stroke-width="2"/>
<path d="M 864.09 510.38 A 40.45 40.45 0 0 1 843.86 545.42" fill="none" stroke="#b8bec7" stroke-width="2"/>
<path d="M 843.86 545.42 A 40.45 40.45 0 0 1 803.41 545.42" fill="none" stroke="#b8bec7" stroke-width="2"/>
<path d="M 803.41 545.42 A 40.45 40.45 0 0 1 783.18 510.38" fill="none" stroke="#b8bec7" stroke-width="2"/>
<path d="M 783.18 510.38 A 40.45 40.45 0 0 1 803.41 475.35" fill="none" stroke="#b8bec7" stroke-width="2"/>
<path d="M 803.41 475.35 A 40.45 40.45 0 0 1 843.86 475.35" fill="none" stroke="#b8bec7" stroke-width="2"/>
<path d="M 843.86 475.35 A 40.45 40.45 0 0 1 864.09 510.38" fill="none" stroke="#b8bec7" stroke-width="2"/>
<path d="M 945.00 510.38 A 40.45 40.45 0 0 1 924.77 545.42" fill="none" stroke="#b8bec7" stroke-width="2"/>
<path d="M 924.77 545.42 A 40.45 40.45 0 0 1 884.32 545.42" fill="none" stroke="#b8bec7" stroke-width="2"/>
<path d="M 884.32 545.42 A 40.45 40.45 0 0 1 864.09 510.38" fill="none" stroke="#b8bec7" stroke-width="2"/>
<path d="M 864.09 510.38 A 40.45 40.45 0 0 1 884.32 475.35" fill="none" stroke="#b8bec7" stroke-width="2"/>
<path d="M 884.32 475.35 A 40.45 40.45 0 0 1 924.77 475.35" fill="none" stroke="#b8bec7" stroke-width="2"/>
<path d="M 924.77 475.35 A 40.45 40.45 0 0 1 945.00 510.38" fill="none" stroke="#b8bec7" stroke-width="2"/>
<path d="M 176.36 580.45 A 40.45 40.45 0 0 1 156.14 615.49" fill="none" stroke="#b8bec7" stroke-width="2"/>
<path d="M 156.14 615.49 A 40.45 40.45 0 0 1 115.68 615.49" fill="none" stroke="#b8bec7" stroke-width="2"/>
<path d="M 115.68 615.49 A 40.45 40.45 0 0 1 95.45 580.45" fill="none" stroke="#b8bec7" stroke-width="2"/>
<path d="M 95.45 580.45 A 40.45 40.45 0 0 1 115.68 545.42" fill="none" stroke="#b8bec7" stroke-width="2"/>
<path d="M 115.68 545.42 A 40.45 40.45 0 0 1 156.14 545.42" fill="none" stroke="#b8bec7" stroke-width="2"/>
<path d="M 156.14 545.42 A 40.45 40.45 0 0 1 176.36 580.45" fill="none" stroke="#b8bec7" stroke-width="2"/>
<path d="M 257.27 580.45 A 40.45 40.45 0 0 1 237.05 615.49" fill="none" stroke="#b8bec7" stroke-width="2"/>
<path d="M 237.05 615.49 A 40.45 40.45 0 0 1 196.59 615.49" fill="none" stroke="#b8bec7" stroke-width="2"/>
<path d="M 196.59 615.49 A 40.45 40.45 0 0 1 176.36 580.45" fill="none" stroke="#b8bec7" stroke-width="2"/>
<path d="M 176.36 580.45 A 40.45 40.45 0 0 1 196.59 545.42" fill="none" stroke="#b8bec7" stroke-width="2"/>
<path d="M 196.59 545.42 A 40.45 40.45 0 0 1 237.05 545.42" fill="none" stroke="#b8bec7" stroke-width="2"/>
<path d="M 237.05 545.42 A 40.45 40.45 0 0 1 257.27 580.45" fill="none" stroke="#b8bec7" stroke-width="2"/>
<path d="M 338.18 580.45 A 40.45 40.45 0 0 1 317.95 615.49" fill="none" stroke="#b8bec7" stroke-width="2"/>
<path d="M 317.95 615.49 A 40.45 40.45 0 0 1 277.50 615.49" fill="none" stroke="#b8bec7" stroke-width="2"/>
<path d="M 277.50 615.49 A 40.45 40.45 0 0 1 257.27 580.45" fill="none" stroke="#b8bec7" stroke-width="2"/>
<path d="M 257.27 580.45 A 40.45 40.45 0 0 1 277.50 545.42" fill="none" stroke="#b8bec7" stroke-width="2"/>
<path d="M 277.50 545.42 A 40.45 40.45 0 0 1 317.95 545.42" fill="none" stroke="#b8bec7" stroke-width="2"/>
<path d="M 317.95 545.42 A 40.45 40.45 0 0 1 338.18 580.45" fill="none" stroke="#b8bec7" stroke-width="2"/>
<path d="M 419.09 580.45 A 40.45 40.45 0 0 1 398.86 615.49" fill="none" stroke="#b8bec7" stroke-width="2"/>
<path d="M 398.86 615.49 A 40.45 40.45 0 0 1 358.41 615.49" fill="none" stroke="#b8bec7" stroke-width="2"/>
<path d="M 358.41 615.49 A 40.45 40.45 0 0 1 338.18 580.45" fill="none" stroke="#b8bec7" stroke-width="2"/>
<path d="M 338.18 580.45 A 40.45 40.45 0 0 1 358.41 545.42" fill="none" stroke="#b8bec7" stroke-width="2"/>
<path d="M 358.41 545.42 A 40.45 40.45 0 0 1 398.86 545.42" fill="none" stroke="#b8bec7" stroke-width="2"/>
<path d="M 398.86 545.42 A 40.45 40.45 0 0 1 419.09 580.45" fill="none" stroke="#b8bec7" stroke-width="2"/>
<path d="M 500.00 580.45 A 40.45 40.45 0 0 1 479.77 615.49" fill="none" stroke="#b8bec7" stroke-width="2"/>
<path d="M 479.77 615.49 A 40.45 40.45 0 0 1 439.32 615.49" fill="none" stroke="#b8bec7" stroke-width="2"/>
<path d="M 439.32 615.49 A 40.45 40.45 0 0 1 419.09 580.45" fill="none" stroke="#b8bec7" stroke-width="2"/>
<path d="M 419.09 580.45 A 40.45 40.45 0 0 1 439.32 545.42" fill="none" stroke="#b8bec7" stroke-width="2"/>
<path d="M 439.32 545.42 A 40.45 40.45 0 0 1 479.77 545.42" fill="none" stroke="#b8bec7" stroke-width="2"/>
<path d="M 479.77 545.42 A 40.45 40.45 0 0 1 500.00 580.45" fill="none" stroke="#b8bec7" stroke-width="2"/>
<path d="M 580.91 580.45 A 40.45 40.45 0 0 1 560.68 615.49" fill="none" stroke="#b8bec7" stroke-width="2"/>
<path d="M 560.68 615.49 A 40.45 40.45 0 0 1 520.23 615.49" fill="none" stroke="#b8bec7" stroke-width="2"/>
<path d="M 520.23 615.49 A 40.45 40.45 0 0 1 500.00 580.45" fill="none" stroke="#b8bec7" stroke-width="2"/>
<path d="M 500.00 580.45 A 40.45 40.45 0 0 1 520.23 545.42" fill="none" stroke="#b8bec7" stroke-width="2"/>
<path d="M 520.23 545.42 A 40.45 40.45 0 0 1 560.68 545.42" fill="none" stroke="#b8bec7" stroke-width="2"/>
<path d="M 560.68 545.42 A 40.45 40.45 0 0 1 580.91 580.45" fill="none" stroke="#b8bec7" stroke-width="2"/>
<path d="M 661.82 580.45 A 40.45 40.45 0 0 1 641.59 615.49" fill="none" stroke="#b8bec7" stroke-width="2"/>
<path d="M 641.59 615.49 A 40.45 40.45 0 0 1 601.14 615.49" fill="none" stroke="#b8bec7" stroke-width="2"/>
<path d="M 601.14 615.49 A 40.45 40.45 0 0 1 580.91 580.45" fill="none" stroke="#b8bec7" stroke-width="2"/>
<path d="M 580.91 580.45 A 40.45 40.45 0 0 1 601.14 545.42" fill="none" stroke="#b8bec7" stroke-width="2"/>
<path d="M 601.14 545.42 A 40.45 40.45 0 0 1 641.59 545.42" fill="none" stroke="#b8bec7" stroke-width="2"/>
<path d="M 641.59 545.42 A 40.45 40.45 0 0 1 661.82 580.45" fill="none" stroke="#b8bec7" stroke-width="2"/>
<path d="M 742.73 580.45 A 40.45 40.45 0 0 1 722.50 615.49" fill="none" stroke="#b8bec7" stroke-width="2"/>
<path d="M 722.50 615.49 A 40.45 40.45 0 0 1 682.05 615.49" fill="none" stroke="#b8bec7" stroke-width="2"/>
<path d="M 682.05 615.49 A 40.45 40.45 0 0 1 661.82 580.45" fill="none" stroke="#b8bec7" stroke-width="2"/>
<path d="M 661.82 580.45 A 40.45 40.45 0 0 1 682.05 545.42" fill="none" stroke="#b8bec7" stroke-width="2"/>
<path d="M 682.05 545.42 A 40.45 40.45 0 0 1 722.50 545.42" fill="none" stroke="#b8bec7" stroke-width="2"/>
<path d="M 722.50 545.42 A 40.45 40.45 0 0 1 742.73 580.45" fill="none" stroke="#b8bec7" stroke-width="2"/>
<path d="M 823.64 580.45 A 40.45 40.45 0 0 1 803.41 615.49" fill="none" stroke="#b8bec7" stroke-width="2"/>
<path d="M 803.41 615.49 A 40.45 40.45 0 0 1 762.95 615.49" fill="none" stroke="#b8bec7" stroke-width="2"/>
<path d="M 762.95 615.49 A 40.45 40.45 0 0 1 742.73 580.45" fill="none" stroke="#b8bec7" stroke-width="2"/>
<path d="M 742.73 580.45 A 40.45 40.45 0 0 1 762.95 545.42" fill="none" stroke="#b8bec7" stroke-width="2"/>
<path d="M 762.95 545.42 A 40.45 40.45 0 0 1 803.41 545.42" fill="none" stroke="#b8bec7" stroke-width="2"/>
<path d="M 803.41 545.42 A 40.45 40.45 0 0 1 823.64 580.45" fill="none" stroke="#b8bec7" stroke-width="2"/>
<path d="M 904.55 580.45 A 40.45 40.45 0 0 1 884.32 615.49" fill="none" stroke="#b8bec7" stroke-width="2"/>
<path d="M 884.32 615.49 A 40.45 40.45 0 0 1 843.86 615.49" fill="none" stroke="#b8bec7" stroke-width="2"/>
<path d="M 843.86 615.49 A 40.45 40.45 0 0 1 823.64 580.45" fill="none" stroke="#b8bec7" stroke-width="2"/>
<path d="M 823.64 580.45 A 40.45 40.45 0 0 1 843.86 545.42" fill="none" stroke="#b8bec7" stroke-width="2"/>
<path d="M 843.86 545.42 A 40.45 40.45 0 0 1 884.32 545.42" fill="none" stroke="#b8bec7" stroke-width="2"/>
<path d="M 884.32 545.42 A 40.45 40.45 0 0 1 904.55 580.45" fill="none" stroke="#b8bec7" stroke-width="2"/>
<path d="M 135.91 650.52 A 40.45 40.45 0 0 1 115.68 685.55" fill="none" stroke="#b8bec7" stroke-width="2"/>
<path d="M 115.68 685.55 A 40.45 40.45 0 0 1 75.23 685.55" fill="none" stroke="#b8bec7" stroke-width="2"/>
<path d="M 75.23 685.55 A 40.45 40.45 0 0 1 55.00 650.52" fill="none" stroke="#b8bec7" stroke-width="2"/>
<path d="M 55.00 650.52 A 40.45 40.45 0 0 1 75.23 615.49" fill="none" stroke="#b8bec7" stroke-width="2"/>
<path d="M 75.23 615.49 A 40.45 40.45 0 0 1 115.68 615.49" fill="none" stroke="#b8bec7" stroke-width="2"/>
<path d="M 115.68 615.49 A 40.45 40.45 0 0 1 135.91 650.52" fill="none" stroke="#b8bec7" stroke-width="2"/>
<path d="M 216.82 650.52 A 40.45 40.45 0 0 1 196.59 685.55" fill="none" stroke="#b8bec7" stroke-width="2"/>
<path d="M 196.59 685.55 A 40.45 40.45 0 0 1 156.14 685.55" fill="none" stroke="#b8bec7" stroke-width="2"/>
<path d="M 156.14 685.55 A 40.45 40.45 0 0 1 135.91 650.52" fill="none" stroke="#b8bec7" stroke-width="2"/>
<path d="M 135.91 650.52 A 40.45 40.45 0 0 1 156.14 615.49" fill="none" stroke="#b8bec7" stroke-width="2"/>
<path d="M 156.14 615.49 A 40.45 40.45 0 0 1 196.59 615.49" fill="none" stroke="#b8bec7" stroke-width="2"/>
<path d="M 196.59 615.49 A 40.45 40.45 0 0 1 216.82 650.52" fill="none" stroke="#b8bec7" stroke-width="2"/>
<path d="M 297.73 650.52 A 40.45 40.45 0 0 1 277.50 685.55" fill="none" stroke="#b8bec7" stroke-width="2"/>
<path d="M 277.50 685.55 A 40.45 40.45 0 0 1 237.05 685.55" fill="none" stroke="#b8bec7" stroke-width="2"/>
<path d="M 237.05 685.55 A 40.45 40.45 0 0 1 216.82 650.52" fill="none" stroke="#b8bec7" stroke-width="2"/>
<path d="M 216.82 650.52 A 40.45 40.45 0 0 1 237.05 615.49" fill="none" stroke="#b8bec7" stroke-width="2"/>
<path d="M 237.05 615.49 A 40.45 40.45 0 0 1 277.50 615.49" fill="none" stroke="#b8bec7" stroke-width="2"/>
<path d="M 277.50 615.49 A 40.45 40.45 0 0 1 297.73 650.52" fill="none" stroke="#b8bec7" stroke-width="2"/>
<path d="M 378.64 650.52 A 40.45 40.45 0 0 1 358.41 685.55" fill="none" stroke="#b8bec7" stroke-width="2"/>
<path d="M 358.41 685.55 A 40.45 40.45 0 0 1 317.95 685.55" fill="none" stroke="#b8bec7" stroke-width="2"/>
<path d="M 317.95 685.55 A 40.45 40.45 0 0 1 297.73 650.52" fill="none" stroke="#b8bec7" stroke-width="2"/>
<path d="M 297.73 650.52 A 40.45 40.45 0 0 1 317.95 615.49" fill="none" stroke="#b8bec7" stroke-width="2"/>
<path d="M 317.95 615.49 A 40.45 40.45 0 0 1 358.41 615.49" fill="none" stroke="#b8bec7" stroke-width="2"/>
<path d="M 358.41 615.49 A 40.45 40.45 0 0 1 378.64 650.52" fill="none" stroke="#b8bec7" stroke-width="2"/>
<path d="M 459.55 650.52 A 40.45 40.45 0 0 1 439.32 685.55" fill="none" stroke="#b8bec7" stroke-width="2"/>
<path d="M 439.32 685.55 A 40.45 40.45 0 0 1 398.86 685.55" fill="none" stroke="#b8bec7" stroke-width="2"/>
<path d="M 398.86 685.55 A 40.45 40.45 0 0 1 378.64 650.52" fill="none" stroke="#b8bec7" stroke-width="2"/>
<path d="M 378.64 650.52 A 40.45 40.45 0 0 1 398.86 615.49" fill="none" stroke="#b8bec7" stroke-width="2"/>
<path d="M 398.86 615.49 A 40.45 40.45 0 0 1 439.32 615.49" fill="none" stroke="#b8bec7" stroke-width="2"/>
<path d="M 439.32 615.49 A 40.45 40.45 0 0 1 459.55 650.52" fill="none" stroke="#b8bec7" stroke-width="2"/>
<path d="M 540.45 650.52 A 40.45 40.45 0 0 1 520.23 685.55" fill="none" stroke="#b8bec7" stroke-width="2"/>
<path d="M 520.23 685.55 A 40.45 40.45 0 0 1 479.77 685.55" fill="none" stroke="#b8bec7" stroke-width="2"/>
<path d="M 479.77 685.55 A 40.45 40.45 0 0 1 459.55 650.52" fill="none" stroke="#b8bec7" stroke-width="2"/>
<path d="M 459.55 650.52 A 40.45 40.45 0 0 1 479.77 615.49" fill="none" stroke="#b8bec7" stroke-width="2"/>
<path d="M 479.77 615.49 A 40.45 40.45 0 0 1 520.23 615.49" fill="none" stroke="#b8bec7" stroke-width="2"/>
<path d="M 520.23 615.49 A 40.45 40.45 0 0 1 540.45 650.52" fill="none" stroke="#b8bec7" stroke-width="2"/>
<path d="M 621.36 650.52 A 40.45 40.45 0 0 1 601.14 685.55" fill="none" stroke="#b8bec7" stroke-width="2"/>
<path d="M 601.14 685.55 A 40.45 40.45 0 0 1 560.68 685.55" fill="none" stroke="#b8bec7" stroke-width="2"/>
<path d="M 560.68 685.55 A 40.45 40.45 0 0 1 540.45 650.52" fill="none" stroke="#b8bec7" stroke-width="2"/>
<path d="M 540.45 650.52 A 40.45 40.45 0 0 1 560.68 615.49" fill="none" stroke="#b8bec7" stroke-width="2"/>
<path d="M 560.68 615.49 A 40.45 40.45 0 0 1 601.14 615.49" fill="none" stroke="#b8bec7" stroke-width="2"/>
<path d="M 601.14 615.49 A 40.45 40.45 0 0 1 621.36 650.52" fill="none" stroke="#b8bec7" stroke-width="2"/>
<path d="M 702.27 650.52 A 40.45 40.45 0 0 1 682.05 685.55" fill="none" stroke="#b8bec7" stroke-width="2"/>
<path d="M 682.05 685.55 A 40.45 40.45 0 0 1 641.59 685.55" fill="none" stroke="#b8bec7" stroke-width="2"/>
<path d="M 641.59 685.55 A 40.45 40.45 0 0 1 621.36 650.52" fill="none" stroke="#b8bec7" stroke-width="2"/>
<path d="M 621.36 650.52 A 40.45 40.45 0 0 1 641.59 615.49" fill="none" stroke="#b8bec7" stroke-width="2"/>
<path d="M 641.59 615.49 A 40.45 40.45 0 0 1 682.05 615.49" fill="none" stroke="#b8bec7" stroke-width="2"/>
<path d="M 682.05 615.49 A 40.45 40.45 0 0 1 702.27 650.52" fill="none" stroke="#b8bec7" stroke-width="2"/>
<path d="M 783.18 650.52 A 40.45 40.45 0 0 1 762.95 685.55" fill="none" stroke="#b8bec7" stroke-width="2"/>
<path d="M 762.95 685.55 A 40.45 40.45 0 0 1 722.50 685.55" fill="none" stroke="#b8bec7" stroke-width="2"/>
<path d="M 722.50 685.55 A 40.45 40.45 0 0 1 702.27 650.52" fill="none" stroke="#b8bec7" stroke-width="2"/>
<path d="M 702.27 650.52 A 40.45 40.45 0 0 1 722.50 615.49" fill="none" stroke="#b8bec7" stroke-width="2"/>
<path d="M 722.50 615.49 A 40.45 40.45 0 0 1 762.95 615.49" fill="none" stroke="#b8bec7" stroke-width="2"/>
<path d="M 762.95 615.49 A 40.45 40.45 0 0 1 783.18 650.52" fill="none" stroke="#b8bec7" stroke-width="2"/>
<path d="M 864.09 650.52 A 40.45 40.45 0 0 1 843.86 685.55" fill="none" stroke="#b8bec7" stroke-width="2"/>
<path d="M 843.86 685.55 A 40.45 40.45 0 0 1 803.41 685.55" fill="none" stroke="#b8bec7" stroke-width="2"/>
<path d="M 803.41 685.55 A 40.45 40.45 0 0 1 783.18 650.52" fill="none" stroke="#b8bec7" stroke-width="2"/>
<path d="M 783.18 650.52 A 40.45 40.45 0 0 1 803.41 615.49" fill="none" stroke="#b8bec7" stroke-width="2"/>
<path d="M 803.41 615.49 A 40.45 40.45 0 0 1 843.86 615.49" fill="none" stroke="#b8bec7" stroke-width="2"/>
<path d="M 843.86 615.49 A 40.45 40.45 0 0 1 864.09 650.52" fill="none" stroke="#b8bec7" stroke-width="2"/>
<path d="M 945.00 650.52 A 40.45 40.45 0 0 1 924.77 685.55" fill="none" stroke="#b8bec7" stroke-width="2"/>
<path d="M 924.77 685.55 A 40.45 40.45 0 0 1 884.32 685.55" fill="none" stroke="#b8bec7" stroke-width="2"/>
<path d="M 884.32 685.55 A 40.45 40.45 0 0 1 864.09 650.52" fill="none" stroke="#b8bec7" stroke-width="2"/>
<path d="M 864.09 650.52 A 40.45 40.45 0 0 1 884.32 615.49" fill="none" stroke="#b8bec7" stroke-width="2"/>
<path d="M 884.32 615.49 A 40.45 40.45 0 0 1 924.77 615.49" fill="none" stroke="#b8bec7" stroke-width="2"/>
<path d="M 924.77 615.49 A 40.45 40.45 0 0 1 945.00 650.52" fill="none" stroke="#b8bec7" stroke-width="2"/>
<path d="M 176.36 720.59 A 40.45 40.45 0 0 1 156.14 755.62" fill="none" stroke="#b8bec7" stroke-width="2"/>
<path d="M 156.14 755.62 A 40.45 40.45 0 0 1 115.68 755.62" fill="none" stroke="#b8bec7" stroke-width="2"/>
<path d="M 115.68 755.62 A 40.45 40.45 0 0 1 95.45 720.59" fill="none" stroke="#b8bec7" stroke-width="2"/>
<path d="M 95.45 720.59 A 40.45 40.45 0 0 1 115.68 685.55" fill="none" stroke="#b8bec7" stroke-width="2"/>
<path d="M 115.68 685.55 A 40.45 40.45 0 0 1 156.14 685.55" fill="none" stroke="#b8bec7" stroke-width="2"/>
<path d="M 156.14 685.55 A 40.45 40.45 0 0 1 176.36 720.59" fill="none" stroke="#b8bec7" stroke-width="2"/>
<path d="M 257.27 720.59 A 40.45 40.45 0 0 1 237.05 755.62" fill="none" stroke="#b8bec7" stroke-width="2"/>
<path d="M 237.05 755.62 A 40.45 40.45 0 0 1 196.59 755.62" fill="none" stroke="#b8bec7" stroke-width="2"/>
<path d="M 196.59 755.62 A 40.45 40.45 0 0 1 176.36 720.59" fill="none" stroke="#b8bec7" stroke-width="2"/>
<path d="M 176.36 720.59 A 40.45 40.45 0 0 1 196.59 685.55" fill="none" stroke="#b8bec7" stroke-width="2"/>
<path d="M 196.59 685.55 A 40.45 40.45 0 0 1 237.05 685.55" fill="none" stroke="#b8bec7" stroke-width="2"/>
<path d="M 237.05 685.55 A 40.45 40.45 0 0 1 257.27 720.59" fill="none" stroke="#b8bec7" stroke-width="2"/>
<path d="M 338.18 720.59 A 40.45 40.45 0 0 1 317.95 755.62" fill="none" stroke="#b8bec7" stroke-width="2"/>
<path d="M 317.95 755.62 A 40.45 40.45 0 0 1 277.50 755.62" fill="none" stroke="#b8bec7" stroke-width="2"/>
<path d="M 277.50 755.62 A 40.45 40.45 0 0 1 257.27 720.59" fill="none" stroke="#b8bec7" stroke-width="2"/>
<path d="M 257.27 720.59 A 40.45 40.45 0 0 1 277.50 685.55" fill="none" stroke="#b8bec7" stroke-width="2"/>
<path d="M 277.50 685.55 A 40.45 40.45 0 0 1 317.95 685.55" fill="none" stroke="#b8bec7" stroke-width="2"/>
<path d="M 317.95 685.55 A 40.45 40.45 0 0 1 338.18 720.59" fill="none" stroke="#b8bec7" stroke-width="2"/>
<path d="M 419.09 720.59 A 40.45 40.45 0 0 1 398.86 755.62" fill="none" stroke="#b8bec7" stroke-width="2"/>
<path d="M 398.86 755.62 A 40.45 40.45 0 0 1 358.41 755.62" fill="none" stroke="#b8bec7" stroke-width="2"/>
<path d="M 358.41 755.62 A 40.45 40.45 0 0 1 338.18 720.59" fill="none" stroke="#b8bec7" stroke-width="2"/>
<path d="M 338.18 720.59 A 40.45 40.45 0 0 1 358.41 685.55" fill="none" stroke="#b8bec7" stroke-width="2"/>
<path d="M 358.41 685.55 A 40.45 40.45 0 0 1 398.86 685.55" fill="none" stroke="#b8bec7" stroke-width="2"/>
<path d="M 398.86 685.55 A 40.45 40.45 0 0 1 419.09 720.59" fill="none" stroke="#b8bec7" stroke-width="2"/>
<path d="M 500.00 720.59 A 40.45 40.45 0 0 1 479.77 755.62" fill="none" stroke="#b8bec7" stroke-width="2"/>
<path d="M 479.77 755.62 A 40.45 40.45 0 0 1 439.32 755.62" fill="none" stroke="#b8bec7" stroke-width="2"/>
<path d="M 439.32 755.62 A 40.45 40.45 0 0 1 419.09 720.59" fill="none" stroke="#b8bec7" stroke-width="2"/>
<path d="M 419.09 720.59 A 40.45 40.45 0 0 1 439.32 685.55" fill="none" stroke="#b8bec7" stroke-width="2"/>
<path d="M 439.32 685.55 A 40.45 40.45 0 0 1 479.77 685.55" fill="none" stroke="#b8bec7" stroke-width="2"/>
<path d="M 479.77 685.55 A 40.45 40.45 0 0 1 500.00 720.59" fill="none" stroke="#b8bec7" stroke-width="2"/>
<path d="M 580.91 720.59 A 40.45 40.45 0 0 1 560.68 755.62" fill="none" stroke="#b8bec7" stroke-width="2"/>
<path d="M 560.68 755.62 A 40.45 40.45 0 0 1 520.23 755.62" fill="none" stroke="#b8bec7" stroke-width="2"/>
<path d="M 520.23 755.62 A 40.45 40.45 0 0 1 500.00 720.59" fill="none" stroke="#b8bec7" stroke-width="2"/>
<path d="M 500.00 720.59 A 40.45 40.45 0 0 1 520.23 685.55" fill="none" stroke="#b8bec7" stroke-width="2"/>
<path d="M 520.23 685.55 A 40.45 40.45 0 0 1 560.68 685.55" fill="none" stroke="#b8bec7" stroke-width="2"/>
<path d="M 560.68 685.55 A 40.45 40.45 0 0 1 580.91 720.59" fill="none" stroke="#b8bec7" stroke-width="2"/>
<path d="M 661.82 720.59 A 40.45 40.45 0 0 1 641.59 755.62" fill="none" stroke="#b8bec7" stroke-width="2"/>
<path d="M 641.59 755.62 A 40.45 40.45 0 0 1 601.14 755.62" fill="none" stroke="#b8bec7" stroke-width="2"/>
<path d="M 601.14 755.62 A 40.45 40.45 0 0 1 580.91 720.59" fill="none" stroke="#b8bec7" stroke-width="2"/>
<path d="M 580.91 720.59 A 40.45 40.45 0 0 1 601.14 685.55" fill="none" stroke="#b8bec7" stroke-width="2"/>
<path d="M 601.14 685.55 A 40.45 40.45 0 0 1 641.59 685.55" fill="none" stroke="#b8bec7" stroke-width="2"/>
<path d="M 641.59 685.55 A 40.45 40.45 0 0 1 661.82 720.59" fill="none" stroke="#b8bec7" stroke-width="2"/>
<path d="M 742.73 720.59 A 40.45 40.45 0 0 1 722.50 755.62" fill="none" stroke="#b8bec7" stroke-width="2"/>
<path d="M 722.50 755.62 A 40.45 40.45 0 0 1 682.05 755.62" fill="none" stroke="#b8bec7" stroke-width="2"/>
<path d="M 682.05 755.62 A 40.45 40.45 0 0 1 661.82 720.59" fill="none" stroke="#b8bec7" stroke-width="2"/>
<path d="M 661.82 720.59 A 40.45 40.45 0 0 1 682.05 685.55" fill="none" stroke="#b8bec7" stroke-width="2"/>
<path d="M 682.05 685.55 A 40.45 40.45 0 0 1 722.50 685.55" fill="none" stroke="#b8bec7" stroke-width="2"/>
<path d="M 722.50 685.55 A 40.45 40.45 0 0 1 742.73 720.59" fill="none" stroke="#b8bec7" stroke-width="2"/>
<path d="M 823.64 720.59 A 40.45 40.45 0 0 1 803.41 755.62" fill="none" stroke="#b8bec7" stroke-width="2"/>
<path d="M 803.41 755.62 A 40.45 40.45 0 0 1 762.95 755.62" fill="none" stroke="#b8bec7" stroke-width="2"/>
<path d="M 762.95 755.62 A 40.45 40.45 0 0 1 742.73 720.59" fill="none" stroke="#b8bec7" stroke-width="2"/>
<path d="M 742.73 720.59 A 40.45 40.45 0 0 1 762.95 685.55" fill="none" stroke="#b8bec7" stroke-width="2"/>
<path d="M 762.95 685.55 A 40.45 40.45 0 0 1 803.41 685.55" fill="none" stroke="#b8bec7" stroke-width="2"/>
<path d="M 803.41 685.55 A 40.45 40.45 0 0 1 823.64 720.59" fill="none" stroke="#b8bec7" stroke-width="2"/>
<path d="M 904.55 720.59 A 40.45 40.45 0 0 1 884.32 755.62" fill="none" stroke="#b8bec7" stroke-width="2"/>
<path d="M 884.32 755.62 A 40.45 40.45 0 0 1 843.86 755.62" fill="none" stroke="#b8bec7" stroke-width="2"/>
<path d="M 843.86 755.62 A 40.45 40.45 0 0 1 823.64 720.59" fill="none" stroke="#b8bec7" stroke-width="2"/>
<path d="M 823.64 720.59 A 40.45 40.45 0 0 1 843.86 685.55" fill="none" stroke="#b8bec7" stroke-width="2"/>
<path d="M 843.86 685.55 A 40.45 40.45 0 0 1 884.32 685.55" fill="none" stroke="#b8bec7" stroke-width="2"/>
<path d="M 884.32 685.55 A 40.45 40.45 0 0 1 904.55 720.59" fill="none" stroke="#b8bec7" stroke-width="2"/>
<path d="M 135.91 790.66 A 40.45 40.45 0 0 1 115.68 825.69" fill="none" stroke="#b8bec7" stroke-width="2"/>
<path d="M 115.68 825.69 A 40.45 40.45 0 0 1 75.23 825.69" fill="none" stroke="#b8bec7" stroke-width="2"/>
<path d="M 75.23 825.69 A 40.45 40.45 0 0 1 55.00 790.66" fill="none" stroke="#b8bec7" stroke-width="2"/>
<path d="M 55.00 790.66 A 40.45 40.45 0 0 1 75.23 755.62" fill="none" stroke="#b8bec7" stroke-width="2"/>
<path d="M 75.23 755.62 A 40.45 40.45 0 0 1 115.68 755.62" fill="none" stroke="#b8bec7" stroke-width="2"/>
<path d="M 115.68 755.62 A 40.45 40.45 0 0 1 135.91 790.66" fill="none" stroke="#b8bec7" stroke-width="2"/>
<path d="M 216.82 790.66 A 40.45 40.45 0 0 1 196.59 825.69" fill="none" stroke="#b8bec7" stroke-width="2"/>
<path d="M 196.59 825.69 A 40.45 40.45 0 0 1 156.14 825.69" fill="none" stroke="#b8bec7" stroke-width="2"/>
<path d="M 156.14 825.69 A 40.45 40.45 0 0 1 135.91 790.66" fill="none" stroke="#b8bec7" stroke-width="2"/>
<path d="M 135.91 790.66 A 40.45 40.45 0 0 1 156.14 755.62" fill="none" stroke="#b8bec7" stroke-width="2"/>
<path d="M 156.14 755.62 A 40.45 40.45 0 0 1 196.59 755.62" fill="none" stroke="#b8bec7" stroke-width="2"/>
<path d="M 196.59 755.62 A 40.45 40.45 0 0 1 216.82 790.66" fill="none" stroke="#b8bec7" stroke-width="2"/>
<path d="M 297.73 790.66 A 40.45 40.45 0 0 1 277.50 825.69" fill="none" stroke="#b8bec7" stroke-width="2"/>
<path d="M 277.50 825.69 A 40.45 40.45 0 0 1 237.05 825.69" fill="none" stroke="#b8bec7" stroke-width="2"/>
<path d="M 237.05 825.69 A 40.45 40.45 0 0 1 216.82 790.66" fill="none" stroke="#b8bec7" stroke-width="2"/>
<path d="M 216.82 790.66 A 40.45 40.45 0 0 1 237.05 755.62" fill="none" stroke="#b8bec7" stroke-width="2"/>
<path d="M 237.05 755.62 A 40.45 40.45 0 0 1 277.50 755.62" fill="none" stroke="#b8bec7" stroke-width="2"/>
<path d="M 277.50 755.62 A 40.45 40.45 0 0 1 297.73 790.66" fill="none" stroke="#b8bec7" stroke-width="2"/>
<path d="M 378.64 790.66 A 40.45 40.45 0 0 1 358.41 825.69" fill="none" stroke="#b8bec7" stroke-width="2"/>
<path d="M 358.41 825.69 A 40.45 40.45 0 0 1 317.95 825.69" fill="none" stroke="#b8bec7" stroke-width="2"/>
<path d="M 317.95 825.69 A 40.45 40.45 0 0 1 297.73 790.66" fill="none" stroke="#b8bec7" stroke-width="2"/>
<path d="M 297.73 790.66 A 40.45 40.45 0 0 1 317.95 755.62" fill="none" stroke="#b8bec7" stroke-width="2"/>
<path d="M 317.95 755.62 A 40.45 40.45 0 0 1 358.41 755.62" fill="none" stroke="#b8bec7" stroke-width="2"/>
<path d="M 358.41 755.62 A 40.45 40.45 0 0 1 378.64 790.66" fill="none" stroke="#b8bec7" stroke-width="2"/>
<path d="M 459.55 790.66 A 40.45 40.45 0 0 1 439.32 825.69" fill="none" stroke="#b8bec7" stroke-width="2"/>
<path d="M 439.32 825.69 A 40.45 40.45 0 0 1 398.86 825.69" fill="none" stroke="#b8bec7" stroke-width="2"/>
<path d="M 398.86 825.69 A 40.45 40.45 0 0 1 378.64 790.66" fill="none" stroke="#b8bec7" stroke-width="2"/>
<path d="M 378.64 790.66 A 40.45 40.45 0 0 1 398.86 755.62" fill="none" stroke="#b8bec7" stroke-width="2"/>
<path d="M 398.86 755.62 A 40.45 40.45 0 0 1 439.32 755.62" fill="none" stroke="#b8bec7" stroke-width="2"/>
<path d="M 439.32 755.62 A 40.45 40.45 0 0 1 459.55 790.66" fill="none" stroke="#b8bec7" stroke-width="2"/>
<path d="M 540.45 790.66 A 40.45 40.45 0 0 1 520.23 825.69" fill="none" stroke="#b8bec7" stroke-width="2"/>
<path d="M 520.23 825.69 A 40.45 40.45 0 0 1 479.77 825.69" fill="none" stroke="#b8bec7" stroke-width="2"/>
<path d="M 479.77 825.69 A 40.45 40.45 0 0 1 459.55 790.66" fill="none" stroke="#b8bec7" stroke-width="2"/>
<path d="M 459.55 790.66 A 40.45 40.45 0 0 1 479.77 755.62" fill="none" stroke="#b8bec7" stroke-width="2"/>
<path d="M 479.77 755.62 A 40.45 40.45 0 0 1 520.23 755.62" fill="none" stroke="#b8bec7" stroke-width="2"/>
<path d="M 520.23 755.62 A 40.45 40.45 0 0 1 540.45 790.66" fill="none" stroke="#b8bec7" stroke-width="2"/>
<path d="M 621.36 790.66 A 40.45 40.45 0 0 1 601.14 825.69" fill="none" stroke="#b8bec7" stroke-width="2"/>
<path d="M 601.14 825.69 A 40.45 40.45 0 0 1 560.68 825.69" fill="none" stroke="#b8bec7" stroke-width="2"/>
<path d="M 560.68 825.69 A 40.45 40.45 0 0 1 540.45 790.66" fill="none" stroke="#b8bec7" stroke-width="2"/>
<path d="M 540.45 790.66 A 40.45 40.45 0 0 1 560.68 755.62" fill="none" stroke="#b8bec7" stroke-width="2"/>
<path d="M 560.68 755.62 A 40.45 40.45 0 0 1 601.14 755.62" fill="none" stroke="#b8bec7" stroke-width="2"/>
<path d="M 601.14 755.62 A 40.45 40.45 0 0 1 621.36 790.66" fill="none" stroke="#b8bec7" stroke-width="2"/>
<path d="M 702.27 790.66 A 40.45 40.45 0 0 1 682.05 825.69" fill="none" stroke="#b8bec7" stroke-width="2"/>
<path d="M 682.05 825.69 A 40.45 40.45 0 0 1 641.59 825.69" fill="none" stroke="#b8bec7" stroke-width="2"/>
<path d="M 641.59 825.69 A 40.45 40.45 0 0 1 621.36 790.66" fill="none" stroke="#b8bec7" stroke-width="2"/>
<path d="M 621.36 790.66 A 40.45 40.45 0 0 1 641.59 755.62" fill="none" stroke="#b8bec7" stroke-width="2"/>
<path d="M 641.59 755.62 A 40.45 40.45 0 0 1 682.05 755.62" fill="none" stroke="#b8bec7" stroke-width="2"/>
<path d="M 682.05 755.62 A 40.45 40.45 0 0 1 702.27 790.66" fill="none" stroke="#b8bec7" stroke-width="2"/>
<path d="M 783.18 790.66 A 40.45 40.45 0 0 1 762.95 825.69" fill="none" stroke="#b8bec7" stroke-width="2"/>
<path d="M 762.95 825.69 A 40.45 40.45 0 0 1 722.50 825.69" fill="none" stroke="#b8bec7" stroke-width="2"/>
<path d="M 722.50 825.69 A 40.45 40.45 0 0 1 702.27 790.66" fill="none" stroke="#b8bec7" stroke-width="2"/>
<path d="M 702.27 790.66 A 40.45 40.45 0 0 1 722.50 755.62" fill="none" stroke="#b8bec7" stroke-width="2"/>
<path d="M 722.50 755.62 A 40.45 40.45 0 0 1 762.95 755.62" fill="none" stroke="#b8bec7" stroke-width="2"/>
<path d="M 762.95 755.62 A 40.45 40.45 0 0 1 783.18 790.66" fill="none" stroke="#b8bec7" stroke-width="2"/>
<path d="M 864.09 790.66 A 40.45 40.45 0 0 1 843.86 825.69" fill="none" stroke="#b8bec7" stroke-width="2"/>
<path d="M 843.86 825.69 A 40.45 40.45 0 0 1 803.41 825.69" fill="none" stroke="#b8bec7" stroke-width="2"/>
<path d="M 803.41 825.69 A 40.45 40.45 0 0 1 783.18 790.66" fill="none" stroke="#b8bec7" stroke-width="2"/>
<path d="M 783.18 790.66 A 40.45 40.45 0 0 1 803.41 755.62" fill="none" stroke="#b8bec7" stroke-width="2"/>
<path d="M 803.41 755.62 A 40.45 40.45 0 0 1 843.86 755.62" fill="none" stroke="#b8bec7" stroke-width="2"/>
<path d="M 843.86 755.62 A 40.45 40.45 0 0 1 864.09 790.66" fill="none" stroke="#b8bec7" stroke-width="2"/>
<path d="M 945.00 790.66 A 40.45 40.45 0 0 1 924.77 825.69" fill="none" stroke="#b8bec7" stroke-width="2"/>
<path d="M 924.77 825.69 A 40.45 40.45 0 0 1 884.32 825.69" fill="none" stroke="#b8bec7" stroke-width="2"/>
<path d="M 884.32 825.69 A 40.45 40.45 0 0 1 864.09 790.66" fill="none" stroke="#b8bec7" stroke-width="2"/>
<path d="M 864.09 790.66 A 40.45 40.45 0 0 1 884.32 755.62" fill="none" stroke="#b8bec7" stroke-width="2"/>
<path d="M 884.32 755.62 A 40.45 40.45 0 0 1 924.77 755.62" fill="none" stroke="#b8bec7" stroke-width="2"/>
<path d="M 924.77 755.62 A 40.45 40.45 0 0 1 945.00 790.66" fill="none" stroke="#b8bec7" stroke-width="2"/>
<path d="M 479.77 195.07 A 40.45 40.45 0 0 1 439.32 195.07" fill="none" stroke="#1859a9" stroke-width="7" stroke-linecap="round"/>
<path d="M 439.32 195.07 A 40.45 40.45 0 0 1 419.09 160.03" fill="none" stroke="#1859a9" stroke-width="7" stroke-linecap="round"/>
<path d="M 419.09 160.03 A 40.45 40.45 0 0 1 439.32 125.00" fill="none" stroke="#1859a9" stroke-width="7" stroke-linecap="round"/>
<path d="M 439.32 125.00 A 40.45 40.45 0 0 1 479.77 125.00" fill="none" stroke="#1859a9" stroke-width="7" stroke-linecap="round"/>
<path d="M 479.77 125.00 A 40.45 40.45 0 0 1 500.00 160.03" fill="none" stroke="#1859a9" stroke-width="7" stroke-linecap="round"/>
<path d="M 560.68 195.07 A 40.45 40.45 0 0 1 520.23 195.07" fill="none" stroke="#1859a9" stroke-width="7" stroke-linecap="round"/>
<path d="M 500.00 160.03 A 40.45 40.45 0 0 1 520.23 125.00" fill="none" stroke="#1859a9" stroke-width="7" stroke-linecap="round"/>
<path d="M 520.23 125.00 A 40.45 40.45 0 0 1 560.68 125.00" fill="none" stroke="#1859a9" stroke-width="7" stroke-linecap="round"/>
<path d="M 560.68 125.00 A 40.45 40.45 0 0 1 580.91 160.03" fill="none" stroke="#1859a9" stroke-width="7" stroke-linecap="round"/>
<path d="M 661.82 160.03 A 40.45 40.45 0 0 1 641.59 195.07" fill="none" stroke="#1859a9" stroke-width="7" stroke-linecap="round"/>
<path d="M 580.91 160.03 A 40.45 40.45 0 0 1 601.14 125.00" fill="none" stroke="#1859a9" stroke-width="7" stroke-linecap="round"/>
<path d="M 601.14 125.00 A 40.45 40.45 0 0 1 641.59 125.00" fill="none" stroke="#1859a9" stroke-width="7" stroke-linecap="round"/>
<path d="M 641.59 125.00 A 40.45 40.45 0 0 1 661.82 160.03" fill="none" stroke="#1859a9" stroke-width="7" stroke-linecap="round"/>
<path d="M 722.50 195.07 A 40.45 40.45 0 0 1 682.05 195.07" fill="none" stroke="#1859a9" stroke-width="7" stroke-linecap="round"/>
<path d="M 479.77 195.07 A 40.45 40.45 0 0 1 520.23 195.07" fill="none" stroke="#1859a9" stroke-width="7" stroke-linecap="round"/>
<path d="M 621.36 230.10 A 40.45 40.45 0 0 1 601.14 265.14" fill="none" stroke="#1859a9" stroke-width="7" stroke-linecap="round"/>
<path d="M 560.68 195.07 A 40.45 40.45 0 0 1 601.14 195.07" fill="none" stroke="#1859a9" stroke-width="7" stroke-linecap="round"/>
<path d="M 601.14 195.07 A 40.45 40.45 0 0 1 621.36 230.10" fill="none" stroke="#1859a9" stroke-width="7" stroke-linecap="round"/>
<path d="M 682.05 265.14 A 40.45 40.45 0 0 1 641.59 265.14" fill="none" stroke="#1859a9" stroke-width="7" stroke-linecap="round"/>
<path d="M 641.59 195.07 A 40.45 40.45 0 0 1 682.05 195.07" fill="none" stroke="#1859a9" stroke-width="7" stroke-linecap="round"/>
<path d="M 722.50 265.14 A 40.45 40.45 0 0 1 702.27 230.10" fill="none" stroke="#1859a9" stroke-width="7" stroke-linecap="round"/>
<path d="M 702.27 230.10 A 40.45 40.45 0 0 1 722.50 195.07" fill="none" stroke="#1859a9" stroke-width="7" stroke-linecap="round"/>
<path d="M 580.91 300.17 A 40.45 40.45 0 0 1 560.68 335.21" fill="none" stroke="#1859a9" stroke-width="7" stroke-linecap="round"/>
<path d="M 560.68 335.21 A 40.45 40.45 0 0 1 520.23 335.21" fill="none" stroke="#1859a9" stroke-width="7" stroke-linecap="round"/>
<path d="M 641.59 335.21 A 40.45 40.45 0 0 1 601.14 335.21" fill="none" stroke="#1859a9" stroke-width="7" stroke-linecap="round"/>
<path d="M 601.14 335.21 A 40.45 40.45 0 0 1 580.91 300.17" fill="none" stroke="#1859a9" stroke-width="7" stroke-linecap="round"/>
<path d="M 601.14 265.14 A 40.45 40.45 0 0 1 641.59 265.14" fill="none" stroke="#1859a9" stroke-width="7" stroke-linecap="round"/>
<path d="M 742.73 300.17 A 40.45 40.45 0 0 1 722.50 335.21" fill="none" stroke="#1859a9" stroke-width="7" stroke-linecap="round"/>
<path d="M 682.05 335.21 A 40.45 40.45 0 0 1 661.82 300.17" fill="none" stroke="#1859a9" stroke-width="7" stroke-linecap="round"/>
<path d="M 661.82 300.17 A 40.45 40.45 0 0 1 682.05 265.14" fill="none" stroke="#1859a9" stroke-width="7" stroke-linecap="round"/>
<path d="M 722.50 265.14 A 40.45 40.45 0 0 1 742.73 300.17" fill="none" stroke="#1859a9" stroke-width="7" stroke-linecap="round"/>
<path d="M 398.86 405.28 A 40.45 40.45 0 0 1 378.64 370.24" fill="none" stroke="#1859a9" stroke-width="7" stroke-linecap="round"/>
<path d="M 378.64 370.24 A 40.45 40.45 0 0 1 398.86 335.21" fill="none" stroke="#1859a9" stroke-width="7" stroke-linecap="round"/>
<path d="M 398.86 335.21 A 40.45 40.45 0 0 1 439.32 335.21" fill="none" stroke="#1859a9" stroke-width="7" stroke-linecap="round"/>
<path d="M 439.32 335.21 A 40.45 40.45 0 0 1 459.55 370.24" fill="none" stroke="#1859a9" stroke-width="7" stroke-linecap="round"/>
<path d="M 540.45 370.24 A 40.45 40.45 0 0 1 520.23 405.28" fill="none" stroke="#1859a9" stroke-width="7" stroke-linecap="round"/>
<path d="M 520.23 405.28 A 40.45 40.45 0 0 1 479.77 405.28" fill="none" stroke="#1859a9" stroke-width="7" stroke-linecap="round"/>
<path d="M 459.55 370.24 A 40.45 40.45 0 0 1 479.77 335.21" fill="none" stroke="#1859a9" stroke-width="7" stroke-linecap="round"/>
<path d="M 479.77 335.21 A 40.45 40.45 0 0 1 520.23 335.21" fill="none" stroke="#1859a9" stroke-width="7" stroke-linecap="round"/>
<path d="M 560.68 405.28 A 40.45 40.45 0 0 1 540.45 370.24" fill="none" stroke="#1859a9" stroke-width="7" stroke-linecap="round"/>
<path d="M 641.59 335.21 A 40.45 40.45 0 0 1 682.05 335.21" fill="none" stroke="#1859a9" stroke-width="7" stroke-linecap="round"/>
<path d="M 762.95 405.28 A 40.45 40.45 0 0 1 722.50 405.28" fill="none" stroke="#1859a9" stroke-width="7" stroke-linecap="round"/>
<path d="M 722.50 405.28 A 40.45 40.45 0 0 1 702.27 370.24" fill="none" stroke="#1859a9" stroke-width="7" stroke-linecap="round"/>
<path d="M 702.27 370.24 A 40.45 40.45 0 0 1 722.50 335.21" fill="none" stroke="#1859a9" stroke-width="7" stroke-linecap="round"/>
<path d="M 398.86 405.28 A 40.45 40.45 0 0 1 419.09 440.31" fill="none" stroke="#1859a9" stroke-width="7" stroke-linecap="round"/>
<path d="M 419.09 440.31 A 40.45 40.45 0 0 1 439.32 405.28" fill="none" stroke="#1859a9" stroke-width="7" stroke-linecap="round"/>
<path d="M 439.32 405.28 A 40.45 40.45 0 0 1 479.77 405.28" fill="none" stroke="#1859a9" stroke-width="7" stroke-linecap="round"/>
<path d="M 580.91 440.31 A 40.45 40.45 0 0 1 560.68 475.35" fill="none" stroke="#1859a9" stroke-width="7" stroke-linecap="round"/>
<path d="M 560.68 405.28 A 40.45 40.45 0 0 1 580.91 440.31" fill="none" stroke="#1859a9" stroke-width="7" stroke-linecap="round"/>
<path d="M 803.41 475.35 A 40.45 40.45 0 0 1 762.95 475.35" fill="none" stroke="#1859a9" stroke-width="7" stroke-linecap="round"/>
<path d="M 762.95 405.28 A 40.45 40.45 0 0 1 803.41 405.28" fill="none" stroke="#1859a9" stroke-width="7" stroke-linecap="round"/>
<path d="M 803.41 405.28 A 40.45 40.45 0 0 1 823.64 440.31" fill="none" stroke="#1859a9" stroke-width="7" stroke-linecap="round"/>
<path d="M 843.86 475.35 A 40.45 40.45 0 0 1 823.64 440.31" fill="none" stroke="#1859a9" stroke-width="7" stroke-linecap="round"/>
<path d="M 621.36 510.38 A 40.45 40.45 0 0 1 601.14 545.42" fill="none" stroke="#1859a9" stroke-width="7" stroke-linecap="round"/>
<path d="M 560.68 475.35 A 40.45 40.45 0 0 1 601.14 475.35" fill="none" stroke="#1859a9" stroke-width="7" stroke-linecap="round"/>
<path d="M 601.14 475.35 A 40.45 40.45 0 0 1 621.36 510.38" fill="none" stroke="#1859a9" stroke-width="7" stroke-linecap="round"/>
<path d="M 682.05 545.42 A 40.45 40.45 0 0 1 641.59 545.42" fill="none" stroke="#1859a9" stroke-width="7" stroke-linecap="round"/>
<path d="M 762.95 545.42 A 40.45 40.45 0 0 1 722.50 545.42" fill="none" stroke="#1859a9" stroke-width="7" stroke-linecap="round"/>
<path d="M 722.50 545.42 A 40.45 40.45 0 0 1 702.27 510.38" fill="none" stroke="#1859a9" stroke-width="7" stroke-linecap="round"/>
<path d="M 702.27 510.38 A 40.45 40.45 0 0 1 722.50 475.35" fill="none" stroke="#1859a9" stroke-width="7" stroke-linecap="round"/>
<path d="M 722.50 475.35 A 40.45 40.45 0 0 1 762.95 475.35" fill="none" stroke="#1859a9" stroke-width="7" stroke-linecap="round"/>
<path d="M 803.41 475.35 A 40.45 40.45 0 0 1 843.86 475.35" fill="none" stroke="#1859a9" stroke-width="7" stroke-linecap="round"/>
<path d="M 661.82 580.45 A 40.45 40.45 0 0 1 641.59 615.49" fill="none" stroke="#1859a9" stroke-width="7" stroke-linecap="round"/>
<path d="M 601.14 545.42 A 40.45 40.45 0 0 1 641.59 545.42" fill="none" stroke="#1859a9" stroke-width="7" stroke-linecap="round"/>
<path d="M 661.82 580.45 A 40.45 40.45 0 0 1 682.05 545.42" fill="none" stroke="#1859a9" stroke-width="7" stroke-linecap="round"/>
<path d="M 803.41 615.49 A 40.45 40.45 0 0 1 762.95 615.49" fill="none" stroke="#1859a9" stroke-width="7" stroke-linecap="round"/>
<path d="M 762.95 615.49 A 40.45 40.45 0 0 1 742.73 580.45" fill="none" stroke="#1859a9" stroke-width="7" stroke-linecap="round"/>
<path d="M 742.73 580.45 A 40.45 40.45 0 0 1 762.95 545.42" fill="none" stroke="#1859a9" stroke-width="7" stroke-linecap="round"/>
<path d="M 641.59 615.49 A 40.45 40.45 0 0 1 682.05 615.49" fill="none" stroke="#1859a9" stroke-width="7" stroke-linecap="round"/>
<path d="M 682.05 615.49 A 40.45 40.45 0 0 1 702.27 650.52" fill="none" stroke="#1859a9" stroke-width="7" stroke-linecap="round"/>
<path d="M 762.95 685.55 A 40.45 40.45 0 0 1 722.50 685.55" fill="none" stroke="#1859a9" stroke-width="7" stroke-linecap="round"/>
<path d="M 722.50 685.55 A 40.45 40.45 0 0 1 702.27 650.52" fill="none" stroke="#1859a9" stroke-width="7" stroke-linecap="round"/>
<path d="M 803.41 685.55 A 40.45 40.45 0 0 1 783.18 650.52" fill="none" stroke="#1859a9" stroke-width="7" stroke-linecap="round"/>
<path d="M 783.18 650.52 A 40.45 40.45 0 0 1 803.41 615.49" fill="none" stroke="#1859a9" stroke-width="7" stroke-linecap="round"/>
<path d="M 762.95 685.55 A 40.45 40.45 0 0 1 803.41 685.55" fill="none" stroke="#1859a9" stroke-width="7" stroke-linecap="round"/>
<text x="216.82" y="167.40" text-anchor="middle" font-size="21.0" font-weight="600" font-family="sans-serif">0</text>
<text x="378.64" y="167.40" text-anchor="middle" font-size="21.0" font-weight="600" font-family="sans-serif">0</text>
<text x="702.27" y="167.40" text-anchor="middle" font-size="21.0" font-weight="600" font-family="sans-serif">π</text>
<text x="500.00" y="237.47" text-anchor="middle" font-size="21.0" font-weight="600" font-family="sans-serif">π</text>
<text x="661.82" y="237.47" text-anchor="middle" font-size="21.0" font-weight="600" font-family="sans-serif">2</text>
<text x="378.64" y="307.54" text-anchor="middle" font-size="21.0" font-weight="600" font-family="sans-serif">0</text>
<text x="621.36" y="307.54" text-anchor="middle" font-size="21.0" font-weight="600" font-family="sans-serif">3</text>
<text x="783.18" y="307.54" text-anchor="middle" font-size="21.0" font-weight="600" font-family="sans-serif">0</text>
<text x="419.09" y="377.61" text-anchor="middle" font-size="21.0" font-weight="600" font-family="sans-serif">4</text>
<text x="500.00" y="377.61" text-anchor="middle" font-size="21.0" font-weight="600" font-family="sans-serif">4</text>
<text x="580.91" y="377.61" text-anchor="middle" font-size="21.0" font-weight="600" font-family="sans-serif">π</text>
<text x="742.73" y="377.61" text-anchor="middle" font-size="21.0" font-weight="600" font-family="sans-serif">3</text>
<text x="823.64" y="377.61" text-anchor="middle" font-size="21.0" font-weight="600" font-family="sans-serif">0</text>
<text x="378.64" y="447.67" text-anchor="middle" font-size="21.0" font-weight="600" font-family="sans-serif">π</text>
<text x="540.45" y="447.67" text-anchor="middle" font-size="21.0" font-weight="600" font-family="sans-serif">2</text>
<text x="783.18" y="447.67" text-anchor="middle" font-size="21.0" font-weight="600" font-family="sans-serif">3</text>
<text x="176.36" y="517.74" text-anchor="middle" font-size="21.0" font-weight="600" font-family="sans-serif">0</text>
<text x="580.91" y="517.74" text-anchor="middle" font-size="21.0" font-weight="600" font-family="sans-serif">3</text>
<text x="823.64" y="517.74" text-anchor="middle" font-size="21.0" font-weight="600" font-family="sans-serif">1</text>
<text x="621.36" y="587.81" text-anchor="middle" font-size="21.0" font-weight="600" font-family="sans-serif">2</text>
<text x="702.27" y="587.81" text-anchor="middle" font-size="21.0" font-weight="600" font-family="sans-serif">π</text>
<text x="95.45" y="657.88" text-anchor="middle" font-size="21.0" font-weight="600" font-family="sans-serif">0</text>
<text x="904.55" y="657.88" text-anchor="middle" font-size="21.0" font-weight="600" font-family="sans-serif">0</text>
<text x="257.27" y="657.88" text-anchor="middle" font-size="21.0" font-weight="600" font-family="sans-serif">0</text>
<text x="742.73" y="657.88" text-anchor="middle" font-size="21.0" font-weight="600" font-family="sans-serif">2</text>
<text x="823.64" y="657.88" text-anchor="middle" font-size="21.0" font-weight="600" font-family="sans-serif">2</text>
<text x="297.73" y="727.95" text-anchor="middle" font-size="21.0" font-weight="600" font-family="sans-serif">0</text>
<text x="904.55" y="798.02" text-anchor="middle" font-size="21.0" font-weight="600" font-family="sans-serif">0</text>
<text x="338.18" y="798.02" text-anchor="middle" font-size="21.0" font-weight="600" font-family="sans-serif">0</text>
<text x="823.64" y="798.02" text-anchor="middle" font-size="21.0" font-weight="600" font-family="sans-serif">0</text>
<text x="176.36" y="190.75" text-anchor="middle" font-size="21.0" font-weight="600" font-family="sans-serif">0</text>
<text x="419.09" y="190.75" text-anchor="middle" font-size="21.0" font-weight="600" font-family="sans-serif">1</text>
<text x="540.45" y="214.11" text-anchor="middle" font-size="21.0" font-weight="600" font-family="sans-serif">1</text>
<text x="702.27" y="214.11" text-anchor="middle" font-size="21.0" font-weight="600" font-family="sans-serif">2</text>
<text x="216.82" y="260.82" text-anchor="middle" font-size="21.0" font-weight="600" font-family="sans-serif">0</text>
<text x="297.73" y="260.82" text-anchor="middle" font-size="21.0" font-weight="600" font-family="sans-serif">0</text>
<text x="540.45" y="260.82" text-anchor="middle" font-size="21.0" font-weight="600" font-family="sans-serif">0</text>
<text x="702.27" y="260.82" text-anchor="middle" font-size="21.0" font-weight="600" font-family="sans-serif">1</text>
<text x="661.82" y="284.18" text-anchor="middle" font-size="21.0" font-weight="600" font-family="sans-serif">2</text>
<text x="297.73" y="354.25" text-anchor="middle" font-size="21.0" font-weight="600" font-family="sans-serif">0</text>
<text x="500.00" y="330.89" text-anchor="middle" font-size="21.0" font-weight="600" font-family="sans-serif">1</text>
<text x="580.91" y="330.89" text-anchor="middle" font-size="21.0" font-weight="600" font-family="sans-serif">2</text>
<text x="742.73" y="330.89" text-anchor="middle" font-size="21.0" font-weight="600" font-family="sans-serif">π</text>
<text x="864.09" y="354.25" text-anchor="middle" font-size="21.0" font-weight="600" font-family="sans-serif">0</text>
<text x="864.09" y="400.96" text-anchor="middle" font-size="21.0" font-weight="600" font-family="sans-serif">0</text>
<text x="378.64" y="400.96" text-anchor="middle" font-size="21.0" font-weight="600" font-family="sans-serif">1</text>
<text x="459.55" y="400.96" text-anchor="middle" font-size="21.0" font-weight="600" font-family="sans-serif">1</text>
<text x="500.00" y="424.32" text-anchor="middle" font-size="21.0" font-weight="600" font-family="sans-serif">1</text>
<text x="621.36" y="400.96" text-anchor="middle" font-size="21.0" font-weight="600" font-family="sans-serif">0</text>
<text x="257.27" y="471.03" text-anchor="middle" font-size="21.0" font-weight="600" font-family="sans-serif">0</text>
<text x="338.18" y="471.03" text-anchor="middle" font-size="21.0" font-weight="600" font-family="sans-serif">0</text>
<text x="419.09" y="471.03" text-anchor="middle" font-size="21.0" font-weight="600" font-family="sans-serif">0</text>
<text x="378.64" y="494.39" text-anchor="middle" font-size="21.0" font-weight="600" font-family="sans-serif">0</text>
<text x="540.45" y="494.39" text-anchor="middle" font-size="21.0" font-weight="600" font-family="sans-serif">0</text>
<text x="661.82" y="471.03" text-anchor="middle" font-size="21.0" font-weight="600" font-family="sans-serif">0</text>
<text x="621.36" y="494.39" text-anchor="middle" font-size="21.0" font-weight="600" font-family="sans-serif">1</text>
<text x="702.27" y="494.39" text-anchor="middle" font-size="21.0" font-weight="600" font-family="sans-serif">1</text>
<text x="783.18" y="494.39" text-anchor="middle" font-size="21.0" font-weight="600" font-family="sans-serif">1</text>
<text x="702.27" y="541.10" text-anchor="middle" font-size="21.0" font-weight="600" font-family="sans-serif">1</text>
<text x="823.64" y="564.46" text-anchor="middle" font-size="21.0" font-weight="600" font-family="sans-serif">0</text>
<text x="135.91" y="634.53" text-anchor="middle" font-size="21.0" font-weight="600" font-family="sans-serif">0</text>
<text x="378.64" y="634.53" text-anchor="middle" font-size="21.0" font-weight="600" font-family="sans-serif">0</text>
<text x="580.91" y="611.17" text-anchor="middle" font-size="21.0" font-weight="600" font-family="sans-serif">0</text>
<text x="621.36" y="634.53" text-anchor="middle" font-size="21.0" font-weight="600" font-family="sans-serif">0</text>
<text x="864.09" y="634.53" text-anchor="middle" font-size="21.0" font-weight="600" font-family="sans-serif">0</text>
<text x="338.18" y="704.60" text-anchor="middle" font-size="21.0" font-weight="600" font-family="sans-serif">0</text>
<text x="419.09" y="704.60" text-anchor="middle" font-size="21.0" font-weight="600" font-family="sans-serif">0</text>
<text x="540.45" y="681.24" text-anchor="middle" font-size="21.0" font-weight="600" font-family="sans-serif">0</text>
<text x="702.27" y="681.24" text-anchor="middle" font-size="21.0" font-weight="600" font-family="sans-serif">1</text>
<text x="823.64" y="704.60" text-anchor="middle" font-size="21.0" font-weight="600" font-family="sans-serif">0</text>
<text x="338.18" y="751.31" text-anchor="middle" font-size="21.0" font-weight="600" font-family="sans-serif">0</text>
<text x="580.91" y="751.31" text-anchor="middle" font-size="21.0" font-weight="600" font-family="sans-serif">0</text>
<text x="661.82" y="751.31" text-anchor="middle" font-size="21.0" font-weight="600" font-family="sans-serif">0</text>
</svg>