<svg xmlns="http://www.w3.org/2000/svg" width="1000" height="951" viewBox="0 0 1000 951">
<rect width="100%" height="100%" fill="white"/>
<text x="500.0" y="45" text-anchor="middle" font-size="28" font-family="sans-serif">TSH-14 - 答案</text>
<path d="M 188.50 163.54 A 44.50 44.50 0 0 1 166.25 202.08" fill="none" stroke="#b8bec7" stroke-width="2"/>
<path d="M 166.25 202.08 A 44.50 44.50 0 0 1 121.75 202.08" fill="none" stroke="#b8bec7" stroke-width="2"/>
<path d="M 121.75 202.08 A 44.50 44.50 0 0 1 99.50 163.54" fill="none" stroke="#b8bec7" stroke-width="2"/>
<path d="M 99.50 163.54 A 44.50 44.50 0 0 1 121.75 125.00" fill="none" stroke="#b8bec7" stroke-width="2"/>
<path d="M 121.75 125.00 A 44.50 44.50 0 0 1 166.25 125.00" fill="none" stroke="#b8bec7" stroke-width="2"/>
<path d="M 166.25 125.00 A 44.50 44.50 0 0 1 188.50 163.54" fill="none" stroke="#b8bec7" stroke-width="2"/>
<path d="M 277.50 163.54 A 44.50 44.50 0 0 1 255.25 202.08" fill="none" stroke="#b8bec7" stroke-width="2"/>
<path d="M 255.25 202.08 A 44.50 44.50 0 0 1 210.75 202.08" fill="none" stroke="#b8bec7" stroke-width="2"/>
<path d="M 210.75 202.08 A 44.50 44.50 0 0 1 188.50 163.54" fill="none" stroke="#b8bec7" stroke-width="2"/>
<path d="M 188.50 163.54 A 44.50 44.50 0 0 1 210.75 125.00" fill="none" stroke="#b8bec7" stroke-width="2"/>
<path d="M 210.75 125.00 A 44.50 44.50 0 0 1 255.25 125.00" fill="none" stroke="#b8bec7" stroke-width="2"/>
<path d="M 255.25 125.00 A 44.50 44.50 0 0 1 277.50 163.54" fill="none" stroke="#b8bec7" stroke-width="2"/>
<path d="M 366.50 163.54 A 44.50 44.50 0 0 1 344.25 202.08" fill="none" stroke="#b8bec7" stroke-width="2"/>
<path d="M 344.25 202.08 A 44.50 44.50 0 0 1 299.75 202.08" fill="none" stroke="#b8bec7" stroke-width="2"/>
<path d="M 299.75 202.08 A 44.50 44.50 0 0 1 277.50 163.54" fill="none" stroke="#b8bec7" stroke-width="2"/>
<path d="M 277.50 163.54 A 44.50 44.50 0 0 1 299.75 125.00" fill="none" stroke="#b8bec7" stroke-width="2"/>
<path d="M 299.75 125.00 A 44.50 44.50 0 0 1 344.25 125.00" fill="none" stroke="#b8bec7" stroke-width="2"/>
<path d="M 344.25 125.00 A 44.50 44.50 0 0 1 366.50 163.54" fill="none" stroke="#b8bec7" stroke-width="2"/>
<path d="M 455.50 163.54 A 44.50 44.50 0 0 1 433.25 202.08" fill="none" stroke="#b8bec7" stroke-width="2"/>
<path d="M 433.25 202.08 A 44.50 44.50 0 0 1 388.75 202.08" fill="none" stroke="#b8bec7" stroke-width="2"/>
<path d="M 388.75 202.08 A 44.50 44.50 0 0 1 366.50 163.54" fill="none" stroke="#b8bec7" stroke-width="2"/>
<path d="M 366.50 163.54 A 44.50 44.50 0 0 1 388.75 125.00" fill="none" stroke="#b8bec7" stroke-width="2"/>
<path d="M 388.75 125.00 A 44.50 44.50 0 0 1 433.25 125.00" fill="none" stroke="#b8bec7" stroke-width="2"/>
<path d="M 433.25 125.00 A 44.50 44.50 0 0 1 455.50 163.54" fill="none" stroke="#b8bec7" stroke-width="2"/>
<path d="M 544.50 163.54 A 44.50 44.50 0 0 1 522.25 202.08" fill="none" stroke="#b8bec7" stroke-width="2"/>
<path d="M 522.25 202.08 A 44.50 44.50 0 0 1 477.75 202.08" fill="none" stroke="#b8bec7" stroke-width="2"/>
<path d="M 477.75 202.08 A 44.50 44.50 0 0 1 455.50 163.54" fill="none" stroke="#b8bec7" stroke-width="2"/>
<path d="M 455.50 163.54 A 44.50 44.50 0 0 1 477.75 125.00" fill="none" stroke="#b8bec7" stroke-width="2"/>
<path d="M 477.75 125.00 A 44.50 44.50 0 0 1 522.25 125.00" fill="none" stroke="#b8bec7" stroke-width="2"/>
<path d="M 522.25 125.00 A 44.50 44.50 0 0 1 544.50 163.54" fill="none" stroke="#b8bec7" stroke-width="2"/>
<path d="M 633.50 163.54 A 44.50 44.50 0 0 1 611.25 202.08" fill="none" stroke="#b8bec7" stroke-width="2"/>
<path d="M 611.25 202.08 A 44.50 44.50 0 0 1 566.75 202.08" fill="none" stroke="#b8bec7" stroke-width="2"/>
<path d="M 566.75 202.08 A 44.50 44.50 0 0 1 544.50 163.54" fill="none" stroke="#b8bec7" stroke-width="2"/>
<path d="M 544.50 163.54 A 44.50 44.50 0 0 1 566.75 125.00" fill="none" stroke="#b8bec7" stroke-width="2"/>
<path d="M 566.75 125.00 A 44.50 44.50 0 0 1 611.25 125.00" fill="none" stroke="#b8bec7" stroke-width="2"/>
<path d="M 611.25 125.00 A 44.50 44.50 0 0 1 633.50 163.54" fill="none" stroke="#b8bec7" stroke-width="2"/>
<path d="M 722.50 163.54 A 44.50 44.50 0 0 1 700.25 202.08" fill="none" stroke="#b8bec7" stroke-width="2"/>
<path d="M 700.25 202.08 A 44.50 44.50 0 0 1 655.75 202.08" fill="none" stroke="#b8bec7" stroke-width="2"/>
<path d="M 655.75 202.08 A 44.50 44.50 0 0 1 633.50 163.54" fill="none" stroke="#b8bec7" stroke-width="2"/>
<path d="M 633.50 163.54 A 44.50 44.50 0 0 1 655.75 125.00" fill="none" stroke="#b8bec7" stroke-width="2"/>
<path d="M 655.75 125.00 A 44.50 44.50 0 0 1 700.25 125.00" fill="none" stroke="#b8bec7" stroke-width="2"/>
<path d="M 700.25 125.00 A 44.50 44.50 0 0 1 722.50 163.54" fill="none" stroke="#b8bec7" stroke-width="2"/>
<path d="M 811.50 163.54 A 44.50 44.50 0 0 1 789.25 202.08" fill="none" stroke="#b8bec7" stroke-width="2"/>
<path d="M 789.25 202.08 A 44.50 44.50 0 0 1 744.75 202.08" fill="none" stroke="#b8bec7" stroke-width="2"/>
<path d="M 744.75 202.08 A 44.50 44.50 0 0 1 722.50 163.54" fill="none" stroke="#b8bec7" stroke-width="2"/>
<path d="M 722.50 163.54 A 44.50 44.50 0 0 1 744.75 125.00" fill="none" stroke="#b8bec7" stroke-width="2"/>
<path d="M 744.75 125.00 A 44.50 44.50 0 0 1 789.25 125.00" fill="none" stroke="#b8bec7" stroke-width="2"/>
<path d="M 789.25 125.00 A 44.50 44.50 0 0 1 811.50 163.54" fill="none" stroke="#b8bec7" stroke-width="2"/>
<path d="M 900.50 163.54 A 44.50 44.50 0 0 1 878.25 202.08" fill="none" stroke="#b8bec7" stroke-width="2"/>
<path d="M 878.25 202.08 A 44.50 44.50 0 0 1 833.75 202.08" fill="none" stroke="#b8bec7" stroke-width="2"/>
<path d="M 833.75 202.08 A 44.50 44.50 0 0 1 811.50 163.54" fill="none" stroke="#b8bec7" stroke-width="2"/>
<path d="M 811.50 163.54 A 44.50 44.50 0 0 1 833.75 125.00" fill="none" stroke="#b8bec7" stroke-width="2"/>
<path d="M 833.75 125.00 A 44.50 44.50 0 0 1 878.25 125.00" fill="none" stroke="#b8bec7" stroke-width="2"/>
<path d="M 878.25 125.00 A 44.50 44.50 0 0 1 900.50 163.54" fill="none" stroke="#b8bec7" stroke-width="2"/>
<path d="M 144.00 240.61 A 44.50 44.50 0 0 1 121.75 279.15" fill="none" stroke="#b8bec7" stroke-width="2"/>
<path d="M 121.75 279.15 A 44.50 44.50 0 0 1 77.25 279.15" fill="none" stroke="#b8bec7" stroke-width="2"/>
<path d="M 77.25 279.15 A 44.50 44.50 0 0 1 55.00 240.61" fill="none" stroke="#b8bec7" stroke-width="2"/>
<path d="M 55.00 240.61 A 44.50 44.50 0 0 1 77.25 202.08" fill="none" stroke="#b8bec7" stroke-width="2"/>
<path d="M 77.25 202.08 A 44.50 44.50 0 0 1 121.75 202.08" fill="none" stroke="#b8bec7" stroke-width="2"/>
<path d="M 121.75 202.08 A 44.50 44.50 0 0 1 144.00 240.61" fill="none" stroke="#b8bec7" stroke-width="2"/>
<path d="M 233.00 240.61 A 44.50 44.50 0 0 1 210.75 279.15" fill="none" stroke="#b8bec7" stroke-width="2"/>
<path d="M 210.75 279.15 A 44.50 44.50 0 0 1 166.25 279.15" fill="none" stroke="#b8bec7" stroke-width="2"/>
<path d="M 166.25 279.15 A 44.50 44.50 0 0 1 144.00 240.61" fill="none" stroke="#b8bec7" stroke-width="2"/>
<path d="M 144.00 240.61 A 44.50 44.50 0 0 1 166.25 202.08" fill="none" stroke="#b8bec7" stroke-width="2"/>
<path d="M 166.25 202.08 A 44.50 44.50 0 0 1 210.75 202.08" fill="none" stroke="#b8bec7" stroke-width="2"/>
<path d="M 210.75 202.08 A 44.50 44.50 0 0 1 233.00 240.61" fill="none" stroke="#b8bec7" stroke-width="2"/>
<path d="M 322.00 240.61 A 44.50 44.50 0 0 1 299.75 279.15" fill="none" stroke="#b8bec7" stroke-width="2"/>
<path d="M 299.75 279.15 A 44.50 44.50 0 0 1 255.25 279.15" fill="none" stroke="#b8bec7" stroke-width="2"/>
<path d="M 255.25 279.15 A 44.50 44.50 0 0 1 233.00 240.61" fill="none" stroke="#b8bec7" stroke-width="2"/>
<path d="M 233.00 240.61 A 44.50 44.50 0 0 1 255.25 202.08" fill="none" stroke="#b8bec7" stroke-width="2"/>
<path d="M 255.25 202.08 A 44.50 44.50 0 0 1 299.75 202.08" fill="none" stroke="#b8bec7" stroke-width="2"/>
<path d="M 299.75 202.08 A 44.50 44.50 0 0 1 322.00 240.61" fill="none" stroke="#b8bec7" stroke-width="2"/>
<path d="M 411.00 240.61 A 44.50 44.50 0 0 1 388.75 279.15" fill="none" stroke="#b8bec7" stroke-width="2"/>
<path d="M 388.75 279.15 A 44.50 44.50 0 0 1 344.25 279.15" fill="none" stroke="#b8bec7" stroke-width="2"/>
<path d="M 344.25 279.15 A 44.50 44.50 0 0 1 322.00 240.61" fill="none" stroke="#b8bec7" stroke-width="2"/>
<path d="M 322.00 240.61 A 44.50 44.50 0 0 1 344.25 202.08" fill="none" stroke="#b8bec7" stroke-width="2"/>
<path d="M 344.25 202.08 A 44.50 44.50 0 0 1 388.75 202.08" fill="none" stroke="#b8bec7" stroke-width="2"/>
<path d="M 388.75 202.08 A 44.50 44.50 0 0 1 411.00 240.61" fill="none" stroke="#b8bec7" stroke-width="2"/>
<path d="M 500.00 240.61 A 44.50 44.50 0 0 1 477.75 279.15" fill="none" stroke="#b8bec7" stroke-width="2"/>
<path d="M 477.75 279.15 A 44.50 44.50 0 0 1 433.25 279.15" fill="none" stroke="#b8bec7" stroke-width="2"/>
<path d="M 433.25 279.15 A 44.50 44.50 0 0 1 411.00 240.61" fill="none" stroke="#b8bec7" stroke-width="2"/>
<path d="M 411.00 240.61 A 44.50 44.50 0 0 1 433.25 202.08" fill="none" stroke="#b8bec7" stroke-width="2"/>
<path d="M 433.25 202.08 A 44.50 44.50 0 0 1 477.75 202.08" fill="none" stroke="#b8bec7" stroke-width="2"/>
<path d="M 477.75 202.08 A 44.50 44.50 0 0 1 500.00 240.61" fill="none" stroke="#b8bec7" stroke-width="2"/>
<path d="M 589.00 240.61 A 44.50 44.50 0 0 1 566.75 279.15" fill="none" stroke="#b8bec7" stroke-width="2"/>
<path d="M 566.75 279.15 A 44.50 44.50 0 0 1 522.25 279.15" fill="none" stroke="#b8bec7" stroke-width="2"/>
<path d="M 522.25 279.15 A 44.50 44.50 0 0 1 500.00 240.61" fill="none" stroke="#b8bec7" stroke-width="2"/>
<path d="M 500.00 240.61 A 44.50 44.50 0 0 1 522.25 202.08" fill="none" stroke="#b8bec7" stroke-width="2"/>
<path d="M 522.25 202.08 A 44.50 44.50 0 0 1 566.75 202.08" fill="none" stroke="#b8bec7" stroke-width="2"/>
<path d="M 566.75 202.08 A 44.50 44.50 0 0 1 589.00 240.61" fill="none" stroke="#b8bec7" stroke-width="2"/>
<path d="M 678.00 240.61 A 44.50 44.50 0 0 1 655.75 279.15" fill="none" stroke="#b8bec7" stroke-width="2"/>
<path d="M 655.75 279.15 A 44.50 44.50 0 0 1 611.25 279.15" fill="none" stroke="#b8bec7" stroke-width="2"/>
<path d="M 611.25 279.15 A 44.50 44.50 0 0 1 589.00 240.61" fill="none" stroke="#b8bec7" stroke-width="2"/>
<path d="M 589.00 240.61 A 44.50 44.50 0 0 1 611.25 202.08" fill="none" stroke="#b8bec7" stroke-width="2"/>
<path d="M 611.25 202.08 A 44.50 44.50 0 0 1 655.75 202.08" fill="none" stroke="#b8bec7" stroke-width="2"/>
<path d="M 655.75 202.08 A 44.50 44.50 0 0 1 678.00 240.61" fill="none" stroke="#b8bec7" stroke-width="2"/>
<path d="M 767.00 240.61 A 44.50 44.50 0 0 1 744.75 279.15" fill="none" stroke="#b8bec7" stroke-width="2"/>
<path d="M 744.75 279.15 A 44.50 44.50 0 0 1 700.25 279.15" fill="none" stroke="#b8bec7" stroke-width="2"/>
<path d="M 700.25 279.15 A 44.50 44.50 0 0 1 678.00 240.61" fill="none" stroke="#b8bec7" stroke-width="2"/>
<path d="M 678.00 240.61 A 44.50 44.50 0 0 1 700.25 202.08" fill="none" stroke="#b8bec7" stroke-width="2"/>
<path d="M 700.25 202.08 A 44.50 44.50 0 0 1 744.75 202.08" fill="none" stroke="#b8bec7" stroke-width="2"/>
<path d="M 744.75 202.08 A 44.50 44.50 0 0 1 767.00 240.61" fill="none" stroke="#b8bec7" stroke-width="2"/>
<path d="M 856.00 240.61 A 44.50 44.50 0 0 1 833.75 279.15" fill="none" stroke="#b8bec7" stroke-width="2"/>
<path d="M 833.75 279.15 A 44.50 44.50 0 0 1 789.25 279.15" fill="none" stroke="#b8bec7" stroke-width="2"/>
<path d="M 789.25 279.15 A 44.50 44.50 0 0 1 767.00 240.61" fill="none" stroke="#b8bec7" stroke-width="2"/>
<path d="M 767.00 240.61 A 44.50 44.50 0 0 1 789.25 202.08" fill="none" stroke="#b8bec7" stroke-width="2"/>
<path d="M 789.25 202.08 A 44.50 44.50 0 0 1 833.75 202.08" fill="none" stroke="#b8bec7" stroke-width="2"/>
<path d="M 833.75 202.08 A 44.50 44.50 0 0 1 856.00 240.61" fill="none" stroke="#b8bec7" stroke-width="2"/>
<path d="M 945.00 240.61 A 44.50 44.50 0 0 1 922.75 279.15" fill="none" stroke="#b8bec7" stroke-width="2"/>
<path d="M 922.75 279.15 A 44.50 44.50 0 0 1 878.25 279.15" fill="none" stroke="#b8bec7" stroke-width="2"/>
<path d="M 878.25 279.15 A 44.50 44.50 0 0 1 856.00 240.61" fill="none" stroke="#b8bec7" stroke-width="2"/>
<path d="M 856.00 240.61 A 44.50 44.50 0 0 1 878.25 202.08" fill="none" stroke="#b8bec7" stroke-width="2"/>
<path d="M 878.25 202.08 A 44.50 44.50 0 0 1 922.75 202.08" fill="none" stroke="#b8bec7" stroke-width="2"/>
<path d="M 922.75 202.08 A 44.50 44.50 0 0 1 945.00 240.61" fill="none" stroke="#b8bec7" stroke-width="2"/>
<path d="M 188.50 317.69 A 44.50 44.50 0 0 1 166.25 356.23" fill="none" stroke="#b8bec7" stroke-width="2"/>
<path d="M 166.25 356.23 A 44.50 44.50 0 0 1 121.75 356.23" fill="none" stroke="#b8bec7" stroke-width="2"/>
<path d="M 121.75 356.23 A 44.50 44.50 0 0 1 99.50 317.69" fill="none" stroke="#b8bec7" stroke-width="2"/>
<path d="M 99.50 317.69 A 44.50 44.50 0 0 1 121.75 279.15" fill="none" stroke="#b8bec7" stroke-width="2"/>
<path d="M 121.75 279.15 A 44.50 44.50 0 0 1 166.25 279.15" fill="none" stroke="#b8bec7" stroke-width="2"/>
<path d="M 166.25 279.15 A 44.50 44.50 0 0 1 188.50 317.69" fill="none" stroke="#b8bec7" stroke-width="2"/>
<path d="M 277.50 317.69 A 44.50 44.50 0 0 1 255.25 356.23" fill="none" stroke="#b8bec7" stroke-width="2"/>
<path d="M 255.25 356.23 A 44.50 44.50 0 0 1 210.75 356.23" fill="none" stroke="#b8bec7" stroke-width="2"/>
<path d="M 210.75 356.23 A 44.50 44.50 0 0 1 188.50 317.69" fill="none" stroke="#b8bec7" stroke-width="2"/>
<path d="M 188.50 317.69 A 44.50 44.50 0 0 1 210.75 279.15" fill="none" stroke="#b8bec7" stroke-width="2"/>
<path d="M 210.75 279.15 A 44.50 44.50 0 0 1 255.25 279.15" fill="none" stroke="#b8bec7" stroke-width="2"/>
<path d="M 255.25 279.15 A 44.50 44.50 0 0 1 277.50 317.69" fill="none" stroke="#b8bec7" stroke-width="2"/>
<path d="M 366.50 317.69 A 44.50 44.50 0 0 1 344.25 356.23" fill="none" stroke="#b8bec7" stroke-width="2"/>
<path d="M 344.25 356.23 A 44.50 44.50 0 0 1 299.75 356.23" fill="none" stroke="#b8bec7" stroke-width="2"/>
<path d="M 299.75 356.23 A 44.50 44.50 0 0 1 277.50 317.69" fill="none" stroke="#b8bec7" stroke-width="2"/>
<path d="M 277.50 317.69 A 44.50 44.50 0 0 1 299.75 279.15" fill="none" stroke="#b8bec7" stroke-width="2"/>
<path d="M 299.75 279.15 A 44.50 44.50 0 0 1 344.25 279.15" fill="none" stroke="#b8bec7" stroke-width="2"/>
<path d="M 344.25 279.15 A 44.50 44.50 0 0 1 366.50 317.69" fill="none" stroke="#b8bec7" stroke-width="2"/>
<path d="M 455.50 317.69 A 44.50 44.50 0 0 1 433.25 356.23" fill="none" stroke="#b8bec7" stroke-width="2"/>
<path d="M 433.25 356.23 A 44.50 44.50 0 0 1 388.75 356.23" fill="none" stroke="#b8bec7" stroke-width="2"/>
<path d="M 388.75 356.23 A 44.50 44.50 0 0 1 366.50 317.69" fill="none" stroke="#b8bec7" stroke-width="2"/>
<path d="M 366.50 317.69 A 44.50 44.50 0 0 1 388.75 279.15" fill="none" stroke="#b8bec7" stroke-width="2"/>
<path d="M 388.75 279.15 A 44.50 44.50 0 0 1 433.25 279.15" fill="none" stroke="#b8bec7" stroke-width="2"/>
<path d="M 433.25 279.15 A 44.50 44.50 0 0 1 455.50 317.69" fill="none" stroke="#b8bec7" stroke-width="2"/>
<path d="M 544.50 317.69 A 44.50 44.50 0 0 1 522.25 356.23" fill="none" stroke="#b8bec7" stroke-width="2"/>
<path d="M 522.25 356.23 A 44.50 44.50 0 0 1 477.75 356.23" fill="none" stroke="#b8bec7" stroke-width="2"/>
<path d="M 477.75 356.23 A 44.50 44.50 0 0 1 455.50 317.69" fill="none" stroke="#b8bec7" stroke-width="2"/>
<path d="M 455.50 317.69 A 44.50 44.50 0 0 1 477.75 279.15" fill="none" stroke="#b8bec7" stroke-width="2"/>
<path d="M 477.75 279.15 A 44.50 44.50 0 0 1 522.25 279.15" fill="none" stroke="#b8bec7" stroke-width="2"/>
<path d="M 522.25 279.15 A 44.50 44.50 0 0 1 544.50 317.69" fill="none" stroke="#b8bec7" stroke-width="2"/>
<path d="M 633.50 317.69 A 44.50 44.50 0 0 1 611.25 356.23" fill="none" stroke="#b8bec7" stroke-width="2"/>
<path d="M 611.25 356.23 A 44.50 44.50 0 0 1 566.75 356.23" fill="none" stroke="#b8bec7" stroke-width="2"/>
<path d="M 566.75 356.23 A 44.50 44.50 0 0 1 544.50 317.69" fill="none" stroke="#b8bec7" stroke-width="2"/>
<path d="M 544.50 317.69 A 44.50 44.50 0 0 1 566.75 279.15" fill="none" stroke="#b8bec7" stroke-width="2"/>
<path d="M 566.75 279.15 A 44.50 44.50 0 0 1 611.25 279.15" fill="none" stroke="#b8bec7" stroke-width="2"/>
<path d="M 611.25 279.15 A 44.50 44.50 0 0 1 633.50 317.69" fill="none" stroke="#b8bec7" stroke-width="2"/>
<path d="M 722.50 317.69 A 44.50 44.50 0 0 1 700.25 356.23" fill="none" stroke="#b8bec7" stroke-width="2"/>
<path d="M 700.25 356.23 A 44.50 44.50 0 0 1 655.75 356.23" fill="none" stroke="#b8bec7" stroke-width="2"/>
<path d="M 655.75 356.23 A 44.50 44.50 0 0 1 633.50 317.69" fill="none" stroke="#b8bec7" stroke-width="2"/>
<path d="M 633.50 317.69 A 44.50 44.50 0 0 1 655.75 279.15" fill="none" stroke="#b8bec7" stroke-width="2"/>
<path d="M 655.75 279.15 A 44.50 44.50 0 0 1 700.25 279.15" fill="none" stroke="#b8bec7" stroke-width="2"/>
<path d="M 700.25 279.15 A 44.50 44.50 0 0 1 722.50 317.69" fill="none" stroke="#b8bec7" stroke-width="2"/>
<path d="M 811.50 317.69 A 44.50 44.50 0 0 1 789.25 356.23" fill="none" stroke="#b8bec7" stroke-width="2"/>
<path d="M 789.25 356.23 A 44.50 44.50 0 0 1 744.75 356.23" fill="none" stroke="#b8bec7" stroke-width="2"/>
<path d="M 744.75 356.23 A 44.50 44.50 0 0 1 722.50 317.69" fill="none" stroke="#b8bec7" stroke-width="2"/>
<path d="M 722.50 317.69 A 44.50 44.50 0 0 1 744.75 279.15" fill="none" stroke="#b8bec7" stroke-width="2"/>
<path d="M 744.75 279.15 A 44.50 44.50 0 0 1 789.25 279.15" fill="none" stroke="#b8bec7" stroke-width="2"/>
<path d="M 789.25 279.15 A 44.50 44.50 0 0 1 811.50 317.69" fill="none" stroke="#b8bec7" stroke-width="2"/>
<path d="M 900.50 317.69 A 44.50 44.50 0 0 1 878.25 356.23" fill="none" stroke="#b8bec7" stroke-width="2"/>
<path d="M 878.25 356.23 A 44.50 44.50 0 0 1 833.75 356.23" fill="none" stroke="#b8bec7" stroke-width="2"/>
<path d="M 833.75 356.23 A 44.50 44.50 0 0 1 811.50 317.69" fill="none" stroke="#b8bec7" stroke-width="2"/>
<path d="M 811.50 317.69 A 44.50 44.50 0 0 1 833.75 279.15" fill="none" stroke="#b8bec7" stroke-width="2"/>
<path d="M 833.75 279.15 A 44.50 44.50 0 0 1 878.25 279.15" fill="none" stroke="#b8bec7" stroke-width="2"/>
<path d="M 878.25 279.15 A 44.50 44.50 0 0 1 900.50 317.69" fill="none" stroke="#b8bec7" stroke-width="2"/>
<path d="M 144.00 394.77 A 44.50 44.50 0 0 1 121.75 433.31" fill="none" stroke="#b8bec7" stroke-width="2"/>
<path d="M 121.75 433.31 A 44.50 44.50 0 0 1 77.25 433.31" fill="none" stroke="#b8bec7" stroke-width="2"/>
<path d="M 77.25 433.31 A 44.50 44.50 0 0 1 55.00 394.77" fill="none" stroke="#b8bec7" stroke-width="2"/>
<path d="M 55.00 394.77 A 44.50 44.50 0 0 1 77.25 356.23" fill="none" stroke="#b8bec7" stroke-width="2"/>
<path d="M 77.25 356.23 A 44.50 44.50 0 0 1 121.75 356.23" fill="none" stroke="#b8bec7" stroke-width="2"/>
<path d="M 121.75 356.23 A 44.50 44.50 0 0 1 144.00 394.77" fill="none" stroke="#b8bec7" stroke-width="2"/>
<path d="M 233.00 394.77 A 44.50 44.50 0 0 1 210.75 433.31" fill="none" stroke="#b8bec7" stroke-width="2"/>
<path d="M 210.75 433.31 A 44.50 44.50 0 0 1 166.25 433.31" fill="none" stroke="#b8bec7" stroke-width="2"/>
<path d="M 166.25 433.31 A 44.50 44.50 0 0 1 144.00 394.77" fill="none" stroke="#b8bec7" stroke-width="2"/>
<path d="M 144.00 394.77 A 44.50 44.50 0 0 1 166.25 356.23" fill="none" stroke="#b8bec7" stroke-width="2"/>
<path d="M 166.25 356.23 A 44.50 44.50 0 0 1 210.75 356.23" fill="none" stroke="#b8bec7" stroke-width="2"/>
<path d="M 210.75 356.23 A 44.50 44.50 0 0 1 233.00 394.77" fill="none" stroke="#b8bec7" stroke-width="2"/>
<path d="M 322.00 394.77 A 44.50 44.50 0 0 1 299.75 433.31" fill="none" stroke="#b8bec7" stroke-width="2"/>
<path d="M 299.75 433.31 A 44.50 44.50 0 0 1 255.25 433.31" fill="none" stroke="#b8bec7" stroke-width="2"/>
<path d="M 255.25 433.31 A 44.50 44.50 0 0 1 233.00 394.77" fill="none" stroke="#b8bec7" stroke-width="2"/>
<path d="M 233.00 394.77 A 44.50 44.50 0 0 1 255.25 356.23" fill="none" stroke="#b8bec7" stroke-width="2"/>
<path d="M 255.25 356.23 A 44.50 44.50 0 0 1 299.75 356.23" fill="none" stroke="#b8bec7" stroke-width="2"/>
<path d="M 299.75 356.23 A 44.50 44.50 0 0 1 322.00 394.77" fill="none" stroke="#b8bec7" stroke-width="2"/>
<path d="M 411.00 394.77 A 44.50 44.50 0 0 1 388.75 433.31" fill="none" stroke="#b8bec7" stroke-width="2"/>
<path d="M 388.75 433.31 A 44.50 44.50 0 0 1 344.25 433.31" fill="none" stroke="#b8bec7" stroke-width="2"/>
<path d="M 344.25 433.31 A 44.50 44.50 0 0 1 322.00 394.77" fill="none" stroke="#b8bec7" stroke-width="2"/>
<path d="M 322.00 394.77 A 44.50 44.50 0 0 1 344.25 356.23" fill="none" stroke="#b8bec7" stroke-width="2"/>
<path d="M 344.25 356.23 A 44.50 44.50 0 0 1 388.75 356.23" fill="none" stroke="#b8bec7" stroke-width="2"/>
<path d="M 388.75 356.23 A 44.50 44.50 0 0 1 411.00 394.77" fill="none" stroke="#b8bec7" stroke-width="2"/>
<path d="M 500.00 394.77 A 44.50 44.50 0 0 1 477.75 433.31" fill="none" stroke="#b8bec7" stroke-width="2"/>
<path d="M 477.75 433.31 A 44.50 44.50 0 0 1 433.25 433.31" fill="none" stroke="#b8bec7" stroke-width="2"/>
<path d="M 433.25 433.31 A 44.50 44.50 0 0 1 411.00 394.77" fill="none" stroke="#b8bec7" stroke-width="2"/>
<path d="M 411.00 394.77 A 44.50 44.50 0 0 1 433.25 356.23" fill="none" stroke="#b8bec7" stroke-width="2"/>
<path d="M 433.25 356.23 A 44.50 44.50 0 0 1 477.75 356.23" fill="none" stroke="#b8bec7" stroke-width="2"/>
<path d="M 477.75 356.23 A 44.50 44.50 0 0 1 500.00 394.77" fill="none" stroke="#b8bec7" stroke-width="2"/>
<path d="M 589.00 394.77 A 44.50 44.50 0 0 1 566.75 433.31" fill="none" stroke="#b8bec7" stroke-width="2"/>
<path d="M 566.75 433.31 A 44.50 44.50 0 0 1 522.25 433.31" fill="none" stroke="#b8bec7" stroke-width="2"/>
<path d="M 522.25 433.31 A 44.50 44.50 0 0 1 500.00 394.77" fill="none" stroke="#b8bec7" stroke-width="2"/>
<path d="M 500.00 394.77 A 44.50 44.50 0 0 1 522.25 356.23" fill="none" stroke="#b8bec7" stroke-width="2"/>
<path d="M 522.25 356.23 A 44.50 44.50 0 0 1 566.75 356.23" fill="none" stroke="#b8bec7" stroke-width="2"/>
<path d="M 566.75 356.23 A 44.50 44.50 0 0 1 589.00 394.77" fill="none" stroke="#b8bec7" stroke-width="2"/>
<path d="M 678.00 394.77 A 44.50 44.50 0 0 1 655.75 433.31" fill="none" stroke="#b8bec7" stroke-width="2"/>
<path d="M 655.75 433.31 A 44.50 44.50 0 0 1 611.25 433.31" fill="none" stroke="#b8bec7" stroke-width="2"/>
<path d="M 611.25 433.31 A 44.50 44.50 0 0 1 589.00 394.77" fill="none" stroke="#b8bec7" stroke-width="2"/>
<path d="M 589.00 394.77 A 44.50 44.50 0 0 1 611.25 356.23" fill="none" stroke="#b8bec7" stroke-width="2"/>
<path d="M 611.25 356.23 A 44.50 44.50 0 0 1 655.75 356.23" fill="none" stroke="#b8bec7" stroke-width="2"/>
<path d="M 655.75 356.23 A 44.50 44.50 0 0 1 678.00 394.77" fill="none" stroke="#b8bec7" stroke-width="2"/>
<path d="M 767.00 394.77 A 44.50 44.50 0 0 1 744.75 433.31" fill="none" stroke="#b8bec7" stroke-width="2"/>
<path d="M 744.75 433.31 A 44.50 44.50 0 0 1 700.25 433.31" fill="none" stroke="#b8bec7" stroke-width="2"/>
<path d="M 700.25 433.31 A 44.50 44.50 0 0 1 678.00 394.77" fill="none" stroke="#b8bec7" stroke-width="2"/>
<path d="M 678.00 394.77 A 44.50 44.50 0 0 1 700.25 356.23" fill="none" stroke="#b8bec7" stroke-width="2"/>
<path d="M 700.25 356.23 A 44.50 44.50 0 0 1 744.75 356.23" fill="none" stroke="#b8bec7" stroke-width="2"/>
<path d="M 744.75 356.23 A 44.50 44.50 0 0 1 767.00 394.77" fill="none" stroke="#b8bec7" stroke-width="2"/>
<path d="M 856.00 394.77 A 44.50 44.50 0 0 1 833.75 433.31" fill="none" stroke="#b8bec7" stroke-width="2"/>
<path d="M 833.75 433.31 A 44.50 44.50 0 0 1 789.25 433.31" fill="none" stroke="#b8bec7" stroke-width="2"/>
<path d="M 789.25 433.31 A 44.50 44.50 0 0 1 767.00 394.77" fill="none" stroke="#b8bec7" stroke-width="2"/>
<path d="M 767.00 394.77 A 44.50 44.50 0 0 1 789.25 356.23" fill="none" stroke="#b8bec7" stroke-width="2"/>
<path d="M 789.25 356.23 A 44.50 44.50 0 0 1 833.75 356.23" fill="none" stroke="#b8bec7" stroke-width="2"/>
<path d="M 833.75 356.23 A 44.50 44.50 0 0 1 856.00 394.77" fill="none" stroke="#b8bec7" stroke-width="2"/>
<path d="M 945.00 394.77 A 44.50 44.50 0 0 1 922.75 433.31" fill="none" stroke="#b8bec7" stroke-width="2"/>
<path d="M 922.75 433.31 A 44.50 44.50 0 0 1 878.25 433.31" fill="none" stroke="#b8bec7" stroke-width="2"/>
<path d="M 878.25 433.31 A 44.50 44.50 0 0 1 856.00 394.77" fill="none" stroke="#b8bec7" stroke-width="2"/>
<path d="M 856.00 394.77 A 44.50 44.50 0 0 1 878.25 356.23" fill="none" stroke="#b8bec7" stroke-width="2"/>
<path d="M 878.25 356.23 A 44.50 44.50 0 0 1 922.75 356.23" fill="none" stroke="#b8bec7" stroke-width="2"/>
<path d="M 922.75 356.23 A 44.50 44.50 0 0 1 945.00 394.77" fill="none" stroke="#b8bec7" stroke-width="2"/>
<path d="M 188.50 471.84 A 44.50 44.50 0 0 1 166.25 510.38" fill="none" stroke="#b8bec7" stroke-width="2"/>
<path d="M 166.25 510.38 A 44.50 44.50 0 0 1 121.75 510.38" fill="none" stroke="#b8bec7" stroke-width="2"/>
<path d="M 121.75 510.38 A 44.50 44.50 0 0 1 99.50 471.84" fill="none" stroke="#b8bec7" stroke-width="2"/>
<path d="M 99.50 471.84 A 44.50 44.50 0 0 1 121.75 433.31" fill="none" stroke="#b8bec7" stroke-width="2"/>
<path d="M 121.75 433.31 A 44.50 44.50 0 0 1 166.25 433.31" fill="none" stroke="#b8bec7" stroke-width="2"/>
<path d="M 166.25 433.31 A 44.50 44.50 0 0 1 188.50 471.84" fill="none" stroke="#b8bec7" stroke-width="2"/>
<path d="M 277.50 471.84 A 44.50 44.50 0 0 1 255.25 510.38" fill="none" stroke="#b8bec7" stroke-width="2"/>
<path d="M 255.25 510.38 A 44.50 44.50 0 0 1 210.75 510.38" fill="none" stroke="#b8bec7" stroke-width="2"/>
<path d="M 210.75 510.38 A 44.50 44.50 0 0 1 188.50 471.84" fill="none" stroke="#b8bec7" stroke-width="2"/>
<path d="M 188.50 471.84 A 44.50 44.50 0 0 1 210.75 433.31" fill="none" stroke="#b8bec7" stroke-width="2"/>
<path d="M 210.75 433.31 A 44.50 44.50 0 0 1 255.25 433.31" fill="none" stroke="#b8bec7" stroke-width="2"/>
<path d="M 255.25 433.31 A 44.50 44.50 0 0 1 277.50 471.84" fill="none" stroke="#b8bec7" stroke-width="2"/>
<path d="M 366.50 471.84 A 44.50 44.50 0 0 1 344.25 510.38" fill="none" stroke="#b8bec7" stroke-width="2"/>
<path d="M 344.25 510.38 A 44.50 44.50 0 0 1 299.75 510.38" fill="none" stroke="#b8bec7" stroke-width="2"/>
<path d="M 299.75 510.38 A 44.50 44.50 0 0 1 277.50 471.84" fill="none" stroke="#b8bec7" stroke-width="2"/>
<path d="M 277.50 471.84 A 44.50 44.50 0 0 1 299.75 433.31" fill="none" stroke="#b8bec7" stroke-width="2"/>
<path d="M 299.75 433.31 A 44.50 44.50 0 0 1 344.25 433.31" fill="none" stroke="#b8bec7" stroke-width="2"/>
<path d="M 344.25 433.31 A 44.50 44.50 0 0 1 366.50 471.84" fill="none" stroke="#b8bec7" stroke-width="2"/>
<path d="M 455.50 471.84 A 44.50 44.50 0 0 1 433.25 510.38" fill="none" stroke="#b8bec7" stroke-width="2"/>
<path d="M 433.25 510.38 A 44.50 44.50 0 0 1 388.75 510.38" fill="none" stroke="#b8bec7" stroke-width="2"/>
<path d="M 388.75 510.38 A 44.50 44.50 0 0 1 366.50 471.84" fill="none" stroke="#b8bec7" stroke-width="2"/>
<path d="M 366.50 471.84 A 44.50 44.50 0 0 1 388.75 433.31" fill="none" stroke="#b8bec7" stroke-width="2"/>
<path d="M 388.75 433.31 A 44.50 44.50 0 0 1 433.25 433.31" fill="none" stroke="#b8bec7" stroke-width="2"/>
<path d="M 433.25 433.31 A 44.50 44.50 0 0 1 455.50 471.84" fill="none" stroke="#b8bec7" stroke-width="2"/>
<path d="M 544.50 471.84 A 44.50 44.50 0 0 1 522.25 510.38" fill="none" stroke="#b8bec7" stroke-width="2"/>
<path d="M 522.25 510.38 A 44.50 44.50 0 0 1 477.75 510.38" fill="none" stroke="#b8bec7" stroke-width="2"/>
<path d="M 477.75 510.38 A 44.50 44.50 0 0 1 455.50 471.84" fill="none" stroke="#b8bec7" stroke-width="2"/>
<path d="M 455.50 471.84 A 44.50 44.50 0 0 1 477.75 433.31" fill="none" stroke="#b8bec7" stroke-width="2"/>
<path d="M 477.75 433.31 A 44.50 44.50 0 0 1 522.25 433.31" fill="none" stroke="#b8bec7" stroke-width="2"/>
<path d="M 522.25 433.31 A 44.50 44.50 0 0 1 544.50 471.84" fill="none" stroke="#b8bec7" stroke-width="2"/>
<path d="M 633.50 471.84 A 44.50 44.50 0 0 1 611.25 510.38" fill="none" stroke="#b8bec7" stroke-width="2"/>
<path d="M 611.25 510.38 A 44.50 44.50 0 0 1 566.75 510.38" fill="none" stroke="#b8bec7" stroke-width="2"/>
<path d="M 566.75 510.38 A 44.50 44.50 0 0 1 544.50 471.84" fill="none" stroke="#b8bec7" stroke-width="2"/>
<path d="M 544.50 471.84 A 44.50 44.50 0 0 1 566.75 433.31" fill="none" stroke="#b8bec7" stroke-width="2"/>
<path d="M 566.75 433.31 A 44.50 44.50 0 0 1 611.25 433.31" fill="none" stroke="#b8bec7" stroke-width="2"/>
<path d="M 611.25 433.31 A 44.50 44.50 0 0 1 633.50 471.84" fill="none" stroke="#b8bec7" stroke-width="2"/>
<path d="M 722.50 471.84 A 44.50 44.50 0 0 1 700.25 510.38" fill="none" stroke="#b8bec7" stroke-width="2"/>
<path d="M 700.25 510.38 A 44.50 44.50 0 0 1 655.75 510.38" fill="none" stroke="#b8bec7" stroke-width="2"/>
<path d="M 655.75 510.38 A 44.50 44.50 0 0 1 633.50 471.84" fill="none" stroke="#b8bec7" stroke-width="2"/>
<path d="M 633.50 471.84 A 44.50 44.50 0 0 1 655.75 433.31" fill="none" stroke="#b8bec7" stroke-width="2"/>
<path d="M 655.75 433.31 A 44.50 44.50 0 0 1 700.25 433.31" fill="none" stroke="#b8bec7" stroke-width="2"/>
<path d="M 700.25 433.31 A 44.50 44.50 0 0 1 722.50 471.84" fill="none" stroke="#b8bec7" stroke-width="2"/>
<path d="M 811.50 471.84 A 44.50 44.50 0 0 1 789.25 510.38" fill="none" stroke="#b8bec7" stroke-width="2"/>
<path d="M 789.25 510.38 A 44.50 44.50 0 0 1 744.75 510.38" fill="none" stroke="#b8bec7" stroke-width="2"/>
<path d="M 744.75 510.38 A 44.50 44.50 0 0 1 722.50 471.84" fill="none" stroke="#b8bec7" stroke-width="2"/>
<path d="M 722.50 471.84 A 44.50 44.50 0 0 1 744.75 433.31" fill="none" stroke="#b8bec7" stroke-width="2"/>
<path d="M 744.75 433.31 A 44.50 44.50 0 0 1 789.25 433.31" fill="none" stroke="#b8bec7" stroke-width="2"/>
<path d="M 789.25 433.31 A 44.50 44.50 0 0 1 811.50 471.84" fill="none" stroke="#b8bec7" stroke-width="2"/>
<path d="M 900.50 471.84 A 44.50 44.50 0 0 1 878.25 510.38" fill="none" stroke="#b8bec7" stroke-width="2"/>
<path d="M 878.25 510.38 A 44.50 44.50 0 0 1 833.75 510.38" fill="none" stroke="#b8bec7" stroke-width="2"/>
<path d="M 833.75 510.38 A 44.50 44.50 0 0 1 811.50 471.84" fill="none" stroke="#b8bec7" stroke-width="2"/>
<path d="M 811.50 471.84 A 44.50 44.50 0 0 1 833.75 433.31" fill="none" stroke="#b8bec7" stroke-width="2"/>
<path d="M 833.75 433.31 A 44.50 44.50 0 0 1 878.25 433.31" fill="none" stroke="#b8bec7" stroke-width="2"/>
<path d="M 878.25 433.31 A 44.50 44.50 0 0 1 900.50 471.84" fill="none" stroke="#b8bec7" stroke-width="2"/>
<path d="M 144.00 548.92 A 44.50 44.50 0 0 1 121.75 587.46" fill="none" stroke="#b8bec7" stroke-width="2"/>
<path d="M 121.75 587.46 A 44.50 44.50 0 0 1 77.25 587.46" fill="none" stroke="#b8bec7" stroke-width="2"/>
<path d="M 77.25 587.46 A 44.50 44.50 0 0 1 55.00 548.92" fill="none" stroke="#b8bec7" stroke-width="2"/>
<path d="M 55.00 548.92 A 44.50 44.50 0 0 1 77.25 510.38" fill="none" stroke="#b8bec7" stroke-width="2"/>
<path d="M 77.25 510.38 A 44.50 44.50 0 0 1 121.75 510.38" fill="none" stroke="#b8bec7" stroke-width="2"/>
<path d="M 121.75 510.38 A 44.50 44.50 0 0 1 144.00 548.92" fill="none" stroke="#b8bec7" stroke-width="2"/>
<path d="M 233.00 548.92 A 44.50 44.50 0 0 1 210.75 587.46" fill="none" stroke="#b8bec7" stroke-width="2"/>
<path d="M 210.75 587.46 A 44.50 44.50 0 0 1 166.25 587.46" fill="none" stroke="#b8bec7" stroke-width="2"/>
<path d="M 166.25 587.46 A 44.50 44.50 0 0 1 144.00 548.92" fill="none" stroke="#b8bec7" stroke-width="2"/>
<path d="M 144.00 548.92 A 44.50 44.50 0 0 1 166.25 510.38" fill="none" stroke="#b8bec7" stroke-width="2"/>
<path d="M 166.25 510.38 A 44.50 44.50 0 0 1 210.75 510.38" fill="none" stroke="#b8bec7" stroke-width="2"/>
<path d="M 210.75 510.38 A 44.50 44.50 0 0 1 233.00 548.92" fill="none" stroke="#b8bec7" stroke-width="2"/>
<path d="M 322.00 548.92 A 44.50 44.50 0 0 1 299.75 587.46" fill="none" stroke="#b8bec7" stroke-width="2"/>
<path d="M 299.75 587.46 A 44.50 44.50 0 0 1 255.25 587.46" fill="none" stroke="#b8bec7" stroke-width="2"/>
<path d="M 255.25 587.46 A 44.50 44.50 0 0 1 233.00 548.92" fill="none" stroke="#b8bec7" stroke-width="2"/>
<path d="M 233.00 548.92 A 44.50 44.50 0 0 1 255.25 510.38" fill="none" stroke="#b8bec7" stroke-width="2"/>
<path d="M 255.25 510.38 A 44.50 44.50 0 0 1 299.75 510.38" fill="none" stroke="#b8bec7" stroke-width="2"/>
<path d="M 299.75 510.38 A 44.50 44.50 0 0 1 322.00 548.92" fill="none" stroke="#b8bec7" stroke-width="2"/>
<path d="M 411.00 548.92 A 44.50 44.50 0 0 1 388.75 587.46" fill="none" stroke="#b8bec7" stroke-width="2"/>
<path d="M 388.75 587.46 A 44.50 44.50 0 0 1 344.25 587.46" fill="none" stroke="#b8bec7" stroke-width="2"/>
<path d="M 344.25 587.46 A 44.50 44.50 0 0 1 322.00 548.92" fill="none" stroke="#b8bec7" stroke-width="2"/>
<path d="M 322.00 548.92 A 44.50 44.50 0 0 1 344.25 510.38" fill="none" stroke="#b8bec7" stroke-width="2"/>
<path d="M 344.25 510.38 A 44.50 44.50 0 0 1 388.75 510.38" fill="none" stroke="#b8bec7" stroke-width="2"/>
<path d="M 388.75 510.38 A 44.50 44.50 0 0 1 411.00 548.92" fill="none" stroke="#b8bec7" stroke-width="2"/>
<path d="M 500.00 548.92 A 44.50 44.50 0 0 1 477.75 587.46" fill="none" stroke="#b8bec7" stroke-width="2"/>
<path d="M 477.75 587.46 A 44.50 44.50 0 0 1 433.25 587.46" fill="none" stroke="#b8bec7" stroke-width="2"/>
<path d="M 433.25 587.46 A 44.50 44.50 0 0 1 411.00 548.92" fill="none" stroke="#b8bec7" stroke-width="2"/>
<path d="M 411.00 548.92 A 44.50 44.50 0 0 1 433.25 510.38" fill="none" stroke="#b8bec7" stroke-width="2"/>
<path d="M 433.25 510.38 A 44.50 44.50 0 0 1 477.75 510.38" fill="none" stroke="#b8bec7" stroke-width="2"/>
<path d="M 477.75 510.38 A 44.50 44.50 0 0 1 500.00 548.92" fill="none" stroke="#b8bec7" stroke-width="2"/>
<path d="M 589.00 548.92 A 44.50 44.50 0 0 1 566.75 587.46" fill="none" stroke="#b8bec7" stroke-width="2"/>
<path d="M 566.75 587.46 A 44.50 44.50 0 0 1 522.25 587.46" fill="none" stroke="#b8bec7" stroke-width="2"/>
<path d="M 522.25 587.46 A 44.50 44.50 0 0 1 500.00 548.92" fill="none" stroke="#b8bec7" stroke-width="2"/>
<path d="M 500.00 548.92 A 44.50 44.50 0 0 1 522.25 510.38" fill="none" stroke="#b8bec7" stroke-width="2"/>
<path d="M 522.25 510.38 A 44.50 44.50 0 0 1 566.75 510.38" fill="none" stroke="#b8bec7" stroke-width="2"/>
<path d="M 566.75 510.38 A 44.50 44.50 0 0 1 589.00 548.92" fill="none" stroke="#b8bec7" stroke-width="2"/>
<path d="M 678.00 548.92 A 44.50 44.50 0 0 1 655.75 587.46" fill="none" stroke="#b8bec7" stroke-width="2"/>
<path d="M 655.75 587.46 A 44.50 44.50 0 0 1 611.25 587.46" fill="none" stroke="#b8bec7" stroke-width="2"/>
<path d="M 611.25 587.46 A 44.50 44.50 0 0 1 589.00 548.92" fill="none" stroke="#b8bec7" stroke-width="2"/>
<path d="M 589.00 548.92 A 44.50 44.50 0 0 1 611.25 510.38" fill="none" stroke="#b8bec7" stroke-width="2"/>
<path d="M 611.25 510.38 A 44.50 44.50 0 0 1 655.75 510.38" fill="none" stroke="#b8bec7" stroke-width="2"/>
<path d="M 655.75 510.38 A 44.50 44.50 0 0 1 678.00 548.92" fill="none" stroke="#b8bec7" stroke-width="2"/>
<path d="M 767.00 548.92 A 44.50 44.50 0 0 1 744.75 587.46" fill="none" stroke="#b8bec7" stroke-width="2"/>
<path d="M 744.75 587.46 A 44.50 44.50 0 0 1 700.25 587.46" fill="none" stroke="#b8bec7" stroke-width="2"/>
<path d="M 700.25 587.46 A 44.50 44.50 0 0 1 678.00 548.92" fill="none" stroke="#b8bec7" stroke-width="2"/>
<path d="M 678.00 548.92 A 44.50 44.50 0 0 1 700.25 510.38" fill="none" stroke="#b8bec7" stroke-width="2"/>
<path d="M 700.25 510.38 A 44.50 44.50 0 0 1 744.75 510.38" fill="none" stroke="#b8bec7" stroke-width="2"/>
<path d="M 744.75 510.38 A 44.50 44.50 0 0 1 767.00 548.92" fill="none" stroke="#b8bec7" stroke-width="2"/>
<path d="M 856.00 548.92 A 44.50 44.50 0 0 1 833.75 587.46" fill="none" stroke="#b8bec7" stroke-width="2"/>
<path d="M 833.75 587.46 A 44.50 44.50 0 0 1 789.25 587.46" fill="none" stroke="#b8bec7" stroke-width="2"/>
<path d="M 789.25 587.46 A 44.50 44.50 0 0 1 767.00 548.92" fill="none" stroke="#b8bec7" stroke-width="2"/>
<path d="M 767.00 548.92 A 44.50 44.50 0 0 1 789.25 510.38" fill="none" stroke="#b8bec7" stroke-width="2"/>
<path d="M 789.25 510.38 A 44.50 44.50 0 0 1 833.75 510.38" fill="none" stroke="#b8bec7" stroke-width="2"/>
<path d="M 833.75 510.38 A 44.50 44.50 0 0 1 856.00 548.92" fill="none" stroke="#b8bec7" stroke-width="2"/>
<path d="M 945.00 548.92 A 44.50 44.50 0 0 1 922.75 587.46" fill="none" stroke="#b8bec7" stroke-width="2"/>
<path d="M 922.75 587.46 A 44.50 44.50 0 0 1 878.25 587.46" fill="none" stroke="#b8bec7" stroke-width="2"/>
<path d="M 878.25 587.46 A 44.50 44.50 0 0 1 856.00 548.92" fill="none" stroke="#b8bec7" stroke-width="2"/>
<path d="M 856.00 548.92 A 44.50 44.50 0 0 1 878.25 510.38" fill="none" stroke="#b8bec7" stroke-width="2"/>
<path d="M 878.25 510.38 A 44.50 44.50 0 0 1 922.75 510.38" fill="none" stroke="#b8bec7" stroke-width="2"/>
<path d="M 922.75 510.38 A 44.50 44.50 0 0 1 945.00 548.92" fill="none" stroke="#b8bec7" stroke-width="2"/>
<path d="M 188.50 626.00 A 44.50 44.50 0 0 1 166.25 664.53" fill="none" stroke="#b8bec7" stroke-width="2"/>
<path d="M 166.25 664.53 A 44.50 44.50 0 0 1 121.75 664.53" fill="none" stroke="#b8bec7" stroke-width="2"/>
<path d="M 121.75 664.53 A 44.50 44.50 0 0 1 99.50 626.00" fill="none" stroke="#b8bec7" stroke-width="2"/>
<path d="M 99.50 626.00 A 44.50 44.50 0 0 1 121.75 587.46" fill="none" stroke="#b8bec7" stroke-width="2"/>
<path d="M 121.75 587.46 A 44.50 44.50 0 0 1 166.25 587.46" fill="none" stroke="#b8bec7" stroke-width="2"/>
<path d="M 166.25 587.46 A 44.50 44.50 0 0 1 188.50 626.00" fill="none" stroke="#b8bec7" stroke-width="2"/>
<path d="M 277.50 626.00 A 44.50 44.50 0 0 1 255.25 664.53" fill="none" stroke="#b8bec7" stroke-width="2"/>
<path d="M 255.25 664.53 A 44.50 44.50 0 0 1 210.75 664.53" fill="none" stroke="#b8bec7" stroke-width="2"/>
<path d="M 210.75 664.53 A 44.50 44.50 0 0 1 188.50 626.00" fill="none" stroke="#b8bec7" stroke-width="2"/>
<path d="M 188.50 626.00 A 44.50 44.50 0 0 1 210.75 587.46" fill="none" stroke="#b8bec7" stroke-width="2"/>
<path d="M 210.75 587.46 A 44.50 44.50 0 0 1 255.25 587.46" fill="none" stroke="#b8bec7" stroke-width="2"/>
<path d="M 255.25 587.46 A 44.50 44.50 0 0 1 277.50 626.00" fill="none" stroke="#b8bec7" stroke-width="2"/>
<path d="M 366.50 626.00 A 44.50 44.50 0 0 1 344.25 664.53" fill="none" stroke="#b8bec7" stroke-width="2"/>
<path d="M 344.25 664.53 A 44.50 44.50 0 0 1 299.75 664.53" fill="none" stroke="#b8bec7" stroke-width="2"/>
<path d="M 299.75 664.53 A 44.50 44.50 0 0 1 277.50 626.00" fill="none" stroke="#b8bec7" stroke-width="2"/>
<path d="M 277.50 626.00 A 44.50 44.50 0 0 1 299.75 587.46" fill="none" stroke="#b8bec7" stroke-width="2"/>
<path d="M 299.75 587.46 A 44.50 44.50 0 0 1 344.25 587.46" fill="none" stroke="#b8bec7" stroke-width="2"/>
<path d="M 344.25 587.46 A 44.50 44.50 0 0 1 366.50 626.00" fill="none" stroke="#b8bec7" stroke-width="2"/>
<path d="M 455.50 626.00 A 44.50 44.50 0 0 1 433.25 664.53" fill="none" stroke="#b8bec7" stroke-width="2"/>
<path d="M 433.25 664.53 A 44.50 44.50 0 0 1 388.75 664.53" fill="none" stroke="#b8bec7" stroke-width="2"/>
<path d="M 388.75 664.53 A 44.50 44.50 0 0 1 366.50 626.00" fill="none" stroke="#b8bec7" stroke-width="2"/>
<path d="M 366.50 626.00 A 44.50 44.50 0 0 1 388.75 587.46" fill="none" stroke="#b8bec7" stroke-width="2"/>
<path d="M 388.75 587.46 A 44.50 44.50 0 0 1 433.25 587.46" fill="none" stroke="#b8bec7" stroke-width="2"/>
<path d="M 433.25 587.46 A 44.50 44.50 0 0 1 455.50 626.00" fill="none" stroke="#b8bec7" stroke-width="2"/>
<path d="M 544.50 626.00 A 44.50 44.50 0 0 1 522.25 664.53" fill="none" stroke="#b8bec7" stroke-width="2"/>
<path d="M 522.25 664.53 A 44.50 44.50 0 0 1 477.75 664.53" fill="none" stroke="#b8bec7" stroke-width="2"/>
<path d="M 477.75 664.53 A 44.50 44.50 0 0 1 455.50 626.00" fill="none" stroke="#b8bec7" stroke-width="2"/>
<path d="M 455.50 626.00 A 44.50 44.50 0 0 1 477.75 587.46" fill="none" stroke="#b8bec7" stroke-width="2"/>
<path d="M 477.75 587.46 A 44.50 44.50 0 0 1 522.25 587.46" fill="none" stroke="#b8bec7" stroke-width="2"/>
<path d="M 522.25 587.46 A 44.50 44.50 0 0 1 544.50 626.00" fill="none" stroke="#b8bec7" stroke-width="2"/>
<path d="M 633.50 626.00 A 44.50 44.50 0 0 1 611.25 664.53" fill="none" stroke="#b8bec7" stroke-width="2"/>
<path d="M 611.25 664.53 A 44.50 44.50 0 0 1 566.75 664.53" fill="none" stroke="#b8bec7" stroke-width="2"/>
<path d="M 566.75 664.53 A 44.50 44.50 0 0 1 544.50 626.00" fill="none" stroke="#b8bec7" stroke-width="2"/>
<path d="M 544.50 626.00 A 44.50 44.50 0 0 1 566.75 587.46" fill="none" stroke="#b8bec7" stroke-width="2"/>
<path d="M 566.75 587.46 A 44.50 44.50 0 0 1 611.25 587.46" fill="none" stroke="#b8bec7" stroke-width="2"/>
<path d="M 611.25 587.46 A 44.50 44.50 0 0 1 633.50 626.00" fill="none" stroke="#b8bec7" stroke-width="2"/>
<path d="M 722.50 626.00 A 44.50 44.50 0 0 1 700.25 664.53" fill="none" stroke="#b8bec7" stroke-width="2"/>
<path d="M 700.25 664.53 A 44.50 44.50 0 0 1 655.75 664.53" fill="none" stroke="#b8bec7" stroke-width="2"/>
<path d="M 655.75 664.53 A 44.50 44.50 0 0 1 633.50 626.00" fill="none" stroke="#b8bec7" stroke-width="2"/>
<path d="M 633.50 626.00 A 44.50 44.50 0 0 1 655.75 587.46" fill="none" stroke="#b8bec7" stroke-width="2"/>
<path d="M 655.75 587.46 A 44.50 44.50 0 0 1 700.25 587.46" fill="none" stroke="#b8bec7" stroke-width="2"/>
<path d="M 700.25 587.46 A 44.50 44.50 0 0 1 722.50 626.00" fill="none" stroke="#b8bec7" stroke-width="2"/>
<path d="M 811.50 626.00 A 44.50 44.50 0 0 1 789.25 664.53" fill="none" stroke="#b8bec7" stroke-width="2"/>
<path d="M 789.25 664.53 A 44.50 44.50 0 0 1 744.75 664.53" fill="none" stroke="#b8bec7" stroke-width="2"/>
<path d="M 744.75 664.53 A 44.50 44.50 0 0 1 722.50 626.00" fill="none" stroke="#b8bec7" stroke-width="2"/>
<path d="M 722.50 626.00 A 44.50 44.50 0 0 1 744.75 587.46" fill="none" stroke="#b8bec7" stroke-width="2"/>
<path d="M 744.75 587.46 A 44.50 44.50 0 0 1 789.25 587.46" fill="none" stroke="#b8bec7" stroke-width="2"/>
<path d="M 789.25 587.46 A 44.50 44.50 0 0 1 811.50 626.00" fill="none" stroke="#b8bec7" stroke-width="2"/>
<path d="M 900.50 626.00 A 44.50 44.50 0 0 1 878.25 664.53" fill="none" stroke="#b8bec7" stroke-width="2"/>
<path d="M 878.25 664.53 A 44.50 44.50 0 0 1 833.75 664.53" fill="none" stroke="#b8bec7" stroke-width="2"/>
<path d="M 833.75 664.53 A 44.50 44.50 0 0 1 811.50 626.00" fill="none" stroke="#b8bec7" stroke-width="2"/>
<path d="M 811.50 626.00 A 44.50 44.50 0 0 1 833.75 587.46" fill="none" stroke="#b8bec7" stroke-width="2"/>
<path d="M 833.75 587.46 A 44.50 44.50 0 0 1 878.25 587.46" fill="none" stroke="#b8bec7" stroke-width="2"/>
<path d="M 878.25 587.46 A 44.50 44.50 0 0 1 900.50 626.00" fill="none" stroke="#b8bec7" stroke-width="2"/>
<path d="M 144.00 703.07 A 44.50 44.50 0 0 1 121.75 741.61" fill="none" stroke="#b8bec7" stroke-width="2"/>
<path d="M 121.75 741.61 A 44.50 44.50 0 0 1 77.25 741.61" fill="none" stroke="#b8bec7" stroke-width="2"/>
<path d="M 77.25 741.61 A 44.50 44.50 0 0 1 55.00 703.07" fill="none" stroke="#b8bec7" stroke-width="2"/>
<path d="M 55.00 703.07 A 44.50 44.50 0 0 1 77.25 664.53" fill="none" stroke="#b8bec7" stroke-width="2"/>
<path d="M 77.25 664.53 A 44.50 44.50 0 0 1 121.75 664.53" fill="none" stroke="#b8bec7" stroke-width="2"/>
<path d="M 121.75 664.53 A 44.50 44.50 0 0 1 144.00 703.07" fill="none" stroke="#b8bec7" stroke-width="2"/>
<path d="M 233.00 703.07 A 44.50 44.50 0 0 1 210.75 741.61" fill="none" stroke="#b8bec7" stroke-width="2"/>
<path d="M 210.75 741.61 A 44.50 44.50 0 0 1 166.25 741.61" fill="none" stroke="#b8bec7" stroke-width="2"/>
<path d="M 166.25 741.61 A 44.50 44.50 0 0 1 144.00 703.07" fill="none" stroke="#b8bec7" stroke-width="2"/>
<path d="M 144.00 703.07 A 44.50 44.50 0 0 1 166.25 664.53" fill="none" stroke="#b8bec7" stroke-width="2"/>
<path d="M 166.25 664.53 A 44.50 44.50 0 0 1 210.75 664.53" fill="none" stroke="#b8bec7" stroke-width="2"/>
<path d="M 210.75 664.53 A 44.50 44.50 0 0 1 233.00 703.07" fill="none" stroke="#b8bec7" stroke-width="2"/>
<path d="M 322.00 703.07 A 44.50 44.50 0 0 1 299.75 741.61" fill="none" stroke="#b8bec7" stroke-width="2"/>
<path d="M 299.75 741.61 A 44.50 44.50 0 0 1 255.25 741.61" fill="none" stroke="#b8bec7" stroke-width="2"/>
<path d="M 255.25 741.61 A 44.50 44.50 0 0 1 233.00 703.07" fill="none" stroke="#b8bec7" stroke-width="2"/>
<path d="M 233.00 703.07 A 44.50 44.50 0 0 1 255.25 664.53" fill="none" stroke="#b8bec7" stroke-width="2"/>
<path d="M 255.25 664.53 A 44.50 44.50 0 0 1 299.75 664.53" fill="none" stroke="#b8bec7" stroke-width="2"/>
<path d="M 299.75 664.53 A 44.50 44.50 0 0 1 322.00 703.07" fill="none" stroke="#b8bec7" stroke-width="2"/>
<path d="M 411.00 703.07 A 44.50 44.50 0 0 1 388.75 741.61" fill="none" stroke="#b8bec7" stroke-width="2"/>
<path d="M 388.75 741.61 A 44.50 44.50 0 0 1 344.25 741.61" fill="none" stroke="#b8bec7" stroke-width="2"/>
<path d="M 344.25 741.61 A 44.50 44.50 0 0 1 322.00 703.07" fill="none" stroke="#b8bec7" stroke-width="2"/>
<path d="M 322.00 703.07 A 44.50 44.50 0 0 1 344.25 664.53" fill="none" stroke="#b8bec7" stroke-width="2"/>
<path d="M 344.25 664.53 A 44.50 44.50 0 0 1 388.75 664.53" fill="none" stroke="#b8bec7" stroke-width="2"/>
<path d="M 388.75 664.53 A 44.50 44.50 0 0 1 411.00 703.07" fill="none" stroke="#b8bec7" stroke-width="2"/>
<path d="M 500.00 703.07 A 44.50 44.50 0 0 1 477.75 741.61" fill="none" stroke="#b8bec7" stroke-width="2"/>
<path d="M 477.75 741.61 A 44.50 44.50 0 0 1 433.25 741.61" fill="none" stroke="#b8bec7" stroke-width="2"/>
<path d="M 433.25 741.61 A 44.50 44.50 0 0 1 411.00 703.07" fill="none" stroke="#b8bec7" stroke-width="2"/>
<path d="M 411.00 703.07 A 44.50 44.50 0 0 1 433.25 664.53" fill="none" stroke="#b8bec7" stroke-width="2"/>
<path d="M 433.25 664.53 A 44.50 44.50 0 0 1 477.75 664.53" fill="none" stroke="#b8bec7" stroke-width="2"/>
<path d="M 477.75 664.53 A 44.50 44.50 0 0 1 500.00 703.07" fill="none" stroke="#b8bec7" stroke-width="2"/>
<path d="M 589.00 703.07 A 44.50 44.50 0 0 1 566.75 741.61" fill="none" stroke="#b8bec7" stroke-width="2"/>
<path d="M 566.75 741.61 A 44.50 44.50 0 0 1 522.25 741.61" fill="none" stroke="#b8bec7" stroke-width="2"/>
<path d="M 522.25 741.61 A 44.50 44.50 0 0 1 500.00 703.07" fill="none" stroke="#b8bec7" stroke-width="2"/>
<path d="M 500.00 703.07 A 44.50 44.50 0 0 1 522.25 664.53" fill="none" stroke="#b8bec7" stroke-width="2"/>
<path d="M 522.25 664.53 A 44.50 44.50 0 0 1 566.75 664.53" fill="none" stroke="#b8bec7" stroke-width="2"/>
<path d="M 566.75 664.53 A 44.50 44.50 0 0 1 589.00 703.07" fill="none" stroke="#b8bec7" stroke-width="2"/>
<path d="M 678.00 703.07 A 44.50 44.50 0 0 1 655.75 741.61" fill="none" stroke="#b8bec7" stroke-width="2"/>
<path d="M 655.75 741.61 A 44.50 44.50 0 0 1 611.25 741.61" fill="none" stroke="#b8bec7" stroke-width="2"/>
<path d="M 611.25 741.61 A 44.50 44.50 0 0 1 589.00 703.07" fill="none" stroke="#b8bec7" stroke-width="2"/>
<path d="M 589.00 703.07 A 44.50 44.50 0 0 1 611.25 664.53" fill="none" stroke="#b8bec7" stroke-width="2"/>
<path d="M 611.25 664.53 A 44.50 44.50 0 0 1 655.75 664.53" fill="none" stroke="#b8bec7" stroke-width="2"/>
<path d="M 655.75 664.53 A 44.50 44.50 0 0 1 678.00 703.07" fill="none" stroke="#b8bec7" stroke-width="2"/>
<path d="M 767.00 703.07 A 44.50 44.50 0 0 1 744.75 741.61" fill="none" stroke="#b8bec7" stroke-width="2"/>
<path d="M 744.75 741.61 A 44.50 44.50 0 0 1 700.25 741.61" fill="none" stroke="#b8bec7" stroke-width="2"/>
<path d="M 700.25 741.61 A 44.50 44.50 0 0 1 678.00 703.07" fill="none" stroke="#b8bec7" stroke-width="2"/>
<path d="M 678.00 703.07 A 44.50 44.50 0 0 1 700.25 664.53" fill="none" stroke="#b8bec7" stroke-width="2"/>
<path d="M 700.25 664.53 A 44.50 44.50 0 0 1 744.75 664.53" fill="none" stroke="#b8bec7" stroke-width="2"/>
<path d="M 744.75 664.53 A 44.50 44.50 0 0 1 767.00 703.07" fill="none" stroke="#b8bec7" stroke-width="2"/>
<path d="M 856.00 703.07 A 44.50 44.50 0 0 1 833.75 741.61" fill="none" stroke="#b8bec7" stroke-width="2"/>
<path d="M 833.75 741.61 A 44.50 44.50 0 0 1 789.25 741.61" fill="none" stroke="#b8bec7" stroke-width="2"/>
<path d="M 789.25 741.61 A 44.50 44.50 0 0 1 767.00 703.07" fill="none" stroke="#b8bec7" stroke-width="2"/>
<path d="M 767.00 703.07 A 44.50 44.50 0 0 1 789.25 664.53" fill="none" stroke="#b8bec7" stroke-width="2"/>
<path d="M 789.25 664.53 A 44.50 44.50 0 0 1 833.75 664.53" fill="none" stroke="#b8bec7" stroke-width="2"/>
<path d="M 833.75 664.53 A 44.50 44.50 0 0 1 856.00 703.07" fill="none" stroke="#b8bec7" stroke-width="2"/>
<path d="M 945.00 703.07 A 44.50 44.50 0 0 1 922.75 741.61" fill="none" stroke="#b8bec7" stroke-width="2"/>
<path d="M 922.75 741.61 A 44.50 44.50 0 0 1 878.25 741.61" fill="none" stroke="#b8bec7" stroke-width="2"/>
<path d="M 878.25 741.61 A 44.50 44.50 0 0 1 856.00 703.07" fill="none" stroke="#b8bec7" stroke-width="2"/>
<path d="M 856.00 703.07 A 44.50 44.50 0 0 1 878.25 664.53" fill="none" stroke="#b8bec7" stroke-width="2"/>
<path d="M 878.25 664.53 A 44.50 44.50 0 0 1 922.75 664.53" fill="none" stroke="#b8bec7" stroke-width="2"/>
<path d="M 922.75 664.53 A 44.50 44.50 0 0 1 945.00 703.07" fill="none" stroke="#b8bec7" stroke-width="2"/>
<path d="M 188.50 780.15 A 44.50 44.50 0 0 1 166.25 818.69" fill="none" stroke="#b8bec7" stroke-width="2"/>
<path d="M 166.25 818.69 A 44.50 44.50 0 0 1 121.75 818.69" fill="none" stroke="#b8bec7" stroke-width="2"/>
<path d="M 121.75 818.69 A 44.50 44.50 0 0 1 99.50 780.15" fill="none" stroke="#b8bec7" stroke-width="2"/>
<path d="M 99.50 780.15 A 44.50 44.50 0 0 1 121.75 741.61" fill="none" stroke="#b8bec7" stroke-width="2"/>
<path d="M 121.75 741.61 A 44.50 44.50 0 0 1 166.25 741.61" fill="none" stroke="#b8bec7" stroke-width="2"/>
<path d="M 166.25 741.61 A 44.50 44.50 0 0 1 188.50 780.15" fill="none" stroke="#b8bec7" stroke-width="2"/>
<path d="M 277.50 780.15 A 44.50 44.50 0 0 1 255.25 818.69" fill="none" stroke="#b8bec7" stroke-width="2"/>
<path d="M 255.25 818.69 A 44.50 44.50 0 0 1 210.75 818.69" fill="none" stroke="#b8bec7" stroke-width="2"/>
<path d="M 210.75 818.69 A 44.50 44.50 0 0 1 188.50 780.15" fill="none" stroke="#b8bec7" stroke-width="2"/>
<path d="M 188.50 780.15 A 44.50 44.50 0 0 1 210.75 741.61" fill="none" stroke="#b8bec7" stroke-width="2"/>
<path d="M 210.75 741.61 A 44.50 44.50 0 0 1 255.25 741.61" fill="none" stroke="#b8bec7" stroke-width="2"/>
<path d="M 255.25 741.61 A 44.50 44.50 0 0 1 277.50 780.15" fill="none" stroke="#b8bec7" stroke-width="2"/>
<path d="M 366.50 780.15 A 44.50 44.50 0 0 1 344.25 818.69" fill="none" stroke="#b8bec7" stroke-width="2"/>
<path d="M 344.25 818.69 A 44.50 44.50 0 0 1 299.75 818.69" fill="none" stroke="#b8bec7" stroke-width="2"/>
<path d="M 299.75 818.69 A 44.50 44.50 0 0 1 277.50 780.15" fill="none" stroke="#b8bec7" stroke-width="2"/>
<path d="M 277.50 780.15 A 44.50 44.50 0 0 1 299.75 741.61" fill="none" stroke="#b8bec7" stroke-width="2"/>
<path d="M 299.75 741.61 A 44.50 44.50 0 0 1 344.25 741.61" fill="none" stroke="#b8bec7" stroke-width="2"/>
<path d="M 344.25 741.61 A 44.50 44.50 0 0 1 366.50 780.15" fill="none" stroke="#b8bec7" stroke-width="2"/>
<path d="M 455.50 780.15 A 44.50 44.50 0 0 1 433.25 818.69" fill="none" stroke="#b8bec7" stroke-width="2"/>
<path d="M 433.25 818.69 A 44.50 44.50 0 0 1 388.75 818.69" fill="none" stroke="#b8bec7" stroke-width="2"/>
<path d="M 388.75 818.69 A 44.50 44.50 0 0 1 366.50 780.15" fill="none" stroke="#b8bec7" stroke-width="2"/>
<path d="M 366.50 780.15 A 44.50 44.50 0 0 1 388.75 741.61" fill="none" stroke="#b8bec7" stroke-width="2"/>
<path d="M 388.75 741.61 A 44.50 44.50 0 0 1 433.25 741.61" fill="none" stroke="#b8bec7" stroke-width="2"/>
<path d="M 433.25 741.61 A 44.50 44.50 0 0 1 455.50 780.15" fill="none" stroke="#b8bec7" stroke-width="2"/>
<path d="M 544.50 780.15 A 44.50 44.50 0 0 1 522.25 818.69" fill="none" stroke="#b8bec7" stroke-width="2"/>
<path d="M 522.25 818.69 A 44.50 44.50 0 0 1 477.75 818.69" fill="none" stroke="#b8bec7" stroke-width="2"/>
<path d="M 477.75 818.69 A 44.50 44.50 0 0 1 455.50 780.15" fill="none" stroke="#b8bec7" stroke-width="2"/>
<path d="M 455.50 780.15 A 44.50 44.50 0 0 1 477.75 741.61" fill="none" stroke="#b8bec7" stroke-width="2"/>
<path d="M 477.75 741.61 A 44.50 44.50 0 0 1 522.25 741.61" fill="none" stroke="#b8bec7" stroke-width="2"/>
<path d="M 522.25 741.61 A 44.50 44.50 0 0 1 544.50 780.15" fill="none" stroke="#b8bec7" stroke-width="2"/>
<path d="M 633.50 780.15 A 44.50 44.50 0 0 1 611.25 818.69" fill="none" stroke="#b8bec7" stroke-width="2"/>
<path d="M 611.25 818.69 A 44.50 44.50 0 0 1 566.75 818.69" fill="none" stroke="#b8bec7" stroke-width="2"/>
<path d="M 566.75 818.69 A 44.50 44.50 0 0 1 544.50 780.15" fill="none" stroke="#b8bec7" stroke-width="2"/>
<path d="M 544.50 780.15 A 44.50 44.50 0 0 1 566.75 741.61" fill="none" stroke="#b8bec7" stroke-width="2"/>
<path d="M 566.75 741.61 A 44.50 44.50 0 0 1 611.25 741.61" fill="none" stroke="#b8bec7" stroke-width="2"/>
<path d="M 611.25 741.61 A 44.50 44.50 0 0 1 633.50 780.15" fill="none" stroke="#b8bec7" stroke-width="2"/>
<path d="M 722.50 780.15 A 44.50 44.50 0 0 1 700.25 818.69" fill="none" stroke="#b8bec7" stroke-width="2"/>
<path d="M 700.25 818.69 A 44.50 44.50 0 0 1 655.75 818.69" fill="none" stroke="#b8bec7" stroke-width="2"/>
<path d="M 655.75 818.69 A 44.50 44.50 0 0 1 633.50 780.15" fill="none" stroke="#b8bec7" stroke-width="2"/>
<path d="M 633.50 780.15 A 44.50 44.50 0 0 1 655.75 741.61" fill="none" stroke="#b8bec7" stroke-width="2"/>
<path d="M 655.75 741.61 A 44.50 44.50 0 0 1 700.25 741.61" fill="none" stroke="#b8bec7" stroke-width="2"/>
<path d="M 700.25 741.61 A 44.50 44.50 0 0 1 722.50 780.15" fill="none" stroke="#b8bec7" stroke-width="2"/>
<path d="M 811.50 780.15 A 44.50 44.50 0 0 1 789.25 818.69" fill="none" stroke="#b8bec7" stroke-width="2"/>
<path d="M 789.25 818.69 A 44.50 44.50 0 0 1 744.75 818.69" fill="none" stroke="#b8bec7" stroke-width="2"/>
<path d="M 744.75 818.69 A 44.50 44.50 0 0 1 722.50 780.15" fill="none" stroke="#b8bec7" stroke-width="2"/>
<path d="M 722.50 780.15 A 44.50 44.50 0 0 1 744.75 741.61" fill="none" stroke="#b8bec7" stroke-width="2"/>
<path d="M 744.75 741.61 A 44.50 44.50 0 0 1 789.25 741.61" fill="none" stroke="#b8bec7" stroke-width="2"/>
<path d="M 789.25 741.61 A 44.50 44.50 0 0 1 811.50 780.15" fill="none" stroke="#b8bec7" stroke-width="2"/>
<path d="M 900.50 780.15 A 44.50 44.50 0 0 1 878.25 818.69" fill="none" stroke="#b8bec7" stroke-width="2"/>
<path d="M 878.25 818.69 A 44.50 44.50 0 0 1 833.75 818.69" fill="none" stroke="#b8bec7" stroke-width="2"/>
<path d="M 833.75 818.69 A 44.50 44.50 0 0 1 811.50 780.15" fill="none" stroke="#b8bec7" stroke-width="2"/>
<path d="M 811.50 780.15 A 44.50 44.50 0 0 1 833.75 741.61" fill="none" stroke="#b8bec7" stroke-width="2"/>
<path d="M 833.75 741.61 A 44.50 44.50 0 0 1 878.25 741.61" fill="none" stroke="#b8bec7" stroke-width="2"/>
<path d="M 878.25 741.61 A 44.50 44.50 0 0 1 900.50 780.15" fill="none" stroke="#b8bec7" stroke-width="2"/>
<path d="M 144.00 857.22 A 44.50 44.50 0 0 1 121.75 895.76" fill="none" stroke="#b8bec7" stroke-width="2"/>
<path d="M 121.75 895.76 A 44.50 44.50 0 0 1 77.25 895.76" fill="none" stroke="#b8bec7" stroke-width="2"/>
<path d="M 77.25 895.76 A 44.50 44.50 0 0 1 55.00 857.22" fill="none" stroke="#b8bec7" stroke-width="2"/>
<path d="M 55.00 857.22 A 44.50 44.50 0 0 1 77.25 818.69" fill="none" stroke="#b8bec7" stroke-width="2"/>
<path d="M 77.25 818.69 A 44.50 44.50 0 0 1 121.75 818.69" fill="none" stroke="#b8bec7" stroke-width="2"/>
<path d="M 121.75 818.69 A 44.50 44.50 0 0 1 144.00 857.22" fill="none" stroke="#b8bec7" stroke-width="2"/>
<path d="M 233.00 857.22 A 44.50 44.50 0 0 1 210.75 895.76" fill="none" stroke="#b8bec7" stroke-width="2"/>
<path d="M 210.75 895.76 A 44.50 44.50 0 0 1 166.25 895.76" fill="none" stroke="#b8bec7" stroke-width="2"/>
<path d="M 166.25 895.76 A 44.50 44.50 0 0 1 144.00 857.22" fill="none" stroke="#b8bec7" stroke-width="2"/>
<path d="M 144.00 857.22 A 44.50 44.50 0 0 1 166.25 818.69" fill="none" stroke="#b8bec7" stroke-width="2"/>
<path d="M 166.25 818.69 A 44.50 44.50 0 0 1 210.75 818.69" fill="none" stroke="#b8bec7" stroke-width="2"/>
<path d="M 210.75 818.69 A 44.50 44.50 0 0 1 233.00 857.22" fill="none" stroke="#b8bec7" stroke-width="2"/>
<path d="M 322.00 857.22 A 44.50 44.50 0 0 1 299.75 895.76" fill="none" stroke="#b8bec7" stroke-width="2"/>
<path d="M 299.75 895.76 A 44.50 44.50 0 0 1 255.25 895.76" fill="none" stroke="#b8bec7" stroke-width="2"/>
<path d="M 255.25 895.76 A 44.50 44.50 0 0 1 233.00 857.22" fill="none" stroke="#b8bec7" stroke-width="2"/>
<path d="M 233.00 857.22 A 44.50 44.50 0 0 1 255.25 818.69" fill="none" stroke="#b8bec7" stroke-width="2"/>
<path d="M 255.25 818.69 A 44.50 44.50 0 0 1 299.75 818.69" fill="none" stroke="#b8bec7" stroke-width="2"/>
<path d="M 299.75 818.69 A 44.50 44.50 0 0 1 322.00 857.22" fill="none" stroke="#b8bec7" stroke-width="2"/>
<path d="M 411.00 857.22 A 44.50 44.50 0 0 1 388.75 895.76" fill="none" stroke="#b8bec7" stroke-width="2"/>
<path d="M 388.75 895.76 A 44.50 44.50 0 0 1 344.25 895.76" fill="none" stroke="#b8bec7" stroke-width="2"/>
<path d="M 344.25 895.76 A 44.50 44.50 0 0 1 322.00 857.22" fill="none" stroke="#b8bec7" stroke-width="2"/>
<path d="M 322.00 857.22 A 44.50 44.50 0 0 1 344.25 818.69" fill="none" stroke="#b8bec7" stroke-width="2"/>
<path d="M 344.25 818.69 A 44.50 44.50 0 0 1 388.75 818.69" fill="none" stroke="#b8bec7" stroke-width="2"/>
<path d="M 388.75 818.69 A 44.50 44.50 0 0 1 411.00 857.22" fill="none" stroke="#b8bec7" stroke-width="2"/>
<path d="M 500.00 857.22 A 44.50 44.50 0 0 1 477.75 895.76" fill="none" stroke="#b8bec7" stroke-width="2"/>
<path d="M 477.75 895.76 A 44.50 44.50 0 0 1 433.25 895.76" fill="none" stroke="#b8bec7" stroke-width="2"/>
<path d="M 433.25 895.76 A 44.50 44.50 0 0 1 411.00 857.22" fill="none" stroke="#b8bec7" stroke-width="2"/>
<path d="M 411.00 857.22 A 44.50 44.50 0 0 1 433.25 818.69" fill="none" stroke="#b8bec7" stroke-width="2"/>
<path d="M 433.25 818.69 A 44.50 44.50 0 0 1 477.75 818.69" fill="none" stroke="#b8bec7" stroke-width="2"/>
<path d="M 477.75 818.69 A 44.50 44.50 0 0 1 500.00 857.22" fill="none" stroke="#b8bec7" stroke-width="2"/>
<path d="M 589.00 857.22 A 44.50 44.50 0 0 1 566.75 895.76" fill="none" stroke="#b8bec7" stroke-width="2"/>
<path d="M 566.75 895.76 A 44.50 44.50 0 0 1 522.25 895.76" fill="none" stroke="#b8bec7" stroke-width="2"/>
<path d="M 522.25 895.76 A 44.50 44.50 0 0 1 500.00 857.22" fill="none" stroke="#b8bec7" stroke-width="2"/>
<path d="M 500.00 857.22 A 44.50 44.50 0 0 1 522.25 818.69" fill="none" stroke="#b8bec7" stroke-width="2"/>
<path d="M 522.25 818.69 A 44.50 44.50 0 0 1 566.75 818.69" fill="none" stroke="#b8bec7" stroke-width="2"/>
<path d="M 566.75 818.69 A 44.50 44.50 0 0 1 589.00 857.22" fill="none" stroke="#b8bec7" stroke-width="2"/>
<path d="M 678.00 857.22 A 44.50 44.50 0 0 1 655.75 895.76" fill="none" stroke="#b8bec7" stroke-width="2"/>
<path d="M 655.75 895.76 A 44.50 44.50 0 0 1 611.25 895.76" fill="none" stroke="#b8bec7" stroke-width="2"/>
<path d="M 611.25 895.76 A 44.50 44.50 0 0 1 589.00 857.22" fill="none" stroke="#b8bec7" stroke-width="2"/>
<path d="M 589.00 857.22 A 44.50 44.50 0 0 1 611.25 818.69" fill="none" stroke="#b8bec7" stroke-width="2"/>
<path d="M 611.25 818.69 A 44.50 44.50 0 0 1 655.75 818.69" fill="none" stroke="#b8bec7" stroke-width="2"/>
<path d="M 655.75 818.69 A 44.50 44.50 0 0 1 678.00 857.22" fill="none" stroke="#b8bec7" stroke-width="2"/>
<path d="M 767.00 857.22 A 44.50 44.50 0 0 1 744.75 895.76" fill="none" stroke="#b8bec7" stroke-width="2"/>
<path d="M 744.75 895.76 A 44.50 44.50 0 0 1 700.25 895.76" fill="none" stroke="#b8bec7" stroke-width="2"/>
<path d="M 700.25 895.76 A 44.50 44.50 0 0 1 678.00 857.22" fill="none" stroke="#b8bec7" stroke-width="2"/>
<path d="M 678.00 857.22 A 44.50 44.50 0 0 1 700.25 818.69" fill="none" stroke="#b8bec7" stroke-width="2"/>
<path d="M 700.25 818.69 A 44.50 44.50 0 0 1 744.75 818.69" fill="none" stroke="#b8bec7" stroke-width="2"/>
<path d="M 744.75 818.69 A 44.50 44.50 0 0 1 767.00 857.22" fill="none" stroke="#b8bec7" stroke-width="2"/>
<path d="M 856.00 857.22 A 44.50 44.50 0 0 1 833.75 895.76" fill="none" stroke="#b8bec7" stroke-width="2"/>
<path d="M 833.75 895.76 A 44.50 44.50 0 0 1 789.25 895.76" fill="none" stroke="#b8bec7" stroke-width="2"/>
<path d="M 789.25 895.76 A 44.50 44.50 0 0 1 767.00 857.22" fill="none" stroke="#b8bec7" stroke-width="2"/>
<path d="M 767.00 857.22 A 44.50 44.50 0 0 1 789.25 818.69" fill="none" stroke="#b8bec7" stroke-width="2"/>
<path d="M 789.25 818.69 A 44.50 44.50 0 0 1 833.75 818.69" fill="none" stroke="#b8bec7" stroke-width="2"/>
<path d="M 833.75 818.69 A 44.50 44.50 0 0 1 856.00 857.22" fill="none" stroke="#b8bec7" stroke-width="2"/>
<path d="M 945.00 857.22 A 44.50 44.50 0 0 1 922.75 895.76" fill="none" stroke="#b8bec7" stroke-width="2"/>
<path d="M 922.75 895.76 A 44.50 44.50 0 0 1 878.25 895.76" fill="none" stroke="#b8bec7" stroke-width="2"/>
<path d="M 878.25 895.76 A 44.50 44.50 0 0 1 856.00 857.22" fill="none" stroke="#b8bec7" stroke-width="2"/>
<path d="M 856.00 857.22 A 44.50 44.50 0 0 1 878.25 818.69" fill="none" stroke="#b8bec7" stroke-width="2"/>
<path d="M 878.25 818.69 A 44.50 44.50 0 0 1 922.75 818.69" fill="none" stroke="#b8bec7" stroke-width="2"/>
<path d="M 922.75 818.69 A 44.50 44.50 0 0 1 945.00 857.22" fill="none" stroke="#b8bec7" stroke-width="2"/>
<path d="M 255.25 202.08 A 44.50 44.50 0 0 1 210.75 202.08" fill="none" stroke="#1859a9" stroke-width="7" stroke-linecap="round"/>
<path d="M 299.75 202.08 A 44.50 44.50 0 0 1 277.50 163.54" fill="none" stroke="#1859a9" stroke-width="7" stroke-linecap="round"/>
<path d="M 277.50 163.54 A 44.50 44.50 0 0 1 299.75 125.00" fill="none" stroke="#1859a9" stroke-width="7" stroke-linecap="round"/>
<path d="M 299.75 125.00 A 44.50 44.50 0 0 1 344.25 125.00" fill="none" stroke="#1859a9" stroke-width="7" stroke-linecap="round"/>
<path d="M 344.25 125.00 A 44.50 44.50 0 0 1 366.50 163.54" fill="none" stroke="#1859a9" stroke-width="7" stroke-linecap="round"/>
<path d="M 366.50 163.54 A 44.50 44.50 0 0 1 388.75 125.00" fill="none" stroke="#1859a9" stroke-width="7" stroke-linecap="round"/>
<path d="M 388.75 125.00 A 44.50 44.50 0 0 1 433.25 125.00" fill="none" stroke="#1859a9" stroke-width="7" stroke-linecap="round"/>
<path d="M 433.25 125.00 A 44.50 44.50 0 0 1 455.50 163.54" fill="none" stroke="#1859a9" stroke-width="7" stroke-linecap="round"/>
<path d="M 477.75 202.08 A 44.50 44.50 0 0 1 455.50 163.54" fill="none" stroke="#1859a9" stroke-width="7" stroke-linecap="round"/>
<path d="M 811.50 163.54 A 44.50 44.50 0 0 1 789.25 202.08" fill="none" stroke="#1859a9" stroke-width="7" stroke-linecap="round"/>
<path d="M 744.75 202.08 A 44.50 44.50 0 0 1 722.50 163.54" fill="none" stroke="#1859a9" stroke-width="7" stroke-linecap="round"/>
<path d="M 722.50 163.54 A 44.50 44.50 0 0 1 744.75 125.00" fill="none" stroke="#1859a9" stroke-width="7" stroke-linecap="round"/>
<path d="M 744.75 125.00 A 44.50 44.50 0 0 1 789.25 125.00" fill="none" stroke="#1859a9" stroke-width="7" stroke-linecap="round"/>
<path d="M 789.25 125.00 A 44.50 44.50 0 0 1 811.50 163.54" fill="none" stroke="#1859a9" stroke-width="7" stroke-linecap="round"/>
<path d="M 878.25 202.08 A 44.50 44.50 0 0 1 833.75 202.08" fill="none" stroke="#1859a9" stroke-width="7" stroke-linecap="round"/>
<path d="M 210.75 202.08 A 44.50 44.50 0 0 1 233.00 240.61" fill="none" stroke="#1859a9" stroke-width="7" stroke-linecap="round"/>
<path d="M 299.75 279.15 A 44.50 44.50 0 0 1 255.25 279.15" fill="none" stroke="#1859a9" stroke-width="7" stroke-linecap="round"/>
<path d="M 255.25 279.15 A 44.50 44.50 0 0 1 233.00 240.61" fill="none" stroke="#1859a9" stroke-width="7" stroke-linecap="round"/>
<path d="M 255.25 202.08 A 44.50 44.50 0 0 1 299.75 202.08" fill="none" stroke="#1859a9" stroke-width="7" stroke-linecap="round"/>
<path d="M 411.00 240.61 A 44.50 44.50 0 0 1 388.75 279.15" fill="none" stroke="#1859a9" stroke-width="7" stroke-linecap="round"/>
<path d="M 344.25 279.15 A 44.50 44.50 0 0 1 322.00 240.61" fill="none" stroke="#1859a9" stroke-width="7" stroke-linecap="round"/>
<path d="M 322.00 240.61 A 44.50 44.50 0 0 1 344.25 202.08" fill="none" stroke="#1859a9" stroke-width="7" stroke-linecap="round"/>
<path d="M 344.25 202.08 A 44.50 44.50 0 0 1 388.75 202.08" fill="none" stroke="#1859a9" stroke-width="7" stroke-linecap="round"/>
<path d="M 388.75 202.08 A 44.50 44.50 0 0 1 411.00 240.61" fill="none" stroke="#1859a9" stroke-width="7" stroke-linecap="round"/>
<path d="M 477.75 202.08 A 44.50 44.50 0 0 1 500.00 240.61" fill="none" stroke="#1859a9" stroke-width="7" stroke-linecap="round"/>
<path d="M 566.75 279.15 A 44.50 44.50 0 0 1 522.25 279.15" fill="none" stroke="#1859a9" stroke-width="7" stroke-linecap="round"/>
<path d="M 522.25 279.15 A 44.50 44.50 0 0 1 500.00 240.61" fill="none" stroke="#1859a9" stroke-width="7" stroke-linecap="round"/>
<path d="M 678.00 240.61 A 44.50 44.50 0 0 1 655.75 279.15" fill="none" stroke="#1859a9" stroke-width="7" stroke-linecap="round"/>
<path d="M 767.00 240.61 A 44.50 44.50 0 0 1 744.75 279.15" fill="none" stroke="#1859a9" stroke-width="7" stroke-linecap="round"/>
<path d="M 744.75 279.15 A 44.50 44.50 0 0 1 700.25 279.15" fill="none" stroke="#1859a9" stroke-width="7" stroke-linecap="round"/>
<path d="M 678.00 240.61 A 44.50 44.50 0 0 1 700.25 202.08" fill="none" stroke="#1859a9" stroke-width="7" stroke-linecap="round"/>
<path d="M 700.25 202.08 A 44.50 44.50 0 0 1 744.75 202.08" fill="none" stroke="#1859a9" stroke-width="7" stroke-linecap="round"/>
<path d="M 856.00 240.61 A 44.50 44.50 0 0 1 833.75 279.15" fill="none" stroke="#1859a9" stroke-width="7" stroke-linecap="round"/>
<path d="M 833.75 279.15 A 44.50 44.50 0 0 1 789.25 279.15" fill="none" stroke="#1859a9" stroke-width="7" stroke-linecap="round"/>
<path d="M 789.25 279.15 A 44.50 44.50 0 0 1 767.00 240.61" fill="none" stroke="#1859a9" stroke-width="7" stroke-linecap="round"/>
<path d="M 789.25 202.08 A 44.50 44.50 0 0 1 833.75 202.08" fill="none" stroke="#1859a9" stroke-width="7" stroke-linecap="round"/>
<path d="M 945.00 240.61 A 44.50 44.50 0 0 1 922.75 279.15" fill="none" stroke="#1859a9" stroke-width="7" stroke-linecap="round"/>
<path d="M 922.75 279.15 A 44.50 44.50 0 0 1 878.25 279.15" fill="none" stroke="#1859a9" stroke-width="7" stroke-linecap="round"/>
<path d="M 878.25 279.15 A 44.50 44.50 0 0 1 856.00 240.61" fill="none" stroke="#1859a9" stroke-width="7" stroke-linecap="round"/>
<path d="M 878.25 202.08 A 44.50 44.50 0 0 1 922.75 202.08" fill="none" stroke="#1859a9" stroke-width="7" stroke-linecap="round"/>
<path d="M 922.75 202.08 A 44.50 44.50 0 0 1 945.00 240.61" fill="none" stroke="#1859a9" stroke-width="7" stroke-linecap="round"/>
<path d="M 299.75 279.15 A 44.50 44.50 0 0 1 344.25 279.15" fill="none" stroke="#1859a9" stroke-width="7" stroke-linecap="round"/>
<path d="M 433.25 356.23 A 44.50 44.50 0 0 1 388.75 356.23" fill="none" stroke="#1859a9" stroke-width="7" stroke-linecap="round"/>
<path d="M 388.75 356.23 A 44.50 44.50 0 0 1 366.50 317.69" fill="none" stroke="#1859a9" stroke-width="7" stroke-linecap="round"/>
<path d="M 366.50 317.69 A 44.50 44.50 0 0 1 388.75 279.15" fill="none" stroke="#1859a9" stroke-width="7" stroke-linecap="round"/>
<path d="M 544.50 317.69 A 44.50 44.50 0 0 1 522.25 356.23" fill="none" stroke="#1859a9" stroke-width="7" stroke-linecap="round"/>
<path d="M 566.75 356.23 A 44.50 44.50 0 0 1 544.50 317.69" fill="none" stroke="#1859a9" stroke-width="7" stroke-linecap="round"/>
<path d="M 566.75 279.15 A 44.50 44.50 0 0 1 611.25 279.15" fill="none" stroke="#1859a9" stroke-width="7" stroke-linecap="round"/>
<path d="M 611.25 279.15 A 44.50 44.50 0 0 1 633.50 317.69" fill="none" stroke="#1859a9" stroke-width="7" stroke-linecap="round"/>
<path d="M 722.50 317.69 A 44.50 44.50 0 0 1 700.25 356.23" fill="none" stroke="#1859a9" stroke-width="7" stroke-linecap="round"/>
<path d="M 633.50 317.69 A 44.50 44.50 0 0 1 655.75 279.15" fill="none" stroke="#1859a9" stroke-width="7" stroke-linecap="round"/>
<path d="M 700.25 279.15 A 44.50 44.50 0 0 1 722.50 317.69" fill="none" stroke="#1859a9" stroke-width="7" stroke-linecap="round"/>
<path d="M 411.00 394.77 A 44.50 44.50 0 0 1 388.75 433.31" fill="none" stroke="#1859a9" stroke-width="7" stroke-linecap="round"/>
<path d="M 500.00 394.77 A 44.50 44.50 0 0 1 477.75 433.31" fill="none" stroke="#1859a9" stroke-width="7" stroke-linecap="round"/>
<path d="M 411.00 394.77 A 44.50 44.50 0 0 1 433.25 356.23" fill="none" stroke="#1859a9" stroke-width="7" stroke-linecap="round"/>
<path d="M 500.00 394.77 A 44.50 44.50 0 0 1 522.25 356.23" fill="none" stroke="#1859a9" stroke-width="7" stroke-linecap="round"/>
<path d="M 566.75 356.23 A 44.50 44.50 0 0 1 589.00 394.77" fill="none" stroke="#1859a9" stroke-width="7" stroke-linecap="round"/>
<path d="M 655.75 433.31 A 44.50 44.50 0 0 1 611.25 433.31" fill="none" stroke="#1859a9" stroke-width="7" stroke-linecap="round"/>
<path d="M 611.25 433.31 A 44.50 44.50 0 0 1 589.00 394.77" fill="none" stroke="#1859a9" stroke-width="7" stroke-linecap="round"/>
<path d="M 744.75 433.31 A 44.50 44.50 0 0 1 700.25 433.31" fill="none" stroke="#1859a9" stroke-width="7" stroke-linecap="round"/>
<path d="M 700.25 356.23 A 44.50 44.50 0 0 1 744.75 356.23" fill="none" stroke="#1859a9" stroke-width="7" stroke-linecap="round"/>
<path d="M 744.75 356.23 A 44.50 44.50 0 0 1 767.00 394.77" fill="none" stroke="#1859a9" stroke-width="7" stroke-linecap="round"/>
<path d="M 789.25 433.31 A 44.50 44.50 0 0 1 767.00 394.77" fill="none" stroke="#1859a9" stroke-width="7" stroke-linecap="round"/>
<path d="M 388.75 510.38 A 44.50 44.50 0 0 1 366.50 471.84" fill="none" stroke="#1859a9" stroke-width="7" stroke-linecap="round"/>
<path d="M 366.50 471.84 A 44.50 44.50 0 0 1 388.75 433.31" fill="none" stroke="#1859a9" stroke-width="7" stroke-linecap="round"/>
<path d="M 477.75 510.38 A 44.50 44.50 0 0 1 455.50 471.84" fill="none" stroke="#1859a9" stroke-width="7" stroke-linecap="round"/>
<path d="M 455.50 471.84 A 44.50 44.50 0 0 1 477.75 433.31" fill="none" stroke="#1859a9" stroke-width="7" stroke-linecap="round"/>
<path d="M 655.75 433.31 A 44.50 44.50 0 0 1 700.25 433.31" fill="none" stroke="#1859a9" stroke-width="7" stroke-linecap="round"/>
<path d="M 744.75 433.31 A 44.50 44.50 0 0 1 789.25 433.31" fill="none" stroke="#1859a9" stroke-width="7" stroke-linecap="round"/>
<path d="M 322.00 548.92 A 44.50 44.50 0 0 1 299.75 587.46" fill="none" stroke="#1859a9" stroke-width="7" stroke-linecap="round"/>
<path d="M 411.00 548.92 A 44.50 44.50 0 0 1 388.75 587.46" fill="none" stroke="#1859a9" stroke-width="7" stroke-linecap="round"/>
<path d="M 322.00 548.92 A 44.50 44.50 0 0 1 344.25 510.38" fill="none" stroke="#1859a9" stroke-width="7" stroke-linecap="round"/>
<path d="M 344.25 510.38 A 44.50 44.50 0 0 1 388.75 510.38" fill="none" stroke="#1859a9" stroke-width="7" stroke-linecap="round"/>
<path d="M 411.00 548.92 A 44.50 44.50 0 0 1 433.25 510.38" fill="none" stroke="#1859a9" stroke-width="7" stroke-linecap="round"/>
<path d="M 433.25 510.38 A 44.50 44.50 0 0 1 477.75 510.38" fill="none" stroke="#1859a9" stroke-width="7" stroke-linecap="round"/>
<path d="M 299.75 587.46 A 44.50 44.50 0 0 1 344.25 587.46" fill="none" stroke="#1859a9" stroke-width="7" stroke-linecap="round"/>
<path d="M 344.25 587.46 A 44.50 44.50 0 0 1 366.50 626.00" fill="none" stroke="#1859a9" stroke-width="7" stroke-linecap="round"/>
<path d="M 366.50 626.00 A 44.50 44.50 0 0 1 388.75 587.46" fill="none" stroke="#1859a9" stroke-width="7" stroke-linecap="round"/>
<text x="233.00" y="171.64" text-anchor="middle" font-size="23.1" font-weight="600" font-family="sans-serif">π</text>
<text x="500.00" y="171.64" text-anchor="middle" font-size="23.1" font-weight="600" font-family="sans-serif">π</text>
<text x="767.00" y="171.64" text-anchor="middle" font-size="23.1" font-weight="600" font-family="sans-serif">5</text>
<text x="856.00" y="171.64" text-anchor="middle" font-size="23.1" font-weight="600" font-family="sans-serif">1</text>
<text x="188.50" y="248.71" text-anchor="middle" font-size="23.1" font-weight="600" font-family="sans-serif">π</text>
<text x="366.50" y="248.71" text-anchor="middle" font-size="23.1" font-weight="600" font-family="sans-serif">5</text>
<text x="455.50" y="248.71" text-anchor="middle" font-size="23.1" font-weight="600" font-family="sans-serif">1</text>
<text x="633.50" y="248.71" text-anchor="middle" font-size="23.1" font-weight="600" font-family="sans-serif">π</text>
<text x="322.00" y="325.79" text-anchor="middle" font-size="23.1" font-weight="600" font-family="sans-serif">π</text>
<text x="767.00" y="325.79" text-anchor="middle" font-size="23.1" font-weight="600" font-family="sans-serif">0</text>
<text x="99.50" y="402.87" text-anchor="middle" font-size="23.1" font-weight="600" font-family="sans-serif">0</text>
<text x="455.50" y="402.87" text-anchor="middle" font-size="23.1" font-weight="600" font-family="sans-serif">2</text>
<text x="544.50" y="402.87" text-anchor="middle" font-size="23.1" font-weight="600" font-family="sans-serif">2</text>
<text x="633.50" y="402.87" text-anchor="middle" font-size="23.1" font-weight="600" font-family="sans-serif">2</text>
<text x="589.00" y="479.94" text-anchor="middle" font-size="23.1" font-weight="600" font-family="sans-serif">0</text>
<text x="767.00" y="479.94" text-anchor="middle" font-size="23.1" font-weight="600" font-family="sans-serif">1</text>
<text x="99.50" y="557.02" text-anchor="middle" font-size="23.1" font-weight="600" font-family="sans-serif">0</text>
<text x="188.50" y="557.02" text-anchor="middle" font-size="23.1" font-weight="600" font-family="sans-serif">0</text>
<text x="366.50" y="557.02" text-anchor="middle" font-size="23.1" font-weight="600" font-family="sans-serif">3</text>
<text x="455.50" y="557.02" text-anchor="middle" font-size="23.1" font-weight="600" font-family="sans-serif">2</text>
<text x="811.50" y="557.02" text-anchor="middle" font-size="23.1" font-weight="600" font-family="sans-serif">0</text>
<text x="900.50" y="557.02" text-anchor="middle" font-size="23.1" font-weight="600" font-family="sans-serif">0</text>
<text x="233.00" y="634.09" text-anchor="middle" font-size="23.1" font-weight="600" font-family="sans-serif">0</text>
<text x="322.00" y="634.09" text-anchor="middle" font-size="23.1" font-weight="600" font-family="sans-serif">2</text>
<text x="411.00" y="634.09" text-anchor="middle" font-size="23.1" font-weight="600" font-family="sans-serif">π</text>
<text x="544.50" y="711.17" text-anchor="middle" font-size="23.1" font-weight="600" font-family="sans-serif">0</text>
<text x="678.00" y="788.25" text-anchor="middle" font-size="23.1" font-weight="600" font-family="sans-serif">0</text>
<text x="277.50" y="197.33" text-anchor="middle" font-size="23.1" font-weight="600" font-family="sans-serif">2</text>
<text x="233.00" y="223.02" text-anchor="middle" font-size="23.1" font-weight="600" font-family="sans-serif">2</text>
<text x="500.00" y="223.02" text-anchor="middle" font-size="23.1" font-weight="600" font-family="sans-serif">1</text>
<text x="856.00" y="223.02" text-anchor="middle" font-size="23.1" font-weight="600" font-family="sans-serif">1</text>
<text x="144.00" y="274.41" text-anchor="middle" font-size="23.1" font-weight="600" font-family="sans-serif">0</text>
<text x="322.00" y="274.41" text-anchor="middle" font-size="23.1" font-weight="600" font-family="sans-serif">2</text>
<text x="544.50" y="300.10" text-anchor="middle" font-size="23.1" font-weight="600" font-family="sans-serif">1</text>
<text x="678.00" y="274.41" text-anchor="middle" font-size="23.1" font-weight="600" font-family="sans-serif">1</text>
<text x="767.00" y="274.41" text-anchor="middle" font-size="23.1" font-weight="600" font-family="sans-serif">2</text>
<text x="856.00" y="274.41" text-anchor="middle" font-size="23.1" font-weight="600" font-family="sans-serif">2</text>
<text x="455.50" y="351.48" text-anchor="middle" font-size="23.1" font-weight="600" font-family="sans-serif">0</text>
<text x="411.00" y="377.17" text-anchor="middle" font-size="23.1" font-weight="600" font-family="sans-serif">2</text>
<text x="500.00" y="377.17" text-anchor="middle" font-size="23.1" font-weight="600" font-family="sans-serif">1</text>
<text x="678.00" y="377.17" text-anchor="middle" font-size="23.1" font-weight="600" font-family="sans-serif">0</text>
<text x="144.00" y="428.56" text-anchor="middle" font-size="23.1" font-weight="600" font-family="sans-serif">0</text>
<text x="188.50" y="454.25" text-anchor="middle" font-size="23.1" font-weight="600" font-family="sans-serif">0</text>
<text x="277.50" y="454.25" text-anchor="middle" font-size="23.1" font-weight="600" font-family="sans-serif">0</text>
<text x="366.50" y="454.25" text-anchor="middle" font-size="23.1" font-weight="600" font-family="sans-serif">1</text>
<text x="678.00" y="428.56" text-anchor="middle" font-size="23.1" font-weight="600" font-family="sans-serif">1</text>
<text x="722.50" y="454.25" text-anchor="middle" font-size="23.1" font-weight="600" font-family="sans-serif">1</text>
<text x="811.50" y="454.25" text-anchor="middle" font-size="23.1" font-weight="600" font-family="sans-serif">0</text>
<text x="322.00" y="531.33" text-anchor="middle" font-size="23.1" font-weight="600" font-family="sans-serif">1</text>
<text x="455.50" y="505.63" text-anchor="middle" font-size="23.1" font-weight="600" font-family="sans-serif">2</text>
<text x="500.00" y="531.33" text-anchor="middle" font-size="23.1" font-weight="600" font-family="sans-serif">0</text>
<text x="366.50" y="659.79" text-anchor="middle" font-size="23.1" font-weight="600" font-family="sans-serif">0</text>
<text x="322.00" y="685.48" text-anchor="middle" font-size="23.1" font-weight="600" font-family="sans-serif">0</text>
<text x="188.50" y="762.56" text-anchor="middle" font-size="23.1" font-weight="600" font-family="sans-serif">0</text>
<text x="856.00" y="736.86" text-anchor="middle" font-size="23.1" font-weight="600" font-family="sans-serif">0</text>
<text x="722.50" y="813.94" text-anchor="middle" font-size="23.1" font-weight="600" font-family="sans-serif">0</text>
</svg>