<svg xmlns="http://www.w3.org/2000/svg" width="1000" height="951" viewBox="0 0 1000 951">
<rect width="100%" height="100%" fill="white"/>
<text x="500.0" y="45" text-anchor="middle" font-size="28" font-family="sans-serif">TSH-20</text>
<path d="M 203.33 157.12 A 37.08 37.08 0 0 1 184.79 189.23" fill="none" stroke="#b8bec7" stroke-width="2"/>
<path d="M 184.79 189.23 A 37.08 37.08 0 0 1 147.71 189.23" fill="none" stroke="#b8bec7" stroke-width="2"/>
<path d="M 147.71 189.23 A 37.08 37.08 0 0 1 129.17 157.12" fill="none" stroke="#b8bec7" stroke-width="2"/>
<path d="M 129.17 157.12 A 37.08 37.08 0 0 1 147.71 125.00" fill="none" stroke="#b8bec7" stroke-width="2"/>
<path d="M 147.71 125.00 A 37.08 37.08 0 0 1 184.79 125.00" fill="none" stroke="#b8bec7" stroke-width="2"/>
<path d="M 184.79 125.00 A 37.08 37.08 0 0 1 203.33 157.12" fill="none" stroke="#b8bec7" stroke-width="2"/>
<path d="M 277.50 157.12 A 37.08 37.08 0 0 1 258.96 189.23" fill="none" stroke="#b8bec7" stroke-width="2"/>
<path d="M 258.96 189.23 A 37.08 37.08 0 0 1 221.88 189.23" fill="none" stroke="#b8bec7" stroke-width="2"/>
<path d="M 221.88 189.23 A 37.08 37.08 0 0 1 203.33 157.12" fill="none" stroke="#b8bec7" stroke-width="2"/>
<path d="M 203.33 157.12 A 37.08 37.08 0 0 1 221.88 125.00" fill="none" stroke="#b8bec7" stroke-width="2"/>
<path d="M 221.88 125.00 A 37.08 37.08 0 0 1 258.96 125.00" fill="none" stroke="#b8bec7" stroke-width="2"/>
<path d="M 258.96 125.00 A 37.08 37.08 0 0 1 277.50 157.12" fill="none" stroke="#b8bec7" stroke-width="2"/>
<path d="M 351.67 157.12 A 37.08 37.08 0 0 1 333.12 189.23" fill="none" stroke="#b8bec7" stroke-width="2"/>
<path d="M 333.12 189.23 A 37.08 37.08 0 0 1 296.04 189.23" fill="none" stroke="#b8bec7" stroke-width="2"/>
<path d="M 296.04 189.23 A 37.08 37.08 0 0 1 277.50 157.12" fill="none" stroke="#b8bec7" stroke-width="2"/>
<path d="M 277.50 157.12 A 37.08 37.08 0 0 1 296.04 125.00" fill="none" stroke="#b8bec7" stroke-width="2"/>
<path d="M 296.04 125.00 A 37.08 37.08 0 0 1 333.12 125.00" fill="none" stroke="#b8bec7" stroke-width="2"/>
<path d="M 333.12 125.00 A 37.08 37.08 0 0 1 351.67 157.12" fill="none" stroke="#b8bec7" stroke-width="2"/>
<path d="M 425.83 157.12 A 37.08 37.08 0 0 1 407.29 189.23" fill="none" stroke="#b8bec7" stroke-width="2"/>
<path d="M 407.29 189.23 A 37.08 37.08 0 0 1 370.21 189.23" fill="none" stroke="#b8bec7" stroke-width="2"/>
<path d="M 370.21 189.23 A 37.08 37.08 0 0 1 351.67 157.12" fill="none" stroke="#b8bec7" stroke-width="2"/>
<path d="M 351.67 157.12 A 37.08 37.08 0 0 1 370.21 125.00" fill="none" stroke="#b8bec7" stroke-width="2"/>
<path d="M 370.21 125.00 A 37.08 37.08 0 0 1 407.29 125.00" fill="none" stroke="#b8bec7" stroke-width="2"/>
<path d="M 407.29 125.00 A 37.08 37.08 0 0 1 425.83 157.12" fill="none" stroke="#b8bec7" stroke-width="2"/>
<path d="M 500.00 157.12 A 37.08 37.08 0 0 1 481.46 189.23" fill="none" stroke="#b8bec7" stroke-width="2"/>
<path d="M 481.46 189.23 A 37.08 37.08 0 0 1 444.38 189.23" fill="none" stroke="#b8bec7" stroke-width="2"/>
<path d="M 444.38 189.23 A 37.08 37.08 0 0 1 425.83 157.12" fill="none" stroke="#b8bec7" stroke-width="2"/>
<path d="M 425.83 157.12 A 37.08 37.08 0 0 1 444.38 125.00" fill="none" stroke="#b8bec7" stroke-width="2"/>
<path d="M 444.38 125.00 A 37.08 37.08 0 0 1 481.46 125.00" fill="none" stroke="#b8bec7" stroke-width="2"/>
<path d="M 481.46 125.00 A 37.08 37.08 0 0 1 500.00 157.12" fill="none" stroke="#b8bec7" stroke-width="2"/>
<path d="M 574.17 157.12 A 37.08 37.08 0 0 1 555.62 189.23" fill="none" stroke="#b8bec7" stroke-width="2"/>
<path d="M 555.62 189.23 A 37.08 37.08 0 0 1 518.54 189.23" fill="none" stroke="#b8bec7" stroke-width="2"/>
<path d="M 518.54 189.23 A 37.08 37.08 0 0 1 500.00 157.12" fill="none" stroke="#b8bec7" stroke-width="2"/>
<path d="M 500.00 157.12 A 37.08 37.08 0 0 1 518.54 125.00" fill="none" stroke="#b8bec7" stroke-width="2"/>
<path d="M 518.54 125.00 A 37.08 37.08 0 0 1 555.62 125.00" fill="none" stroke="#b8bec7" stroke-width="2"/>
<path d="M 555.62 125.00 A 37.08 37.08 0 0 1 574.17 157.12" fill="none" stroke="#b8bec7" stroke-width="2"/>
<path d="M 648.33 157.12 A 37.08 37.08 0 0 1 629.79 189.23" fill="none" stroke="#b8bec7" stroke-width="2"/>
<path d="M 629.79 189.23 A 37.08 37.08 0 0 1 592.71 189.23" fill="none" stroke="#b8bec7" stroke-width="2"/>
<path d="M 592.71 189.23 A 37.08 37.08 0 0 1 574.17 157.12" fill="none" stroke="#b8bec7" stroke-width="2"/>
<path d="M 574.17 157.12 A 37.08 37.08 0 0 1 592.71 125.00" fill="none" stroke="#b8bec7" stroke-width="2"/>
<path d="M 592.71 125.00 A 37.08 37.08 0 0 1 629.79 125.00" fill="none" stroke="#b8bec7" stroke-width="2"/>
<path d="M 629.79 125.00 A 37.08 37.08 0 0 1 648.33 157.12" fill="none" stroke="#b8bec7" stroke-width="2"/>
<path d="M 722.50 157.12 A 37.08 37.08 0 0 1 703.96 189.23" fill="none" stroke="#b8bec7" stroke-width="2"/>
<path d="M 703.96 189.23 A 37.08 37.08 0 0 1 666.88 189.23" fill="none" stroke="#b8bec7" stroke-width="2"/>
<path d="M 666.88 189.23 A 37.08 37.08 0 0 1 648.33 157.12" fill="none" stroke="#b8bec7" stroke-width="2"/>
<path d="M 648.33 157.12 A 37.08 37.08 0 0 1 666.88 125.00" fill="none" stroke="#b8bec7" stroke-width="2"/>
<path d="M 666.88 125.00 A 37.08 37.08 0 0 1 703.96 125.00" fill="none" stroke="#b8bec7" stroke-width="2"/>
<path d="M 703.96 125.00 A 37.08 37.08 0 0 1 722.50 157.12" fill="none" stroke="#b8bec7" stroke-width="2"/>
<path d="M 796.67 157.12 A 37.08 37.08 0 0 1 778.12 189.23" fill="none" stroke="#b8bec7" stroke-width="2"/>
<path d="M 778.12 189.23 A 37.08 37.08 0 0 1 741.04 189.23" fill="none" stroke="#b8bec7" stroke-width="2"/>
<path d="M 741.04 189.23 A 37.08 37.08 0 0 1 722.50 157.12" fill="none" stroke="#b8bec7" stroke-width="2"/>
<path d="M 722.50 157.12 A 37.08 37.08 0 0 1 741.04 125.00" fill="none" stroke="#b8bec7" stroke-width="2"/>
<path d="M 741.04 125.00 A 37.08 37.08 0 0 1 778.12 125.00" fill="none" stroke="#b8bec7" stroke-width="2"/>
<path d="M 778.12 125.00 A 37.08 37.08 0 0 1 796.67 157.12" fill="none" stroke="#b8bec7" stroke-width="2"/>
<path d="M 870.83 157.12 A 37.08 37.08 0 0 1 852.29 189.23" fill="none" stroke="#b8bec7" stroke-width="2"/>
<path d="M 852.29 189.23 A 37.08 37.08 0 0 1 815.21 189.23" fill="none" stroke="#b8bec7" stroke-width="2"/>
<path d="M 815.21 189.23 A 37.08 37.08 0 0 1 796.67 157.12" fill="none" stroke="#b8bec7" stroke-width="2"/>
<path d="M 796.67 157.12 A 37.08 37.08 0 0 1 815.21 125.00" fill="none" stroke="#b8bec7" stroke-width="2"/>
<path d="M 815.21 125.00 A 37.08 37.08 0 0 1 852.29 125.00" fill="none" stroke="#b8bec7" stroke-width="2"/>
<path d="M 852.29 125.00 A 37.08 37.08 0 0 1 870.83 157.12" fill="none" stroke="#b8bec7" stroke-width="2"/>
<path d="M 166.25 221.35 A 37.08 37.08 0 0 1 147.71 253.46" fill="none" stroke="#b8bec7" stroke-width="2"/>
<path d="M 147.71 253.46 A 37.08 37.08 0 0 1 110.63 253.46" fill="none" stroke="#b8bec7" stroke-width="2"/>
<path d="M 110.63 253.46 A 37.08 37.08 0 0 1 92.08 221.35" fill="none" stroke="#b8bec7" stroke-width="2"/>
<path d="M 92.08 221.35 A 37.08 37.08 0 0 1 110.62 189.23" fill="none" stroke="#b8bec7" stroke-width="2"/>
<path d="M 110.62 189.23 A 37.08 37.08 0 0 1 147.71 189.23" fill="none" stroke="#b8bec7" stroke-width="2"/>
<path d="M 147.71 189.23 A 37.08 37.08 0 0 1 166.25 221.35" fill="none" stroke="#b8bec7" stroke-width="2"/>
<path d="M 240.42 221.35 A 37.08 37.08 0 0 1 221.88 253.46" fill="none" stroke="#b8bec7" stroke-width="2"/>
<path d="M 221.88 253.46 A 37.08 37.08 0 0 1 184.79 253.46" fill="none" stroke="#b8bec7" stroke-width="2"/>
<path d="M 184.79 253.46 A 37.08 37.08 0 0 1 166.25 221.35" fill="none" stroke="#b8bec7" stroke-width="2"/>
<path d="M 166.25 221.35 A 37.08 37.08 0 0 1 184.79 189.23" fill="none" stroke="#b8bec7" stroke-width="2"/>
<path d="M 184.79 189.23 A 37.08 37.08 0 0 1 221.88 189.23" fill="none" stroke="#b8bec7" stroke-width="2"/>
<path d="M 221.88 189.23 A 37.08 37.08 0 0 1 240.42 221.35" fill="none" stroke="#b8bec7" stroke-width="2"/>
<path d="M 314.58 221.35 A 37.08 37.08 0 0 1 296.04 253.46" fill="none" stroke="#b8bec7" stroke-width="2"/>
<path d="M 296.04 253.46 A 37.08 37.08 0 0 1 258.96 253.46" fill="none" stroke="#b8bec7" stroke-width="2"/>
<path d="M 258.96 253.46 A 37.08 37.08 0 0 1 240.42 221.35" fill="none" stroke="#b8bec7" stroke-width="2"/>
<path d="M 240.42 221.35 A 37.08 37.08 0 0 1 258.96 189.23" fill="none" stroke="#b8bec7" stroke-width="2"/>
<path d="M 258.96 189.23 A 37.08 37.08 0 0 1 296.04 189.23" fill="none" stroke="#b8bec7" stroke-width="2"/>
<path d="M 296.04 189.23 A 37.08 37.08 0 0 1 314.58 221.35" fill="none" stroke="#b8bec7" stroke-width="2"/>
<path d="M 388.75 221.35 A 37.08 37.08 0 0 1 370.21 253.46" fill="none" stroke="#b8bec7" stroke-width="2"/>
<path d="M 370.21 253.46 A 37.08 37.08 0 0 1 333.12 253.46" fill="none" stroke="#b8bec7" stroke-width="2"/>
<path d="M 333.12 253.46 A 37.08 37.08 0 0 1 314.58 221.35" fill="none" stroke="#b8bec7" stroke-width="2"/>
<path d="M 314.58 221.35 A 37.08 37.08 0 0 1 333.12 189.23" fill="none" stroke="#b8bec7" stroke-width="2"/>
<path d="M 333.12 189.23 A 37.08 37.08 0 0 1 370.21 189.23" fill="none" stroke="#b8bec7" stroke-width="2"/>
<path d="M 370.21 189.23 A 37.08 37.08 0 0 1 388.75 221.35" fill="none" stroke="#b8bec7" stroke-width="2"/>
<path d="M 462.92 221.35 A 37.08 37.08 0 0 1 444.38 253.46" fill="none" stroke="#b8bec7" stroke-width="2"/>
<path d="M 444.38 253.46 A 37.08 37.08 0 0 1 407.29 253.46" fill="none" stroke="#b8bec7" stroke-width="2"/>
<path d="M 407.29 253.46 A 37.08 37.08 0 0 1 388.75 221.35" fill="none" stroke="#b8bec7" stroke-width="2"/>
<path d="M 388.75 221.35 A 37.08 37.08 0 0 1 407.29 189.23" fill="none" stroke="#b8bec7" stroke-width="2"/>
<path d="M 407.29 189.23 A 37.08 37.08 0 0 1 444.38 189.23" fill="none" stroke="#b8bec7" stroke-width="2"/>
<path d="M 444.38 189.23 A 37.08 37.08 0 0 1 462.92 221.35" fill="none" stroke="#b8bec7" stroke-width="2"/>
<path d="M 537.08 221.35 A 37.08 37.08 0 0 1 518.54 253.46" fill="none" stroke="#b8bec7" stroke-width="2"/>
<path d="M 518.54 253.46 A 37.08 37.08 0 0 1 481.46 253.46" fill="none" stroke="#b8bec7" stroke-width="2"/>
<path d="M 481.46 253.46 A 37.08 37.08 0 0 1 462.92 221.35" fill="none" stroke="#b8bec7" stroke-width="2"/>
<path d="M 462.92 221.35 A 37.08 37.08 0 0 1 481.46 189.23" fill="none" stroke="#b8bec7" stroke-width="2"/>
<path d="M 481.46 189.23 A 37.08 37.08 0 0 1 518.54 189.23" fill="none" stroke="#b8bec7" stroke-width="2"/>
<path d="M 518.54 189.23 A 37.08 37.08 0 0 1 537.08 221.35" fill="none" stroke="#b8bec7" stroke-width="2"/>
<path d="M 611.25 221.35 A 37.08 37.08 0 0 1 592.71 253.46" fill="none" stroke="#b8bec7" stroke-width="2"/>
<path d="M 592.71 253.46 A 37.08 37.08 0 0 1 555.62 253.46" fill="none" stroke="#b8bec7" stroke-width="2"/>
<path d="M 555.62 253.46 A 37.08 37.08 0 0 1 537.08 221.35" fill="none" stroke="#b8bec7" stroke-width="2"/>
<path d="M 537.08 221.35 A 37.08 37.08 0 0 1 555.62 189.23" fill="none" stroke="#b8bec7" stroke-width="2"/>
<path d="M 555.62 189.23 A 37.08 37.08 0 0 1 592.71 189.23" fill="none" stroke="#b8bec7" stroke-width="2"/>
<path d="M 592.71 189.23 A 37.08 37.08 0 0 1 611.25 221.35" fill="none" stroke="#b8bec7" stroke-width="2"/>
<path d="M 685.42 221.35 A 37.08 37.08 0 0 1 666.88 253.46" fill="none" stroke="#b8bec7" stroke-width="2"/>
<path d="M 666.88 253.46 A 37.08 37.08 0 0 1 629.79 253.46" fill="none" stroke="#b8bec7" stroke-width="2"/>
<path d="M 629.79 253.46 A 37.08 37.08 0 0 1 611.25 221.35" fill="none" stroke="#b8bec7" stroke-width="2"/>
<path d="M 611.25 221.35 A 37.08 37.08 0 0 1 629.79 189.23" fill="none" stroke="#b8bec7" stroke-width="2"/>
<path d="M 629.79 189.23 A 37.08 37.08 0 0 1 666.88 189.23" fill="none" stroke="#b8bec7" stroke-width="2"/>
<path d="M 666.88 189.23 A 37.08 37.08 0 0 1 685.42 221.35" fill="none" stroke="#b8bec7" stroke-width="2"/>
<path d="M 759.58 221.35 A 37.08 37.08 0 0 1 741.04 253.46" fill="none" stroke="#b8bec7" stroke-width="2"/>
<path d="M 741.04 253.46 A 37.08 37.08 0 0 1 703.96 253.46" fill="none" stroke="#b8bec7" stroke-width="2"/>
<path d="M 703.96 253.46 A 37.08 37.08 0 0 1 685.42 221.35" fill="none" stroke="#b8bec7" stroke-width="2"/>
<path d="M 685.42 221.35 A 37.08 37.08 0 0 1 703.96 189.23" fill="none" stroke="#b8bec7" stroke-width="2"/>
<path d="M 703.96 189.23 A 37.08 37.08 0 0 1 741.04 189.23" fill="none" stroke="#b8bec7" stroke-width="2"/>
<path d="M 741.04 189.23 A 37.08 37.08 0 0 1 759.58 221.35" fill="none" stroke="#b8bec7" stroke-width="2"/>
<path d="M 833.75 221.35 A 37.08 37.08 0 0 1 815.21 253.46" fill="none" stroke="#b8bec7" stroke-width="2"/>
<path d="M 815.21 253.46 A 37.08 37.08 0 0 1 778.12 253.46" fill="none" stroke="#b8bec7" stroke-width="2"/>
<path d="M 778.12 253.46 A 37.08 37.08 0 0 1 759.58 221.35" fill="none" stroke="#b8bec7" stroke-width="2"/>
<path d="M 759.58 221.35 A 37.08 37.08 0 0 1 778.12 189.23" fill="none" stroke="#b8bec7" stroke-width="2"/>
<path d="M 778.12 189.23 A 37.08 37.08 0 0 1 815.21 189.23" fill="none" stroke="#b8bec7" stroke-width="2"/>
<path d="M 815.21 189.23 A 37.08 37.08 0 0 1 833.75 221.35" fill="none" stroke="#b8bec7" stroke-width="2"/>
<path d="M 907.92 221.35 A 37.08 37.08 0 0 1 889.38 253.46" fill="none" stroke="#b8bec7" stroke-width="2"/>
<path d="M 889.38 253.46 A 37.08 37.08 0 0 1 852.29 253.46" fill="none" stroke="#b8bec7" stroke-width="2"/>
<path d="M 852.29 253.46 A 37.08 37.08 0 0 1 833.75 221.35" fill="none" stroke="#b8bec7" stroke-width="2"/>
<path d="M 833.75 221.35 A 37.08 37.08 0 0 1 852.29 189.23" fill="none" stroke="#b8bec7" stroke-width="2"/>
<path d="M 852.29 189.23 A 37.08 37.08 0 0 1 889.38 189.23" fill="none" stroke="#b8bec7" stroke-width="2"/>
<path d="M 889.38 189.23 A 37.08 37.08 0 0 1 907.92 221.35" fill="none" stroke="#b8bec7" stroke-width="2"/>
<path d="M 129.17 285.58 A 37.08 37.08 0 0 1 110.62 317.69" fill="none" stroke="#b8bec7" stroke-width="2"/>
<path d="M 110.62 317.69 A 37.08 37.08 0 0 1 73.54 317.69" fill="none" stroke="#b8bec7" stroke-width="2"/>
<path d="M 73.54 317.69 A 37.08 37.08 0 0 1 55.00 285.58" fill="none" stroke="#b8bec7" stroke-width="2"/>
<path d="M 55.00 285.58 A 37.08 37.08 0 0 1 73.54 253.46" fill="none" stroke="#b8bec7" stroke-width="2"/>
<path d="M 73.54 253.46 A 37.08 37.08 0 0 1 110.63 253.46" fill="none" stroke="#b8bec7" stroke-width="2"/>
<path d="M 110.63 253.46 A 37.08 37.08 0 0 1 129.17 285.58" fill="none" stroke="#b8bec7" stroke-width="2"/>
<path d="M 203.33 285.58 A 37.08 37.08 0 0 1 184.79 317.69" fill="none" stroke="#b8bec7" stroke-width="2"/>
<path d="M 184.79 317.69 A 37.08 37.08 0 0 1 147.71 317.69" fill="none" stroke="#b8bec7" stroke-width="2"/>
<path d="M 147.71 317.69 A 37.08 37.08 0 0 1 129.17 285.58" fill="none" stroke="#b8bec7" stroke-width="2"/>
<path d="M 129.17 285.58 A 37.08 37.08 0 0 1 147.71 253.46" fill="none" stroke="#b8bec7" stroke-width="2"/>
<path d="M 147.71 253.46 A 37.08 37.08 0 0 1 184.79 253.46" fill="none" stroke="#b8bec7" stroke-width="2"/>
<path d="M 184.79 253.46 A 37.08 37.08 0 0 1 203.33 285.58" fill="none" stroke="#b8bec7" stroke-width="2"/>
<path d="M 277.50 285.58 A 37.08 37.08 0 0 1 258.96 317.69" fill="none" stroke="#b8bec7" stroke-width="2"/>
<path d="M 258.96 317.69 A 37.08 37.08 0 0 1 221.88 317.69" fill="none" stroke="#b8bec7" stroke-width="2"/>
<path d="M 221.88 317.69 A 37.08 37.08 0 0 1 203.33 285.58" fill="none" stroke="#b8bec7" stroke-width="2"/>
<path d="M 203.33 285.58 A 37.08 37.08 0 0 1 221.88 253.46" fill="none" stroke="#b8bec7" stroke-width="2"/>
<path d="M 221.88 253.46 A 37.08 37.08 0 0 1 258.96 253.46" fill="none" stroke="#b8bec7" stroke-width="2"/>
<path d="M 258.96 253.46 A 37.08 37.08 0 0 1 277.50 285.58" fill="none" stroke="#b8bec7" stroke-width="2"/>
<path d="M 351.67 285.58 A 37.08 37.08 0 0 1 333.12 317.69" fill="none" stroke="#b8bec7" stroke-width="2"/>
<path d="M 333.12 317.69 A 37.08 37.08 0 0 1 296.04 317.69" fill="none" stroke="#b8bec7" stroke-width="2"/>
<path d="M 296.04 317.69 A 37.08 37.08 0 0 1 277.50 285.58" fill="none" stroke="#b8bec7" stroke-width="2"/>
<path d="M 277.50 285.58 A 37.08 37.08 0 0 1 296.04 253.46" fill="none" stroke="#b8bec7" stroke-width="2"/>
<path d="M 296.04 253.46 A 37.08 37.08 0 0 1 333.12 253.46" fill="none" stroke="#b8bec7" stroke-width="2"/>
<path d="M 333.12 253.46 A 37.08 37.08 0 0 1 351.67 285.58" fill="none" stroke="#b8bec7" stroke-width="2"/>
<path d="M 425.83 285.58 A 37.08 37.08 0 0 1 407.29 317.69" fill="none" stroke="#b8bec7" stroke-width="2"/>
<path d="M 407.29 317.69 A 37.08 37.08 0 0 1 370.21 317.69" fill="none" stroke="#b8bec7" stroke-width="2"/>
<path d="M 370.21 317.69 A 37.08 37.08 0 0 1 351.67 285.58" fill="none" stroke="#b8bec7" stroke-width="2"/>
<path d="M 351.67 285.58 A 37.08 37.08 0 0 1 370.21 253.46" fill="none" stroke="#b8bec7" stroke-width="2"/>
<path d="M 370.21 253.46 A 37.08 37.08 0 0 1 407.29 253.46" fill="none" stroke="#b8bec7" stroke-width="2"/>
<path d="M 407.29 253.46 A 37.08 37.08 0 0 1 425.83 285.58" fill="none" stroke="#b8bec7" stroke-width="2"/>
<path d="M 500.00 285.58 A 37.08 37.08 0 0 1 481.46 317.69" fill="none" stroke="#b8bec7" stroke-width="2"/>
<path d="M 481.46 317.69 A 37.08 37.08 0 0 1 444.38 317.69" fill="none" stroke="#b8bec7" stroke-width="2"/>
<path d="M 444.38 317.69 A 37.08 37.08 0 0 1 425.83 285.58" fill="none" stroke="#b8bec7" stroke-width="2"/>
<path d="M 425.83 285.58 A 37.08 37.08 0 0 1 444.38 253.46" fill="none" stroke="#b8bec7" stroke-width="2"/>
<path d="M 444.38 253.46 A 37.08 37.08 0 0 1 481.46 253.46" fill="none" stroke="#b8bec7" stroke-width="2"/>
<path d="M 481.46 253.46 A 37.08 37.08 0 0 1 500.00 285.58" fill="none" stroke="#b8bec7" stroke-width="2"/>
<path d="M 574.17 285.58 A 37.08 37.08 0 0 1 555.62 317.69" fill="none" stroke="#b8bec7" stroke-width="2"/>
<path d="M 555.62 317.69 A 37.08 37.08 0 0 1 518.54 317.69" fill="none" stroke="#b8bec7" stroke-width="2"/>
<path d="M 518.54 317.69 A 37.08 37.08 0 0 1 500.00 285.58" fill="none" stroke="#b8bec7" stroke-width="2"/>
<path d="M 500.00 285.58 A 37.08 37.08 0 0 1 518.54 253.46" fill="none" stroke="#b8bec7" stroke-width="2"/>
<path d="M 518.54 253.46 A 37.08 37.08 0 0 1 555.62 253.46" fill="none" stroke="#b8bec7" stroke-width="2"/>
<path d="M 555.62 253.46 A 37.08 37.08 0 0 1 574.17 285.58" fill="none" stroke="#b8bec7" stroke-width="2"/>
<path d="M 648.33 285.58 A 37.08 37.08 0 0 1 629.79 317.69" fill="none" stroke="#b8bec7" stroke-width="2"/>
<path d="M 629.79 317.69 A 37.08 37.08 0 0 1 592.71 317.69" fill="none" stroke="#b8bec7" stroke-width="2"/>
<path d="M 592.71 317.69 A 37.08 37.08 0 0 1 574.17 285.58" fill="none" stroke="#b8bec7" stroke-width="2"/>
<path d="M 574.17 285.58 A 37.08 37.08 0 0 1 592.71 253.46" fill="none" stroke="#b8bec7" stroke-width="2"/>
<path d="M 592.71 253.46 A 37.08 37.08 0 0 1 629.79 253.46" fill="none" stroke="#b8bec7" stroke-width="2"/>
<path d="M 629.79 253.46 A 37.08 37.08 0 0 1 648.33 285.58" fill="none" stroke="#b8bec7" stroke-width="2"/>
<path d="M 722.50 285.58 A 37.08 37.08 0 0 1 703.96 317.69" fill="none" stroke="#b8bec7" stroke-width="2"/>
<path d="M 703.96 317.69 A 37.08 37.08 0 0 1 666.88 317.69" fill="none" stroke="#b8bec7" stroke-width="2"/>
<path d="M 666.88 317.69 A 37.08 37.08 0 0 1 648.33 285.58" fill="none" stroke="#b8bec7" stroke-width="2"/>
<path d="M 648.33 285.58 A 37.08 37.08 0 0 1 666.88 253.46" fill="none" stroke="#b8bec7" stroke-width="2"/>
<path d="M 666.88 253.46 A 37.08 37.08 0 0 1 703.96 253.46" fill="none" stroke="#b8bec7" stroke-width="2"/>
<path d="M 703.96 253.46 A 37.08 37.08 0 0 1 722.50 285.58" fill="none" stroke="#b8bec7" stroke-width="2"/>
<path d="M 796.67 285.58 A 37.08 37.08 0 0 1 778.12 317.69" fill="none" stroke="#b8bec7" stroke-width="2"/>
<path d="M 778.12 317.69 A 37.08 37.08 0 0 1 741.04 317.69" fill="none" stroke="#b8bec7" stroke-width="2"/>
<path d="M 741.04 317.69 A 37.08 37.08 0 0 1 722.50 285.58" fill="none" stroke="#b8bec7" stroke-width="2"/>
<path d="M 722.50 285.58 A 37.08 37.08 0 0 1 741.04 253.46" fill="none" stroke="#b8bec7" stroke-width="2"/>
<path d="M 741.04 253.46 A 37.08 37.08 0 0 1 778.12 253.46" fill="none" stroke="#b8bec7" stroke-width="2"/>
<path d="M 778.12 253.46 A 37.08 37.08 0 0 1 796.67 285.58" fill="none" stroke="#b8bec7" stroke-width="2"/>
<path d="M 870.83 285.58 A 37.08 37.08 0 0 1 852.29 317.69" fill="none" stroke="#b8bec7" stroke-width="2"/>
<path d="M 852.29 317.69 A 37.08 37.08 0 0 1 815.21 317.69" fill="none" stroke="#b8bec7" stroke-width="2"/>
<path d="M 815.21 317.69 A 37.08 37.08 0 0 1 796.67 285.58" fill="none" stroke="#b8bec7" stroke-width="2"/>
<path d="M 796.67 285.58 A 37.08 37.08 0 0 1 815.21 253.46" fill="none" stroke="#b8bec7" stroke-width="2"/>
<path d="M 815.21 253.46 A 37.08 37.08 0 0 1 852.29 253.46" fill="none" stroke="#b8bec7" stroke-width="2"/>
<path d="M 852.29 253.46 A 37.08 37.08 0 0 1 870.83 285.58" fill="none" stroke="#b8bec7" stroke-width="2"/>
<path d="M 945.00 285.58 A 37.08 37.08 0 0 1 926.46 317.69" fill="none" stroke="#b8bec7" stroke-width="2"/>
<path d="M 926.46 317.69 A 37.08 37.08 0 0 1 889.38 317.69" fill="none" stroke="#b8bec7" stroke-width="2"/>
<path d="M 889.38 317.69 A 37.08 37.08 0 0 1 870.83 285.58" fill="none" stroke="#b8bec7" stroke-width="2"/>
<path d="M 870.83 285.58 A 37.08 37.08 0 0 1 889.38 253.46" fill="none" stroke="#b8bec7" stroke-width="2"/>
<path d="M 889.38 253.46 A 37.08 37.08 0 0 1 926.46 253.46" fill="none" stroke="#b8bec7" stroke-width="2"/>
<path d="M 926.46 253.46 A 37.08 37.08 0 0 1 945.00 285.58" fill="none" stroke="#b8bec7" stroke-width="2"/>
<path d="M 166.25 349.81 A 37.08 37.08 0 0 1 147.71 381.92" fill="none" stroke="#b8bec7" stroke-width="2"/>
<path d="M 147.71 381.92 A 37.08 37.08 0 0 1 110.63 381.92" fill="none" stroke="#b8bec7" stroke-width="2"/>
<path d="M 110.63 381.92 A 37.08 37.08 0 0 1 92.08 349.81" fill="none" stroke="#b8bec7" stroke-width="2"/>
<path d="M 92.08 349.81 A 37.08 37.08 0 0 1 110.62 317.69" fill="none" stroke="#b8bec7" stroke-width="2"/>
<path d="M 110.62 317.69 A 37.08 37.08 0 0 1 147.71 317.69" fill="none" stroke="#b8bec7" stroke-width="2"/>
<path d="M 147.71 317.69 A 37.08 37.08 0 0 1 166.25 349.81" fill="none" stroke="#b8bec7" stroke-width="2"/>
<path d="M 240.42 349.81 A 37.08 37.08 0 0 1 221.88 381.92" fill="none" stroke="#b8bec7" stroke-width="2"/>
<path d="M 221.88 381.92 A 37.08 37.08 0 0 1 184.79 381.92" fill="none" stroke="#b8bec7" stroke-width="2"/>
<path d="M 184.79 381.92 A 37.08 37.08 0 0 1 166.25 349.81" fill="none" stroke="#b8bec7" stroke-width="2"/>
<path d="M 166.25 349.81 A 37.08 37.08 0 0 1 184.79 317.69" fill="none" stroke="#b8bec7" stroke-width="2"/>
<path d="M 184.79 317.69 A 37.08 37.08 0 0 1 221.88 317.69" fill="none" stroke="#b8bec7" stroke-width="2"/>
<path d="M 221.88 317.69 A 37.08 37.08 0 0 1 240.42 349.81" fill="none" stroke="#b8bec7" stroke-width="2"/>
<path d="M 314.58 349.81 A 37.08 37.08 0 0 1 296.04 381.92" fill="none" stroke="#b8bec7" stroke-width="2"/>
<path d="M 296.04 381.92 A 37.08 37.08 0 0 1 258.96 381.92" fill="none" stroke="#b8bec7" stroke-width="2"/>
<path d="M 258.96 381.92 A 37.08 37.08 0 0 1 240.42 349.81" fill="none" stroke="#b8bec7" stroke-width="2"/>
<path d="M 240.42 349.81 A 37.08 37.08 0 0 1 258.96 317.69" fill="none" stroke="#b8bec7" stroke-width="2"/>
<path d="M 258.96 317.69 A 37.08 37.08 0 0 1 296.04 317.69" fill="none" stroke="#b8bec7" stroke-width="2"/>
<path d="M 296.04 317.69 A 37.08 37.08 0 0 1 314.58 349.81" fill="none" stroke="#b8bec7" stroke-width="2"/>
<path d="M 388.75 349.81 A 37.08 37.08 0 0 1 370.21 381.92" fill="none" stroke="#b8bec7" stroke-width="2"/>
<path d="M 370.21 381.92 A 37.08 37.08 0 0 1 333.12 381.92" fill="none" stroke="#b8bec7" stroke-width="2"/>
<path d="M 333.12 381.92 A 37.08 37.08 0 0 1 314.58 349.81" fill="none" stroke="#b8bec7" stroke-width="2"/>
<path d="M 314.58 349.81 A 37.08 37.08 0 0 1 333.12 317.69" fill="none" stroke="#b8bec7" stroke-width="2"/>
<path d="M 333.12 317.69 A 37.08 37.08 0 0 1 370.21 317.69" fill="none" stroke="#b8bec7" stroke-width="2"/>
<path d="M 370.21 317.69 A 37.08 37.08 0 0 1 388.75 349.81" fill="none" stroke="#b8bec7" stroke-width="2"/>
<path d="M 462.92 349.81 A 37.08 37.08 0 0 1 444.38 381.92" fill="none" stroke="#b8bec7" stroke-width="2"/>
<path d="M 444.38 381.92 A 37.08 37.08 0 0 1 407.29 381.92" fill="none" stroke="#b8bec7" stroke-width="2"/>
<path d="M 407.29 381.92 A 37.08 37.08 0 0 1 388.75 349.81" fill="none" stroke="#b8bec7" stroke-width="2"/>
<path d="M 388.75 349.81 A 37.08 37.08 0 0 1 407.29 317.69" fill="none" stroke="#b8bec7" stroke-width="2"/>
<path d="M 407.29 317.69 A 37.08 37.08 0 0 1 444.38 317.69" fill="none" stroke="#b8bec7" stroke-width="2"/>
<path d="M 444.38 317.69 A 37.08 37.08 0 0 1 462.92 349.81" fill="none" stroke="#b8bec7" stroke-width="2"/>
<path d="M 537.08 349.81 A 37.08 37.08 0 0 1 518.54 381.92" fill="none" stroke="#b8bec7" stroke-width="2"/>
<path d="M 518.54 381.92 A 37.08 37.08 0 0 1 481.46 381.92" fill="none" stroke="#b8bec7" stroke-width="2"/>
<path d="M 481.46 381.92 A 37.08 37.08 0 0 1 462.92 349.81" fill="none" stroke="#b8bec7" stroke-width="2"/>
<path d="M 462.92 349.81 A 37.08 37.08 0 0 1 481.46 317.69" fill="none" stroke="#b8bec7" stroke-width="2"/>
<path d="M 481.46 317.69 A 37.08 37.08 0 0 1 518.54 317.69" fill="none" stroke="#b8bec7" stroke-width="2"/>
<path d="M 518.54 317.69 A 37.08 37.08 0 0 1 537.08 349.81" fill="none" stroke="#b8bec7" stroke-width="2"/>
<path d="M 611.25 349.81 A 37.08 37.08 0 0 1 592.71 381.92" fill="none" stroke="#b8bec7" stroke-width="2"/>
<path d="M 592.71 381.92 A 37.08 37.08 0 0 1 555.62 381.92" fill="none" stroke="#b8bec7" stroke-width="2"/>
<path d="M 555.62 381.92 A 37.08 37.08 0 0 1 537.08 349.81" fill="none" stroke="#b8bec7" stroke-width="2"/>
<path d="M 537.08 349.81 A 37.08 37.08 0 0 1 555.62 317.69" fill="none" stroke="#b8bec7" stroke-width="2"/>
<path d="M 555.62 317.69 A 37.08 37.08 0 0 1 592.71 317.69" fill="none" stroke="#b8bec7" stroke-width="2"/>
<path d="M 592.71 317.69 A 37.08 37.08 0 0 1 611.25 349.81" fill="none" stroke="#b8bec7" stroke-width="2"/>
<path d="M 685.42 349.81 A 37.08 37.08 0 0 1 666.88 381.92" fill="none" stroke="#b8bec7" stroke-width="2"/>
<path d="M 666.88 381.92 A 37.08 37.08 0 0 1 629.79 381.92" fill="none" stroke="#b8bec7" stroke-width="2"/>
<path d="M 629.79 381.92 A 37.08 37.08 0 0 1 611.25 349.81" fill="none" stroke="#b8bec7" stroke-width="2"/>
<path d="M 611.25 349.81 A 37.08 37.08 0 0 1 629.79 317.69" fill="none" stroke="#b8bec7" stroke-width="2"/>
<path d="M 629.79 317.69 A 37.08 37.08 0 0 1 666.88 317.69" fill="none" stroke="#b8bec7" stroke-width="2"/>
<path d="M 666.88 317.69 A 37.08 37.08 0 0 1 685.42 349.81" fill="none" stroke="#b8bec7" stroke-width="2"/>
<path d="M 759.58 349.81 A 37.08 37.08 0 0 1 741.04 381.92" fill="none" stroke="#b8bec7" stroke-width="2"/>
<path d="M 741.04 381.92 A 37.08 37.08 0 0 1 703.96 381.92" fill="none" stroke="#b8bec7" stroke-width="2"/>
<path d="M 703.96 381.92 A 37.08 37.08 0 0 1 685.42 349.81" fill="none" stroke="#b8bec7" stroke-width="2"/>
<path d="M 685.42 349.81 A 37.08 37.08 0 0 1 703.96 317.69" fill="none" stroke="#b8bec7" stroke-width="2"/>
<path d="M 703.96 317.69 A 37.08 37.08 0 0 1 741.04 317.69" fill="none" stroke="#b8bec7" stroke-width="2"/>
<path d="M 741.04 317.69 A 37.08 37.08 0 0 1 759.58 349.81" fill="none" stroke="#b8bec7" stroke-width="2"/>
<path d="M 833.75 349.81 A 37.08 37.08 0 0 1 815.21 381.92" fill="none" stroke="#b8bec7" stroke-width="2"/>
<path d="M 815.21 381.92 A 37.08 37.08 0 0 1 778.12 381.92" fill="none" stroke="#b8bec7" stroke-width="2"/>
<path d="M 778.12 381.92 A 37.08 37.08 0 0 1 759.58 349.81" fill="none" stroke="#b8bec7" stroke-width="2"/>
<path d="M 759.58 349.81 A 37.08 37.08 0 0 1 778.12 317.69" fill="none" stroke="#b8bec7" stroke-width="2"/>
<path d="M 778.12 317.69 A 37.08 37.08 0 0 1 815.21 317.69" fill="none" stroke="#b8bec7" stroke-width="2"/>
<path d="M 815.21 317.69 A 37.08 37.08 0 0 1 833.75 349.81" fill="none" stroke="#b8bec7" stroke-width="2"/>
<path d="M 907.92 349.81 A 37.08 37.08 0 0 1 889.38 381.92" fill="none" stroke="#b8bec7" stroke-width="2"/>
<path d="M 889.38 381.92 A 37.08 37.08 0 0 1 852.29 381.92" fill="none" stroke="#b8bec7" stroke-width="2"/>
<path d="M 852.29 381.92 A 37.08 37.08 0 0 1 833.75 349.81" fill="none" stroke="#b8bec7" stroke-width="2"/>
<path d="M 833.75 349.81 A 37.08 37.08 0 0 1 852.29 317.69" fill="none" stroke="#b8bec7" stroke-width="2"/>
<path d="M 852.29 317.69 A 37.08 37.08 0 0 1 889.38 317.69" fill="none" stroke="#b8bec7" stroke-width="2"/>
<path d="M 889.38 317.69 A 37.08 37.08 0 0 1 907.92 349.81" fill="none" stroke="#b8bec7" stroke-width="2"/>
<path d="M 203.33 414.04 A 37.08 37.08 0 0 1 184.79 446.15" fill="none" stroke="#b8bec7" stroke-width="2"/>
<path d="M 184.79 446.15 A 37.08 37.08 0 0 1 147.71 446.15" fill="none" stroke="#b8bec7" stroke-width="2"/>
<path d="M 147.71 446.15 A 37.08 37.08 0 0 1 129.17 414.04" fill="none" stroke="#b8bec7" stroke-width="2"/>
<path d="M 129.17 414.04 A 37.08 37.08 0 0 1 147.71 381.92" fill="none" stroke="#b8bec7" stroke-width="2"/>
<path d="M 147.71 381.92 A 37.08 37.08 0 0 1 184.79 381.92" fill="none" stroke="#b8bec7" stroke-width="2"/>
<path d="M 184.79 381.92 A 37.08 37.08 0 0 1 203.33 414.04" fill="none" stroke="#b8bec7" stroke-width="2"/>
<path d="M 277.50 414.04 A 37.08 37.08 0 0 1 258.96 446.15" fill="none" stroke="#b8bec7" stroke-width="2"/>
<path d="M 258.96 446.15 A 37.08 37.08 0 0 1 221.88 446.15" fill="none" stroke="#b8bec7" stroke-width="2"/>
<path d="M 221.88 446.15 A 37.08 37.08 0 0 1 203.33 414.04" fill="none" stroke="#b8bec7" stroke-width="2"/>
<path d="M 203.33 414.04 A 37.08 37.08 0 0 1 221.88 381.92" fill="none" stroke="#b8bec7" stroke-width="2"/>
<path d="M 221.88 381.92 A 37.08 37.08 0 0 1 258.96 381.92" fill="none" stroke="#b8bec7" stroke-width="2"/>
<path d="M 258.96 381.92 A 37.08 37.08 0 0 1 277.50 414.04" fill="none" stroke="#b8bec7" stroke-width="2"/>
<path d="M 351.67 414.04 A 37.08 37.08 0 0 1 333.12 446.15" fill="none" stroke="#b8bec7" stroke-width="2"/>
<path d="M 333.12 446.15 A 37.08 37.08 0 0 1 296.04 446.15" fill="none" stroke="#b8bec7" stroke-width="2"/>
<path d="M 296.04 446.15 A 37.08 37.08 0 0 1 277.50 414.04" fill="none" stroke="#b8bec7" stroke-width="2"/>
<path d="M 277.50 414.04 A 37.08 37.08 0 0 1 296.04 381.92" fill="none" stroke="#b8bec7" stroke-width="2"/>
<path d="M 296.04 381.92 A 37.08 37.08 0 0 1 333.12 381.92" fill="none" stroke="#b8bec7" stroke-width="2"/>
<path d="M 333.12 381.92 A 37.08 37.08 0 0 1 351.67 414.04" fill="none" stroke="#b8bec7" stroke-width="2"/>
<path d="M 425.83 414.04 A 37.08 37.08 0 0 1 407.29 446.15" fill="none" stroke="#b8bec7" stroke-width="2"/>
<path d="M 407.29 446.15 A 37.08 37.08 0 0 1 370.21 446.15" fill="none" stroke="#b8bec7" stroke-width="2"/>
<path d="M 370.21 446.15 A 37.08 37.08 0 0 1 351.67 414.04" fill="none" stroke="#b8bec7" stroke-width="2"/>
<path d="M 351.67 414.04 A 37.08 37.08 0 0 1 370.21 381.92" fill="none" stroke="#b8bec7" stroke-width="2"/>
<path d="M 370.21 381.92 A 37.08 37.08 0 0 1 407.29 381.92" fill="none" stroke="#b8bec7" stroke-width="2"/>
<path d="M 407.29 381.92 A 37.08 37.08 0 0 1 425.83 414.04" fill="none" stroke="#b8bec7" stroke-width="2"/>
<path d="M 500.00 414.04 A 37.08 37.08 0 0 1 481.46 446.15" fill="none" stroke="#b8bec7" stroke-width="2"/>
<path d="M 481.46 446.15 A 37.08 37.08 0 0 1 444.38 446.15" fill="none" stroke="#b8bec7" stroke-width="2"/>
<path d="M 444.38 446.15 A 37.08 37.08 0 0 1 425.83 414.04" fill="none" stroke="#b8bec7" stroke-width="2"/>
<path d="M 425.83 414.04 A 37.08 37.08 0 0 1 444.38 381.92" fill="none" stroke="#b8bec7" stroke-width="2"/>
<path d="M 444.38 381.92 A 37.08 37.08 0 0 1 481.46 381.92" fill="none" stroke="#b8bec7" stroke-width="2"/>
<path d="M 481.46 381.92 A 37.08 37.08 0 0 1 500.00 414.04" fill="none" stroke="#b8bec7" stroke-width="2"/>
<path d="M 574.17 414.04 A 37.08 37.08 0 0 1 555.62 446.15" fill="none" stroke="#b8bec7" stroke-width="2"/>
<path d="M 555.62 446.15 A 37.08 37.08 0 0 1 518.54 446.15" fill="none" stroke="#b8bec7" stroke-width="2"/>
<path d="M 518.54 446.15 A 37.08 37.08 0 0 1 500.00 414.04" fill="none" stroke="#b8bec7" stroke-width="2"/>
<path d="M 500.00 414.04 A 37.08 37.08 0 0 1 518.54 381.92" fill="none" stroke="#b8bec7" stroke-width="2"/>
<path d="M 518.54 381.92 A 37.08 37.08 0 0 1 555.62 381.92" fill="none" stroke="#b8bec7" stroke-width="2"/>
<path d="M 555.62 381.92 A 37.08 37.08 0 0 1 574.17 414.04" fill="none" stroke="#b8bec7" stroke-width="2"/>
<path d="M 648.33 414.04 A 37.08 37.08 0 0 1 629.79 446.15" fill="none" stroke="#b8bec7" stroke-width="2"/>
<path d="M 629.79 446.15 A 37.08 37.08 0 0 1 592.71 446.15" fill="none" stroke="#b8bec7" stroke-width="2"/>
<path d="M 592.71 446.15 A 37.08 37.08 0 0 1 574.17 414.04" fill="none" stroke="#b8bec7" stroke-width="2"/>
<path d="M 574.17 414.04 A 37.08 37.08 0 0 1 592.71 381.92" fill="none" stroke="#b8bec7" stroke-width="2"/>
<path d="M 592.71 381.92 A 37.08 37.08 0 0 1 629.79 381.92" fill="none" stroke="#b8bec7" stroke-width="2"/>
<path d="M 629.79 381.92 A 37.08 37.08 0 0 1 648.33 414.04" fill="none" stroke="#b8bec7" stroke-width="2"/>
<path d="M 722.50 414.04 A 37.08 37.08 0 0 1 703.96 446.15" fill="none" stroke="#b8bec7" stroke-width="2"/>
<path d="M 703.96 446.15 A 37.08 37.08 0 0 1 666.88 446.15" fill="none" stroke="#b8bec7" stroke-width="2"/>
<path d="M 666.88 446.15 A 37.08 37.08 0 0 1 648.33 414.04" fill="none" stroke="#b8bec7" stroke-width="2"/>
<path d="M 648.33 414.04 A 37.08 37.08 0 0 1 666.88 381.92" fill="none" stroke="#b8bec7" stroke-width="2"/>
<path d="M 666.88 381.92 A 37.08 37.08 0 0 1 703.96 381.92" fill="none" stroke="#b8bec7" stroke-width="2"/>
<path d="M 703.96 381.92 A 37.08 37.08 0 0 1 722.50 414.04" fill="none" stroke="#b8bec7" stroke-width="2"/>
<path d="M 796.67 414.04 A 37.08 37.08 0 0 1 778.12 446.15" fill="none" stroke="#b8bec7" stroke-width="2"/>
<path d="M 778.12 446.15 A 37.08 37.08 0 0 1 741.04 446.15" fill="none" stroke="#b8bec7" stroke-width="2"/>
<path d="M 741.04 446.15 A 37.08 37.08 0 0 1 722.50 414.04" fill="none" stroke="#b8bec7" stroke-width="2"/>
<path d="M 722.50 414.04 A 37.08 37.08 0 0 1 741.04 381.92" fill="none" stroke="#b8bec7" stroke-width="2"/>
<path d="M 741.04 381.92 A 37.08 37.08 0 0 1 778.12 381.92" fill="none" stroke="#b8bec7" stroke-width="2"/>
<path d="M 778.12 381.92 A 37.08 37.08 0 0 1 796.67 414.04" fill="none" stroke="#b8bec7" stroke-width="2"/>
<path d="M 870.83 414.04 A 37.08 37.08 0 0 1 852.29 446.15" fill="none" stroke="#b8bec7" stroke-width="2"/>
<path d="M 852.29 446.15 A 37.08 37.08 0 0 1 815.21 446.15" fill="none" stroke="#b8bec7" stroke-width="2"/>
<path d="M 815.21 446.15 A 37.08 37.08 0 0 1 796.67 414.04" fill="none" stroke="#b8bec7" stroke-width="2"/>
<path d="M 796.67 414.04 A 37.08 37.08 0 0 1 815.21 381.92" fill="none" stroke="#b8bec7" stroke-width="2"/>
<path d="M 815.21 381.92 A 37.08 37.08 0 0 1 852.29 381.92" fill="none" stroke="#b8bec7" stroke-width="2"/>
<path d="M 852.29 381.92 A 37.08 37.08 0 0 1 870.83 414.04" fill="none" stroke="#b8bec7" stroke-width="2"/>
<path d="M 166.25 478.27 A 37.08 37.08 0 0 1 147.71 510.38" fill="none" stroke="#b8bec7" stroke-width="2"/>
<path d="M 147.71 510.38 A 37.08 37.08 0 0 1 110.63 510.38" fill="none" stroke="#b8bec7" stroke-width="2"/>
<path d="M 110.63 510.38 A 37.08 37.08 0 0 1 92.08 478.27" fill="none" stroke="#b8bec7" stroke-width="2"/>
<path d="M 92.08 478.27 A 37.08 37.08 0 0 1 110.62 446.15" fill="none" stroke="#b8bec7" stroke-width="2"/>
<path d="M 110.62 446.15 A 37.08 37.08 0 0 1 147.71 446.15" fill="none" stroke="#b8bec7" stroke-width="2"/>
<path d="M 147.71 446.15 A 37.08 37.08 0 0 1 166.25 478.27" fill="none" stroke="#b8bec7" stroke-width="2"/>
<path d="M 240.42 478.27 A 37.08 37.08 0 0 1 221.88 510.38" fill="none" stroke="#b8bec7" stroke-width="2"/>
<path d="M 221.88 510.38 A 37.08 37.08 0 0 1 184.79 510.38" fill="none" stroke="#b8bec7" stroke-width="2"/>
<path d="M 184.79 510.38 A 37.08 37.08 0 0 1 166.25 478.27" fill="none" stroke="#b8bec7" stroke-width="2"/>
<path d="M 166.25 478.27 A 37.08 37.08 0 0 1 184.79 446.15" fill="none" stroke="#b8bec7" stroke-width="2"/>
<path d="M 184.79 446.15 A 37.08 37.08 0 0 1 221.88 446.15" fill="none" stroke="#b8bec7" stroke-width="2"/>
<path d="M 221.88 446.15 A 37.08 37.08 0 0 1 240.42 478.27" fill="none" stroke="#b8bec7" stroke-width="2"/>
<path d="M 314.58 478.27 A 37.08 37.08 0 0 1 296.04 510.38" fill="none" stroke="#b8bec7" stroke-width="2"/>
<path d="M 296.04 510.38 A 37.08 37.08 0 0 1 258.96 510.38" fill="none" stroke="#b8bec7" stroke-width="2"/>
<path d="M 258.96 510.38 A 37.08 37.08 0 0 1 240.42 478.27" fill="none" stroke="#b8bec7" stroke-width="2"/>
<path d="M 240.42 478.27 A 37.08 37.08 0 0 1 258.96 446.15" fill="none" stroke="#b8bec7" stroke-width="2"/>
<path d="M 258.96 446.15 A 37.08 37.08 0 0 1 296.04 446.15" fill="none" stroke="#b8bec7" stroke-width="2"/>
<path d="M 296.04 446.15 A 37.08 37.08 0 0 1 314.58 478.27" fill="none" stroke="#b8bec7" stroke-width="2"/>
<path d="M 388.75 478.27 A 37.08 37.08 0 0 1 370.21 510.38" fill="none" stroke="#b8bec7" stroke-width="2"/>
<path d="M 370.21 510.38 A 37.08 37.08 0 0 1 333.12 510.38" fill="none" stroke="#b8bec7" stroke-width="2"/>
<path d="M 333.12 510.38 A 37.08 37.08 0 0 1 314.58 478.27" fill="none" stroke="#b8bec7" stroke-width="2"/>
<path d="M 314.58 478.27 A 37.08 37.08 0 0 1 333.12 446.15" fill="none" stroke="#b8bec7" stroke-width="2"/>
<path d="M 333.12 446.15 A 37.08 37.08 0 0 1 370.21 446.15" fill="none" stroke="#b8bec7" stroke-width="2"/>
<path d="M 370.21 446.15 A 37.08 37.08 0 0 1 388.75 478.27" fill="none" stroke="#b8bec7" stroke-width="2"/>
<path d="M 462.92 478.27 A 37.08 37.08 0 0 1 444.38 510.38" fill="none" stroke="#b8bec7" stroke-width="2"/>
<path d="M 444.38 510.38 A 37.08 37.08 0 0 1 407.29 510.38" fill="none" stroke="#b8bec7" stroke-width="2"/>
<path d="M 407.29 510.38 A 37.08 37.08 0 0 1 388.75 478.27" fill="none" stroke="#b8bec7" stroke-width="2"/>
<path d="M 388.75 478.27 A 37.08 37.08 0 0 1 407.29 446.15" fill="none" stroke="#b8bec7" stroke-width="2"/>
<path d="M 407.29 446.15 A 37.08 37.08 0 0 1 444.38 446.15" fill="none" stroke="#b8bec7" stroke-width="2"/>
<path d="M 444.38 446.15 A 37.08 37.08 0 0 1 462.92 478.27" fill="none" stroke="#b8bec7" stroke-width="2"/>
<path d="M 537.08 478.27 A 37.08 37.08 0 0 1 518.54 510.38" fill="none" stroke="#b8bec7" stroke-width="2"/>
<path d="M 518.54 510.38 A 37.08 37.08 0 0 1 481.46 510.38" fill="none" stroke="#b8bec7" stroke-width="2"/>
<path d="M 481.46 510.38 A 37.08 37.08 0 0 1 462.92 478.27" fill="none" stroke="#b8bec7" stroke-width="2"/>
<path d="M 462.92 478.27 A 37.08 37.08 0 0 1 481.46 446.15" fill="none" stroke="#b8bec7" stroke-width="2"/>
<path d="M 481.46 446.15 A 37.08 37.08 0 0 1 518.54 446.15" fill="none" stroke="#b8bec7" stroke-width="2"/>
<path d="M 518.54 446.15 A 37.08 37.08 0 0 1 537.08 478.27" fill="none" stroke="#b8bec7" stroke-width="2"/>
<path d="M 611.25 478.27 A 37.08 37.08 0 0 1 592.71 510.38" fill="none" stroke="#b8bec7" stroke-width="2"/>
<path d="M 592.71 510.38 A 37.08 37.08 0 0 1 555.62 510.38" fill="none" stroke="#b8bec7" stroke-width="2"/>
<path d="M 555.62 510.38 A 37.08 37.08 0 0 1 537.08 478.27" fill="none" stroke="#b8bec7" stroke-width="2"/>
<path d="M 537.08 478.27 A 37.08 37.08 0 0 1 555.62 446.15" fill="none" stroke="#b8bec7" stroke-width="2"/>
<path d="M 555.62 446.15 A 37.08 37.08 0 0 1 592.71 446.15" fill="none" stroke="#b8bec7" stroke-width="2"/>
<path d="M 592.71 446.15 A 37.08 37.08 0 0 1 611.25 478.27" fill="none" stroke="#b8bec7" stroke-width="2"/>
<path d="M 685.42 478.27 A 37.08 37.08 0 0 1 666.88 510.38" fill="none" stroke="#b8bec7" stroke-width="2"/>
<path d="M 666.88 510.38 A 37.08 37.08 0 0 1 629.79 510.38" fill="none" stroke="#b8bec7" stroke-width="2"/>
<path d="M 629.79 510.38 A 37.08 37.08 0 0 1 611.25 478.27" fill="none" stroke="#b8bec7" stroke-width="2"/>
<path d="M 611.25 478.27 A 37.08 37.08 0 0 1 629.79 446.15" fill="none" stroke="#b8bec7" stroke-width="2"/>
<path d="M 629.79 446.15 A 37.08 37.08 0 0 1 666.88 446.15" fill="none" stroke="#b8bec7" stroke-width="2"/>
<path d="M 666.88 446.15 A 37.08 37.08 0 0 1 685.42 478.27" fill="none" stroke="#b8bec7" stroke-width="2"/>
<path d="M 759.58 478.27 A 37.08 37.08 0 0 1 741.04 510.38" fill="none" stroke="#b8bec7" stroke-width="2"/>
<path d="M 741.04 510.38 A 37.08 37.08 0 0 1 703.96 510.38" fill="none" stroke="#b8bec7" stroke-width="2"/>
<path d="M 703.96 510.38 A 37.08 37.08 0 0 1 685.42 478.27" fill="none" stroke="#b8bec7" stroke-width="2"/>
<path d="M 685.42 478.27 A 37.08 37.08 0 0 1 703.96 446.15" fill="none" stroke="#b8bec7" stroke-width="2"/>
<path d="M 703.96 446.15 A 37.08 37.08 0 0 1 741.04 446.15" fill="none" stroke="#b8bec7" stroke-width="2"/>
<path d="M 741.04 446.15 A 37.08 37.08 0 0 1 759.58 478.27" fill="none" stroke="#b8bec7" stroke-width="2"/>
<path d="M 833.75 478.27 A 37.08 37.08 0 0 1 815.21 510.38" fill="none" stroke="#b8bec7" stroke-width="2"/>
<path d="M 815.21 510.38 A 37.08 37.08 0 0 1 778.12 510.38" fill="none" stroke="#b8bec7" stroke-width="2"/>
<path d="M 778.12 510.38 A 37.08 37.08 0 0 1 759.58 478.27" fill="none" stroke="#b8bec7" stroke-width="2"/>
<path d="M 759.58 478.27 A 37.08 37.08 0 0 1 778.12 446.15" fill="none" stroke="#b8bec7" stroke-width="2"/>
<path d="M 778.12 446.15 A 37.08 37.08 0 0 1 815.21 446.15" fill="none" stroke="#b8bec7" stroke-width="2"/>
<path d="M 815.21 446.15 A 37.08 37.08 0 0 1 833.75 478.27" fill="none" stroke="#b8bec7" stroke-width="2"/>
<path d="M 907.92 478.27 A 37.08 37.08 0 0 1 889.38 510.38" fill="none" stroke="#b8bec7" stroke-width="2"/>
<path d="M 889.38 510.38 A 37.08 37.08 0 0 1 852.29 510.38" fill="none" stroke="#b8bec7" stroke-width="2"/>
<path d="M 852.29 510.38 A 37.08 37.08 0 0 1 833.75 478.27" fill="none" stroke="#b8bec7" stroke-width="2"/>
<path d="M 833.75 478.27 A 37.08 37.08 0 0 1 852.29 446.15" fill="none" stroke="#b8bec7" stroke-width="2"/>
<path d="M 852.29 446.15 A 37.08 37.08 0 0 1 889.38 446.15" fill="none" stroke="#b8bec7" stroke-width="2"/>
<path d="M 889.38 446.15 A 37.08 37.08 0 0 1 907.92 478.27" fill="none" stroke="#b8bec7" stroke-width="2"/>
<path d="M 129.17 542.50 A 37.08 37.08 0 0 1 110.62 574.61" fill="none" stroke="#b8bec7" stroke-width="2"/>
<path d="M 110.62 574.61 A 37.08 37.08 0 0 1 73.54 574.61" fill="none" stroke="#b8bec7" stroke-width="2"/>
<path d="M 73.54 574.61 A 37.08 37.08 0 0 1 55.00 542.50" fill="none" stroke="#b8bec7" stroke-width="2"/>
<path d="M 55.00 542.50 A 37.08 37.08 0 0 1 73.54 510.38" fill="none" stroke="#b8bec7" stroke-width="2"/>
<path d="M 73.54 510.38 A 37.08 37.08 0 0 1 110.63 510.38" fill="none" stroke="#b8bec7" stroke-width="2"/>
<path d="M 110.63 510.38 A 37.08 37.08 0 0 1 129.17 542.50" fill="none" stroke="#b8bec7" stroke-width="2"/>
<path d="M 203.33 542.50 A 37.08 37.08 0 0 1 184.79 574.61" fill="none" stroke="#b8bec7" stroke-width="2"/>
<path d="M 184.79 574.61 A 37.08 37.08 0 0 1 147.71 574.61" fill="none" stroke="#b8bec7" stroke-width="2"/>
<path d="M 147.71 574.61 A 37.08 37.08 0 0 1 129.17 542.50" fill="none" stroke="#b8bec7" stroke-width="2"/>
<path d="M 129.17 542.50 A 37.08 37.08 0 0 1 147.71 510.38" fill="none" stroke="#b8bec7" stroke-width="2"/>
<path d="M 147.71 510.38 A 37.08 37.08 0 0 1 184.79 510.38" fill="none" stroke="#b8bec7" stroke-width="2"/>
<path d="M 184.79 510.38 A 37.08 37.08 0 0 1 203.33 542.50" fill="none" stroke="#b8bec7" stroke-width="2"/>
<path d="M 277.50 542.50 A 37.08 37.08 0 0 1 258.96 574.61" fill="none" stroke="#b8bec7" stroke-width="2"/>
<path d="M 258.96 574.61 A 37.08 37.08 0 0 1 221.88 574.61" fill="none" stroke="#b8bec7" stroke-width="2"/>
<path d="M 221.88 574.61 A 37.08 37.08 0 0 1 203.33 542.50" fill="none" stroke="#b8bec7" stroke-width="2"/>
<path d="M 203.33 542.50 A 37.08 37.08 0 0 1 221.88 510.38" fill="none" stroke="#b8bec7" stroke-width="2"/>
<path d="M 221.88 510.38 A 37.08 37.08 0 0 1 258.96 510.38" fill="none" stroke="#b8bec7" stroke-width="2"/>
<path d="M 258.96 510.38 A 37.08 37.08 0 0 1 277.50 542.50" fill="none" stroke="#b8bec7" stroke-width="2"/>
<path d="M 351.67 542.50 A 37.08 37.08 0 0 1 333.12 574.61" fill="none" stroke="#b8bec7" stroke-width="2"/>
<path d="M 333.12 574.61 A 37.08 37.08 0 0 1 296.04 574.61" fill="none" stroke="#b8bec7" stroke-width="2"/>
<path d="M 296.04 574.61 A 37.08 37.08 0 0 1 277.50 542.50" fill="none" stroke="#b8bec7" stroke-width="2"/>
<path d="M 277.50 542.50 A 37.08 37.08 0 0 1 296.04 510.38" fill="none" stroke="#b8bec7" stroke-width="2"/>
<path d="M 296.04 510.38 A 37.08 37.08 0 0 1 333.12 510.38" fill="none" stroke="#b8bec7" stroke-width="2"/>
<path d="M 333.12 510.38 A 37.08 37.08 0 0 1 351.67 542.50" fill="none" stroke="#b8bec7" stroke-width="2"/>
<path d="M 425.83 542.50 A 37.08 37.08 0 0 1 407.29 574.61" fill="none" stroke="#b8bec7" stroke-width="2"/>
<path d="M 407.29 574.61 A 37.08 37.08 0 0 1 370.21 574.61" fill="none" stroke="#b8bec7" stroke-width="2"/>
<path d="M 370.21 574.61 A 37.08 37.08 0 0 1 351.67 542.50" fill="none" stroke="#b8bec7" stroke-width="2"/>
<path d="M 351.67 542.50 A 37.08 37.08 0 0 1 370.21 510.38" fill="none" stroke="#b8bec7" stroke-width="2"/>
<path d="M 370.21 510.38 A 37.08 37.08 0 0 1 407.29 510.38" fill="none" stroke="#b8bec7" stroke-width="2"/>
<path d="M 407.29 510.38 A 37.08 37.08 0 0 1 425.83 542.50" fill="none" stroke="#b8bec7" stroke-width="2"/>
<path d="M 500.00 542.50 A 37.08 37.08 0 0 1 481.46 574.61" fill="none" stroke="#b8bec7" stroke-width="2"/>
<path d="M 481.46 574.61 A 37.08 37.08 0 0 1 444.38 574.61" fill="none" stroke="#b8bec7" stroke-width="2"/>
<path d="M 444.38 574.61 A 37.08 37.08 0 0 1 425.83 542.50" fill="none" stroke="#b8bec7" stroke-width="2"/>
<path d="M 425.83 542.50 A 37.08 37.08 0 0 1 444.38 510.38" fill="none" stroke="#b8bec7" stroke-width="2"/>
<path d="M 444.38 510.38 A 37.08 37.08 0 0 1 481.46 510.38" fill="none" stroke="#b8bec7" stroke-width="2"/>
<path d="M 481.46 510.38 A 37.08 37.08 0 0 1 500.00 542.50" fill="none" stroke="#b8bec7" stroke-width="2"/>
<path d="M 574.17 542.50 A 37.08 37.08 0 0 1 555.62 574.61" fill="none" stroke="#b8bec7" stroke-width="2"/>
<path d="M 555.62 574.61 A 37.08 37.08 0 0 1 518.54 574.61" fill="none" stroke="#b8bec7" stroke-width="2"/>
<path d="M 518.54 574.61 A 37.08 37.08 0 0 1 500.00 542.50" fill="none" stroke="#b8bec7" stroke-width="2"/>
<path d="M 500.00 542.50 A 37.08 37.08 0 0 1 518.54 510.38" fill="none" stroke="#b8bec7" stroke-width="2"/>
<path d="M 518.54 510.38 A 37.08 37.08 0 0 1 555.62 510.38" fill="none" stroke="#b8bec7" stroke-width="2"/>
<path d="M 555.62 510.38 A 37.08 37.08 0 0 1 574.17 542.50" fill="none" stroke="#b8bec7" stroke-width="2"/>
<path d="M 648.33 542.50 A 37.08 37.08 0 0 1 629.79 574.61" fill="none" stroke="#b8bec7" stroke-width="2"/>
<path d="M 629.79 574.61 A 37.08 37.08 0 0 1 592.71 574.61" fill="none" stroke="#b8bec7" stroke-width="2"/>
<path d="M 592.71 574.61 A 37.08 37.08 0 0 1 574.17 542.50" fill="none" stroke="#b8bec7" stroke-width="2"/>
<path d="M 574.17 542.50 A 37.08 37.08 0 0 1 592.71 510.38" fill="none" stroke="#b8bec7" stroke-width="2"/>
<path d="M 592.71 510.38 A 37.08 37.08 0 0 1 629.79 510.38" fill="none" stroke="#b8bec7" stroke-width="2"/>
<path d="M 629.79 510.38 A 37.08 37.08 0 0 1 648.33 542.50" fill="none" stroke="#b8bec7" stroke-width="2"/>
<path d="M 722.50 542.50 A 37.08 37.08 0 0 1 703.96 574.61" fill="none" stroke="#b8bec7" stroke-width="2"/>
<path d="M 703.96 574.61 A 37.08 37.08 0 0 1 666.88 574.61" fill="none" stroke="#b8bec7" stroke-width="2"/>
<path d="M 666.88 574.61 A 37.08 37.08 0 0 1 648.33 542.50" fill="none" stroke="#b8bec7" stroke-width="2"/>
<path d="M 648.33 542.50 A 37.08 37.08 0 0 1 666.88 510.38" fill="none" stroke="#b8bec7" stroke-width="2"/>
<path d="M 666.88 510.38 A 37.08 37.08 0 0 1 703.96 510.38" fill="none" stroke="#b8bec7" stroke-width="2"/>
<path d="M 703.96 510.38 A 37.08 37.08 0 0 1 722.50 542.50" fill="none" stroke="#b8bec7" stroke-width="2"/>
<path d="M 796.67 542.50 A 37.08 37.08 0 0 1 778.12 574.61" fill="none" stroke="#b8bec7" stroke-width="2"/>
<path d="M 778.12 574.61 A 37.08 37.08 0 0 1 741.04 574.61" fill="none" stroke="#b8bec7" stroke-width="2"/>
<path d="M 741.04 574.61 A 37.08 37.08 0 0 1 722.50 542.50" fill="none" stroke="#b8bec7" stroke-width="2"/>
<path d="M 722.50 542.50 A 37.08 37.08 0 0 1 741.04 510.38" fill="none" stroke="#b8bec7" stroke-width="2"/>
<path d="M 741.04 510.38 A 37.08 37.08 0 0 1 778.12 510.38" fill="none" stroke="#b8bec7" stroke-width="2"/>
<path d="M 778.12 510.38 A 37.08 37.08 0 0 1 796.67 542.50" fill="none" stroke="#b8bec7" stroke-width="2"/>
<path d="M 870.83 542.50 A 37.08 37.08 0 0 1 852.29 574.61" fill="none" stroke="#b8bec7" stroke-width="2"/>
<path d="M 852.29 574.61 A 37.08 37.08 0 0 1 815.21 574.61" fill="none" stroke="#b8bec7" stroke-width="2"/>
<path d="M 815.21 574.61 A 37.08 37.08 0 0 1 796.67 542.50" fill="none" stroke="#b8bec7" stroke-width="2"/>
<path d="M 796.67 542.50 A 37.08 37.08 0 0 1 815.21 510.38" fill="none" stroke="#b8bec7" stroke-width="2"/>
<path d="M 815.21 510.38 A 37.08 37.08 0 0 1 852.29 510.38" fill="none" stroke="#b8bec7" stroke-width="2"/>
<path d="M 852.29 510.38 A 37.08 37.08 0 0 1 870.83 542.50" fill="none" stroke="#b8bec7" stroke-width="2"/>
<path d="M 945.00 542.50 A 37.08 37.08 0 0 1 926.46 574.61" fill="none" stroke="#b8bec7" stroke-width="2"/>
<path d="M 926.46 574.61 A 37.08 37.08 0 0 1 889.38 574.61" fill="none" stroke="#b8bec7" stroke-width="2"/>
<path d="M 889.38 574.61 A 37.08 37.08 0 0 1 870.83 542.50" fill="none" stroke="#b8bec7" stroke-width="2"/>
<path d="M 870.83 542.50 A 37.08 37.08 0 0 1 889.38 510.38" fill="none" stroke="#b8bec7" stroke-width="2"/>
<path d="M 889.38 510.38 A 37.08 37.08 0 0 1 926.46 510.38" fill="none" stroke="#b8bec7" stroke-width="2"/>
<path d="M 926.46 510.38 A 37.08 37.08 0 0 1 945.00 542.50" fill="none" stroke="#b8bec7" stroke-width="2"/>
<path d="M 166.25 606.73 A 37.08 37.08 0 0 1 147.71 638.84" fill="none" stroke="#b8bec7" stroke-width="2"/>
<path d="M 147.71 638.84 A 37.08 37.08 0 0 1 110.63 638.84" fill="none" stroke="#b8bec7" stroke-width="2"/>
<path d="M 110.63 638.84 A 37.08 37.08 0 0 1 92.08 606.73" fill="none" stroke="#b8bec7" stroke-width="2"/>
<path d="M 92.08 606.73 A 37.08 37.08 0 0 1 110.62 574.61" fill="none" stroke="#b8bec7" stroke-width="2"/>
<path d="M 110.62 574.61 A 37.08 37.08 0 0 1 147.71 574.61" fill="none" stroke="#b8bec7" stroke-width="2"/>
<path d="M 147.71 574.61 A 37.08 37.08 0 0 1 166.25 606.73" fill="none" stroke="#b8bec7" stroke-width="2"/>
<path d="M 240.42 606.73 A 37.08 37.08 0 0 1 221.88 638.84" fill="none" stroke="#b8bec7" stroke-width="2"/>
<path d="M 221.88 638.84 A 37.08 37.08 0 0 1 184.79 638.84" fill="none" stroke="#b8bec7" stroke-width="2"/>
<path d="M 184.79 638.84 A 37.08 37.08 0 0 1 166.25 606.73" fill="none" stroke="#b8bec7" stroke-width="2"/>
<path d="M 166.25 606.73 A 37.08 37.08 0 0 1 184.79 574.61" fill="none" stroke="#b8bec7" stroke-width="2"/>
<path d="M 184.79 574.61 A 37.08 37.08 0 0 1 221.88 574.61" fill="none" stroke="#b8bec7" stroke-width="2"/>
<path d="M 221.88 574.61 A 37.08 37.08 0 0 1 240.42 606.73" fill="none" stroke="#b8bec7" stroke-width="2"/>
<path d="M 314.58 606.73 A 37.08 37.08 0 0 1 296.04 638.84" fill="none" stroke="#b8bec7" stroke-width="2"/>
<path d="M 296.04 638.84 A 37.08 37.08 0 0 1 258.96 638.84" fill="none" stroke="#b8bec7" stroke-width="2"/>
<path d="M 258.96 638.84 A 37.08 37.08 0 0 1 240.42 606.73" fill="none" stroke="#b8bec7" stroke-width="2"/>
<path d="M 240.42 606.73 A 37.08 37.08 0 0 1 258.96 574.61" fill="none" stroke="#b8bec7" stroke-width="2"/>
<path d="M 258.96 574.61 A 37.08 37.08 0 0 1 296.04 574.61" fill="none" stroke="#b8bec7" stroke-width="2"/>
<path d="M 296.04 574.61 A 37.08 37.08 0 0 1 314.58 606.73" fill="none" stroke="#b8bec7" stroke-width="2"/>
<path d="M 388.75 606.73 A 37.08 37.08 0 0 1 370.21 638.84" fill="none" stroke="#b8bec7" stroke-width="2"/>
<path d="M 370.21 638.84 A 37.08 37.08 0 0 1 333.12 638.84" fill="none" stroke="#b8bec7" stroke-width="2"/>
<path d="M 333.12 638.84 A 37.08 37.08 0 0 1 314.58 606.73" fill="none" stroke="#b8bec7" stroke-width="2"/>
<path d="M 314.58 606.73 A 37.08 37.08 0 0 1 333.12 574.61" fill="none" stroke="#b8bec7" stroke-width="2"/>
<path d="M 333.12 574.61 A 37.08 37.08 0 0 1 370.21 574.61" fill="none" stroke="#b8bec7" stroke-width="2"/>
<path d="M 370.21 574.61 A 37.08 37.08 0 0 1 388.75 606.73" fill="none" stroke="#b8bec7" stroke-width="2"/>
<path d="M 462.92 606.73 A 37.08 37.08 0 0 1 444.38 638.84" fill="none" stroke="#b8bec7" stroke-width="2"/>
<path d="M 444.38 638.84 A 37.08 37.08 0 0 1 407.29 638.84" fill="none" stroke="#b8bec7" stroke-width="2"/>
<path d="M 407.29 638.84 A 37.08 37.08 0 0 1 388.75 606.73" fill="none" stroke="#b8bec7" stroke-width="2"/>
<path d="M 388.75 606.73 A 37.08 37.08 0 0 1 407.29 574.61" fill="none" stroke="#b8bec7" stroke-width="2"/>
<path d="M 407.29 574.61 A 37.08 37.08 0 0 1 444.38 574.61" fill="none" stroke="#b8bec7" stroke-width="2"/>
<path d="M 444.38 574.61 A 37.08 37.08 0 0 1 462.92 606.73" fill="none" stroke="#b8bec7" stroke-width="2"/>
<path d="M 537.08 606.73 A 37.08 37.08 0 0 1 518.54 638.84" fill="none" stroke="#b8bec7" stroke-width="2"/>
<path d="M 518.54 638.84 A 37.08 37.08 0 0 1 481.46 638.84" fill="none" stroke="#b8bec7" stroke-width="2"/>
<path d="M 481.46 638.84 A 37.08 37.08 0 0 1 462.92 606.73" fill="none" stroke="#b8bec7" stroke-width="2"/>
<path d="M 462.92 606.73 A 37.08 37.08 0 0 1 481.46 574.61" fill="none" stroke="#b8bec7" stroke-width="2"/>
<path d="M 481.46 574.61 A 37.08 37.08 0 0 1 518.54 574.61" fill="none" stroke="#b8bec7" stroke-width="2"/>
<path d="M 518.54 574.61 A 37.08 37.08 0 0 1 537.08 606.73" fill="none" stroke="#b8bec7" stroke-width="2"/>
<path d="M 611.25 606.73 A 37.08 37.08 0 0 1 592.71 638.84" fill="none" stroke="#b8bec7" stroke-width="2"/>
<path d="M 592.71 638.84 A 37.08 37.08 0 0 1 555.62 638.84" fill="none" stroke="#b8bec7" stroke-width="2"/>
<path d="M 555.62 638.84 A 37.08 37.08 0 0 1 537.08 606.73" fill="none" stroke="#b8bec7" stroke-width="2"/>
<path d="M 537.08 606.73 A 37.08 37.08 0 0 1 555.62 574.61" fill="none" stroke="#b8bec7" stroke-width="2"/>
<path d="M 555.62 574.61 A 37.08 37.08 0 0 1 592.71 574.61" fill="none" stroke="#b8bec7" stroke-width="2"/>
<path d="M 592.71 574.61 A 37.08 37.08 0 0 1 611.25 606.73" fill="none" stroke="#b8bec7" stroke-width="2"/>
<path d="M 685.42 606.73 A 37.08 37.08 0 0 1 666.88 638.84" fill="none" stroke="#b8bec7" stroke-width="2"/>
<path d="M 666.88 638.84 A 37.08 37.08 0 0 1 629.79 638.84" fill="none" stroke="#b8bec7" stroke-width="2"/>
<path d="M 629.79 638.84 A 37.08 37.08 0 0 1 611.25 606.73" fill="none" stroke="#b8bec7" stroke-width="2"/>
<path d="M 611.25 606.73 A 37.08 37.08 0 0 1 629.79 574.61" fill="none" stroke="#b8bec7" stroke-width="2"/>
<path d="M 629.79 574.61 A 37.08 37.08 0 0 1 666.88 574.61" fill="none" stroke="#b8bec7" stroke-width="2"/>
<path d="M 666.88 574.61 A 37.08 37.08 0 0 1 685.42 606.73" fill="none" stroke="#b8bec7" stroke-width="2"/>
<path d="M 759.58 606.73 A 37.08 37.08 0 0 1 741.04 638.84" fill="none" stroke="#b8bec7" stroke-width="2"/>
<path d="M 741.04 638.84 A 37.08 37.08 0 0 1 703.96 638.84" fill="none" stroke="#b8bec7" stroke-width="2"/>
<path d="M 703.96 638.84 A 37.08 37.08 0 0 1 685.42 606.73" fill="none" stroke="#b8bec7" stroke-width="2"/>
<path d="M 685.42 606.73 A 37.08 37.08 0 0 1 703.96 574.61" fill="none" stroke="#b8bec7" stroke-width="2"/>
<path d="M 703.96 574.61 A 37.08 37.08 0 0 1 741.04 574.61" fill="none" stroke="#b8bec7" stroke-width="2"/>
<path d="M 741.04 574.61 A 37.08 37.08 0 0 1 759.58 606.73" fill="none" stroke="#b8bec7" stroke-width="2"/>
<path d="M 833.75 606.73 A 37.08 37.08 0 0 1 815.21 638.84" fill="none" stroke="#b8bec7" stroke-width="2"/>
<path d="M 815.21 638.84 A 37.08 37.08 0 0 1 778.12 638.84" fill="none" stroke="#b8bec7" stroke-width="2"/>
<path d="M 778.12 638.84 A 37.08 37.08 0 0 1 759.58 606.73" fill="none" stroke="#b8bec7" stroke-width="2"/>
<path d="M 759.58 606.73 A 37.08 37.08 0 0 1 778.12 574.61" fill="none" stroke="#b8bec7" stroke-width="2"/>
<path d="M 778.12 574.61 A 37.08 37.08 0 0 1 815.21 574.61" fill="none" stroke="#b8bec7" stroke-width="2"/>
<path d="M 815.21 574.61 A 37.08 37.08 0 0 1 833.75 606.73" fill="none" stroke="#b8bec7" stroke-width="2"/>
<path d="M 907.92 606.73 A 37.08 37.08 0 0 1 889.38 638.84" fill="none" stroke="#b8bec7" stroke-width="2"/>
<path d="M 889.38 638.84 A 37.08 37.08 0 0 1 852.29 638.84" fill="none" stroke="#b8bec7" stroke-width="2"/>
<path d="M 852.29 638.84 A 37.08 37.08 0 0 1 833.75 606.73" fill="none" stroke="#b8bec7" stroke-width="2"/>
<path d="M 833.75 606.73 A 37.08 37.08 0 0 1 852.29 574.61" fill="none" stroke="#b8bec7" stroke-width="2"/>
<path d="M 852.29 574.61 A 37.08 37.08 0 0 1 889.38 574.61" fill="none" stroke="#b8bec7" stroke-width="2"/>
<path d="M 889.38 574.61 A 37.08 37.08 0 0 1 907.92 606.73" fill="none" stroke="#b8bec7" stroke-width="2"/>
<path d="M 203.33 670.96 A 37.08 37.08 0 0 1 184.79 703.07" fill="none" stroke="#b8bec7" stroke-width="2"/>
<path d="M 184.79 703.07 A 37.08 37.08 0 0 1 147.71 703.07" fill="none" stroke="#b8bec7" stroke-width="2"/>
<path d="M 147.71 703.07 A 37.08 37.08 0 0 1 129.17 670.96" fill="none" stroke="#b8bec7" stroke-width="2"/>
<path d="M 129.17 670.96 A 37.08 37.08 0 0 1 147.71 638.84" fill="none" stroke="#b8bec7" stroke-width="2"/>
<path d="M 147.71 638.84 A 37.08 37.08 0 0 1 184.79 638.84" fill="none" stroke="#b8bec7" stroke-width="2"/>
<path d="M 184.79 638.84 A 37.08 37.08 0 0 1 203.33 670.96" fill="none" stroke="#b8bec7" stroke-width="2"/>
<path d="M 277.50 670.96 A 37.08 37.08 0 0 1 258.96 703.07" fill="none" stroke="#b8bec7" stroke-width="2"/>
<path d="M 258.96 703.07 A 37.08 37.08 0 0 1 221.88 703.07" fill="none" stroke="#b8bec7" stroke-width="2"/>
<path d="M 221.88 703.07 A 37.08 37.08 0 0 1 203.33 670.96" fill="none" stroke="#b8bec7" stroke-width="2"/>
<path d="M 203.33 670.96 A 37.08 37.08 0 0 1 221.88 638.84" fill="none" stroke="#b8bec7" stroke-width="2"/>
<path d="M 221.88 638.84 A 37.08 37.08 0 0 1 258.96 638.84" fill="none" stroke="#b8bec7" stroke-width="2"/>
<path d="M 258.96 638.84 A 37.08 37.08 0 0 1 277.50 670.96" fill="none" stroke="#b8bec7" stroke-width="2"/>
<path d="M 351.67 670.96 A 37.08 37.08 0 0 1 333.12 703.07" fill="none" stroke="#b8bec7" stroke-width="2"/>
<path d="M 333.12 703.07 A 37.08 37.08 0 0 1 296.04 703.07" fill="none" stroke="#b8bec7" stroke-width="2"/>
<path d="M 296.04 703.07 A 37.08 37.08 0 0 1 277.50 670.96" fill="none" stroke="#b8bec7" stroke-width="2"/>
<path d="M 277.50 670.96 A 37.08 37.08 0 0 1 296.04 638.84" fill="none" stroke="#b8bec7" stroke-width="2"/>
<path d="M 296.04 638.84 A 37.08 37.08 0 0 1 333.12 638.84" fill="none" stroke="#b8bec7" stroke-width="2"/>
<path d="M 333.12 638.84 A 37.08 37.08 0 0 1 351.67 670.96" fill="none" stroke="#b8bec7" stroke-width="2"/>
<path d="M 425.83 670.96 A 37.08 37.08 0 0 1 407.29 703.07" fill="none" stroke="#b8bec7" stroke-width="2"/>
<path d="M 407.29 703.07 A 37.08 37.08 0 0 1 370.21 703.07" fill="none" stroke="#b8bec7" stroke-width="2"/>
<path d="M 370.21 703.07 A 37.08 37.08 0 0 1 351.67 670.96" fill="none" stroke="#b8bec7" stroke-width="2"/>
<path d="M 351.67 670.96 A 37.08 37.08 0 0 1 370.21 638.84" fill="none" stroke="#b8bec7" stroke-width="2"/>
<path d="M 370.21 638.84 A 37.08 37.08 0 0 1 407.29 638.84" fill="none" stroke="#b8bec7" stroke-width="2"/>
<path d="M 407.29 638.84 A 37.08 37.08 0 0 1 425.83 670.96" fill="none" stroke="#b8bec7" stroke-width="2"/>
<path d="M 500.00 670.96 A 37.08 37.08 0 0 1 481.46 703.07" fill="none" stroke="#b8bec7" stroke-width="2"/>
<path d="M 481.46 703.07 A 37.08 37.08 0 0 1 444.38 703.07" fill="none" stroke="#b8bec7" stroke-width="2"/>
<path d="M 444.38 703.07 A 37.08 37.08 0 0 1 425.83 670.96" fill="none" stroke="#b8bec7" stroke-width="2"/>
<path d="M 425.83 670.96 A 37.08 37.08 0 0 1 444.38 638.84" fill="none" stroke="#b8bec7" stroke-width="2"/>
<path d="M 444.38 638.84 A 37.08 37.08 0 0 1 481.46 638.84" fill="none" stroke="#b8bec7" stroke-width="2"/>
<path d="M 481.46 638.84 A 37.08 37.08 0 0 1 500.00 670.96" fill="none" stroke="#b8bec7" stroke-width="2"/>
<path d="M 574.17 670.96 A 37.08 37.08 0 0 1 555.62 703.07" fill="none" stroke="#b8bec7" stroke-width="2"/>
<path d="M 555.62 703.07 A 37.08 37.08 0 0 1 518.54 703.07" fill="none" stroke="#b8bec7" stroke-width="2"/>
<path d="M 518.54 703.07 A 37.08 37.08 0 0 1 500.00 670.96" fill="none" stroke="#b8bec7" stroke-width="2"/>
<path d="M 500.00 670.96 A 37.08 37.08 0 0 1 518.54 638.84" fill="none" stroke="#b8bec7" stroke-width="2"/>
<path d="M 518.54 638.84 A 37.08 37.08 0 0 1 555.62 638.84" fill="none" stroke="#b8bec7" stroke-width="2"/>
<path d="M 555.62 638.84 A 37.08 37.08 0 0 1 574.17 670.96" fill="none" stroke="#b8bec7" stroke-width="2"/>
<path d="M 648.33 670.96 A 37.08 37.08 0 0 1 629.79 703.07" fill="none" stroke="#b8bec7" stroke-width="2"/>
<path d="M 629.79 703.07 A 37.08 37.08 0 0 1 592.71 703.07" fill="none" stroke="#b8bec7" stroke-width="2"/>
<path d="M 592.71 703.07 A 37.08 37.08 0 0 1 574.17 670.96" fill="none" stroke="#b8bec7" stroke-width="2"/>
<path d="M 574.17 670.96 A 37.08 37.08 0 0 1 592.71 638.84" fill="none" stroke="#b8bec7" stroke-width="2"/>
<path d="M 592.71 638.84 A 37.08 37.08 0 0 1 629.79 638.84" fill="none" stroke="#b8bec7" stroke-width="2"/>
<path d="M 629.79 638.84 A 37.08 37.08 0 0 1 648.33 670.96" fill="none" stroke="#b8bec7" stroke-width="2"/>
<path d="M 722.50 670.96 A 37.08 37.08 0 0 1 703.96 703.07" fill="none" stroke="#b8bec7" stroke-width="2"/>
<path d="M 703.96 703.07 A 37.08 37.08 0 0 1 666.88 703.07" fill="none" stroke="#b8bec7" stroke-width="2"/>
<path d="M 666.88 703.07 A 37.08 37.08 0 0 1 648.33 670.96" fill="none" stroke="#b8bec7" stroke-width="2"/>
<path d="M 648.33 670.96 A 37.08 37.08 0 0 1 666.88 638.84" fill="none" stroke="#b8bec7" stroke-width="2"/>
<path d="M 666.88 638.84 A 37.08 37.08 0 0 1 703.96 638.84" fill="none" stroke="#b8bec7" stroke-width="2"/>
<path d="M 703.96 638.84 A 37.08 37.08 0 0 1 722.50 670.96" fill="none" stroke="#b8bec7" stroke-width="2"/>
<path d="M 796.67 670.96 A 37.08 37.08 0 0 1 778.12 703.07" fill="none" stroke="#b8bec7" stroke-width="2"/>
<path d="M 778.12 703.07 A 37.08 37.08 0 0 1 741.04 703.07" fill="none" stroke="#b8bec7" stroke-width="2"/>
<path d="M 741.04 703.07 A 37.08 37.08 0 0 1 722.50 670.96" fill="none" stroke="#b8bec7" stroke-width="2"/>
<path d="M 722.50 670.96 A 37.08 37.08 0 0 1 741.04 638.84" fill="none" stroke="#b8bec7" stroke-width="2"/>
<path d="M 741.04 638.84 A 37.08 37.08 0 0 1 778.12 638.84" fill="none" stroke="#b8bec7" stroke-width="2"/>
<path d="M 778.12 638.84 A 37.08 37.08 0 0 1 796.67 670.96" fill="none" stroke="#b8bec7" stroke-width="2"/>
<path d="M 870.83 670.96 A 37.08 37.08 0 0 1 852.29 703.07" fill="none" stroke="#b8bec7" stroke-width="2"/>
<path d="M 852.29 703.07 A 37.08 37.08 0 0 1 815.21 703.07" fill="none" stroke="#b8bec7" stroke-width="2"/>
<path d="M 815.21 703.07 A 37.08 37.08 0 0 1 796.67 670.96" fill="none" stroke="#b8bec7" stroke-width="2"/>
<path d="M 796.67 670.96 A 37.08 37.08 0 0 1 815.21 638.84" fill="none" stroke="#b8bec7" stroke-width="2"/>
<path d="M 815.21 638.84 A 37.08 37.08 0 0 1 852.29 638.84" fill="none" stroke="#b8bec7" stroke-width="2"/>
<path d="M 852.29 638.84 A 37.08 37.08 0 0 1 870.83 670.96" fill="none" stroke="#b8bec7" stroke-width="2"/>
<path d="M 166.25 735.19 A 37.08 37.08 0 0 1 147.71 767.30" fill="none" stroke="#b8bec7" stroke-width="2"/>
<path d="M 147.71 767.30 A 37.08 37.08 0 0 1 110.63 767.30" fill="none" stroke="#b8bec7" stroke-width="2"/>
<path d="M 110.63 767.30 A 37.08 37.08 0 0 1 92.08 735.19" fill="none" stroke="#b8bec7" stroke-width="2"/>
<path d="M 92.08 735.19 A 37.08 37.08 0 0 1 110.62 703.07" fill="none" stroke="#b8bec7" stroke-width="2"/>
<path d="M 110.62 703.07 A 37.08 37.08 0 0 1 147.71 703.07" fill="none" stroke="#b8bec7" stroke-width="2"/>
<path d="M 147.71 703.07 A 37.08 37.08 0 0 1 166.25 735.19" fill="none" stroke="#b8bec7" stroke-width="2"/>
<path d="M 240.42 735.19 A 37.08 37.08 0 0 1 221.88 767.30" fill="none" stroke="#b8bec7" stroke-width="2"/>
<path d="M 221.88 767.30 A 37.08 37.08 0 0 1 184.79 767.30" fill="none" stroke="#b8bec7" stroke-width="2"/>
<path d="M 184.79 767.30 A 37.08 37.08 0 0 1 166.25 735.19" fill="none" stroke="#b8bec7" stroke-width="2"/>
<path d="M 166.25 735.19 A 37.08 37.08 0 0 1 184.79 703.07" fill="none" stroke="#b8bec7" stroke-width="2"/>
<path d="M 184.79 703.07 A 37.08 37.08 0 0 1 221.88 703.07" fill="none" stroke="#b8bec7" stroke-width="2"/>
<path d="M 221.88 703.07 A 37.08 37.08 0 0 1 240.42 735.19" fill="none" stroke="#b8bec7" stroke-width="2"/>
<path d="M 314.58 735.19 A 37.08 37.08 0 0 1 296.04 767.30" fill="none" stroke="#b8bec7" stroke-width="2"/>
<path d="M 296.04 767.30 A 37.08 37.08 0 0 1 258.96 767.30" fill="none" stroke="#b8bec7" stroke-width="2"/>
<path d="M 258.96 767.30 A 37.08 37.08 0 0 1 240.42 735.19" fill="none" stroke="#b8bec7" stroke-width="2"/>
<path d="M 240.42 735.19 A 37.08 37.08 0 0 1 258.96 703.07" fill="none" stroke="#b8bec7" stroke-width="2"/>
<path d="M 258.96 703.07 A 37.08 37.08 0 0 1 296.04 703.07" fill="none" stroke="#b8bec7" stroke-width="2"/>
<path d="M 296.04 703.07 A 37.08 37.08 0 0 1 314.58 735.19" fill="none" stroke="#b8bec7" stroke-width="2"/>
<path d="M 388.75 735.19 A 37.08 37.08 0 0 1 370.21 767.30" fill="none" stroke="#b8bec7" stroke-width="2"/>
<path d="M 370.21 767.30 A 37.08 37.08 0 0 1 333.12 767.30" fill="none" stroke="#b8bec7" stroke-width="2"/>
<path d="M 333.12 767.30 A 37.08 37.08 0 0 1 314.58 735.19" fill="none" stroke="#b8bec7" stroke-width="2"/>
<path d="M 314.58 735.19 A 37.08 37.08 0 0 1 333.12 703.07" fill="none" stroke="#b8bec7" stroke-width="2"/>
<path d="M 333.12 703.07 A 37.08 37.08 0 0 1 370.21 703.07" fill="none" stroke="#b8bec7" stroke-width="2"/>
<path d="M 370.21 703.07 A 37.08 37.08 0 0 1 388.75 735.19" fill="none" stroke="#b8bec7" stroke-width="2"/>
<path d="M 462.92 735.19 A 37.08 37.08 0 0 1 444.38 767.30" fill="none" stroke="#b8bec7" stroke-width="2"/>
<path d="M 444.38 767.30 A 37.08 37.08 0 0 1 407.29 767.30" fill="none" stroke="#b8bec7" stroke-width="2"/>
<path d="M 407.29 767.30 A 37.08 37.08 0 0 1 388.75 735.19" fill="none" stroke="#b8bec7" stroke-width="2"/>
<path d="M 388.75 735.19 A 37.08 37.08 0 0 1 407.29 703.07" fill="none" stroke="#b8bec7" stroke-width="2"/>
<path d="M 407.29 703.07 A 37.08 37.08 0 0 1 444.38 703.07" fill="none" stroke="#b8bec7" stroke-width="2"/>
<path d="M 444.38 703.07 A 37.08 37.08 0 0 1 462.92 735.19" fill="none" stroke="#b8bec7" stroke-width="2"/>
<path d="M 537.08 735.19 A 37.08 37.08 0 0 1 518.54 767.30" fill="none" stroke="#b8bec7" stroke-width="2"/>
<path d="M 518.54 767.30 A 37.08 37.08 0 0 1 481.46 767.30" fill="none" stroke="#b8bec7" stroke-width="2"/>
<path d="M 481.46 767.30 A 37.08 37.08 0 0 1 462.92 735.19" fill="none" stroke="#b8bec7" stroke-width="2"/>
<path d="M 462.92 735.19 A 37.08 37.08 0 0 1 481.46 703.07" fill="none" stroke="#b8bec7" stroke-width="2"/>
<path d="M 481.46 703.07 A 37.08 37.08 0 0 1 518.54 703.07" fill="none" stroke="#b8bec7" stroke-width="2"/>
<path d="M 518.54 703.07 A 37.08 37.08 0 0 1 537.08 735.19" fill="none" stroke="#b8bec7" stroke-width="2"/>
<path d="M 611.25 735.19 A 37.08 37.08 0 0 1 592.71 767.30" fill="none" stroke="#b8bec7" stroke-width="2"/>
<path d="M 592.71 767.30 A 37.08 37.08 0 0 1 555.62 767.30" fill="none" stroke="#b8bec7" stroke-width="2"/>
<path d="M 555.62 767.30 A 37.08 37.08 0 0 1 537.08 735.19" fill="none" stroke="#b8bec7" stroke-width="2"/>
<path d="M 537.08 735.19 A 37.08 37.08 0 0 1 555.62 703.07" fill="none" stroke="#b8bec7" stroke-width="2"/>
<path d="M 555.62 703.07 A 37.08 37.08 0 0 1 592.71 703.07" fill="none" stroke="#b8bec7" stroke-width="2"/>
<path d="M 592.71 703.07 A 37.08 37.08 0 0 1 611.25 735.19" fill="none" stroke="#b8bec7" stroke-width="2"/>
<path d="M 685.42 735.19 A 37.08 37.08 0 0 1 666.88 767.30" fill="none" stroke="#b8bec7" stroke-width="2"/>
<path d="M 666.88 767.30 A 37.08 37.08 0 0 1 629.79 767.30" fill="none" stroke="#b8bec7" stroke-width="2"/>
<path d="M 629.79 767.30 A 37.08 37.08 0 0 1 611.25 735.19" fill="none" stroke="#b8bec7" stroke-width="2"/>
<path d="M 611.25 735.19 A 37.08 37.08 0 0 1 629.79 703.07" fill="none" stroke="#b8bec7" stroke-width="2"/>
<path d="M 629.79 703.07 A 37.08 37.08 0 0 1 666.88 703.07" fill="none" stroke="#b8bec7" stroke-width="2"/>
<path d="M 666.88 703.07 A 37.08 37.08 0 0 1 685.42 735.19" fill="none" stroke="#b8bec7" stroke-width="2"/>
<path d="M 759.58 735.19 A 37.08 37.08 0 0 1 741.04 767.30" fill="none" stroke="#b8bec7" stroke-width="2"/>
<path d="M 741.04 767.30 A 37.08 37.08 0 0 1 703.96 767.30" fill="none" stroke="#b8bec7" stroke-width="2"/>
<path d="M 703.96 767.30 A 37.08 37.08 0 0 1 685.42 735.19" fill="none" stroke="#b8bec7" stroke-width="2"/>
<path d="M 685.42 735.19 A 37.08 37.08 0 0 1 703.96 703.07" fill="none" stroke="#b8bec7" stroke-width="2"/>
<path d="M 703.96 703.07 A 37.08 37.08 0 0 1 741.04 703.07" fill="none" stroke="#b8bec7" stroke-width="2"/>
<path d="M 741.04 703.07 A 37.08 37.08 0 0 1 759.58 735.19" fill="none" stroke="#b8bec7" stroke-width="2"/>
<path d="M 833.75 735.19 A 37.08 37.08 0 0 1 815.21 767.30" fill="none" stroke="#b8bec7" stroke-width="2"/>
<path d="M 815.21 767.30 A 37.08 37.08 0 0 1 778.12 767.30" fill="none" stroke="#b8bec7" stroke-width="2"/>
<path d="M 778.12 767.30 A 37.08 37.08 0 0 1 759.58 735.19" fill="none" stroke="#b8bec7" stroke-width="2"/>
<path d="M 759.58 735.19 A 37.08 37.08 0 0 1 778.12 703.07" fill="none" stroke="#b8bec7" stroke-width="2"/>
<path d="M 778.12 703.07 A 37.08 37.08 0 0 1 815.21 703.07" fill="none" stroke="#b8bec7" stroke-width="2"/>
<path d="M 815.21 703.07 A 37.08 37.08 0 0 1 833.75 735.19" fill="none" stroke="#b8bec7" stroke-width="2"/>
<path d="M 907.92 735.19 A 37.08 37.08 0 0 1 889.38 767.30" fill="none" stroke="#b8bec7" stroke-width="2"/>
<path d="M 889.38 767.30 A 37.08 37.08 0 0 1 852.29 767.30" fill="none" stroke="#b8bec7" stroke-width="2"/>
<path d="M 852.29 767.30 A 37.08 37.08 0 0 1 833.75 735.19" fill="none" stroke="#b8bec7" stroke-width="2"/>
<path d="M 833.75 735.19 A 37.08 37.08 0 0 1 852.29 703.07" fill="none" stroke="#b8bec7" stroke-width="2"/>
<path d="M 852.29 703.07 A 37.08 37.08 0 0 1 889.38 703.07" fill="none" stroke="#b8bec7" stroke-width="2"/>
<path d="M 889.38 703.07 A 37.08 37.08 0 0 1 907.92 735.19" fill="none" stroke="#b8bec7" stroke-width="2"/>
<path d="M 129.17 799.42 A 37.08 37.08 0 0 1 110.62 831.53" fill="none" stroke="#b8bec7" stroke-width="2"/>
<path d="M 110.62 831.53 A 37.08 37.08 0 0 1 73.54 831.53" fill="none" stroke="#b8bec7" stroke-width="2"/>
<path d="M 73.54 831.53 A 37.08 37.08 0 0 1 55.00 799.42" fill="none" stroke="#b8bec7" stroke-width="2"/>
<path d="M 55.00 799.42 A 37.08 37.08 0 0 1 73.54 767.30" fill="none" stroke="#b8bec7" stroke-width="2"/>
<path d="M 73.54 767.30 A 37.08 37.08 0 0 1 110.63 767.30" fill="none" stroke="#b8bec7" stroke-width="2"/>
<path d="M 110.63 767.30 A 37.08 37.08 0 0 1 129.17 799.42" fill="none" stroke="#b8bec7" stroke-width="2"/>
<path d="M 203.33 799.42 A 37.08 37.08 0 0 1 184.79 831.53" fill="none" stroke="#b8bec7" stroke-width="2"/>
<path d="M 184.79 831.53 A 37.08 37.08 0 0 1 147.71 831.53" fill="none" stroke="#b8bec7" stroke-width="2"/>
<path d="M 147.71 831.53 A 37.08 37.08 0 0 1 129.17 799.42" fill="none" stroke="#b8bec7" stroke-width="2"/>
<path d="M 129.17 799.42 A 37.08 37.08 0 0 1 147.71 767.30" fill="none" stroke="#b8bec7" stroke-width="2"/>
<path d="M 147.71 767.30 A 37.08 37.08 0 0 1 184.79 767.30" fill="none" stroke="#b8bec7" stroke-width="2"/>
<path d="M 184.79 767.30 A 37.08 37.08 0 0 1 203.33 799.42" fill="none" stroke="#b8bec7" stroke-width="2"/>
<path d="M 277.50 799.42 A 37.08 37.08 0 0 1 258.96 831.53" fill="none" stroke="#b8bec7" stroke-width="2"/>
<path d="M 258.96 831.53 A 37.08 37.08 0 0 1 221.88 831.53" fill="none" stroke="#b8bec7" stroke-width="2"/>
<path d="M 221.88 831.53 A 37.08 37.08 0 0 1 203.33 799.42" fill="none" stroke="#b8bec7" stroke-width="2"/>
<path d="M 203.33 799.42 A 37.08 37.08 0 0 1 221.88 767.30" fill="none" stroke="#b8bec7" stroke-width="2"/>
<path d="M 221.88 767.30 A 37.08 37.08 0 0 1 258.96 767.30" fill="none" stroke="#b8bec7" stroke-width="2"/>
<path d="M 258.96 767.30 A 37.08 37.08 0 0 1 277.50 799.42" fill="none" stroke="#b8bec7" stroke-width="2"/>
<path d="M 351.67 799.42 A 37.08 37.08 0 0 1 333.12 831.53" fill="none" stroke="#b8bec7" stroke-width="2"/>
<path d="M 333.12 831.53 A 37.08 37.08 0 0 1 296.04 831.53" fill="none" stroke="#b8bec7" stroke-width="2"/>
<path d="M 296.04 831.53 A 37.08 37.08 0 0 1 277.50 799.42" fill="none" stroke="#b8bec7" stroke-width="2"/>
<path d="M 277.50 799.42 A 37.08 37.08 0 0 1 296.04 767.30" fill="none" stroke="#b8bec7" stroke-width="2"/>
<path d="M 296.04 767.30 A 37.08 37.08 0 0 1 333.12 767.30" fill="none" stroke="#b8bec7" stroke-width="2"/>
<path d="M 333.12 767.30 A 37.08 37.08 0 0 1 351.67 799.42" fill="none" stroke="#b8bec7" stroke-width="2"/>
<path d="M 425.83 799.42 A 37.08 37.08 0 0 1 407.29 831.53" fill="none" stroke="#b8bec7" stroke-width="2"/>
<path d="M 407.29 831.53 A 37.08 37.08 0 0 1 370.21 831.53" fill="none" stroke="#b8bec7" stroke-width="2"/>
<path d="M 370.21 831.53 A 37.08 37.08 0 0 1 351.67 799.42" fill="none" stroke="#b8bec7" stroke-width="2"/>
<path d="M 351.67 799.42 A 37.08 37.08 0 0 1 370.21 767.30" fill="none" stroke="#b8bec7" stroke-width="2"/>
<path d="M 370.21 767.30 A 37.08 37.08 0 0 1 407.29 767.30" fill="none" stroke="#b8bec7" stroke-width="2"/>
<path d="M 407.29 767.30 A 37.08 37.08 0 0 1 425.83 799.42" fill="none" stroke="#b8bec7" stroke-width="2"/>
<path d="M 500.00 799.42 A 37.08 37.08 0 0 1 481.46 831.53" fill="none" stroke="#b8bec7" stroke-width="2"/>
<path d="M 481.46 831.53 A 37.08 37.08 0 0 1 444.38 831.53" fill="none" stroke="#b8bec7" stroke-width="2"/>
<path d="M 444.38 831.53 A 37.08 37.08 0 0 1 425.83 799.42" fill="none" stroke="#b8bec7" stroke-width="2"/>
<path d="M 425.83 799.42 A 37.08 37.08 0 0 1 444.38 767.30" fill="none" stroke="#b8bec7" stroke-width="2"/>
<path d="M 444.38 767.30 A 37.08 37.08 0 0 1 481.46 767.30" fill="none" stroke="#b8bec7" stroke-width="2"/>
<path d="M 481.46 767.30 A 37.08 37.08 0 0 1 500.00 799.42" fill="none" stroke="#b8bec7" stroke-width="2"/>
<path d="M 574.17 799.42 A 37.08 37.08 0 0 1 555.62 831.53" fill="none" stroke="#b8bec7" stroke-width="2"/>
<path d="M 555.62 831.53 A 37.08 37.08 0 0 1 518.54 831.53" fill="none" stroke="#b8bec7" stroke-width="2"/>
<path d="M 518.54 831.53 A 37.08 37.08 0 0 1 500.00 799.42" fill="none" stroke="#b8bec7" stroke-width="2"/>
<path d="M 500.00 799.42 A 37.08 37.08 0 0 1 518.54 767.30" fill="none" stroke="#b8bec7" stroke-width="2"/>
<path d="M 518.54 767.30 A 37.08 37.08 0 0 1 555.62 767.30" fill="none" stroke="#b8bec7" stroke-width="2"/>
<path d="M 555.62 767.30 A 37.08 37.08 0 0 1 574.17 799.42" fill="none" stroke="#b8bec7" stroke-width="2"/>
<path d="M 648.33 799.42 A 37.08 37.08 0 0 1 629.79 831.53" fill="none" stroke="#b8bec7" stroke-width="2"/>
<path d="M 629.79 831.53 A 37.08 37.08 0 0 1 592.71 831.53" fill="none" stroke="#b8bec7" stroke-width="2"/>
<path d="M 592.71 831.53 A 37.08 37.08 0 0 1 574.17 799.42" fill="none" stroke="#b8bec7" stroke-width="2"/>
<path d="M 574.17 799.42 A 37.08 37.08 0 0 1 592.71 767.30" fill="none" stroke="#b8bec7" stroke-width="2"/>
<path d="M 592.71 767.30 A 37.08 37.08 0 0 1 629.79 767.30" fill="none" stroke="#b8bec7" stroke-width="2"/>
<path d="M 629.79 767.30 A 37.08 37.08 0 0 1 648.33 799.42" fill="none" stroke="#b8bec7" stroke-width="2"/>
<path d="M 722.50 799.42 A 37.08 37.08 0 0 1 703.96 831.53" fill="none" stroke="#b8bec7" stroke-width="2"/>
<path d="M 703.96 831.53 A 37.08 37.08 0 0 1 666.88 831.53" fill="none" stroke="#b8bec7" stroke-width="2"/>
<path d="M 666.88 831.53 A 37.08 37.08 0 0 1 648.33 799.42" fill="none" stroke="#b8bec7" stroke-width="2"/>
<path d="M 648.33 799.42 A 37.08 37.08 0 0 1 666.88 767.30" fill="none" stroke="#b8bec7" stroke-width="2"/>
<path d="M 666.88 767.30 A 37.08 37.08 0 0 1 703.96 767.30" fill="none" stroke="#b8bec7" stroke-width="2"/>
<path d="M 703.96 767.30 A 37.08 37.08 0 0 1 722.50 799.42" fill="none" stroke="#b8bec7" stroke-width="2"/>
<path d="M 796.67 799.42 A 37.08 37.08 0 0 1 778.12 831.53" fill="none" stroke="#b8bec7" stroke-width="2"/>
<path d="M 778.12 831.53 A 37.08 37.08 0 0 1 741.04 831.53" fill="none" stroke="#b8bec7" stroke-width="2"/>
<path d="M 741.04 831.53 A 37.08 37.08 0 0 1 722.50 799.42" fill="none" stroke="#b8bec7" stroke-width="2"/>
<path d="M 722.50 799.42 A 37.08 37.08 0 0 1 741.04 767.30" fill="none" stroke="#b8bec7" stroke-width="2"/>
<path d="M 741.04 767.30 A 37.08 37.08 0 0 1 778.12 767.30" fill="none" stroke="#b8bec7" stroke-width="2"/>
<path d="M 778.12 767.30 A 37.08 37.08 0 0 1 796.67 799.42" fill="none" stroke="#b8bec7" stroke-width="2"/>
<path d="M 870.83 799.42 A 37.08 37.08 0 0 1 852.29 831.53" fill="none" stroke="#b8bec7" stroke-width="2"/>
<path d="M 852.29 831.53 A 37.08 37.08 0 0 1 815.21 831.53" fill="none" stroke="#b8bec7" stroke-width="2"/>
<path d="M 815.21 831.53 A 37.08 37.08 0 0 1 796.67 799.42" fill="none" stroke="#b8bec7" stroke-width="2"/>
<path d="M 796.67 799.42 A 37.08 37.08 0 0 1 815.21 767.30" fill="none" stroke="#b8bec7" stroke-width="2"/>
<path d="M 815.21 767.30 A 37.08 37.08 0 0 1 852.29 767.30" fill="none" stroke="#b8bec7" stroke-width="2"/>
<path d="M 852.29 767.30 A 37.08 37.08 0 0 1 870.83 799.42" fill="none" stroke="#b8bec7" stroke-width="2"/>
<path d="M 945.00 799.42 A 37.08 37.08 0 0 1 926.46 831.53" fill="none" stroke="#b8bec7" stroke-width="2"/>
<path d="M 926.46 831.53 A 37.08 37.08 0 0 1 889.38 831.53" fill="none" stroke="#b8bec7" stroke-width="2"/>
<path d="M 889.38 831.53 A 37.08 37.08 0 0 1 870.83 799.42" fill="none" stroke="#b8bec7" stroke-width="2"/>
<path d="M 870.83 799.42 A 37.08 37.08 0 0 1 889.38 767.30" fill="none" stroke="#b8bec7" stroke-width="2"/>
<path d="M 889.38 767.30 A 37.08 37.08 0 0 1 926.46 767.30" fill="none" stroke="#b8bec7" stroke-width="2"/>
<path d="M 926.46 767.30 A 37.08 37.08 0 0 1 945.00 799.42" fill="none" stroke="#b8bec7" stroke-width="2"/>
<path d="M 166.25 863.65 A 37.08 37.08 0 0 1 147.71 895.76" fill="none" stroke="#b8bec7" stroke-width="2"/>
<path d="M 147.71 895.76 A 37.08 37.08 0 0 1 110.63 895.76" fill="none" stroke="#b8bec7" stroke-width="2"/>
<path d="M 110.63 895.76 A 37.08 37.08 0 0 1 92.08 863.65" fill="none" stroke="#b8bec7" stroke-width="2"/>
<path d="M 92.08 863.65 A 37.08 37.08 0 0 1 110.62 831.53" fill="none" stroke="#b8bec7" stroke-width="2"/>
<path d="M 110.62 831.53 A 37.08 37.08 0 0 1 147.71 831.53" fill="none" stroke="#b8bec7" stroke-width="2"/>
<path d="M 147.71 831.53 A 37.08 37.08 0 0 1 166.25 863.65" fill="none" stroke="#b8bec7" stroke-width="2"/>
<path d="M 240.42 863.65 A 37.08 37.08 0 0 1 221.88 895.76" fill="none" stroke="#b8bec7" stroke-width="2"/>
<path d="M 221.88 895.76 A 37.08 37.08 0 0 1 184.79 895.76" fill="none" stroke="#b8bec7" stroke-width="2"/>
<path d="M 184.79 895.76 A 37.08 37.08 0 0 1 166.25 863.65" fill="none" stroke="#b8bec7" stroke-width="2"/>
<path d="M 166.25 863.65 A 37.08 37.08 0 0 1 184.79 831.53" fill="none" stroke="#b8bec7" stroke-width="2"/>
<path d="M 184.79 831.53 A 37.08 37.08 0 0 1 221.88 831.53" fill="none" stroke="#b8bec7" stroke-width="2"/>
<path d="M 221.88 831.53 A 37.08 37.08 0 0 1 240.42 863.65" fill="none" stroke="#b8bec7" stroke-width="2"/>
<path d="M 314.58 863.65 A 37.08 37.08 0 0 1 296.04 895.76" fill="none" stroke="#b8bec7" stroke-width="2"/>
<path d="M 296.04 895.76 A 37.08 37.08 0 0 1 258.96 895.76" fill="none" stroke="#b8bec7" stroke-width="2"/>
<path d="M 258.96 895.76 A 37.08 37.08 0 0 1 240.42 863.65" fill="none" stroke="#b8bec7" stroke-width="2"/>
<path d="M 240.42 863.65 A 37.08 37.08 0 0 1 258.96 831.53" fill="none" stroke="#b8bec7" stroke-width="2"/>
<path d="M 258.96 831.53 A 37.08 37.08 0 0 1 296.04 831.53" fill="none" stroke="#b8bec7" stroke-width="2"/>
<path d="M 296.04 831.53 A 37.08 37.08 0 0 1 314.58 863.65" fill="none" stroke="#b8bec7" stroke-width="2"/>
<path d="M 388.75 863.65 A 37.08 37.08 0 0 1 370.21 895.76" fill="none" stroke="#b8bec7" stroke-width="2"/>
<path d="M 370.21 895.76 A 37.08 37.08 0 0 1 333.12 895.76" fill="none" stroke="#b8bec7" stroke-width="2"/>
<path d="M 333.12 895.76 A 37.08 37.08 0 0 1 314.58 863.65" fill="none" stroke="#b8bec7" stroke-width="2"/>
<path d="M 314.58 863.65 A 37.08 37.08 0 0 1 333.12 831.53" fill="none" stroke="#b8bec7" stroke-width="2"/>
<path d="M 333.12 831.53 A 37.08 37.08 0 0 1 370.21 831.53" fill="none" stroke="#b8bec7" stroke-width="2"/>
<path d="M 370.21 831.53 A 37.08 37.08 0 0 1 388.75 863.65" fill="none" stroke="#b8bec7" stroke-width="2"/>
<path d="M 462.92 863.65 A 37.08 37.08 0 0 1 444.38 895.76" fill="none" stroke="#b8bec7" stroke-width="2"/>
<path d="M 444.38 895.76 A 37.08 37.08 0 0 1 407.29 895.76" fill="none" stroke="#b8bec7" stroke-width="2"/>
<path d="M 407.29 895.76 A 37.08 37.08 0 0 1 388.75 863.65" fill="none" stroke="#b8bec7" stroke-width="2"/>
<path d="M 388.75 863.65 A 37.08 37.08 0 0 1 407.29 831.53" fill="none" stroke="#b8bec7" stroke-width="2"/>
<path d="M 407.29 831.53 A 37.08 37.08 0 0 1 444.38 831.53" fill="none" stroke="#b8bec7" stroke-width="2"/>
<path d="M 444.38 831.53 A 37.08 37.08 0 0 1 462.92 863.65" fill="none" stroke="#b8bec7" stroke-width="2"/>
<path d="M 537.08 863.65 A 37.08 37.08 0 0 1 518.54 895.76" fill="none" stroke="#b8bec7" stroke-width="2"/>
<path d="M 518.54 895.76 A 37.08 37.08 0 0 1 481.46 895.76" fill="none" stroke="#b8bec7" stroke-width="2"/>
<path d="M 481.46 895.76 A 37.08 37.08 0 0 1 462.92 863.65" fill="none" stroke="#b8bec7" stroke-width="2"/>
<path d="M 462.92 863.65 A 37.08 37.08 0 0 1 481.46 831.53" fill="none" stroke="#b8bec7" stroke-width="2"/>
<path d="M 481.46 831.53 A 37.08 37.08 0 0 1 518.54 831.53" fill="none" stroke="#b8bec7" stroke-width="2"/>
<path d="M 518.54 831.53 A 37.08 37.08 0 0 1 537.08 863.65" fill="none" stroke="#b8bec7" stroke-width="2"/>
<path d="M 611.25 863.65 A 37.08 37.08 0 0 1 592.71 895.76" fill="none" stroke="#b8bec7" stroke-width="2"/>
<path d="M 592.71 895.76 A 37.08 37.08 0 0 1 555.62 895.76" fill="none" stroke="#b8bec7" stroke-width="2"/>
<path d="M 555.62 895.76 A 37.08 37.08 0 0 1 537.08 863.65" fill="none" stroke="#b8bec7" stroke-width="2"/>
<path d="M 537.08 863.65 A 37.08 37.08 0 0 1 555.62 831.53" fill="none" stroke="#b8bec7" stroke-width="2"/>
<path d="M 555.62 831.53 A 37.08 37.08 0 0 1 592.71 831.53" fill="none" stroke="#b8bec7" stroke-width="2"/>
<path d="M 592.71 831.53 A 37.08 37.08 0 0 1 611.25 863.65" fill="none" stroke="#b8bec7" stroke-width="2"/>
<path d="M 685.42 863.65 A 37.08 37.08 0 0 1 666.88 895.76" fill="none" stroke="#b8bec7" stroke-width="2"/>
<path d="M 666.88 895.76 A 37.08 37.08 0 0 1 629.79 895.76" fill="none" stroke="#b8bec7" stroke-width="2"/>
<path d="M 629.79 895.76 A 37.08 37.08 0 0 1 611.25 863.65" fill="none" stroke="#b8bec7" stroke-width="2"/>
<path d="M 611.25 863.65 A 37.08 37.08 0 0 1 629.79 831.53" fill="none" stroke="#b8bec7" stroke-width="2"/>
<path d="M 629.79 831.53 A 37.08 37.08 0 0 1 666.88 831.53" fill="none" stroke="#b8bec7" stroke-width="2"/>
<path d="M 666.88 831.53 A 37.08 37.08 0 0 1 685.42 863.65" fill="none" stroke="#b8bec7" stroke-width="2"/>
<path d="M 759.58 863.65 A 37.08 37.08 0 0 1 741.04 895.76" fill="none" stroke="#b8bec7" stroke-width="2"/>
<path d="M 741.04 895.76 A 37.08 37.08 0 0 1 703.96 895.76" fill="none" stroke="#b8bec7" stroke-width="2"/>
<path d="M 703.96 895.76 A 37.08 37.08 0 0 1 685.42 863.65" fill="none" stroke="#b8bec7" stroke-width="2"/>
<path d="M 685.42 863.65 A 37.08 37.08 0 0 1 703.96 831.53" fill="none" stroke="#b8bec7" stroke-width="2"/>
<path d="M 703.96 831.53 A 37.08 37.08 0 0 1 741.04 831.53" fill="none" stroke="#b8bec7" stroke-width="2"/>
<path d="M 741.04 831.53 A 37.08 37.08 0 0 1 759.58 863.65" fill="none" stroke="#b8bec7" stroke-width="2"/>
<path d="M 833.75 863.65 A 37.08 37.08 0 0 1 815.21 895.76" fill="none" stroke="#b8bec7" stroke-width="2"/>
<path d="M 815.21 895.76 A 37.08 37.08 0 0 1 778.12 895.76" fill="none" stroke="#b8bec7" stroke-width="2"/>
<path d="M 778.12 895.76 A 37.08 37.08 0 0 1 759.58 863.65" fill="none" stroke="#b8bec7" stroke-width="2"/>
<path d="M 759.58 863.65 A 37.08 37.08 0 0 1 778.12 831.53" fill="none" stroke="#b8bec7" stroke-width="2"/>
<path d="M 778.12 831.53 A 37.08 37.08 0 0 1 815.21 831.53" fill="none" stroke="#b8bec7" stroke-width="2"/>
<path d="M 815.21 831.53 A 37.08 37.08 0 0 1 833.75 863.65" fill="none" stroke="#b8bec7" stroke-width="2"/>
<path d="M 907.92 863.65 A 37.08 37.08 0 0 1 889.38 895.76" fill="none" stroke="#b8bec7" stroke-width="2"/>
<path d="M 889.38 895.76 A 37.08 37.08 0 0 1 852.29 895.76" fill="none" stroke="#b8bec7" stroke-width="2"/>
<path d="M 852.29 895.76 A 37.08 37.08 0 0 1 833.75 863.65" fill="none" stroke="#b8bec7" stroke-width="2"/>
<path d="M 833.75 863.65 A 37.08 37.08 0 0 1 852.29 831.53" fill="none" stroke="#b8bec7" stroke-width="2"/>
<path d="M 852.29 831.53 A 37.08 37.08 0 0 1 889.38 831.53" fill="none" stroke="#b8bec7" stroke-width="2"/>
<path d="M 889.38 831.53 A 37.08 37.08 0 0 1 907.92 863.65" fill="none" stroke="#b8bec7" stroke-width="2"/>
<text x="314.58" y="163.86" text-anchor="middle" font-size="19.3" font-weight="600" font-family="sans-serif">0</text>
<text x="388.75" y="163.86" text-anchor="middle" font-size="19.3" font-weight="600" font-family="sans-serif">5</text>
<text x="537.08" y="163.86" text-anchor="middle" font-size="19.3" font-weight="600" font-family="sans-serif">π</text>
<text x="611.25" y="163.86" text-anchor="middle" font-size="19.3" font-weight="600" font-family="sans-serif">3</text>
<text x="685.42" y="163.86" text-anchor="middle" font-size="19.3" font-weight="600" font-family="sans-serif">π</text>
<text x="833.75" y="163.86" text-anchor="middle" font-size="19.3" font-weight="600" font-family="sans-serif">0</text>
<text x="907.92" y="806.17" text-anchor="middle" font-size="19.3" font-weight="600" font-family="sans-serif">4</text>
<text x="537.08" y="806.17" text-anchor="middle" font-size="19.3" font-weight="600" font-family="sans-serif">π</text>
<text x="685.42" y="806.17" text-anchor="middle" font-size="19.3" font-weight="600" font-family="sans-serif">3</text>
<text x="870.83" y="870.40" text-anchor="middle" font-size="19.3" font-weight="600" font-family="sans-serif">π</text>
<text x="574.17" y="870.40" text-anchor="middle" font-size="19.3" font-weight="600" font-family="sans-serif">0</text>
<text x="648.33" y="870.40" text-anchor="middle" font-size="19.3" font-weight="600" font-family="sans-serif">1</text>
<text x="796.67" y="870.40" text-anchor="middle" font-size="19.3" font-weight="600" font-family="sans-serif">π</text>
<text x="500.00" y="228.09" text-anchor="middle" font-size="19.3" font-weight="600" font-family="sans-serif">3</text>
<text x="648.33" y="228.09" text-anchor="middle" font-size="19.3" font-weight="600" font-family="sans-serif">2</text>
<text x="796.67" y="228.09" text-anchor="middle" font-size="19.3" font-weight="600" font-family="sans-serif">π</text>
<text x="240.42" y="292.32" text-anchor="middle" font-size="19.3" font-weight="600" font-family="sans-serif">0</text>
<text x="388.75" y="292.32" text-anchor="middle" font-size="19.3" font-weight="600" font-family="sans-serif">2</text>
<text x="129.17" y="356.55" text-anchor="middle" font-size="19.3" font-weight="600" font-family="sans-serif">0</text>
<text x="203.33" y="356.55" text-anchor="middle" font-size="19.3" font-weight="600" font-family="sans-serif">0</text>
<text x="425.83" y="356.55" text-anchor="middle" font-size="19.3" font-weight="600" font-family="sans-serif">4</text>
<text x="574.17" y="356.55" text-anchor="middle" font-size="19.3" font-weight="600" font-family="sans-serif">1</text>
<text x="796.67" y="356.55" text-anchor="middle" font-size="19.3" font-weight="600" font-family="sans-serif">2</text>
<text x="240.42" y="420.79" text-anchor="middle" font-size="19.3" font-weight="600" font-family="sans-serif">0</text>
<text x="314.58" y="420.79" text-anchor="middle" font-size="19.3" font-weight="600" font-family="sans-serif">1</text>
<text x="388.75" y="420.79" text-anchor="middle" font-size="19.3" font-weight="600" font-family="sans-serif">3</text>
<text x="685.42" y="420.79" text-anchor="middle" font-size="19.3" font-weight="600" font-family="sans-serif">3</text>
<text x="833.75" y="420.79" text-anchor="middle" font-size="19.3" font-weight="600" font-family="sans-serif">1</text>
<text x="203.33" y="485.02" text-anchor="middle" font-size="19.3" font-weight="600" font-family="sans-serif">1</text>
<text x="425.83" y="485.02" text-anchor="middle" font-size="19.3" font-weight="600" font-family="sans-serif">3</text>
<text x="574.17" y="485.02" text-anchor="middle" font-size="19.3" font-weight="600" font-family="sans-serif">3</text>
<text x="796.67" y="485.02" text-anchor="middle" font-size="19.3" font-weight="600" font-family="sans-serif">0</text>
<text x="166.25" y="549.25" text-anchor="middle" font-size="19.3" font-weight="600" font-family="sans-serif">1</text>
<text x="314.58" y="549.25" text-anchor="middle" font-size="19.3" font-weight="600" font-family="sans-serif">0</text>
<text x="388.75" y="549.25" text-anchor="middle" font-size="19.3" font-weight="600" font-family="sans-serif">1</text>
<text x="462.92" y="549.25" text-anchor="middle" font-size="19.3" font-weight="600" font-family="sans-serif">3</text>
<text x="611.25" y="549.25" text-anchor="middle" font-size="19.3" font-weight="600" font-family="sans-serif">2</text>
<text x="759.58" y="549.25" text-anchor="middle" font-size="19.3" font-weight="600" font-family="sans-serif">2</text>
<text x="870.83" y="613.48" text-anchor="middle" font-size="19.3" font-weight="600" font-family="sans-serif">0</text>
<text x="277.50" y="613.48" text-anchor="middle" font-size="19.3" font-weight="600" font-family="sans-serif">2</text>
<text x="425.83" y="613.48" text-anchor="middle" font-size="19.3" font-weight="600" font-family="sans-serif">2</text>
<text x="796.67" y="613.48" text-anchor="middle" font-size="19.3" font-weight="600" font-family="sans-serif">1</text>
<text x="240.42" y="677.71" text-anchor="middle" font-size="19.3" font-weight="600" font-family="sans-serif">3</text>
<text x="314.58" y="677.71" text-anchor="middle" font-size="19.3" font-weight="600" font-family="sans-serif">2</text>
<text x="462.92" y="677.71" text-anchor="middle" font-size="19.3" font-weight="600" font-family="sans-serif">4</text>
<text x="685.42" y="677.71" text-anchor="middle" font-size="19.3" font-weight="600" font-family="sans-serif">1</text>
<text x="759.58" y="677.71" text-anchor="middle" font-size="19.3" font-weight="600" font-family="sans-serif">4</text>
<text x="833.75" y="677.71" text-anchor="middle" font-size="19.3" font-weight="600" font-family="sans-serif">2</text>
<text x="129.17" y="741.94" text-anchor="middle" font-size="19.3" font-weight="600" font-family="sans-serif">0</text>
<text x="870.83" y="741.94" text-anchor="middle" font-size="19.3" font-weight="600" font-family="sans-serif">3</text>
<text x="277.50" y="741.94" text-anchor="middle" font-size="19.3" font-weight="600" font-family="sans-serif">1</text>
<text x="425.83" y="741.94" text-anchor="middle" font-size="19.3" font-weight="600" font-family="sans-serif">0</text>
<text x="574.17" y="741.94" text-anchor="middle" font-size="19.3" font-weight="600" font-family="sans-serif">2</text>
<text x="796.67" y="741.94" text-anchor="middle" font-size="19.3" font-weight="600" font-family="sans-serif">1</text>
<text x="611.25" y="206.68" text-anchor="middle" font-size="19.3" font-weight="600" font-family="sans-serif">1</text>
<text x="574.17" y="827.58" text-anchor="middle" font-size="19.3" font-weight="600" font-family="sans-serif">0</text>
<text x="722.50" y="784.76" text-anchor="middle" font-size="19.3" font-weight="600" font-family="sans-serif">2</text>
<text x="685.42" y="848.99" text-anchor="middle" font-size="19.3" font-weight="600" font-family="sans-serif">1</text>
<text x="685.42" y="763.35" text-anchor="middle" font-size="19.3" font-weight="600" font-family="sans-serif">1</text>
<text x="759.58" y="848.99" text-anchor="middle" font-size="19.3" font-weight="600" font-family="sans-serif">2</text>
<text x="759.58" y="763.35" text-anchor="middle" font-size="19.3" font-weight="600" font-family="sans-serif">1</text>
<text x="240.42" y="249.50" text-anchor="middle" font-size="19.3" font-weight="600" font-family="sans-serif">0</text>
<text x="314.58" y="249.50" text-anchor="middle" font-size="19.3" font-weight="600" font-family="sans-serif">1</text>
<text x="388.75" y="249.50" text-anchor="middle" font-size="19.3" font-weight="600" font-family="sans-serif">0</text>
<text x="500.00" y="270.91" text-anchor="middle" font-size="19.3" font-weight="600" font-family="sans-serif">0</text>
<text x="611.25" y="249.50" text-anchor="middle" font-size="19.3" font-weight="600" font-family="sans-serif">0</text>
<text x="722.50" y="270.91" text-anchor="middle" font-size="19.3" font-weight="600" font-family="sans-serif">2</text>
<text x="870.83" y="313.73" text-anchor="middle" font-size="19.3" font-weight="600" font-family="sans-serif">0</text>
<text x="833.75" y="335.14" text-anchor="middle" font-size="19.3" font-weight="600" font-family="sans-serif">1</text>
<text x="462.92" y="335.14" text-anchor="middle" font-size="19.3" font-weight="600" font-family="sans-serif">2</text>
<text x="611.25" y="335.14" text-anchor="middle" font-size="19.3" font-weight="600" font-family="sans-serif">0</text>
<text x="722.50" y="313.73" text-anchor="middle" font-size="19.3" font-weight="600" font-family="sans-serif">0</text>
<text x="759.58" y="335.14" text-anchor="middle" font-size="19.3" font-weight="600" font-family="sans-serif">0</text>
<text x="351.67" y="399.38" text-anchor="middle" font-size="19.3" font-weight="600" font-family="sans-serif">0</text>
<text x="500.00" y="399.38" text-anchor="middle" font-size="19.3" font-weight="600" font-family="sans-serif">0</text>
<text x="611.25" y="377.97" text-anchor="middle" font-size="19.3" font-weight="600" font-family="sans-serif">1</text>
<text x="648.33" y="399.38" text-anchor="middle" font-size="19.3" font-weight="600" font-family="sans-serif">1</text>
<text x="796.67" y="399.38" text-anchor="middle" font-size="19.3" font-weight="600" font-family="sans-serif">1</text>
<text x="425.83" y="442.20" text-anchor="middle" font-size="19.3" font-weight="600" font-family="sans-serif">1</text>
<text x="500.00" y="442.20" text-anchor="middle" font-size="19.3" font-weight="600" font-family="sans-serif">2</text>
<text x="537.08" y="463.61" text-anchor="middle" font-size="19.3" font-weight="600" font-family="sans-serif">2</text>
<text x="648.33" y="442.20" text-anchor="middle" font-size="19.3" font-weight="600" font-family="sans-serif">1</text>
<text x="796.67" y="442.20" text-anchor="middle" font-size="19.3" font-weight="600" font-family="sans-serif">1</text>
<text x="240.42" y="506.43" text-anchor="middle" font-size="19.3" font-weight="600" font-family="sans-serif">1</text>
<text x="277.50" y="527.84" text-anchor="middle" font-size="19.3" font-weight="600" font-family="sans-serif">1</text>
<text x="388.75" y="506.43" text-anchor="middle" font-size="19.3" font-weight="600" font-family="sans-serif">2</text>
<text x="537.08" y="506.43" text-anchor="middle" font-size="19.3" font-weight="600" font-family="sans-serif">1</text>
<text x="574.17" y="527.84" text-anchor="middle" font-size="19.3" font-weight="600" font-family="sans-serif">0</text>
<text x="685.42" y="506.43" text-anchor="middle" font-size="19.3" font-weight="600" font-family="sans-serif">2</text>
<text x="166.25" y="592.07" text-anchor="middle" font-size="19.3" font-weight="600" font-family="sans-serif">0</text>
<text x="277.50" y="570.66" text-anchor="middle" font-size="19.3" font-weight="600" font-family="sans-serif">0</text>
<text x="240.42" y="592.07" text-anchor="middle" font-size="19.3" font-weight="600" font-family="sans-serif">2</text>
<text x="314.58" y="592.07" text-anchor="middle" font-size="19.3" font-weight="600" font-family="sans-serif">0</text>
<text x="500.00" y="570.66" text-anchor="middle" font-size="19.3" font-weight="600" font-family="sans-serif">1</text>
<text x="685.42" y="592.07" text-anchor="middle" font-size="19.3" font-weight="600" font-family="sans-serif">0</text>
<text x="240.42" y="634.89" text-anchor="middle" font-size="19.3" font-weight="600" font-family="sans-serif">1</text>
<text x="203.33" y="656.30" text-anchor="middle" font-size="19.3" font-weight="600" font-family="sans-serif">2</text>
<text x="351.67" y="656.30" text-anchor="middle" font-size="19.3" font-weight="600" font-family="sans-serif">2</text>
<text x="722.50" y="656.30" text-anchor="middle" font-size="19.3" font-weight="600" font-family="sans-serif">1</text>
<text x="166.25" y="720.53" text-anchor="middle" font-size="19.3" font-weight="600" font-family="sans-serif">0</text>
<text x="425.83" y="699.12" text-anchor="middle" font-size="19.3" font-weight="600" font-family="sans-serif">0</text>
<text x="537.08" y="720.53" text-anchor="middle" font-size="19.3" font-weight="600" font-family="sans-serif">1</text>
<text x="611.25" y="720.53" text-anchor="middle" font-size="19.3" font-weight="600" font-family="sans-serif">0</text>
<text x="685.42" y="720.53" text-anchor="middle" font-size="19.3" font-weight="600" font-family="sans-serif">1</text>
</svg>